<svg xmlns="http://www.w3.org/2000/svg" xmlns:inkscape="http://www.inkscape.org/namespaces/inkscape" width="11in" height="8.5in" viewBox="0.6600007072578795 -7.989993434418496 9.679987093420937 7.47999002673436"><g inkscape:label="0-layer" inkscape:groupmode="layer"><path style="stroke-width: 0.029039961280262813; stroke: black;" fill="none" d="M 2.8139321845456475 -3.8643484098669214 L 1.1356515901330784 -2.8139321845456475 M 1.4109419418609743 -1.6202542719612363 L 3.3797457280387637 -1.4109419418609743 M 1.1258569275139971 -2.2321739065387245 L 2.767826093461275 -1.1258569275139971 M 3.299152328721093 -1.3504976922599703 L 3.64950230774003 -3.299152328721093 M 3.616891123854402 -3.3441292658445443 L 1.6558707341554557 -3.616891123854403 M 1.1186162129082555 -2.272450372973126 L 2.7275496270268746 -1.1186162129082555 M 3.585414739996125 -3.384236869961406 L 1.6157631300385942 -3.585414739996125 M 2.582108754262498 -3.8975901232026007 L 1.1024098767973993 -2.5821087542624985 M 3.865533892430755 -2.191265180740964 L 2.808734819259036 -3.865533892430755 M 3.76112229479275 -1.8920768489548472 L 3.107923151045153 -3.76112229479275 M 3.573416561688222 -1.6012359124367315 L 3.3987640875632685 -3.573416561688222 M 2.6285239271895606 -1.105911910911017 L 3.8940880890889833 -2.6285239271895606 M 2.2861308457662854 -1.1164321538618514 L 3.883567846138148 -2.286130845766285 M 1.291725460804349 -1.7928418579047989 L 3.2071581420952007 -1.2917254608043487 M 3.872695049524131 -2.224848585299031 L 2.775151414700969 -3.872695049524131 M 1.1231244623050474 -2.2465956715104607 L 2.753404328489539 -1.1231244623050471 M 1.124156002188868 -2.241053492614631 L 2.758946507385369 -1.124156002188868 M 1.5450331635966432 -1.4762625622896444 L 3.5237374377103556 -1.5450331635966432 M 2.746611818146563 -3.8781083452147174 L 1.1218916547852829 -2.7466118181465635 M 2.938748382543654 -1.1705264738193064 L 3.829473526180694 -2.9387483825436536 M 1.5411115428114341 -3.520065158051451 L 1.4799348419485492 -1.5411115428114341 M 3.077555342251498 -3.775315579233922 L 1.2246844207660779 -3.077555342251498 M 3.860309842036098 -2.1690058404446906 L 2.8309941595553094 -3.860309842036098 M 3.89998580235001 -2.506305015336913 L 2.493694984663087 -3.89998580235001 M 3.0895909374898327 -3.7697962539044836 L 1.2302037460955164 -3.089590937489833 M 1.1003706021634632 -2.4677889970393214 L 2.5322110029606786 -1.1003706021634632 M 2.9608993754572626 -1.178042449356597 L 3.821957550643403 -2.9608993754572626 M 3.8530071573808775 -2.140317317519849 L 2.859682682480151 -3.8530071573808775 M 2.998523695629983 -1.1917667926186004 L 3.8082332073813996 -2.998523695629983 M 3.8752723714971227 -2.2380345362520475 L 2.7619654637479525 -3.8752723714971227 M 3.759385803280504 -1.8884876137840543 L 3.1115123862159457 -3.759385803280504 M 1.2434519711217558 -3.1173224855148227 L 1.8826775144851773 -1.2434519711217558 M 3.7742328605553745 -1.9200598159457587 L 3.0799401840542417 -3.7742328605553745 M 3.2473834260889705 -1.3161849745811163 L 3.683815025418884 -3.2473834260889705 M 2.678699207157732 -3.8885483763129027 L 1.1114516236870975 -2.6786992071577322 M 3.6310333471653076 -1.674916023910269 L 3.325083976089731 -3.6310333471653076 M 3.6508903392609975 -3.2971520726910932 L 1.7028479273089072 -3.6508903392609975 M 3.1736593520765735 -3.727266506248651 L 1.2727334937513486 -3.1736593520765735 M 3.3044275127046423 -3.645816903699637 L 1.3541830963003632 -3.3044275127046423 M 1.1042287390402128 -2.608731720664787 L 2.391268279335213 -1.1042287390402128 M 3.187371407617547 -3.7196395155905178 L 1.2803604844094825 -3.187371407617547 M 3.0211562390874445 -3.799382997603182 L 1.2006170023968183 -3.021156239087445 M 1.144123511151197 -2.151289594380894 L 2.848710405619107 -1.1441235111511971 M 1.6832655229490758 -3.637077303439108 L 1.362922696560892 -1.6832655229490758 M 3.568430122658924 -1.5953138262386033 L 3.404686173761397 -3.568430122658924 M 3.6068609092643924 -1.6427608691022078 L 3.3572391308977925 -3.6068609092643924 M 3.479762228885731 -1.4999670131196348 L 3.500032986880365 -3.479762228885731 M 2.1020209774858145 -1.1577583311345705 L 3.8422416688654293 -2.1020209774858145 M 3.7207931855434646 -3.185320361678127 L 1.814679638321873 -3.720793185543465 M 3.776420883934917 -3.0751084480815805 L 1.9248915519184195 -3.776420883934917 M 1.834472271461197 -3.7316951094105963 L 1.2683048905894034 -1.8344722714611972 M 2.41655599710863 -1.1024889630555812 L 3.897511036944419 -2.41655599710863 M 2.033483739686833 -1.1800141747490553 L 3.819985825250945 -2.033483739686833 M 3.5946746794469675 -3.3727470115547105 L 1.6272529884452895 -3.5946746794469675 M 1.1115334859984336 -2.3206658440331633 L 2.679334155966837 -1.1115334859984336 M 2.022697041602523 -3.816123811009062 L 1.1838761889909384 -2.0226970416025236 M 2.2799990511512807 -3.882606083635416 L 1.1173939163645839 -2.279999051151281 M 1.407934933417588 -3.3760102113276713 L 1.6239897886723291 -1.4079349334175875 M 3.816045393585755 -2.9775191326237254 L 2.022480867376275 -3.816045393585755 M 1.3058248189138077 -1.7692841613337236 L 3.230715838666276 -1.3058248189138077 M 3.319646538071706 -3.6349799789542843 L 1.3650200210457157 -3.319646538071706 M 1.3429466554795488 -1.71182009798902 L 3.2881799020109796 -1.3429466554795486 M 3.607367460849597 -3.356584675704344 L 1.6434153242956566 -3.6073674608495976 M 3.8198082760922087 -2.032981676635153 L 2.967018323364847 -3.8198082760922087 M 3.263488275213727 -3.673492928658357 L 1.3265070713416434 -3.2634882752137275 M 1.6837952730613104 -1.362542377174895 L 3.6374576228251048 -1.6837952730613104 M 1.4207487953004754 -3.391749312954389 L 1.6082506870456106 -1.420748795300476 M 2.7676116290862214 -1.1258151449030525 L 3.8741848550969475 -2.7676116290862214 M 1.21135560469386 -1.9528294393463106 L 3.047170560653689 -1.21135560469386 M 2.439703337102551 -3.8987009374571215 L 1.1012990625428782 -2.439703337102551 M 3.8459699947913233 -2.885181480761271 L 2.114818519238729 -3.8459699947913233 M 3.8841369273475355 -2.710154624866841 L 2.289845375133159 -3.8841369273475355 M 1.1421278724990385 -2.1591433067167194 L 2.8408566932832806 -1.1421278724990385 M 1.1106449612916385 -2.672315340047504 L 2.327684659952496 -1.1106449612916385 M 2.875495858107153 -3.8487041412201464 L 1.1512958587798536 -2.875495858107153 M 1.1396095018497068 -2.8306625054982755 L 2.169337494501724 -1.139609501849707 M 2.1820193028520998 -3.863410531073211 L 1.136589468926789 -2.1820193028520998 M 2.4316178637427606 -3.8983289610963854 L 1.1016710389036146 -2.4316178637427606 M 3.893672864532495 -2.367049081741457 L 2.632950918258543 -3.893672864532495 M 1.1009175668156879 -2.5506788432688094 L 2.449321156731191 -1.1009175668156879 M 2.140288867608481 -3.852999593951754 L 1.1470004060482462 -2.140288867608481 M 2.622440611304786 -1.105364457392789 L 3.894635542607211 -2.622440611304786 M 2.5797684133646976 -3.8977256527048785 L 1.1022743472951215 -2.5797684133646976 M 3.5533547041145845 -3.422195135163744 L 1.577804864836256 -3.553354704114584 M 3.7978947153597264 -3.024851700808232 L 1.9751482991917682 -3.7978947153597264 M 2.824311440283473 -1.1380814673038409 L 3.8619185326961594 -2.824311440283473 M 2.565650862857141 -3.8984598543419517 L 1.1015401456580485 -2.5656508628571415 M 1.1133145942991365 -2.3073770895863324 L 2.6926229104136667 -1.1133145942991365 M 3.7848942303979447 -3.05591979339656 L 1.9440802066034402 -3.7848942303979447 M 3.884559474337061 -2.2926474933272303 L 2.7073525066727697 -3.884559474337061 M 2.3128182240322306 -1.112569647605491 L 3.8874303523945093 -2.3128182240322306 M 1.2154905255576955 -3.056808234554729 L 1.9431917654452713 -1.2154905255576953 M 2.870869875926336 -1.1500164685706777 L 3.8499835314293223 -2.870869875926336 M 2.0782154122167817 -1.1650476557163023 L 3.834952344283698 -2.0782154122167817 M 3.381482065970446 -3.5876531466292336 L 1.412346853370766 -3.381482065970446 M 3.38223810607874 -1.4129600172106835 L 3.5870399827893165 -3.38223810607874 M 1.132543526730507 -2.199895362059563 L 2.8001046379404375 -1.1325435267305073 M 3.8979800289071993 -2.575178712257037 L 2.424821287742963 -3.8979800289071993 M 1.2617050381019135 -1.8468341808255606 L 3.1531658191744394 -1.2617050381019135 M 3.312090614528396 -3.6403985416488798 L 1.3596014583511205 -3.3120906145283966" /></g><g inkscape:label="1-layer" inkscape:groupmode="layer"><path style="stroke-width: 0.029039961280262813; stroke: red;" fill="none" d="M 6.415624387729472 -1.4409287178876817 L 5.818616153736621 -3.863262170889401 M 6.826435275372117 -2.9478498188550444 L 4.358022792634292 -3.309869160949605 M 4.530219682623212 -3.5097158689594687 L 5.253145271039313 -1.1219351456517928 M 6.011450718878475 -1.1967662672572157 L 6.25371504760046 -3.6797938917542488 M 5.75341625087886 -1.1231266565909186 L 6.464959598961957 -3.514323899142271 M 4.136466188522967 -2.1825483580780918 L 6.5582888385953995 -1.5834713675479632 M 6.239418787906704 -1.311193936720299 L 6.027144849409721 -3.796965037208329 M 5.404162260585747 -3.896715836419121 L 4.426365161865058 -1.6014966698208866 M 4.462315354801833 -3.439792837342333 L 5.349627354376032 -1.1080991172328225 M 5.636263222675746 -3.893352910839899 L 4.292660303250072 -1.791246970622494 M 6.168667875947122 -3.7299931998496434 L 4.111881482192567 -2.317991811942172 M 4.1533819924627835 -2.882909835048015 L 5.981741641434698 -1.1854943929720942 M 4.155449143279993 -2.109893612339538 L 6.605909861768765 -1.641534288604029 M 5.121996960353016 -3.848003598666428 L 4.6316267922264975 -1.401852481666895 M 4.166218683333694 -2.9254731475803095 L 5.93976198067702 -1.1708614066430003 M 6.323383425379695 -1.3677280649905692 L 5.932054603256191 -3.8316639290020342 M 4.365976840591855 -3.32096983740328 L 5.502383538529734 -1.1000020290214427 M 6.833890385998454 -2.92513108348002 L 4.372020631563023 -3.3292542097454314 M 5.290933445839154 -3.884301692526347 L 4.502962642687533 -1.517189485137969 M 4.11268500429817 -2.6880348443795166 L 6.1633199101200535 -1.2671144834826213 M 4.2925300326418725 -1.7914689294546338 L 6.782946716513058 -1.9396003902674765 M 4.119663080317652 -2.733816141790611 L 6.122180452316318 -1.245850294121367 M 5.943031822770761 -3.828052259518584 L 4.165175580910511 -2.077810741251736 M 4.507656866458647 -1.5124499479452558 L 6.882229434017459 -2.2776448972121996 M 5.592069995196014 -1.1030307390695364 L 6.5760544873573 -3.395604120266437 M 6.751022585500046 -3.1284445007864896 L 4.2562450928005235 -3.142708122569819 M 5.404487935120457 -1.1032618550843376 L 6.686125479080706 -3.2437111992403804 M 5.22079470418853 -3.871876234501797 L 4.554241567348875 -1.4677495521583501 M 5.546666347596437 -3.89922201669428 L 4.340575818695201 -1.7153118021750955 M 4.8262450663584975 -1.272785964310327 L 6.888860224262178 -2.6762591202247776 M 6.81551081394754 -2.021010127051645 L 5.1142730916790855 -3.845813788084068 M 5.020185020678059 -1.1847899081826183 L 6.846055484128152 -2.8848826232093723 M 6.703303434502606 -1.7844157320662843 L 5.371635820832218 -3.894102807366294 M 6.899657721851503 -2.469044198258491 L 4.702345602521789 -3.650542247022539 M 4.488593341335045 -1.531983176381634 L 6.877631979181782 -2.2507408378099494 M 5.482449012644366 -1.1001100175932246 L 6.642850997553141 -3.308635639451905 M 5.924925766628607 -1.1660441938148436 L 6.329427818005557 -3.627851716635897 M 4.363709257664484 -3.3178284348704192 L 5.50625783836805 -1.1000139859773745 M 6.120902406125367 -1.2452170697416507 L 6.150183437397197 -3.73986349963791 M 6.899882914464818 -2.518105960054216 L 4.66252143855804 -3.6218866516387047 M 5.948408625843086 -1.173753528084046 L 6.309387957238523 -3.6423183158284953 M 4.179271222066067 -2.0355912413216783 L 6.6520194760551625 -1.7044805930779632 M 4.180513067761264 -2.967925459503123 L 5.897015310523834 -1.1574729636950831 M 5.890472918592978 -3.8444444577019468 L 4.182807362757363 -2.0256546022213477 M 5.454646950664292 -3.8992652003519392 L 4.394628526823838 -1.6408411635277442 M 4.701772703732433 -1.3498551467343904 L 6.899672965008128 -2.530258734695188 M 4.982682231391666 -1.199084043344039 L 6.856534872325044 -2.8461403474980593 M 6.8997222753251 -2.472115381323665 L 4.69982301964946 -3.6487892757669234 M 5.62004783767319 -1.1051564544114665 L 6.5578897843214286 -3.4169892061678597 M 5.885089640511758 -3.845996273683744 L 4.184716128721076 -2.020387304219823 M 4.2119147004877115 -1.9515145752343654 L 6.700851572550416 -1.7803087462646272 M 6.546048477479566 -3.430474385871358 L 4.132378540753995 -2.799351873569929 M 4.130714193485107 -2.7916442697480255 L 6.068900832704635 -1.2208003116995483 M 5.259625940921763 -3.879210031765377 L 4.5254839724492655 -1.4948539847132976 M 6.81159985937413 -2.989597598941991 L 4.332968167801765 -3.273328327837555 M 4.141793952792106 -2.1604763140399346 L 6.57301391605777 -1.6007552413572994 M 5.793915535960374 -1.1311999204700762 L 6.434623308784342 -3.5423431635872173 M 4.1400947000917405 -2.1673476660514357 L 6.568453671183326 -1.5953416376692955 M 5.577465434993317 -1.102144819238668 L 6.585355556659489 -3.3843095134783807 M 4.1067127559218175 -2.363066967137128 L 6.429734844953745 -1.4532941587633914 M 4.112042039548714 -2.683228545865285 L 6.16758621249558 -1.2694193854583091 M 4.75868882546649 -1.3123730625689953 L 6.896542151109564 -2.5983362607295577 M 4.217975065448965 -3.0625051708112694 L 5.798479106990221 -1.1321877969946605 M 4.7745889248624875 -1.3025949841144653 L 6.895106938816658 -2.616947121664502 M 6.883263170364506 -2.284169044126812 L 4.861549219634011 -3.7459456653683016 M 6.837285768186389 -2.9143268929313435 L 4.378765649751404 -3.3383516755053386 M 5.92541721342664 -1.1662008417605323 L 6.329012221975191 -3.6281572300950597 M 4.113573106855263 -2.305525143103197 L 6.472254745380298 -1.4926665348130783 M 6.696542081903607 -3.2268335753346724 L 4.208669495981674 -3.040800822292067 M 4.770840182921407 -3.6951259185365837 L 4.9617122085290095 -1.2076199268197907 M 4.367940018190393 -3.3236748130088913 L 5.499041240455373 -1.1000003282928472 M 4.101661385608206 -2.431815547953827 L 6.377085195708085 -1.4087981124147053 M 4.29548252630231 -1.7864611744572456 L 6.785262643178518 -1.9449324923491123 M 5.354984416491765 -1.1075307972742212 L 6.7117692704876175 -3.2011527901263084 M 5.636818899861263 -3.893298456412248 L 4.292377738952778 -1.791728530418459 M 4.927437146708468 -1.2224352153293128 L 6.870115623388818 -2.78772066061698 M 4.100077425489233 -2.5147236332182477 L 6.310942174156233 -1.3587845119458108 M 5.883224835738126 -1.1534716025001603 L 6.364110450226759 -3.6015049386221145 M 6.454438812172616 -1.4757702631643004 L 5.767614205233652 -3.8741843534101097 M 5.006944520656062 -1.1896961061307498 L 6.849868857256254 -2.8712870428788153 M 4.938636987234287 -3.7825254648148716 L 4.792376003332298 -1.2919982287512872 M 4.88174999615029 -1.2439080715410065 L 6.87959795111315 -2.7381375511850163 M 6.739129140331086 -3.151581900901447 L 4.244517334571134 -3.1194863007425018 M 4.860435309506745 -3.7453742436208755 L 4.868397765512801 -1.2505686824035598 M 4.104965727603373 -2.6178107755632465 L 6.224669652206138 -1.3021461294584245 M 6.52359478412752 -3.4551197400886107 L 4.125637980171677 -2.7667002783152146 M 6.221559605300029 -3.6997298595930945 L 4.105276060284782 -2.3785704649384622 M 4.736298771299766 -1.3266456488844676 L 6.8981559298638935 -2.571833110655396 M 6.5867192512857295 -3.3826331451316474 L 4.147177236501818 -2.8603755965116693 M 4.6356281716110965 -1.3987001578645242 L 6.899035301414124 -2.448036306933693 M 6.258438630908553 -1.323237133851701 L 6.006222115046404 -3.805273599762879 M 6.7363884671362335 -3.156767507062062 L 4.241933018346349 -3.114221026726431 M 6.837631882006746 -2.0867918826558567 L 5.048052095905299 -3.825044562263627 M 4.392630371124948 -3.3565818729375083 L 5.457906244409379 -1.1006329588916721 M 4.287186644143659 -1.800654760610699 L 6.778655987956861 -1.9298782020812886 M 5.69108494143196 -3.886898174040886 L 4.265658897224462 -1.839392671855005 M 4.787656240056069 -3.7052246129535122 L 4.943657962739253 -1.2152885391744337 M 4.758863302258102 -3.6877358272192664 L 4.974730751817059 -1.2022742135129902 M 4.964810339319145 -1.206333881134583 L 6.8611744649368225 -2.8274203353549607 M 4.107053981846763 -2.359638358120747 L 6.432308080348682 -1.4555855021512984" /></g><g inkscape:label="2-layer" inkscape:groupmode="layer"><path style="stroke-width: 0.029039961280262813; stroke: green;" fill="none" d="M 8.138394659950519 -1.1475054240228173 L 9.261850923758072 -3.674556584404929 M 7.9200883679025935 -1.2257541450104217 L 9.445292360785212 -3.532677274196117 M 7.170672704184247 -2.060808765343413 L 9.899982942263987 -2.5069109601262998 M 7.107677916726054 -2.6464213660218343 L 9.778930299638988 -1.9304938203449167 M 9.622758874876805 -3.336308859743438 L 7.173759205613143 -2.0515745822278615 M 7.115462253942314 -2.707497541531228 L 9.752653378820595 -1.8748124181260908 M 7.526482677694561 -1.4938866747869568 L 9.736776108862717 -3.156037237164475 M 7.102304349850727 -2.5802924003489807 L 9.804475839644866 -1.9917256805790555 M 8.032395915959022 -1.1803991434573113 L 9.352497001636827 -3.6105173849157968 M 7.4734456557400835 -1.548061883166194 L 9.770476254134422 -3.0881242110987843 M 9.704930587625483 -3.2128409913890374 L 7.1337629323291365 -2.194391958675625 M 8.63599025702304 -1.1066204214232191 L 8.801243549300812 -3.867206028367579 M 9.010340212026417 -1.196330997534715 L 8.417493492626434 -3.8975666983156887 M 9.896122326318649 -2.604127085595464 L 7.140031724985768 -2.8323947817803594 M 9.044038529622911 -3.789969797431607 L 7.583966021649722 -1.4412829695769684 M 9.82803936291502 -2.943070480339492 L 7.100043201872432 -2.4890016648347224 M 7.9777967512854655 -3.7989625733761487 L 8.595243292290212 -1.1032435017964937 M 8.68575759770033 -1.1123782522255565 L 8.752132728082337 -3.8771089598974218 M 7.961869134175473 -1.2075545770722294 L 9.411180466548767 -3.5628970586938182 M 7.267662913281882 -1.835661754300491 L 9.87731402452984 -2.751010115002197 M 7.522964320608264 -3.502697003683331 L 9.119365735191383 -1.2444578517346236 M 7.205285038435344 -1.9673526792514284 L 9.895944175060487 -2.6064887792900984 M 9.66105597875818 -1.7177282989971547 L 7.6375053954470635 -3.602770627608966 M 8.460147983340088 -3.8994326767544543 L 8.105453040531163 -1.1567454832482802 M 8.487218818959958 -3.89994165643116 L 8.079549862543438 -1.1646267630685578 M 8.103506227046656 -3.84268115649592 L 8.46217669105348 -1.100511022801417 M 9.41082244223196 -1.436796125511853 L 7.962304446829556 -3.792626586489977 M 9.606682337168616 -3.357469652290395 L 7.1825098570485295 -2.0264815492235675 M 8.470177499259718 -1.1003176723093215 L 8.960888509643967 -3.8219613389498814 M 9.85967219501818 -2.1663961599524852 L 7.3099641548660514 -3.2374379209779813 M 8.67972621081003 -3.8884158199717653 L 7.900026132429781 -1.2350765405634876 M 9.888305621151176 -2.3194245246993757 L 7.23544378303021 -3.1007475127897335 M 9.514753909074255 -3.464507389302186 L 7.236862507844361 -1.8962751654016845 M 9.762945765927057 -3.104125808360245 L 7.112182058063881 -2.315713917942257 M 9.887640930373088 -2.6856142460947106 L 7.122917094449445 -2.752274991309961 M 9.887271719058944 -2.311646137551564 L 7.23883073616974 -3.107825705255907 M 7.10084752225406 -2.451293285705166 L 9.845724283708055 -2.1139609446721175 M 8.970695131351407 -1.1814985425407822 L 8.459781685602877 -3.899422197618379 M 7.99275671134612 -1.1951228999957137 L 9.38564623449328 -3.584265072446713 M 7.36032019063132 -3.3130989682181187 L 9.332638509901967 -1.3745164986423692 M 9.308911992072002 -3.6426554113476666 L 7.377579038009704 -1.663237677661824 M 7.157414142639173 -2.103183650015914 L 9.89949802411965 -2.462512929092869 M 9.167818694282415 -1.269545534541432 L 8.245098019730227 -3.8765990630733946 M 8.732505310618016 -1.1194416779670555 L 8.705490292497448 -3.884837080558328 M 9.218104523365792 -1.298198896022479 L 8.188418978659566 -3.864887272686082 M 7.134811853427486 -2.189739908370566 L 9.894246723756517 -2.373208544080361 M 7.531522670655839 -3.510965707898345 L 9.108671090486004 -1.2392385223181275 M 9.848179671063855 -2.1226254188075773 L 7.334420097531652 -3.275514984356766 M 7.575424662966381 -3.5512661157619276 L 9.054464303710635 -1.214477018520991 M 9.371533342500925 -1.4043588028422964 L 8.009694285105043 -3.8113353140754445 M 9.049221447741479 -3.7877716417675744 L 7.579716041056101 -1.4449751496241692 M 9.850856027138441 -2.8676791997703273 L 7.10164045160619 -2.567753770491846 M 7.2131510756139985 -3.0513799468665783 L 9.553480281085386 -1.5779483217496684 M 8.721200610841334 -1.1175853408750975 L 8.716815340593525 -3.883109217698774 M 7.970400804267806 -1.2040352273769888 L 9.404153904977552 -3.5688805902035297 M 9.73963794796548 -3.1506133705695976 L 7.1199836634671065 -2.264299107124451 M 9.576237149485042 -1.6046153909808858 L 7.753126706592005 -3.684136936166546 M 9.894490003662687 -2.6240871858204424 L 7.13541614590547 -2.8129071829544943 M 7.326772244114498 -1.7361043050128713 L 9.85186265401413 -2.863960663646321 M 7.472531526444698 -3.4509513845880533 L 9.18332044840051 -1.2780862694945583 M 8.465276867526242 -1.100430671931108 L 8.96551436858456 -3.8203394914344253 M 9.657810037829762 -1.7129320764377174 L 7.642074582998214 -3.606329055418103 M 9.767409545031748 -3.0947041660879933 L 7.110848199436108 -2.3260538158219695 M 9.160602121540121 -3.7343438892855954 L 7.490296808938747 -1.5302064828218729 M 7.322478446206624 -3.2572601866941326 L 9.385883279961153 -1.415928593548714 M 8.71005471420983 -3.8841520931740945 L 7.872499575681775 -1.2485036086826111 M 8.894700828569253 -1.1567906879690175 L 8.539691709422371 -3.899437232677168 M 7.16258243447436 -2.913901262891853 L 9.644057166473925 -1.6930717505009172 M 9.256536318836776 -1.3220132435884941 L 8.144509131036113 -3.8541145601769817 M 9.557632094834684 -1.5827135932678407 L 7.777589192753948 -3.6992175055318812 M 9.894945237294557 -2.618860359032069 L 7.136598371297705 -2.818018865559781 M 9.538658970295002 -1.5612840986615142 L 7.802255784496113 -3.7137351480989853 M 9.659353069534317 -3.2847932595030094 L 7.154875254275262 -2.1118770575720136 M 7.3976094527669725 -1.6370196518047087 L 9.815111306852106 -2.980085670052489 M 8.42391875474598 -3.8979312014976264 L 8.14037306583693 -1.1469780237466685 M 8.423836776324308 -3.8979267374792306 L 8.140452411406605 -1.1469569365549837 M 7.518036847690199 -1.5021280806106438 L 9.742261836066826 -3.145589289449476 M 7.108201341597643 -2.651315876461785 L 9.776920006098983 -1.926000611477526 M 9.407585803256255 -1.4340318908486536 L 7.966236868905662 -3.794255353430832 M 9.082107643995158 -3.773244159932574 L 7.552928648585366 -1.4689539994114427 M 9.895763537422816 -2.391169178993516 L 7.206180565729637 -3.0348189146845117 M 7.252630498699863 -1.8643355230734953 L 9.882750018530084 -2.7190944687915573 M 9.424173814996998 -1.4483808865972938 L 7.9460266487087035 -3.7857346250525765 M 7.868633070039164 -1.2504497610132566 L 9.486597892084701 -3.493289786182273 M 7.139973628469001 -2.8321569941160702 L 9.690819786995444 -1.7638286647117245 M 9.197305831314765 -3.713987058256563 L 7.461680113324956 -1.5609090497001243 M 7.774492442673129 -3.6973465597986226 L 8.819998254882947 -1.1370615872784757 M 9.857615060967982 -2.1581208601963238 L 7.314477813867582 -3.244672509354154 M 9.607716942664954 -3.3561326853549076 L 7.181939034253423 -2.0280727910204774 M 7.199629033474991 -1.9813138237635275 L 9.897009124519066 -2.59146314017391 M 7.413214611432558 -3.3825517090778945 L 9.260870849091702 -1.324808291808323 M 7.525242428703794 -1.4950882241705385 L 9.737584356568107 -3.1545112377781663 M 7.345989002073566 -3.2926276658462252 L 9.352594260495977 -1.389557283346269 M 8.865477008666485 -1.1485465024144565 L 8.570032807213074 -3.898247262079871 M 8.252136936334368 -3.8778838491216474 L 8.309942256194725 -1.112960687644489 M 9.767961324060833 -1.9064731845266807 L 7.477506992940214 -3.4562991427967686 M 8.295392281991358 -1.115032245237711 L 9.122572076379262 -3.7539553459803954 M 7.336858953178633 -3.279168085331589 L 9.365436692107776 -1.399536764833305 M 7.226149263697534 -1.919220952838633 L 9.89097463909759 -2.6587121715160063 M 7.378070889285652 -3.33742168023745 L 9.308240460914712 -1.3568694924286315" /></g><g inkscape:label="3-layer" inkscape:groupmode="layer"><path style="stroke-width: 0.029039961280262813; stroke: blue;" fill="none" d="M 1.2151122385651274 -6.555934744835112 L 3.8937941621380783 -5.868326792437442 M 1.9163089256880217 -7.272519048882384 L 3.4483532114982265 -4.970132927878068 M 1.604589269729773 -4.923784582847403 L 3.0190173562756257 -7.300238818019467 M 2.2055752805669995 -4.631309353949257 L 2.3570658783034224 -7.392684399587655 M 1.9807545445590509 -7.300147744298286 L 3.395599522140184 -4.923941685621883 M 2.2634840762292683 -4.620123114983486 L 2.2985346028944544 -7.38542834306546 M 1.7477375048890593 -4.819279398651204 L 2.850581416514326 -7.355393917056886 M 3.8926154734660168 -6.143604119241132 L 1.2199200925744402 -5.433082518698383 M 1.1298620495143632 -6.287614319252396 L 3.8919563385072227 -6.149858438833337 M 3.360255434226831 -7.10451826054765 L 2.0231633767069357 -4.683707162259679 M 1.6427691300413054 -7.106867307128483 L 3.657315813264316 -5.212205541801445 M 2.5342987386652354 -4.600420207160029 L 2.034886020120404 -7.320480588922292 M 2.8412714141003965 -4.6422320441555875 L 1.7558582250209005 -7.1858553953711874 M 3.2976463394281237 -4.849452166488975 L 1.3858544177917227 -6.847749739985675 M 1.2418578053088394 -6.614066949068023 L 3.886321455632908 -5.804774946147135 M 1.1006006181120296 -6.04100451160014 L 3.8435789919744523 -6.393440582966367 M 3.882737898564356 -6.219170946691911 L 1.2526656584431481 -5.364266533543392 M 1.2836007658616155 -5.30691060952605 L 3.4426880177663204 -7.0350552164787175 M 2.3386976022922417 -7.3906766469937315 L 3.083150414035428 -4.72723309494224 M 1.5962413846238739 -4.9307851641819465 L 3.0291199654057523 -7.2961605078882075 M 1.832513602995347 -4.76936524109964 L 2.754530233040922 -7.376667846820043 M 1.7229156332106546 -4.835465806903206 L 2.8791902945484744 -7.347670108194228 M 2.618224266969585 -7.394999291289965 L 2.818640528663965 -4.636743526150435 M 1.2379517928491195 -5.394001383807481 L 3.513015300318272 -6.966333276525797 M 3.808590361083983 -6.497585436762463 L 1.4092189660431316 -5.122391467703291 M 1.4503383940729067 -6.926396520417988 L 3.784559778560774 -5.443307827157688 M 1.9080203058197807 -4.731315625666378 L 2.6709611134974733 -7.389522327158403 M 3.806409905402985 -5.496717614986414 L 1.1020075365752027 -6.074947129414449 M 1.1286574845259014 -5.718184980433669 L 3.7171386050981248 -6.69179015313879 M 1.6402808723354054 -7.104935754479702 L 3.65908540437573 -5.214811471452142 M 2.324362326145027 -4.611061049749553 L 2.2378356144500064 -7.375234465445509 M 2.48415594598306 -7.399910342112062 L 2.947664677131216 -4.673502228856376 M 1.1032316254722567 -5.9049310359837355 L 3.7990277388309535 -6.522041122659642 M 3.877761147319485 -5.75145579681494 L 1.1128669003059535 -5.810627975315292 M 3.8986555511266303 -6.061340437744302 L 1.1887547617540168 -5.509453442395898 M 1.294834836916518 -5.287555665549958 L 3.426022774671245 -7.0499913431977275 M 3.6082484640998396 -5.144555471219585 L 1.1816461794055355 -6.471108484028868 M 2.506957065465529 -7.399982713907606 L 2.9260018879833276 -4.6663874657777695 M 1.1307901258348503 -6.292000548781427 L 3.892429104940705 -6.145400095302676 M 2.4950937187046724 -4.60000859702502 L 2.0720450152986043 -7.332987070855989 M 3.808445124610801 -5.502032776297249 L 1.1017144032584125 -6.069263193292126 M 3.825734364008895 -6.449920433061147 L 1.3781847541653591 -5.162425791817248 M 1.1029972501709076 -6.091560455273846 L 3.8569223051995323 -6.344618423262581 M 1.100237209632614 -6.025770733456947 L 3.839217117642093 -6.4080410663332845 M 3.8891727714817064 -5.8262213736564945 L 1.125117634623248 -5.735995300466019 M 1.8284801650479465 -4.771561515066397 L 2.7590449464639004 -7.375825467023894 M 3.190592687462606 -7.2178184347525605 L 2.219533916884545 -4.628380965347201 M 1.1455617124881177 -5.645744547929211 L 3.6786764042179705 -6.755461404798282 M 2.938529833002734 -7.329545631246478 L 2.493785539585053 -4.600013792753032 M 3.627258482187046 -5.169766108655304 L 1.1713570932354713 -6.441257324363351 M 3.835973442055062 -6.418539080760148 L 1.3587494411012215 -5.18910718229027 M 1.9482748105921226 -4.713299057522362 L 2.627109378686688 -7.394217775618244 M 1.5216634876376425 -7.001427814961547 L 3.7399115286745825 -5.349908159519088 M 1.1306202488079624 -6.2912028451530535 L 3.8923441636164533 -6.146211251424776 M 3.8968913338104745 -6.093244847177708 L 1.2002916368391265 -5.4796557190381705 M 3.722365330932137 -5.31748773070723 L 1.1265535966428326 -6.271376080569494 M 3.852321835737115 -6.3622508144761 L 1.3258071638932734 -5.237588573252183 M 3.5369070496184722 -6.9406507164997615 L 1.8045198508373663 -4.784966106595903 M 3.8910355848729923 -5.841822878970909 L 1.1281671240888085 -5.7205817461774755 M 3.6438335506547115 -6.807245197196388 L 1.6616021326540529 -4.8788001890698665 M 3.092697976350209 -7.268348969657155 L 2.3282521138191985 -4.610574700247463 M 3.47506134832997 -4.995382974963623 L 1.262217817308601 -6.654137040849787 M 3.8981733079524563 -6.071494062196002 L 1.19235104477733 -5.499945793033336 M 1.1519670841318708 -6.377898475434963 L 3.898832539874528 -6.05716227241964 M 3.2304634664701064 -4.805670429005262 L 1.4362198259761438 -6.910149296189243 M 2.407015449517926 -4.603091315306671 L 2.15676503949056 -7.357272913560159 M 3.8815902635010118 -5.773707393405784 L 1.1161013159084072 -5.788282187406072 M 2.1011238187395613 -4.658024667878322 L 2.4646606077251043 -7.399553902982532 M 3.8933684754522546 -5.86389602645088 L 1.1327693909922532 -5.698868032596495 M 3.8521049443305575 -5.636940473865703 L 1.1018802184343144 -5.927466722156519 M 2.794240271591287 -7.3687303103876545 L 2.643121798972532 -4.607334874903925 M 2.0314832896021806 -7.319277109661956 L 3.353264917592421 -4.8900725337185325 M 3.3520520757326273 -7.110858794014668 L 2.032924566853065 -4.680211933774743 M 3.652904128875844 -5.20576321564597 L 1.158090351645935 -6.399097100533529 M 3.6334235961304198 -5.1782026090727795 L 1.1681007434479749 -6.431328610685823 M 1.8587171486772087 -4.755509620527619 L 2.725327557945784 -7.381747984123802 M 2.9930132327020393 -4.689680209879785 L 1.6262054692060257 -7.093838707467668 M 1.2723625568654424 -6.672983141106853 L 3.875515817470893 -5.739315831153134 M 1.1510189664781942 -5.62550010520904 L 3.667230370407448 -6.7730286297405105 M 3.192253405741657 -4.78312481238252 L 1.4655927745348805 -6.943399009913384 M 1.2763707171546148 -5.319756383224886 L 3.45353376508108 -7.025072367616208 M 3.682530807749113 -5.250586303351593 L 1.1437648014887254 -6.347312663631897 M 3.5786150309385523 -6.892518691699745 L 1.7499795897845076 -4.817853907395459 M 2.9344042688083967 -4.669100705822923 L 1.6755864897410038 -7.131522144768913 M 1.9453246532590067 -4.714568064922238 L 2.630307289894993 -7.393922526613378 M 1.4188836680260857 -5.110512801250479 L 3.2533360717043376 -7.180035916008101 M 1.1000001205951953 -5.99941890918775 L 3.8312994411841084 -6.43317640506251 M 1.246167335406642 -5.377180885650802 L 3.5000040352497734 -6.979791778636752 M 3.01526844358125 -7.301729015981958 L 2.4122069771001935 -4.602755431168146 M 1.1253717817892825 -6.265324822997827 L 3.8893390037483524 -6.172444578527524 M 1.6156391821848548 -7.085313753673714 L 3.676457512653248 -5.2410878042080675 M 1.819583807446209 -7.2235333280751295 L 3.5252068452803735 -5.04661082217687 M 1.7513894303297988 -7.183039397052379 L 3.5775502391565484 -5.106196060596249 M 1.228969255801012 -6.586924907719008 L 3.890191842589047 -5.834571342268429 M 1.5092920951269178 -6.989190500976424 L 3.747895884150647 -5.365369507256487 M 3.8163050075563 -6.476803027551429 L 1.3954597836144575 -5.139772756542215 M 3.2141638256023866 -4.795852986466784 L 1.4486879490509719 -6.924523104919151 M 2.8010031055084705 -4.63274101558108 L 1.7912227731838128 -7.207325491632954 M 3.395713860139975 -4.924036859017399 L 1.315634600693319 -6.746510951644466 M 1.1000004571824944 -6.001131419804822 L 3.8318283159542874 -6.431547606669724" /></g><g inkscape:label="4-layer" inkscape:groupmode="layer"><path style="stroke-width: 0.029039961280262813; stroke: cyan;" fill="none" d="M 4.313477466426256 -6.743077571537281 L 6.798582830259874 -6.523146856011059 M 6.180913964912512 -4.776743619519145 L 4.110133613057832 -6.168141090897866 M 4.49264466477001 -6.972232085761251 L 6.878660889723783 -6.243503903759319 M 5.908655550194937 -4.660970261235818 L 4.17650047969428 -6.456452647873281 M 6.821161035641053 -5.536822368951326 L 4.348722452414032 -5.203407250582558 M 6.822018916961262 -6.460723326082553 L 5.095669777864238 -4.659657852834716 M 6.4422798464815765 -7.035426815817833 L 5.7838196931338794 -4.629070978573511 M 6.871671914335872 -6.280207350763975 L 4.920443986486429 -4.7255923622324545 M 5.105027182163669 -7.343129358316029 L 6.818773673902182 -5.530068093206537 M 5.676080262589302 -4.611117088762885 L 4.272872740042445 -6.673912967577462 M 6.887118448632085 -6.189479311441956 L 4.837964215750252 -4.766424456965517 M 5.825456258841151 -4.638354589630207 L 4.207107333485078 -6.537055446738915 M 6.523265504710643 -5.044527495492795 L 4.125546133347147 -5.733773464051722 M 5.6234923240982475 -7.39454280891223 L 6.5556218649170965 -5.0804009143605295 M 6.329168221369544 -7.128042579280971 L 5.925232764826257 -4.666142025657073 M 4.621115194837023 -4.910247046687354 L 5.134966868038523 -7.351573458074105 M 5.011002398602027 -4.688176328225843 L 4.726137934419485 -7.166677977616557 M 6.694120048556472 -6.730805931582037 L 5.389348264231618 -4.604379638522193 M 6.470809909321674 -4.991274011456609 L 4.113295785122054 -5.8075125447211144 M 4.648860534417029 -4.8884418098330915 L 5.101017759432079 -7.341943803484856 M 4.474610343343481 -5.0468074423172276 L 5.33155993995886 -7.389830186092293 M 6.530889834021479 -5.052758663216618 L 4.127723819591741 -5.722767093071335 M 6.298739915143165 -7.149788914521743 L 5.960711229253519 -4.677976867358324 M 4.441091191247699 -5.084187718608894 L 5.3815032820044975 -7.3949761746439595 M 5.814732613567207 -7.364163986460996 L 6.418636659490951 -4.943540493989804 M 6.185678296733744 -7.220592181438302 L 6.084448227347659 -4.727828521955401 M 4.100550072664306 -5.960758429183832 L 6.290828930933446 -7.1552443905938965 M 4.305325475482817 -6.729899157740056 L 6.792712889592389 -6.5374880325009075 M 5.623154020018769 -7.394572725731153 L 6.55584491828073 -5.080657023445136 M 6.325848158684199 -4.8695245164985135 L 4.100004753815596 -5.996351622131601 M 5.182686083211546 -4.636434131326114 L 4.583364479928604 -7.058196259369423 M 5.958317636828562 -4.677145153929622 L 4.160395600644443 -6.406767812427725 M 6.78351450446837 -6.559097949217591 L 5.197888845607223 -4.632985424221284 M 4.13116588201371 -5.706243029977676 L 6.066926126422965 -7.280076078668394 M 6.888530479508656 -5.821161784074372 L 4.539159105858687 -4.981773710737283 M 4.939201817286922 -4.717227456535762 L 4.791844113731023 -7.207690043323451 M 6.8185426862260385 -5.529420373794379 L 4.344273139711275 -5.209876323347309 M 6.842619903238099 -6.396701141199413 L 5.031765786360559 -4.680622600929722 M 4.134572005900868 -6.309202834609292 L 6.552728785906587 -6.922909585671122 M 6.327543382942644 -4.870764883052318 L 4.100011803618436 -5.994251087729479 M 5.853023880124054 -4.645240191007218 L 4.1964740607846975 -6.510705517683981 M 5.50312431119589 -7.399996513809785 L 6.630784547693279 -5.1745750750685415 M 5.327699781483948 -4.610643085920929 L 4.477262172668204 -6.956037309180262 M 5.805694585016324 -7.366217706184376 L 6.425610573540855 -4.949645266517369 M 6.808908201364893 -6.4967487497716725 L 5.132521243132839 -4.649089431808543 M 5.897040821712476 -4.657480508188472 L 4.1805041762841775 -6.467900385976015 M 6.843328428170221 -6.3942952371887385 L 5.029402908623105 -4.681463547114602 M 4.103196824954663 -5.90544371949327 L 6.244522668792122 -7.185616293602047 M 4.158690040274726 -5.598892044529427 L 5.963899060524843 -7.320907892944912 M 5.722602592735989 -4.617810401678838 L 4.250942604377615 -6.632341381249895 M 6.051974044083578 -7.28659420745549 L 6.216434375935296 -4.7972025170552595 M 5.332774659311427 -4.6100231349293646 L 4.473777683436172 -6.952296044823441 M 4.794896918212929 -7.209474945608372 L 6.892934978088302 -5.859528839906046 M 4.124212373604925 -6.259245842894741 L 6.518401969704394 -6.9606546872327275 M 4.1014810118802485 -6.064378877502693 L 6.374112442246244 -7.0935846735897075 M 6.384417138446205 -7.085267858743926 L 5.858152790319356 -4.646587062723849 M 5.049324687445103 -4.674522062554964 L 4.692566125229981 -7.1437003706713895 M 6.888823126287188 -5.823448806603069 L 4.5408373324903675 -4.980192676406075 M 6.8835149368505455 -6.21421115636547 L 4.860090789677271 -4.754802745528187 M 6.740468014860205 -5.3509706446478855 L 4.2457954165965734 -5.377930178380402 M 4.754926278832714 -4.814729925280346 L 4.979039711800543 -7.299461572390326 M 5.981178471354922 -4.685288138524437 L 4.153546152176888 -6.383486682535828 M 6.510694248860853 -5.031239381828722 L 4.122185022361029 -5.751754380917366 M 6.846891617784257 -6.3819462919606735 L 5.0173180117647425 -4.685839394049092 M 6.811065747192148 -6.491026075213418 L 5.12662332854353 -4.650707644277162 M 5.6060919008186945 -4.604025606044052 L 4.3082737368884665 -6.734703010617364 M 4.117172051381161 -6.2186020688799895 L 6.489658663385442 -6.9902402385210065 M 6.823277443486014 -5.542903940553938 L 4.352398553873948 -5.198120382570181 M 5.4773723778548655 -7.399817127597765 L 6.645776027835073 -5.195514267349331 M 6.33331498949055 -4.87501727644805 L 4.100059596931456 -5.987082265822423 M 5.618546941882965 -7.394971907448389 L 6.558875835658203 -5.084149594825038 M 4.11402079667877 -6.197640198241777 L 6.474552414845521 -7.005110735550448 M 5.364052704348348 -4.6066162291726656 L 4.4526366651875255 -6.928994103797485 M 4.18265405468812 -5.526080533876959 L 5.890907616762968 -7.344318130189687 M 6.385157583071754 -7.084664027766465 L 5.857229058365823 -4.646342953381815 M 4.403081789463186 -5.130074463305788 L 5.440967804098225 -7.398754874825112 M 4.771453869375311 -4.804499880572239 L 4.961048757801602 -7.292103540175013 M 4.556103787029782 -4.966046452136035 L 5.218322282062391 -7.37137072420898 M 4.10122400663195 -5.941470346171999 L 6.2748284155407585 -7.166036417300334 M 6.475134369610069 -7.004546146876873 L 5.739525302996945 -4.620642312804898 M 4.1633041554826065 -6.41622616358169 L 6.622424144049031 -6.836758053953351 M 6.1502670333022325 -4.760180341581764 L 4.114747454152473 -6.202670629897245 M 4.913675212487036 -7.2713076903518985 L 6.8731425897278875 -5.727090805806415 M 4.843191933573208 -7.236366921215826 L 6.886303945579037 -5.804650645068911 M 6.873988111966779 -5.7313800674299 L 4.4750719604836835 -5.046311102186231 M 6.808221694114167 -5.5014460921334 L 4.327707997394496 -5.234669051568423 M 6.810732343288411 -6.491915362900643 L 5.127538747293057 -4.65045466351368 M 5.336488936690981 -7.39041868952325 L 6.720981740720555 -5.31501562877172 M 6.898606959613699 -6.062438549952134 L 4.728433303400858 -4.831802742385051 M 6.252132497413803 -7.180803415617551 L 6.013197640500843 -4.6974531940139865 M 4.158290811745254 -5.600229498145761 L 5.965215743871564 -7.320444740098588 M 4.150596150323599 -5.627026474828966 L 5.99141776191118 -7.310918984254254 M 5.6112650245851 -4.604428398718261 L 4.305558917148935 -6.730281109982707 M 4.489009757729805 -5.031548282032371 L 5.31075125655059 -7.3871499245225145 M 6.899982808275335 -6.006938049690338 L 4.682723751940058 -4.863312032984837 M 4.100809388479787 -6.047598662099806 L 6.3609317331459225 -7.103991191478609 M 5.974181279217595 -7.3172517278180225 L 6.286962270837261 -4.842118147530301 M 6.168601833309026 -4.7699708993296905 L 4.111891256707231 -6.182082719647334 M 6.060642196940297 -7.282840725503348 L 6.208302732834138 -4.792396075420549 M 6.892854425156057 -5.858732345092054 L 4.567012776726936 -4.956192143539234" /></g><g inkscape:label="5-layer" inkscape:groupmode="layer"><path style="stroke-width: 0.029039961280262813; stroke: orange;" fill="none" d="M 7.104246859387953 -6.108964078813186 L 8.608964078813187 -7.395753140612047 M 7.654905524125752 -4.883839022879393 L 7.3838390228793935 -6.84509447587425 M 7.451096755888754 -6.927255080596976 L 9.427255080596977 -7.048903244111246 M 7.27778509741201 -6.682781613615825 L 9.182781613615825 -7.22221490258799 M 7.382428074120785 -5.156772278392946 L 7.656772278392946 -7.117571925879215 M 9.547278880347566 -5.070910689557807 L 7.570910689557806 -4.952721119652435 M 8.54901417326337 -7.3991417407894415 L 9.89914174078944 -5.9509858267366305 M 9.726670816425464 -5.325256561254513 L 7.825256561254512 -4.773329183574536 M 8.084718775571078 -4.663010282523902 L 7.163010282523902 -6.41528122442892 M 9.483238265175608 -5.0033844703726205 L 7.50338447037262 -5.016761734824394 M 9.676589426795058 -5.241292335115771 L 7.741292335115771 -4.823410573204943 M 8.380939329262468 -4.605071845332697 L 7.105071845332697 -6.1190606707375315 M 7.584372505110664 -7.059068595796646 L 9.559068595796646 -6.915627494889336 M 8.459883573092759 -4.600574877925869 L 7.100574877925869 -6.040116426907242 M 9.486493464016757 -6.993393499803688 L 9.493393499803688 -5.013506535983243 M 7.550974184007213 -4.970752701932512 L 7.470752701932511 -6.949025815992787 M 7.179489538554871 -6.465029161681256 L 8.965029161681258 -7.320510461445129 M 7.848379049690329 -4.760891394139513 L 7.260891394139513 -6.651620950309672 M 9.06432429199488 -7.281225231356484 L 9.781225231356483 -5.4356757080051175 M 9.852401525552402 -6.361953192669347 L 8.861953192669347 -4.647598474447597 M 9.096705451756423 -7.266468556200336 L 9.766468556200335 -5.4032945482435775 M 8.863416845356086 -4.647991051615623 L 7.147991051615622 -5.6365831546439145 M 8.40863097204352 -4.602984717073472 L 7.102984717073472 -6.09136902795648 M 9.639178768095665 -5.1861992047681165 L 7.686199204768116 -4.860821231904337 M 7.127391743500035 -5.724415939887432 L 8.224415939887434 -7.372608256499965 M 9.371147625886103 -7.095947906569015 L 9.595947906569016 -5.128852374113897 M 7.369776046373033 -5.173807640650297 L 7.673807640650296 -7.130223953626966 M 7.105315255717744 -5.878121109020728 L 8.378121109020729 -7.394684744282256 M 9.731152582737307 -6.6665308080045955 L 9.166530808004595 -4.768847417262693 M 7.103066051514837 -6.092604230840993 L 8.592604230840994 -7.396933948485163 M 8.879880032384456 -4.652524151980606 L 7.152524151980606 -5.620119967615543 M 8.73991291642359 -4.620709677938279 L 7.120709677938279 -5.760087083576409 M 9.644316515711289 -6.806560420471012 L 9.306560420471012 -4.855683484288711 M 9.899988387341502 -6.005702219650454 L 8.505702219650454 -4.6000116126584984 M 8.563544779191044 -7.398557135421203 L 9.898557135421203 -5.936455220808956 M 9.866865758274464 -6.302783749327428 L 8.802783749327427 -4.633134241725536 M 8.955275729636021 -7.32390483419481 L 9.82390483419481 -5.544724270363979 M 7.714648176197871 -4.8410252320043075 L 7.341025232004307 -6.785351823802128 M 9.890218054652822 -5.834791766193921 L 8.33479176619392 -4.609781945347178 M 7.896808704790897 -4.736607637594732 L 7.236607637594732 -6.603191295209103 M 8.677539979040224 -4.611302928698128 L 7.111302928698128 -5.822460020959776 M 7.140671108709322 -5.665000051787387 L 8.165000051787386 -7.359328891290678 M 7.145774761665635 -6.355069012810513 L 8.855069012810512 -7.354225238334365 M 8.146071656418231 -7.354523801049456 L 9.854523801049456 -6.353928343581768 M 9.17242691141878 -4.7720577990801845 L 7.2720577990801845 -5.327573088581221 M 9.015462844765091 -7.301652048616173 L 9.801652048616173 -5.484537155234909 M 7.160161879214315 -6.40599730305691 L 8.90599730305691 -7.339838120785685 M 7.101740790245011 -5.9302061439999685 L 8.43020614399997 -7.398259209754989 M 7.3182940358003865 -5.249286330099777 L 7.749286330099778 -7.181705964199614 M 7.412363166629833 -6.8815021943798635 L 9.381502194379863 -7.087636833370167 M 9.880350944580647 -6.233733330518603 L 8.733733330518602 -4.6196490554193534 M 9.130452613789192 -4.749988199349152 L 7.2499881993491515 -5.369547386210809 M 9.853626341850683 -5.642654611547964 L 8.142654611547963 -4.646373658149317 M 8.877257619250814 -7.34821240489665 L 9.84821240489665 -5.622742380749186 M 9.70225043422891 -6.717352001040212 L 9.217352001040211 -4.79774956577109 M 7.10897079311189 -6.158233200006304 L 8.658233200006306 -7.39102920688811 M 9.897946597772789 -5.924202178293289 L 8.42420217829329 -4.60205340222721 M 9.812646160568441 -6.486785432346666 L 8.986785432346666 -4.687353839431559 M 7.300015129639947 -5.278864568262684 L 7.778864568262683 -7.199984870360053 M 8.665465328624942 -4.609812521627734 L 7.109812521627734 -5.834534671375058 M 7.295923608419187 -5.285717112596327 L 7.785717112596328 -7.204076391580813 M 7.5536998923360485 -7.031753898095468 L 9.531753898095468 -6.9463001076639515 M 9.835272588047925 -6.4207696704942 L 8.9207696704942 -4.664727411952075 M 9.642163824472759 -6.809605952340866 L 9.309605952340865 -4.857836175527241 M 7.904025881428161 -4.733187129054761 L 7.233187129054761 -6.595974118571839 M 7.552395162080849 -4.969444290126817 L 7.469444290126818 -6.947604837919152 M 7.12070132651253 -6.239864898048268 L 8.739864898048268 -7.37929867348747 M 8.699423399415041 -7.385723748719689 L 9.88572374871969 -5.800576600584957 M 8.380771343943024 -4.605086193496226 L 7.105086193496226 -6.119228656056975 M 7.166443375587588 -5.573823124177562 L 8.073823124177563 -7.333556624412412 M 9.206885188037734 -7.208434247666316 L 9.708434247666316 -5.2931148119622655 M 7.143098494813822 -6.344700312189422 L 8.844700312189422 -7.356901505186178 M 8.72737363615282 -7.381412765824409 L 9.88141276582441 -5.7726263638471815 M 7.835827173333335 -4.767573752179217 L 7.267573752179218 -6.664172826666665 M 7.4724225344272375 -6.950833609127831 L 9.450833609127832 -7.0275774655727625 M 7.104227667215193 -6.108717960946934 L 8.608717960946933 -7.395772332784807 M 7.545217915114044 -7.023909747185184 L 9.523909747185185 -6.954782084885956 M 8.02064636509667 -7.315378307828194 L 9.815378307828194 -6.47935363490333 M 7.970617102522602 -4.703946857625647 L 7.203946857625647 -6.529382897477397 M 9.714660514978725 -5.303867948337659 L 7.8038679483376585 -4.785339485021276 M 9.899114727804259 -5.950220702684613 L 8.450220702684613 -4.600885272195741 M 7.741181121018933 -4.823482295542512 L 7.3234822955425125 -6.758818878981067 M 9.5985462429484 -6.867868741287504 L 9.367868741287504 -4.9014537570516 M 9.628530819451692 -5.17149641548893 L 7.671496415488929 -4.871469180548308 M 7.122222097050333 -6.248451303364697 L 8.748451303364698 -7.377777902949667 M 9.885410481011744 -5.798411808126556 L 8.298411808126557 -4.614589518988255 M 9.673450358085054 -6.763553702833049 L 9.263553702833049 -4.826549641914946 M 9.897739045883414 -6.079533386781435 L 8.579533386781435 -4.602260954116587 M 9.744795484541422 -5.359309589844452 L 7.859309589844453 -4.755204515458577 M 9.280527209415588 -4.83777055821068 L 7.33777055821068 -5.219472790584411 M 8.84601908728135 -4.643434192072872 L 7.143434192072872 -5.653980912718651 M 7.405249395799363 -6.872651771672034 L 9.372651771672034 -7.0947506042006365 M 7.1155902375203635 -5.79165027105591 L 8.291650271055909 -7.3844097624796365 M 7.313981253969387 -5.256118602152217 L 7.756118602152216 -7.186018746030612 M 7.923523299427751 -4.72419648311453 L 7.22419648311453 -6.576476700572249 M 8.885087470898593 -4.654003105591649 L 7.154003105591649 -5.6149125291014075 M 8.64404928626163 -4.607430503304228 L 7.1074305033042275 -5.8559507137383715 M 9.897773464984455 -5.921073828261149 L 8.42107382826115 -4.602226535015545 M 7.593520489449002 -4.933090961257136 L 7.433090961257137 -6.906479510551 M 9.890136159011549 -5.834104070548379 L 8.334104070548378 -4.609863840988451" /></g></svg>