<svg xmlns="http://www.w3.org/2000/svg" xmlns:inkscape="http://www.inkscape.org/namespaces/inkscape" width="11in" height="8.5in" viewBox="-1.4235274208239241 -1.099995849518207 2.8470528788898646 2.1999954064148954"><g inkscape:label="0-layer" inkscape:groupmode="layer"><path style="stroke-width: 0.008541158636669594; stroke: black;" fill="none" d="M -0.09926479259414069 0.9950610538812391 L 0.9770338072599692 -0.21308434825460365 M 0.9460612209904649 0.3239879104812875 L 0.01578181845891306 -0.9998754593478779 M 0.7282288985792232 -0.6853339852029019 L -0.8768264579216761 -0.48080699109780745 M -0.4198747286521832 -0.90758206914816 L -0.7334134142739019 0.6797828798690784 M 0.8397660602581623 -0.5429483990569312 L -0.7758765968541841 -0.6308847013947715 M -0.9189383028534581 0.39440131281323865 L 0.6590654909501846 0.7520855527389102 M 0.4943757177695025 0.8692483245194604 L 0.6739337849157883 -0.7387917524912416 M -0.5337731784614053 -0.8456276922826078 L -0.6392947438189016 0.7689617874286894 M 0.21704352149118294 0.9761619280522604 L 0.8613150259735834 -0.5080712804637999 M 0.9973610234228546 -0.07260157682114203 L -0.3772497084939024 -0.9261115793689579 M 0.22285686935886792 0.9748511762210499 L 0.8582720036179369 -0.5131950582436001 M -0.697912334283667 -0.7161831983890177 L -0.46546392581143775 0.8850668527112538 M -0.3118986098060249 -0.950115391518877 L -0.8072314633843668 0.5902350078759593 M -0.8598048826432496 0.510622721569289 L 0.7513253873001595 0.659931937701355 M -0.06623210548062383 -0.9978042434283407 L -0.9285013815327322 0.37132894378408965 M -0.7128446175909448 0.7013220024864611 L 0.8872779616702272 0.46123510136840923 M -0.991765587579809 0.12806646435533453 L 0.4282708664424381 0.9036504108097574 M -0.9136926263335079 -0.4064059357142519 L -0.10416846424993648 0.9945596669158717 M -0.09746595786532168 -0.995238859298307 L -0.9164097650523935 0.40024135533027705 M -0.6457904527702585 -0.7635146960673281 L -0.5265854022708444 0.8501222348081792 M -0.6297927415583746 -0.7767632217609085 L -0.5441290635986026 0.8390015269040384 M -0.7036103263236102 0.7105860318714284 L 0.8932350242513356 0.4495900259688996 M -0.43102260113922397 -0.9023411313395713 L -0.7249841041699255 0.6887655977913898 M 0.8485027567434636 0.5291909596721609 L 0.24108873895297223 -0.9705030757035578 M -0.985646265181679 -0.16882369482216475 L 0.14402057131769058 0.9895746940162354 M -0.5822157529043416 -0.8130343271166541 L -0.5933270327356928 0.8049615097786094 M -0.9722872122075011 0.233789599806676 L 0.5228003943237344 0.8524551294320117 M 0.6938313045403964 0.7201375707736485 L 0.47048586498091866 -0.8824075310496601 M 0.9958113875991267 -0.09143128746715691 L -0.3946789636991228 -0.9188190875321357 M -0.4204358005468055 0.9073222898279126 L 0.992836583533275 0.11948020086179242 M -0.9815036134935576 0.19144361232250334 L 0.4853749916123288 0.8743060777081054 M -0.7496396975882912 -0.6618461481339416 L -0.39780168575475444 0.9174714266998595 M -0.9066350790993898 -0.42191567089460325 L -0.12110000099316737 0.9926403123787865 M 0.8036771752847329 0.5950655408661745 L 0.3175910551092393 -0.9482277794467953 M -0.5772758609663592 -0.8165491904016248 L -0.598196376925963 0.8013495458491576 M -0.8530759444374795 -0.5217867696886367 L -0.2326337431053369 0.9725644151257027 M -0.5929637191294291 -0.805229177188827 L -0.5825825898176521 0.8127715091225561 M -0.6544064061431234 -0.7561430126628437 L -0.5169120387179869 0.8560385179584004 M -0.6204946155174138 -0.7842107064519693 L -0.5540853214065414 0.8324598828783341 M -0.9446751079111978 -0.3280075311528178 L -0.020033037389225537 0.9997993185699627 M -0.6805047237071505 -0.7327436939423325 L -0.48659314052009933 0.8736287058005746 M -0.9983197086619885 0.0579461758621094 L 0.36360784394404483 0.9315521111684323 M 0.07838396440337732 0.9969232438479956 L 0.9239083702206141 -0.3826138045553097 M 0.9995070151847135 -0.031396283164491515 L -0.3387242933800924 -0.9408856748161049 M 0.9730999121176787 -0.23038350860373225 L -0.5198121471736508 -0.8542805930434794 M 0.9599446584835565 0.280189672630681 L -0.0301629991768589 -0.9995449932247457 M 0.9501851311558998 0.3116860865201486 L 0.0028077302939610903 -0.9999960583175298 M 0.8397490472105131 -0.5429747118504096 L -0.7758963644870339 -0.6308603899245885 M -0.9561105358228081 -0.29300621715011904 L 0.016788931934571552 0.9998590559496355 M 0.9951488739402511 -0.09838047923978706 L -0.4010833098378694 -0.9160415812448143 M -0.8591979331343592 0.5116433442327236 L 0.7521084994219228 0.6590393046680172 M 0.9994437246730146 0.033350280534524795 L -0.27712709422272613 -0.96083327047291 M 0.6182224777368662 0.7860031603122788 L 0.5564921755182978 -0.8308528501406925 M 0.8948001638726631 0.44646687081289144 L 0.1481067695903662 -0.9889713771396552 M 0.7409172580440496 -0.6715963197728879 L -0.8676820804011482 -0.49711951012883754 M 0.7632488393710848 0.6461046426072885 L 0.37862516825759346 -0.925550096948787 M 0.5208586088957983 0.8536429637378462 L 0.6509085414370904 -0.7591561569823692 M -0.8644598156349139 -0.502701926744319 L -0.21096516919889174 0.9774935792039163 M -0.5424777885257335 -0.8400701452594477 L -0.6313193300686235 0.7755229870749831 M -0.4441181232388411 -0.8959682430816449 L -0.7148763883856094 0.699250848643566 M 0.36428437557159327 -0.9312877609602815 L -0.9982773564440873 -0.058671284381754216 M -0.776119938599025 -0.6305853161222879 L -0.3598880232778023 0.9329955041162825 M -0.728395273710838 -0.6851571536776898 L -0.42653665749236613 0.9044702758052583 M -0.9589282572460412 -0.2836487219344908 L 0.02655916254078799 0.9996472432238944 M 0.5728850248234076 -0.8196357412491744 L -0.9565511211967823 -0.29156466270311066 M -0.4331475627651187 0.9013230213805912 L 0.9910590907373581 0.13342368105715346 M -0.924041813613234 0.382291415930786 L 0.6491253661642115 0.7606814438397839 M 0.3259294681927564 -0.9453940880731099 L -0.9998409525679961 -0.017834504981138335 M -0.7152806192347649 0.6988373457015096 L 0.8856676785504076 0.4643196777772096 M -0.5452739084692855 0.8382579344942875 L 0.9657295752431669 0.2595503563870648 M 0.9236198323455829 0.38330980328960723 L 0.07913506164186969 -0.9968639034587106 M -0.999996018264156 0.002821959573379839 L 0.3116996069918888 0.9501806959737196 M 0.7259887769671759 0.6877065476769173 L 0.42970492365863516 -0.902969367466874 M 0.8136267158504059 -0.5813876222061173 L -0.8043569688677247 -0.5941463343604219 M -0.7765151725800165 0.6300985532065815 L 0.8392157196524881 0.5437986538123798 M 0.24677656928279557 -0.9690724043398479 L -0.9979007786311547 0.0647613774354383 M -0.9996401923237977 0.026823234160718013 L 0.3344162193249559 0.9424254836603279 M -0.7634787071024051 0.6458329999320567 L 0.850151578361886 0.5265380269351816 M 0.7230657801524504 0.6907791814845959 L 0.43353042775387074 -0.901138928363183 M -0.8705447028694537 -0.49208934179266123 L -0.19899166756155334 0.9800011817549366 M -0.39786298439277246 -0.9174448461079698 L -0.749595475622288 0.6618962327484542 M -0.8306139717282386 0.5568486598438043 L 0.786268379563971 0.6178851311512903 M -0.667840738608694 0.7443042038404688 L 0.9142495009343578 0.40515163832974654 M 0.524161284223082 0.8516190158290323 L 0.6479630697867375 -0.7616717535740364 M -0.008083974721583603 -0.9999673241424946 L -0.9485273541368808 0.3166952138161996 M -0.37216146858829086 -0.9281680027334527 L -0.7677360087709879 0.6407662762945577 M 0.102203253411072 -0.9947635372248986 L -0.9776588864349869 0.21019776824386452 M -0.32533368566474846 -0.9455992771633186 L -0.7987847166371166 0.6016169682339099 M 0.8544454181813704 0.5195411700229954 L 0.23007486025012594 -0.9731729335944794 M -0.22321770075075048 -0.9747686177096329 L -0.8580819827754824 0.5135127173070757 M 0.1365692291718357 -0.9906305293314004 L -0.9843478328843297 0.17623661338077218 M 0.3456080258194526 0.9383789706132488 L 0.7856526813854823 -0.6186678141230573 M 0.6876741451032885 -0.7260194695436627 L -0.9029885448958308 -0.4296646224521052 M -0.9347669320703819 0.35526156942135767 L 0.6267326983769053 0.7792343195632512 M -0.9820246953926824 -0.1887524771729083 L 0.12394804639007329 0.9922887088927719 M 0.22229955469405557 -0.9749784141112174 L -0.9959539142300343 0.08986545904780872 M -0.5541996575769357 0.83238376938862 L 0.9629011204034191 0.2698544650841268 M 0.9977615493299163 -0.06687219660490329 L -0.37192451341688537 -0.9282629779968675 M 0.5755275606025878 -0.8177823836368907 L -0.9556050618266051 -0.29465058257429283 M -0.8386188608311645 -0.5447186487153161 L -0.25891074060800334 0.9659012518874873 M 0.12913439998611057 0.991627100648337 L 0.9031886916523509 -0.4292437387677478 M 0.9356724000354281 -0.3528698907698728 L -0.6247378817995881 -0.7808345401200973 M -0.4658322802391107 -0.8848730342185994 L -0.6976141741651453 0.7164736310597078 M -0.09589905831589468 -0.9953910641622842 L -0.9170387190693422 0.39879817919301 M -0.2914725823860268 -0.9565791831924949 L -0.8196908841758835 0.5728061228713938 M -0.2727216547593507 0.9620929783681624 L 0.9992804224135498 -0.03792937359089315 M 0.962259343815587 0.2721340758515847 L -0.03853960409049253 -0.9992570734883732 M 0.998158997457596 -0.060651593502948374 L -0.36613118652732096 -0.930563245702352 M 0.994330997702118 -0.10632905063392015 L -0.40839011280061815 -0.9128074910772251 M -0.9970322173453078 -0.07698543742487268 L 0.23488239717627787 0.9720237957461356 M -0.30713104471118396 0.9516672324791984 L 0.9999980351098041 -0.0019823663967364746 M 0.26015653786457305 0.9655664533352011 L 0.8379154759625407 -0.5458000138718108 M 0.9406711529742755 -0.3393195867645237 L -0.6133954764863061 -0.7897759108925376 M -0.3886605390558047 -0.9213810207405247 L -0.7561827121547845 0.6543605319991681 M 0.43852167370873124 -0.8987206138103727 L -0.9902447456708786 -0.13933895245485706 M -0.9929836930158057 0.11825136533965301 L 0.41931256784615595 0.9078419303195149 M -0.3057618517873616 0.9521080243289433 L 0.9999941491887947 -0.003420758421556082 M -0.44738088865064546 0.8943435248662333 L 0.9888195346820233 0.1491171614242535 M 0.7545526872247165 0.6562394701646338 L 0.39095122084643236 -0.9204113987335685 M 0.3823792041836221 0.9240054892736839 L 0.7606197692779214 -0.6491976329158953 M -0.7556988480942888 0.6549192705891048 L 0.8563890266317441 0.5163311292811368 M -0.9966559901064663 0.0817119170311116 L 0.3856962896398951 0.9226258028897838 M -0.6555954220468335 0.7551123377294495 L 0.9207446361793475 0.3901657531703173 M -0.7941671387039203 0.6076993959210657 L 0.8233676126729954 0.5675083914808416 M -0.6777771214084133 0.7352674164515417 L 0.9087255165494729 0.4173942208175548 M -0.4945362514347416 -0.8691570030879772 L -0.6737973254425705 0.738916209205373 M 0.35633756180229675 0.9343572882194446 L 0.778512225177929 -0.6276294410307005 M 0.8752107515649808 0.4837418116568605 L 0.1896108062874309 -0.9818593290991486 M -0.9465203213669316 0.32264420224054935 L 0.5993437358093446 0.8004917778129257 M 0.20112052428270344 0.9795665034658191 L 0.8694734463446717 -0.4939796818711466 M 0.9392209159346354 -0.3433133715294301 L -0.6167456436205296 -0.7871625061415836 M -0.47708319152210604 0.8788581389320358 L 0.9832705738413126 0.18215097753725015 M -0.856000421629659 -0.5169751233568654 L -0.22715388235535325 0.9738588777286421 M -0.9927341886823843 0.12032801262020514 L 0.42121047569517384 0.9069629182963576 M -0.5816677274273814 0.8134264901449089 L 0.9533597768339267 0.3018362733588618 M -0.8439643843066829 -0.5363992151577421 L -0.2493466315134223 0.9684143004690242 M -0.4218814209173652 0.9066510170317711 L 0.9926448864282105 0.12106250223717158 M 0.7583675024791349 0.6518272249481142 L 0.3855760835377532 -0.9226760448844912 M -0.8685429656325417 -0.4956138787909691 L -0.20296227226519678 0.9791865583416411 M -0.6587819101501415 -0.7523339649776095 L -0.511937313998942 0.8590228090892282 M 0.19258996880035725 0.9812793200294591 L 0.8737385183142431 -0.48639593091845557 M -0.8757863371021628 0.48269896596655026 L 0.7297068585973753 0.6837601191323973 M 0.997473055111856 0.07104579034552429 L -0.24066756359721178 -0.9706076054885321 M -0.20197811730343726 0.9793900347310865 L 0.9938699452641554 -0.11055556024291475 M 0.19120903506197987 -0.9815493390098465 L -0.9925957362427023 0.12146482780133458 M -0.999967874016178 0.008015668129676192 L 0.31663042030717287 0.9485489849955578 M 0.9768592607617279 -0.21388310981480183 L -0.5052810380027611 -0.8629548497081712 M 0.9903027416637568 -0.13892616691338808 L -0.4381470130770899 -0.8989033290246646 M 0.67486661823175 0.7379397316830429 L 0.49327713648029475 -0.8698722128139286 M 0.7484612164727231 0.6631785637640676 L 0.3994330590144598 -0.9167623636288474 M -0.16180667622766112 -0.986822476197293 L -0.8885229336562825 0.4588322093825075 M -0.4951611130211627 0.8688011695155822 L 0.979292212509798 0.20245187704159348 M 0.14682929013744744 -0.9891618469986261 L -0.9861215661830741 0.16602486774167585 M 0.8237800815022877 0.5669094965866107 L 0.2846009260665151 -0.9586460832247123 M -0.11305687705677109 -0.9935885177225883 L -0.9100223379546089 0.41455921702891574 M -0.5363769965565306 0.8439785053927591 L 0.9684208644945885 0.24932113671238093 M -0.837203634801875 -0.5468912815857725 L -0.26141436615089975 0.9652266724298098 M 0.6238952781387185 -0.7815079538406574 L -0.936052475691798 -0.35186043078365037 M -0.97668649939609 0.21467063585272084 L 0.5059766335749224 0.8625471849563876 M 0.7872111033360999 0.6166836131959079 L 0.34323935973090053 -0.9392479661577774 M 0.9770821164976609 -0.21286272012837631 L -0.5043794559520234 -0.8634821158620142 M -0.4198392520177046 -0.9075984808632143 L -0.733439985625405 0.6797542110835398 M 0.9788029070377269 -0.20480446570935637 L -0.49724735409748994 -0.8676088224787974 M -0.7145973234157156 -0.69953603578879 L -0.4444755881499023 0.8957909641980089 M -0.7824653988559088 -0.6226940658086147 L -0.35042214318875897 0.9365918649886923 M 0.9983961395415999 0.05661403137412379 L -0.254678230784597 -0.9670258521696448 M -0.8896546511873987 0.4566339908730272 L 0.709203138923276 0.7050041898750478 M -0.8953880547008912 -0.44528668461896964 L -0.1468026775634352 0.9891657969522633 M -0.6037289197741113 -0.7971896834683604 L -0.5716099469800251 0.8205254831591112 M -0.97169865884072 -0.23622386925784195 L 0.07560914883100123 0.997137531443407 M -0.828618777992496 -0.5598132909803255 L -0.2763567940375911 0.9610551089241784 M 0.22933859353268443 -0.9733467057099696 L -0.9965772499475356 0.08266670966602634 M 0.9765924885040215 -0.21509791118819047 L -0.5063539456036679 -0.8623257399449455 M -0.03461717433180036 -0.999400646008037 L -0.9397892016097632 0.34175467302976836 M -0.9321811082062275 -0.36199223956241044 L -0.05621527401311123 0.9984186711834023 M -0.9749914471592528 -0.22224238562053358 L 0.08992385750104379 0.9959486431800246 M 0.998745701303368 -0.050070192011252096 L -0.35624897714611653 -0.9343910671032476 M 0.7713259193602086 0.6364403555111264 L 0.3669379300578763 -0.9302454275538478 M -0.8316202964986491 0.5553446519518297 L 0.7851489545136668 0.6193069668799923 M 0.22052936920692456 0.9753803346988271 L 0.8594945003377406 -0.5111449930197671 M -0.8362034492372653 0.5484193573203815 L 0.779978880011213 0.6258058378893999 M -0.48116242214691357 -0.8766314639081325 L -0.6850387006411803 0.7285066771305829 M 0.813464675744666 -0.581614323513121 L -0.8045225014765591 -0.5939221705054458 M -0.4308950996066604 0.9024020241194975 L 0.9913892339281283 0.13094803110928774 M 0.9116670955543036 0.41092956438248673 L 0.10909661420556406 -0.9940311508040793 M 0.09690437340027387 -0.9952936965619246 L -0.9765256539526499 0.21540113085206736 M -0.7431091832394027 -0.6691701889544004 L -0.40678530241847954 0.9135237915546076 M 0.18868598756285268 -0.9820374728580529 L -0.9922803145650176 0.1240152302209271 M -0.13736468648645744 -0.9905205413854259 L -0.8995929928575107 0.43672926075735613 M 0.40527147889069587 -0.9141963839338615 L -0.9946882024264577 -0.10293386203588281 M 0.8495887816089772 0.5274456390607222 L 0.23909324027268172 -0.9709966129991956 M 0.28187218675817227 0.9594519635355206 L 0.8253897460427327 -0.5645633419976124 M 0.5096867315820509 0.8603600616307142 L 0.6607491811077149 -0.7506067676656561 M -0.5607896193549057 -0.8279583339901713 L -0.6141416461125078 0.7891958175954934 M 0.7226656775249749 -0.691197741986596 L -0.8806840921715511 -0.4737040529655314 M -0.8174087125753251 -0.5760581538403475 L -0.29527067743889596 0.9554136418561205 M -0.21840094179036923 -0.9758591233498203 L -0.8606075756472049 0.5092686920856616 M 0.9761369120216312 0.2171560015032377 L -0.09511526436911252 -0.9954662658694134 M 0.9870386290260373 -0.16048284896025677 L -0.45763996973085774 -0.8891375923358205 M 0.9115229912649562 0.411249117197091 L 0.10944505766656458 -0.9939928467309824 M 0.7182176513227088 0.6958185146491087 L 0.4398212725970723 -0.8980853234359706 M -0.6831496750242144 0.7302783863118983 L 0.905640877295645 0.4240455180416065 M -0.8220337492729336 -0.569438771999487 L -0.28754605626613133 0.9577668116644024 M 0.8556828478801182 -0.5175005930854287 L -0.7565928530306132 -0.6538862704958691 M 0.9989057758876616 -0.046768054249334355 L -0.3531579232768547 -0.9355637237659331 M -0.3079910397136761 -0.9513892575891788 L -0.8096504875766616 0.5869123341410318 M 0.826477545665348 -0.5629696852504427 L -0.7908115947139541 -0.6120596553163529 M 0.3220846435668327 -0.9467108758107865 L -0.9999051759766893 -0.013770949677714863 M 0.3446613653768403 0.9387270866532894 L 0.7862762935784594 -0.617875060312779 M -0.9942785353115849 0.10681851065545431 L 0.4088394051733236 0.9126063449141272 M 0.4269556852010072 0.9042725489997684 L 0.7280777376609469 -0.6854945717673608 M -0.8262908306742083 0.5632436978286812 L 0.7910144980566679 0.6117974042639914 M 0.8800220647317851 -0.47493280112580755 L -0.7236297087400612 -0.6901884124127079 M 0.043047203442626664 -0.9990730395100096 L -0.9634772419048875 0.2677902244880327 M -0.01276739738561241 -0.9999184934603409 L -0.9470336562033976 0.32113432394875663 M -0.9999967475506337 0.0025504682225158835 L 0.3114416287354473 0.9502652850076192 M -0.9703571332773169 -0.2416754722718619 L 0.0700098120627837 0.9975463027924737 M 0.1825174325386212 0.9832026173782847 L 0.8786802676719514 -0.47741071123713574 M -0.6476681562768207 0.7619225415650752 L 0.9247718650726566 0.38052200668297786 M 0.022792433470255464 0.9997402187451018 L 0.9437662003544021 -0.330613609926474 M -0.9988438011456447 0.04807349491060238 L 0.35438031987588503 0.9351013789342123 M -0.3725325223075455 0.9280191376384315 L 0.9977175284480351 0.06752579823700217 M 0.9772213341320496 -0.21222267578460363 L -0.5038137582231033 -0.8638123042797622 M 0.5686702289538966 -0.822565602673442 L -0.9580351414446735 -0.286650776655296 M 0.11021214745849932 -0.9939080855655547 L -0.9793201879267958 0.2023165082711378 M -0.9910143385577026 0.1337556756666389 L 0.4334494792177954 0.9011778675521398 M -0.44052571274407754 0.8977399937684198 L 0.9899314027092826 0.14154793509632088 M -0.8641212894820374 0.5032836149368475 L 0.7456793251814127 0.6663049932253194 M -0.6570033337276697 -0.7538876703267724 L -0.5139645859360044 0.8578114037500502 M -0.6824945917912997 0.7308906431030755 L 0.9060207362548396 0.42323329911083124 M 0.7959632694283615 0.6053449212811765 L 0.32975105483903094 -0.9440679222558864 M -0.9990197788301584 0.04426603106380301 L 0.3508135866689737 0.9364453146919207 M -0.6172343764830556 0.7867793365916352 L 0.9390075267975412 0.343896590005724 M 0.7083042451415692 -0.7059072859196396 L -0.890235773110763 -0.4555000200591458 M 0.6310429648588106 0.7757478820481574 L 0.5427770779019391 -0.8398768026944382 M -0.9853257822354654 -0.1706842197218835 L 0.14215207231129678 0.9898448304343483 M -0.22840595415190545 -0.9735659813838802 L -0.8553349491890616 0.5180754044497243 M -0.22757344719271333 0.9737609183638586 L 0.9964257293745389 -0.08447346234420704 M -0.12291252522221086 0.9924175084829466 L 0.9818271974433097 -0.18977711758959792 M -0.1079828839818564 0.9941527532361216 L 0.9788640004099932 -0.20451227029531693 M 0.9986489820866665 0.051963550468235656 L -0.25917923359737555 -0.9658292420877911 M 0.08907927723618993 -0.9960245390386112 L -0.9748026387551678 0.2230690822950633 M -0.09074393737125586 0.995874258041828 L 0.9751741213054959 -0.22143945704425427 M 0.9996461907996588 -0.026598744702190306 L -0.334204570793565 -0.9425005596076265 M 0.7479298369389304 -0.663777793404167 L -0.862413226003264 -0.5062049265017509 M -0.762289469756039 0.6472362507609234 L 0.8511186546563035 0.5249733666540083 M -0.6980885400845523 -0.7160114455807381 L -0.4652461285969501 0.8851813598498052 M -0.9256981760622524 -0.37826298634021716 L -0.07369300996700058 0.9972809735886891 M 0.1337335863801004 0.9910173196639482 L 0.9011875287175942 -0.433429392270385 M 0.6252004262158732 0.7804642381682139 L 0.5490680428540473 -0.8357776524389882 M -0.8311857455597005 0.5559948348486385 L 0.7856330315694036 0.6186927668132775 M -0.703441763028614 0.7107529008222163 L 0.8933416371315681 0.4493781474071583 M -0.5313526162000306 0.8471507523796358 L 0.9698852317463931 0.24356238880468659 M -0.32961026204431093 -0.9441170876300676 L -0.7960535358441065 0.6052262123124673 M -0.20406151847945192 -0.9789580668628561 L -0.8679859715615181 0.496588716316035 M -0.5136806268201364 -0.8579814762742094 L -0.6572528305025251 0.7536701644595061 M -0.7864104531638624 0.617704297503756 L 0.8304858918662041 0.5570396605370174 M 0.27998627025152006 0.9600040044034415 L 0.8264975483579579 -0.5629403188245492 M 0.8755423282256877 -0.4831414197573441 L -0.7300522542686598 -0.6833913271598112 M 0.9674755755845381 0.25296444542142016 L -0.058382910289274774 -0.9982942631239321 M 0.8156834374468275 -0.5784985132867045 L -0.8022448249296229 -0.5969951765916025 M -0.977218166464484 0.21223726141229765 L 0.5038266511162555 0.8638047844420514 M 0.9865387191440466 -0.16352784359131006 L -0.4603814510676136 -0.8877211946962169 M -0.2258217241553902 -0.9741686449991536 L -0.856706687333798 0.5158038889709443 M -0.17167108550933985 0.9851543221242268 L 0.9899867204777615 -0.1411605230851971 M -0.2497831377676583 -0.9683018042361292 L -0.8437225061806196 0.5367795940274688 M 0.4131476425241068 -0.9106640574200636 L -0.99376262869103 -0.11151608770529017 M 0.873604950867198 -0.4866357876485457 L -0.7327769130936292 -0.6804689527355173 M -0.8514069264074245 0.524505715569871 L 0.7619337880152128 0.6476549256207265 M -0.9794199190058593 -0.20183315449785713 L 0.11070266281255153 0.9938535709279364 M -0.9897931260501414 -0.14251164031014768 L 0.17032627270012107 0.9853877210662227 M -0.9200313597787821 -0.3918447358630776 L -0.08836116388899815 0.9960885024515551 M 0.5962970731588941 -0.8027638510434663 L -0.9477397208832201 -0.31904454463318455 M -0.4852223001563654 0.8743908276228463 L 0.981537031197439 0.1912722049543996 M 0.9980654553404381 0.0621719137238345 L -0.2492901835211734 -0.968428832904091 M 0.6860120540749451 -0.7275901742491266 L -0.9039687594671817 -0.4275985055017904 M -0.9982252211353309 -0.0595517244865314 L 0.2518315019149778 0.9677710962016 M -0.9297126916314365 0.36828563781313745 L 0.6375574773002897 0.7704027927899085 M -0.9436642656508877 -0.33090444804138086 L -0.023100536510327178 0.9997331470012061 M 0.9971745359209683 0.07511953747728727 L -0.23670095233867766 -0.9715825539613003 M 0.8003261874184588 0.5995648369711435 L 0.32290565218723444 -0.9464311595597098 M 0.6444444322824452 -0.7646511450983101 L -0.9263707357438893 -0.37661287810870897 M 0.8208354252353726 -0.571164778919941 L -0.7968620808528073 -0.604161256701333 M -0.7208912162725666 0.6930482337478825 L 0.8818956757366191 0.4714446066263267 M -0.8783810019411628 0.47796110242240325 L 0.7260026781303549 0.6876918723873013 M 0.4460542272652981 0.8950059364824112 L 0.7133628913766814 -0.7007948239011909 M 0.53361918993648 -0.8457248725983734 L -0.9692295492925368 -0.246158649610746 M 0.9998258926732584 0.01865969828592931 L -0.29121676460520357 -0.9566570942677828 M -0.8560865427577359 0.5168324983097592 L 0.7560822057184359 0.6544766597793575 M 0.7426908739901561 0.6696344269015281 L 0.4073560836101282 -0.9132694132323814 M 0.976261828415396 0.21659372654587195 L -0.09568862091981413 -0.9954113159023581 M -0.9596220626155326 -0.2812925469000394 L 0.029014415810796838 0.9995789932142223 M 0.8753623375641849 0.48346745285920334 L 0.18930303291525283 -0.9819187144204385 M -0.6942038281183353 0.7197784694097544 L 0.8990707840698093 0.43780329513618127 M 0.9627748036240904 0.2703047863183227 L -0.04043864766203669 -0.9991820233447285 M -0.05137351765330158 -0.9986795089937142 L -0.9339253647032247 0.3574680589422621 M -0.3871014272429556 -0.9220371386373039 L -0.7572885094022752 0.6530804801303437 M 0.1683674325273494 -0.9857243061141124 L -0.9895079225505736 0.14447861852069332 M -0.15099744523387157 0.9885341529420437 L 0.9868126244203074 -0.16186674854554073 M -0.7078666254627879 0.7063461195164346 L 0.8905178967447479 0.454948211972869 M 0.9219439631167144 -0.3873232872842095 L -0.6532626887489618 -0.7571313356931393 M -0.8628127536966326 0.5055236414436363 L 0.7474053571919301 0.6643682954813567 M 0.9332454560674357 -0.3592393613309709 L -0.6300456413515652 -0.7765581045961049 M -0.47935119422616396 -0.8776231723205299 L -0.6865415715972536 0.7270905517669537 M 0.3140293717189695 -0.9494132681281579 L -0.9999860879044113 -0.005274845744739643 M 0.9356143570676297 0.3530237596096414 L 0.046624810468675545 -0.9989124721659851 M -0.5268505976362279 -0.8499579094110188 L -0.6455522201557636 0.763716132507337 M 0.7829002024680081 -0.6221473080995786 L -0.8336267189257944 -0.552328247958598 M -0.9876124984831155 0.15691256431509326 L 0.45442176266883644 0.8907866532525887 M 0.8586621203200584 0.5125420598618825 L 0.22211527830206015 -0.975020411655468 M 0.2664006950194688 0.9638623707216419 L 0.8343652464121994 -0.5512119697353367 M -0.6009500977485643 -0.7992865443731622 L -0.5744628834375392 0.8185306320185142 M -0.9993801025931841 0.03520526297070944 L 0.34230763029764955 0.9395879342775788 M 0.2857159880705014 0.9583143399537007 L 0.8231200017936415 -0.5678674692630629 M -0.3744659219047433 -0.9272406771340603 L -0.7661419544794311 0.6426713822681366 M -0.19731445618737084 -0.9803402498007935 L -0.8713854625617148 0.49059899677445973 M 0.9968546647993999 0.07925135498952775 L -0.23267251475694622 -0.972555140275696 M -0.8773001678343634 -0.4799420960051305 L -0.18535139682122176 0.982672305347221 M 0.07559934178983072 0.9971382750255575 L 0.9249733727337477 -0.3800319193614604 M 0.12517969054946398 0.9921340862373091 L 0.9048929360241494 -0.4256392537508667 M 0.5217103497957598 -0.8531226822186748 L -0.9725852503514584 -0.23254662069957308 M -0.5872301022115282 -0.8094200436464606 L -0.5883401257379745 0.8086135643474109 M 0.2820796296417575 0.9593909956535808 L 0.8252676587649391 -0.5647417917921747 M 0.11901609446779515 -0.9928923251076286 L -0.9810747115677392 0.1936295698551163 M 0.6311357564229721 -0.7756723902295368 L -0.9327399557304238 -0.36054982316457596 M -0.9036045778638521 -0.42836756047054936 L -0.12817258900004314 0.9917518779558857 M 0.9977910864438361 0.06643002192705608 L -0.2451556973156309 -0.969483720375792 M 0.8140034430682079 -0.5808600474065184 L -0.8039716305292774 -0.5946676528146583 M -0.992506755812386 -0.12218976907569921 L 0.19049207847392957 0.981688732765474 M -0.5343091483650874 0.8452891422308553 L 0.9690283539670129 0.24694948715877402 M -0.44114556542511646 0.8974355632053782 L 0.9898334170509923 0.14223152424535299 M 0.029968333367386153 -0.9995508486291136 L -0.9598900722606853 0.2803766202367386 M 0.967520910608547 0.2527909957557986 L -0.058561880016872514 -0.9982837803995863 M -0.7938471318391527 -0.6081173663617501 L -0.3330417292764821 0.9429120884581608 M -0.9902389247683814 0.1393803137948826 L 0.4385592119228912 0.8987022964461439 M 0.6679819345380917 -0.7441774889975835 L -0.9141726198990406 -0.40532508067836626 M 0.7459156029765082 0.666040474172698 L 0.40294153538908123 -0.9152257202779486 M 0.2085315677612366 0.9780156365043663 L 0.8657083458341569 -0.5005487588168488 M 0.9951880713328307 0.09798317547844976 L -0.2143424891150009 -0.9767585665659584 M 0.9709086228106505 0.23945029996207134 L -0.07229649632590956 -0.9973831844476815 M 0.8007535296344896 -0.5989939772467721 L -0.8171235742448739 -0.5764625438077325 M -0.98780941635172 -0.15566809874497123 L 0.15720073716559765 0.9875666702732493 M 0.8776369092572519 -0.47932604301182946 L -0.7270708764875661 -0.6865624083530953 M 0.9836300012689139 0.1801999461812255 L -0.13257805351745489 -0.9911725680856602 M 0.04718872010017367 -0.998885991840564 L -0.9645791480296725 0.263793607174911 M -0.48302863783873856 0.8756045540240485 L 0.982013474664235 0.18881084602817647 M -0.7156144443983764 0.6984955024682715 L 0.8854457239645913 0.4647427997428479 M -0.8989792981036772 0.4379911204362708 L 0.6943541898756289 0.7196334198758136 M -0.969607598079538 -0.2446652933017455 L 0.06693470417576076 0.9977573579668072 M -0.8053910117340658 0.5927438892287106 L 0.8126124480877566 0.5828044347916573 M 0.06736748228839289 -0.9977282306971789 L -0.969713632191553 0.2442446960363017 M 0.8944719947022839 0.44712397687142363 L 0.14883312443990737 -0.988862326650912 M -0.18333698553692399 -0.9830501257485468 L -0.8782819837095422 0.4781430299515317 M -0.17444809043084034 -0.9846663717955607 L -0.8825659446934871 0.4701886358338455 M -0.5466162059026958 0.8373832595917724 L 0.9653125026959197 0.2610972465173464 M -0.9785504324678516 0.20600740549062938 L 0.49831339888244186 0.8669969760582954 M 0.8521035856887 0.5233731739939106 L 0.23444297863534835 -0.9721298728917785 M -0.5446357149234303 0.8386727240287739 L 0.9659268508814616 0.2588152212413766 M -0.9969578173874948 -0.077942994232725 L 0.23394871568310258 0.9722489385081512 M -0.8742117701782299 0.48554482891062245 L 0.7319268671565421 0.681383196985668 M 0.4377185872304296 0.8991120277212383 L 0.7198438706356369 -0.6941360111017901 M 0.5639157110940378 -0.8258323502874574 L -0.9596727762313189 -0.28111948093377115 M -0.17522122402496668 -0.9845290867471578 L -0.8821964674341065 0.4708815061634758 M -0.0910684731518439 0.9958446330617 L 0.9752462333465843 -0.22112165055303748 M -0.9795002602831906 -0.20144289539510188 L 0.11109864809531597 0.9938093833283087 M 0.923397392687561 -0.3838453532059679 L -0.6504041113181237 -0.7595883700929614 M 0.26686697390677006 -0.963733375077279 L -0.9990313365129752 0.04400441642720218 M -0.4368146348594444 0.8995515409205913 L 0.9905075002991305 0.13745869143552916 M -0.9741170834144466 -0.22604403951471966 L 0.08603807653586928 0.9962918495029496 M -0.5162980217325733 0.8564089868485917 L 0.9740382104336146 0.22638366684741507 M -0.45871101410963955 0.8885855082852219 L 0.9868445368069463 0.1616720760498967 M 0.7628395937998063 -0.6465877775919884 L -0.8506719177018839 -0.5256969549402006 M 0.8594810944747444 -0.5111675344155725 L -0.751743479061133 -0.6594556404255436 M 0.5483499529738315 -0.8362489635710151 L -0.9647694803828994 -0.2630966547140235 M 0.2515037132815862 0.9678563334532526 L 0.8427671512158367 -0.5382783005393614 M -0.9873102456673228 0.15880327074821438 L 0.4561265300857794 0.8899149333233523 M -0.9944974915180724 0.10476039024488945 L 0.4069496775343652 0.9134505788244245 M -0.2318629519457927 0.9727484626125004 L 0.9967883566009028 -0.08008103486388948 M 0.9333860842539858 -0.3588738186619514 L -0.6297414461137422 -0.7768048088461945 M -0.9989721125978089 -0.0453290001199079 L 0.2655889187581842 0.9640863686583576 M -0.9936464483810538 0.11254659310577941 L 0.4140918097101252 0.910235119697649 M -0.9661589036166667 0.25794761670199734 L 0.543882282211456 0.8391615238417799 M 0.6010858485369861 -0.7991844609904346 L -0.9458153316229971 -0.3247050330174757 M -0.5900444637215604 0.8073707517810738 L 0.9501889812743214 0.31167434906464025 M 0.1764794483723618 0.9843043250449461 L 0.881593893646523 -0.4720086934423593 M 0.7976437882105671 -0.6031288312865634 L -0.8200950911752429 -0.5722272637949628 M 0.018029192119792214 0.9998374609062753 L 0.9453306056710473 -0.32611354768180173 M 0.9483223541526122 -0.317308544817891 L -0.5948260828040025 -0.8038544216560894 M 0.5803918806705154 0.8143373163816958 L 0.5951298566826942 -0.8036295500321251 M -0.07820563201056037 -0.9969372493401121 L -0.9239767979751835 0.382448528306133 M 0.6224749402800893 0.7826397311172614 L 0.5519792810714803 -0.8338578255720887 M 0.3727572814063005 0.9279288815197985 L 0.7673244746963264 -0.6412590354388831 M 0.42985107853255655 0.902899800799844 L 0.7258774507953276 -0.6878240519397942 M -0.5260891310060025 -0.8504294363657393 L -0.6462359750680485 0.7631376445490345 M 0.3923841880251989 0.919801418235374 L 0.7535297500864752 -0.6574138085974573 M -0.2770851337371663 -0.9608453718792929 L -0.8281942368644023 0.5604411708864636 M -0.9475021114192375 -0.3197495095478441 L -0.01130560000296727 0.9999360896620209 M 0.8481504346514959 0.5297554532050412 L 0.24173447771973633 -0.9703424355770319 M 0.7948290452671659 -0.6068334110772787 L -0.8227485525210302 -0.5684055060645961 M 0.9533647620848794 0.301820526828182 L -0.007557534530877471 -0.9999714414281112 M -0.011515389226388666 0.9999336957073528 L 0.9545519081333694 -0.2980447192602874 M 0.037596736794688265 -0.9992929927615779 L -0.9620021430565849 0.273041895603107 M -0.9526349460526666 -0.3041161941745834 L 0.005148699585115389 0.9999867453584483 M 0.990148967942912 -0.1400179320001059 L -0.43913782468404705 -0.8984197075597592 M -0.6264957729141755 -0.7794248177474655 L -0.5476792111463415 0.8366884017829583 M 0.970764847637653 -0.24003251986146437 L -0.528267327598833 -0.8490781062962272 M 0.04808986607685969 0.9988430130809894 L 0.9350955704715954 -0.35439564625486225 M 0.9418741592131 -0.33596587357440916 L -0.6105776550751983 -0.7919563921851203 M -0.3413667457384142 0.9399301808666242 L 0.9994148491233269 0.034204668567284824 M -0.995676920933665 -0.09288417044930822 L 0.21934299390893894 0.9756478109559121 M 0.173311315137466 -0.9848670915637916 L -0.9902204068113488 0.13951181288466905 M -0.9870531004107705 0.1603938183643167 L 0.45755976850625407 0.8891788674077354 M -0.9985607996429082 -0.05363142191398292 L 0.2575657437168278 0.9662607762212008 M 0.9999593324795353 -0.009018502485572759 L -0.3175815329761327 -0.9482309686529593 M -0.3686697255297211 0.9295604517608524 L 0.9979897354376567 0.06337576793283016 M 0.32601335034096707 -0.9453651651078846 L -0.9998393662027698 -0.01792321933257742 M -0.9837777010879144 -0.1793918472009755 L 0.13339224307256997 0.9910633226429422 M 0.8033929019187973 0.5954492800789112 L 0.3180438580891929 -0.9480760013478567 M -0.5064559905959051 0.862265811446517 L 0.9765670267518715 0.21521348066747478 M 0.9607321142934774 -0.2774775748870252 L -0.5607794060805408 -0.8279652515147939 M 0.9576455784265869 0.28794955481821416 L -0.02207245784769069 -0.9997563736253757 M 0.2818575913367983 0.9594562513245815 L 0.8253983342057042 -0.5645507859266947 M 0.23015013908277202 -0.973155133306186 L -0.9966458351312614 0.08183568485392259 M -0.2094760405818255 -0.9778137800328657 L -0.8652245107692926 0.5013846287672152 M -0.9696452314775793 0.24451610391299713 L 0.5321854890067609 0.8466277843838075 M 0.6956812229369431 -0.7183506358686956 L -0.898169373782752 -0.43964960593488445 M -0.9621763770561415 0.272427273662381 L 0.556422585929595 0.8308994559315961 M -0.9117236521379157 0.4108040678137217 L 0.6724359882990053 0.740155282113382 M -0.9450028722981303 0.3270620298174089 L 0.6030764219638269 0.7976834141884286 M 0.7916008539649297 -0.6110385323381775 L -0.825750294524535 -0.5640358597577319 M -0.85389635172604 -0.5204431001646186 L -0.23110231765429803 0.9729294521057588 M 0.2077036815135228 -0.97819179136084 L -0.9944996447420763 0.10473994752664349 M 0.4996138589797362 0.8662482276549698 L 0.6694618485903997 -0.7428464399066099 M -0.0022546775961230633 0.9999974582112384 L 0.9517508326044274 -0.30687188309908636 M 0.4777788182234488 0.8784801653179226 L 0.6878425112782296 -0.72585995872376 M -0.9546668923600282 0.29767620770166764 L 0.5781151907870679 0.8159551618693469 M -0.9635237865961692 0.2676227058068498 L 0.5522695428088614 0.8336656116727444 M 0.6476925698568541 -0.7619017882589751 L -0.9247596717167793 -0.38055163850162904 M 0.08170566426034265 -0.9966565027268804 L -0.9731251002194777 0.2302770924838844 M 0.5650981242084633 -0.8250237026995504 L -0.959269092420183 -0.2824939084783219 M -0.12254113760673806 -0.9924634348901961 L -0.9060215229064709 0.423231615111914 M -0.5562606895745226 0.8310078490809076 L 0.9622294363420714 0.27223980575371337 M -0.4311160806388288 -0.9022964729037872 L -0.724912744719562 0.6888407018630295 M -0.8173232638214578 -0.5761793838868584 L -0.2954123791816945 0.9553698374065464 M -0.6900021173629166 0.7238073487017743 L 0.9016040759449789 0.4325622385731338 M -0.9063059318965185 0.42262224007875293 L 0.6820015704170007 0.731350707901992 M -0.4666784875487912 -0.8844270400995058 L -0.6969285161124963 0.7171406022735248 M -0.2569540234104068 -0.966423628567309 L -0.8397203294437127 0.5430191233455252 M -0.9997383375874693 0.022874797438299253 L 0.330691361405312 0.9437389594013279 M -0.6680287500658901 0.7441354642035309 L 0.9141471187385012 0.40538259126669035 M -0.7228637358881986 0.6909906072717318 L 0.8805482987513428 0.4739564258095 M 0.9711947978235469 -0.23828693770427248 L -0.526740042227683 -0.8500264277738538 M 0.06296552464802237 0.998015702634883 L 0.9297119201798183 -0.36828758528567757 M -0.6720179718473481 -0.7405348374750352 L -0.4966255088979893 0.867964920899349 M 0.1668690724563812 0.985979062991475 L 0.8861564335640257 -0.46338620529002195 M -0.42600076886802946 -0.9047228000464274 L -0.7288010372279369 0.6847255275915185 M -0.9849319371391858 -0.17294241585929968 L 0.1398826953318321 0.9901680824722143 M -0.8751821638973264 0.48379353033705746 L 0.7305611513866103 0.6828472772770426 M 0.9932977265401456 -0.11558385030002358 L -0.4168726519812253 -0.9089649014291697 M 0.9713780712846208 -0.23753871816478703 L -0.5260850777731255 -0.8504319437464967 M 0.5163635948688473 -0.8563694517520583 L -0.9740208735359174 -0.22645824762266542 M -0.14531958654020624 -0.9893847673012677 L -0.8960546082085702 0.44394384679617505 M -0.9365693203430734 -0.3504823935551023 L -0.043912727841099286 0.9990353709121382 M 0.916911670039937 0.3990902020152509 L 0.09621604883309882 -0.9953604733697972 M 0.3206384808067458 0.9472016493999269 L 0.8017595612874682 -0.5976467233107922 M 0.5866569775091602 0.809835533142265 L 0.5889123850033392 -0.8081968836797621 M -0.5903608754644715 -0.8071394159132751 L -0.5852036577303908 0.810886353923268 M -0.17665225289136788 0.9842733266468233 L 0.9906881093610231 -0.13615090881327732 M -0.7146769632182776 0.6994546720446584 L 0.886068250823889 0.4635548024580199 M 0.86775279419236 -0.49699606454312273 L -0.740821706078569 -0.6717017193686781 M -0.9684164880603178 -0.24933813517574946 L 0.06212249422376312 0.9980685325724975 M 0.16020303648489076 0.9870840830957719 L 0.8892672885351598 -0.45738789833283183 M 0.8139135469147957 -0.5809860051228228 L -0.8040636439970131 -0.594543233417255 M 0.6249852273196065 -0.7806365771806109 L -0.9355605600610125 -0.3531663042510207 M -0.5111599248007895 -0.8594856201692098 L -0.6594622961170442 0.7517376404039084 M -0.49365841417295764 0.8696558917849293 L 0.9796407422121602 0.20075860180327984 M 0.3921953452428886 -0.9198819550191271 L -0.9960547543380684 -0.0887407818341155 M 0.06772620930208546 0.9977039443510134 L 0.9279442879694696 -0.3727189268400977 M 0.21191184095336726 0.9772887862161086 L 0.86397250826914 -0.5035389805716445 M -0.9974961374607544 0.0707209710826692 L 0.3755028986856353 0.9268212195880527 M 0.05172016536720382 -0.9986616166121481 L -0.9657660481031844 0.25941461086676965 M -0.891464684813927 -0.45309018498485015 L -0.1554366354066088 0.9878458646840979 M 0.49064663388737034 0.8713586406612336 L 0.677093165126893 -0.7358973065166403 M -0.9816177033858786 -0.19085775959974272 L 0.12182003637271359 0.9925522045404719 M 0.48282462207587745 -0.8757170686456249 L -0.9820574380904195 -0.18858204657729766 M 0.022888217479052276 -0.9997380304362896 L -0.9578802166064927 0.2871680529479186 M 0.9811551882707031 0.19322136664841477 L -0.11942918745636834 -0.9928427212723633 M -0.43107480290624817 -0.902316194191005 L -0.7249442562991368 0.688807538619382 M -0.947479310337297 0.3198170672161822 L 0.5969513145112347 0.8022774632901692 M 0.7312470986324238 0.6821126598602774 L 0.42275990944274416 -0.9062417221514152 M -0.6378760242225029 -0.7701390638852784 L -0.5353312433724646 0.8446422081978209 M 0.6806074602974641 0.7326482682620875 L 0.48647063795272943 -0.8736969259473587 M 0.3939888689092411 -0.9191152110457191 L -0.9958797667785454 -0.09068346112224729 M -0.5553769239706389 0.8315987447807454 L 0.9625183129572087 0.27121669790410935 M -0.38781580503451163 -0.9217368937855497 L -0.7567822047015353 0.653667113022434 M -0.17166550682507783 -0.9851552942386744 L -0.8838908031914231 0.4676933269073025 M -0.618821325981958 -0.7855317730747313 L -0.5558588053295453 0.8312767219991251 M 0.4301161712113885 0.9027735481628023 L 0.7256754592593263 -0.688037155848989 M -0.6426173472753002 0.766187278007705 L 0.9272670846398893 0.3744005258322167 M -0.7207787089536052 -0.693165242001627 L -0.4365064500246564 0.89970112764566 M -0.4515876519701224 0.8922267607442133 L 0.988106333727348 0.15377214717854082 M 0.8671327563646343 -0.49807708523829103 L -0.7416582156290362 -0.670777974586192 M 0.8445664156606845 0.5354508096343341 L 0.2482586063407621 -0.9686937928869692 M 0.9965340894244079 -0.08318538702840902 L -0.38705997350000826 -0.9220545411819048 M 0.5664220507959246 -0.8241153198261388 L -0.9588142847839642 -0.2840337432317066 M -0.7342715737760425 -0.6788558432719378 L -0.41872787858558336 0.9081117572717672 M -0.8970215018956607 -0.44198690606945956 L -0.1431596387289953 0.9896996099014002 M -0.8812098014062402 -0.472725381067671 L -0.1772797498382171 0.9841605002728463 M 0.04890667146383569 0.9988033527608567 L 0.9348054445200222 -0.3551602186277674 M 0.7427283448663174 -0.6695928656520622 L -0.8663363389108079 -0.4994610574235171 M -0.6939468951494137 -0.7200261847408667 L -0.4703442111060412 0.8824830440745226 M 0.9094213232261272 0.4158760114044087 L 0.11449494669317523 -0.9934238305888011 M -0.5724079299936188 0.8199690004386876 L 0.9567206391102508 0.2910079358032581 M -0.9649118690322261 -0.2625739610104857 L 0.04845148897659891 0.9988255369262194 M 0.37812819713723317 -0.9257532427865137 L -0.9972916930012486 -0.07354780126355445 M 0.19775090117998273 -0.9802523048085654 L -0.9933837312191047 0.11484233779059631 M 0.1905347867062736 0.9816804444699888 L 0.8747550965208613 -0.4845652908646871 M -0.6915119571159309 0.7223650138023676 L 0.9006989000826828 0.43444388750429597 M -0.9929586395921384 -0.11846155519547225 L 0.1941774603462873 0.9809664183311608 M -0.682478644312669 0.7309055342909516 L 0.9060299705741901 0.42321353052724137 M -0.5177420814779934 0.8555367537790735 L 0.9736549064913488 0.2280265841197533 M -0.45482205562400857 -0.8905823362934789 L -0.7064463896249088 0.7077665565607997 M -0.5399341985428121 -0.8417072301245435 L -0.633662302828746 0.773609776291491 M -0.7020296329751932 0.7121477335670707 L 0.8942318297179294 0.4476041048955251 M -0.7636951941883598 -0.6455769902758333 L -0.3779854098453651 0.9258115520687952 M -0.1714147442782127 -0.9851989572893564 L -0.8840098191088296 0.46746833017775064 M -0.49032965732407735 -0.8715370486378952 L -0.6773607923405321 0.7356509749873281 M 0.2697749743282169 0.9629233942667558 L 0.8324295170859612 -0.5541309403778437 M -0.6714038328804937 0.7410916901392042 L 0.9122952755276283 0.40953306368346953 M 0.7088054702342846 -0.7054040015239172 L -0.8899120082783178 -0.4561322368809852 M -0.9340478992613416 0.35714775917745134 L 0.6283043780779007 0.7779676140355345 M -0.9963819344645616 -0.08498847376355304 L 0.22707010885492734 0.9738784142102193 M 0.3441068491349821 -0.9389304960317322 L -0.9993108308627454 -0.03711958136091372 M -0.42029665355651513 0.9073867549227257 L 0.9928548946970547 0.1193279434001127 M -0.8256443507308419 0.5641909305423533 L 0.7917155966124314 0.6108898542950454 M 0.29113480627023036 0.9566820394352532 L 0.8198930848358755 -0.5725166630224066 M -0.8908637842939954 -0.4542705337498589 L -0.15674490226365845 0.987639122156649 M 0.9582788783964804 0.2858349020311961 L -0.02427931261372018 -0.9997052140401216 M -0.6784289539315029 -0.7346660155930766 L -0.48906282518953975 0.8722485614878511 M -0.9918736204895909 -0.12722704498993503 L 0.18550569481683618 0.9826431891538876 M -0.9541529376709403 0.299319514121473 L 0.5795192473326266 0.8149585523025241 M -0.5057893223816144 -0.8626570357707327 L -0.664138099008309 0.7476099152938179 M -0.969236015185245 -0.24613318928545047 L 0.06542382670605866 0.9978575664387856 M 0.9762856604033869 0.21648627968239137 L -0.09579817344878176 -0.9954007785630254 M 0.5394429183873934 -0.8420221717993488 L -0.9675077026316904 -0.25284154197510467 M -0.9988668960322101 -0.047591217792550725 L 0.2634049081924789 0.9646853654638448 M -0.17157960237051495 -0.9851702594223883 L -0.8839315818632643 0.4676162514121032 M -0.23502315619116382 -0.97198977157887 L -0.8517910566976149 0.5238816619523541 M -0.03368793224198086 -0.9994324005260484 L -0.9401065535486823 0.34088072397074376 M 0.4289257159478669 -0.9033397645396829 L -0.9916725050463274 -0.1287852582213574 M 0.7993037428118128 -0.6009272224879045 L -0.8185141909626213 -0.5744863089689827 M -0.5698236443199388 0.8217670073530233 L 0.9576320571109868 0.2879945193808031 M 0.9048869311469556 0.42565201965859956 L 0.1251936872583018 -0.9921323201421626 M -0.9804057962684185 -0.19698851398822304 L 0.11561484256684557 0.9932941196736461 M -0.9999905804417925 0.004340394876852664 L 0.31314204440230614 0.9497063019836944 M 0.5395460297706404 0.8419561044132522 L 0.6340189470900471 -0.773317512235969 M -0.9987262519570528 0.0504566512148545 L 0.3566105115114436 0.9342531472141512 M -0.6909771635873683 -0.7228765865628484 L -0.47397280185430013 0.8805394841245816 M -0.9288509747294261 0.37045359593907984 L 0.6393530428359612 0.76891331541104 M 0.9999953955227653 0.0030346224259791767 L -0.3061294740805087 -0.9519898870782143 M -0.11549264065622694 -0.9933083357921908 L -0.9090031767574445 0.416789184894323 M -0.6272125232772947 0.7788481563463632 L 0.9345479430751517 0.3558372410161746 M -0.4930673060643542 0.86999116759335 L 0.9797769460034436 0.2000928186621529 M -0.6908476107477795 -0.7230004002240141 L -0.4741305896726602 0.8804545325777223 M 0.6890367213192636 -0.7247264288499484 L -0.9021798493251065 -0.43136008099003326 M -0.6172768368379639 -0.7867460242691524 L -0.5574909002335404 0.8301830497888985 M -0.9555515053836275 0.29482421976337564 L 0.5756761495316977 0.8176777915905252 M -0.4458000401253625 0.8951325735466368 L 0.9890814555113502 0.14736985568137373 M 0.5105150619256313 0.8598688106607129 L 0.6600260055184359 -0.7512427517383297 M -0.6964229521972055 0.7176315709700408 L 0.8977147093718935 0.44057723565492685 M 0.4373201494160022 0.8993058917380479 L 0.7201513703279585 -0.6938169814978324 M -0.9917171268177972 0.1284411942339881 L 0.4286122805363601 0.9034885239854574 M -0.197845071906891 -0.9802333025979872 L -0.871119780452772 0.49107059380899015 M -0.19117960427019243 0.981555071766782 L 0.9925920938037219 -0.12149458966696144 M 0.731551347925602 0.6817863487546776 L 0.42235555093730537 -0.9064302447471869 M -0.18806631784784938 -0.9821563317981266 L -0.8759704910926474 0.4823646947434133 M 0.11849773258820227 -0.9929543229028488 L -0.980973492344849 0.19414171967083893 M 0.576487509770062 -0.8171059607413916 L -0.9552583860305552 -0.2957725746554247 M -0.7908096029489753 -0.612062228767373 L -0.33773216442120696 0.9412422563375312 M 0.9339115235440821 0.35750421842486196 L 0.051412184518250754 -0.9986775191637496 M -0.2042684004388599 0.9789149199915943 L 0.9941258207059493 -0.10823055301402901 M -0.7885346768750415 0.6149902953425963 L 0.8285611436522029 0.5598985901301713 M 0.8637848043996812 0.5038609051000132 L 0.2122760130594003 -0.9772097493780981 M 0.8052933199904434 0.5928766050189275 L 0.3150098372285294 -0.9490884060240413 M 0.40067648221183855 -0.9162196006429606 L -0.9951924637986604 -0.09793855215568575 M -0.6561512057747576 -0.7546294422829868 L -0.5149333750073989 0.8572302020481368 M -0.8675607894981451 0.49733115378523723 L 0.7410810621723102 0.6714155637826401 M -0.46210106389903166 -0.8868272699592538 L -0.7006257720594453 0.7135289255006458 M 0.8532742959703167 -0.5214623436417632 L -0.759616418241188 -0.6503713532578357 M -0.8748929001209061 -0.48431643923991485 L -0.19025553109264343 0.9817346041006481 M -0.6995532247993689 -0.7145804962863201 L -0.4634326024777268 0.8861321701420851 M -0.34467890011154206 -0.9387206484454774 L -0.786264751947952 0.6178897473208513 M -0.9575410488369476 0.2882969645907469 L 0.5700831637043708 0.8215869926312219 M -0.8035173109957079 0.5952813880260551 L 0.8144467474835373 0.5802383092432688 M -0.35116678241508703 -0.9363129236148751 L -0.7819700036690621 0.6233160621721592 M 0.18800702991675122 -0.9821676825786327 L -0.9921943419171538 0.12470119433103251 M -0.9926096490980207 -0.12135107958936381 L 0.19132151534892572 0.9815274207909787 M -0.6431522491033991 -0.7657383263708558 L -0.5295154501285276 0.8483002935724959 M -0.946608453041175 -0.3223855403565638 L -0.014088769906742281 0.999900748355813 M 0.9570356396847209 -0.2899703163657566 L -0.5715184357968975 -0.8205892258275559 M -0.44208523730830906 0.8969730447198824 L 0.9896839104124974 0.1432681313852734 M 0.08042898501677045 -0.9967603414909585 L -0.9728293411700686 0.2315233745404775 M 0.8215029604701723 0.5702042493166308 L 0.28843809121715425 -0.9574985470145657 M 0.9227870178380282 0.38531041993384846 L 0.0812951149739802 -0.9966900743367355 M 0.9922025217702246 -0.12463609345934694 L -0.42514340993876176 -0.9051260028226136 M 0.7012466706067784 -0.7129187239530945 L -0.8947231364707617 -0.44662121430124957 M 0.2040660133103375 -0.9789571299151077 L -0.994103423666603 0.10843607819512144 M -0.8885855209355077 0.4587109896043176 L 0.7108481026839722 0.7033455586769543 M 0.447536646695779 -0.8942655924636135 L -0.988793548445638 -0.1492893785648651 M 0.09579684486702675 -0.9954009064259098 L -0.9762853714538756 0.21648758275053115 M 0.9582874472551935 0.28580617283943455 L -0.024309283621717605 -0.9997044857005488 M -0.25719795116696476 -0.9663587397625768 L -0.8395832387009614 0.5432310606844978 M 0.48005654451715835 0.8772375471138052 L 0.6859568550046459 -0.7276422150151373 M 0.9998573464501009 -0.016890433675982416 L -0.32503666901431494 -0.945701413658708 M 0.9243004848082048 -0.3816655784627658 L -0.6486100931573109 -0.7611208491786732 M -0.9992035897883551 0.03990220738335948 L 0.34672014443155996 0.9379686249791931 M 0.45090290306537106 -0.8925730065418854 L -0.9882240340010161 -0.1530139164349393 M 0.9935553267125219 -0.1133481925800928 L -0.41482601796949764 -0.9099007499807713 M 0.3910182871831588 -0.9203829089505893 L -0.9961674588951267 -0.08746652981813094 M -0.458887633775154 -0.8884943103747148 L -0.7032042262280116 0.7109879156603602 M 0.2840294507212909 -0.9588155563626206 L -0.999657709979694 0.026162241458903272 M 0.5871239559139692 -0.8094970416202468 L -0.9513087165366487 -0.3082397213880684 M 0.9458495532840498 0.3246053335242095 L 0.016434431585637396 -0.9998649456093843 M -0.7929044994893353 -0.6093459236669814 L -0.3345014461228051 0.9423952369052765 M 0.3124190483683002 -0.9499443869072788 L -0.9999935945984255 -0.0035792124999635337 M 0.2901719300999964 -0.9569745299547124 L -0.9998049203333991 0.019751487972439603 M 0.3161997743632587 -0.9486926281428693 L -0.9999714098522215 -0.00756171132485516 M -0.5052598186995056 -0.8629672737756298 L -0.6645967785208244 0.7472021961823602 M 0.8649998984912345 0.5017720355003394 L 0.20991389529088514 -0.9777198763264493 M -0.30427412801396947 -0.952584513322224 L -0.811935832212014 0.5837466953826669 M -0.7085928874141928 -0.705617545066743 L -0.4521149199437162 0.8919596959304199 M 0.41759269284846146 -0.908634328472995 L -0.9932058378406851 -0.11637080252014606 M -0.30019820004918785 0.953876847757208 L 0.9999571372985421 -0.00925870216092544 M -0.5544668839916223 -0.8322057885863453 L -0.6201350481620573 0.7844950745804864 M -0.9241295674858288 -0.38207923589022086 L -0.07780720567697677 0.9969684241462919 M 0.9999935425245764 -0.003593731924925049 L -0.31243284107031855 -0.9499398506330435 M 0.8002733753762538 -0.5996353263975511 L -0.8175851577082263 -0.5758077021846919 M -0.6962516995703719 -0.7177977227919915 L -0.46751259411346024 0.8839864107243408 M -0.38082276239634 0.9246480539323169 L 0.9970732623972443 0.07645200724975137 M -0.9429504210960914 0.33293318151650786 L 0.6080259767438567 0.793917131446777 M -0.7614934131547422 -0.6481726480822383 L -0.38113441487349975 0.924519636243079 M -0.05776168945178368 -0.9983303998334798 L -0.9316192885127679 0.3634356906950171 M 0.980812273485918 0.19495456952681225 L -0.11767484706868589 -0.993052179075884 M 0.40986425705066154 0.9121465292332747 L 0.7408478796277974 -0.6716728513577102 M 0.011372869979299644 0.9999353268229071 L 0.9474805983502296 -0.3198132513669359 M -0.4108685513307559 -0.9116945944379433 L -0.7401077200958543 0.672488336444965 M 0.5390387438020515 -0.8422809701520665 L -0.9676289376758839 -0.2523771760128886 M 0.7120753855635117 -0.7021030161412042 L -0.8877830440267919 -0.4602621717440218 M 0.4818874226803099 -0.8762331378477581 L -0.9822586385276192 -0.18753124283134254 M -0.3789594599845273 -0.9254132739961295 L -0.7630154111856797 0.6463802923149405 M 0.8586749523487988 0.5125205617424419 L 0.22209086706052494 -0.9750259723557646 M 0.42232066753213415 0.9064464980213739 L 0.7315775852729481 -0.6817581952028169 M -0.2650788882903083 -0.9642267279964678 L -0.8351202315152719 0.550067449422231 M -0.9047705757282818 0.4258992900866513 L 0.6846437790328339 0.7288778332694993 M 0.9834313289443193 0.1812810559623096 L -0.13148846389071278 -0.9913177007718871 M -0.18852912051075105 -0.982067599872556 L -0.8757430881287512 0.4827774265587799 M -0.6175278308177639 -0.7865490309990263 L -0.5572259870950763 0.8303608849806919 M -0.9553990469356207 -0.2953178983985013 L 0.01437053026225042 0.9998967385985323 M -0.8146469798998762 -0.5799571519862572 L -0.29983226736322116 0.953991934686992 M -0.7666589272396391 -0.6420545843491546 L -0.37371955885612507 0.9275417464073428 M 0.39665565220999505 -0.9179674795818551 L -0.9956122906511288 -0.09357439128528898 M 0.63327119799411 -0.7739299643967177 L -0.9317426980239367 -0.36311918797975284 M 0.9485066758039933 0.3167571403382384 L 0.008149260300177468 -0.9999667942269683 M -0.940468921240996 -0.33987969662778794 L -0.03262392088933597 0.9994676982203109 M 0.7833130541737849 -0.6216274279348821 L -0.833259861700709 -0.5528815450695703 M 0.613635103394345 0.7895897415001106 L 0.5613207935596055 -0.827598312418298 M -0.2891033556209781 -0.9572978897755339 L -0.821106546088915 0.5707749468660415 M 0.2505369105313252 -0.9681070480382935 L -0.9981446795804596 0.06088676888472348 M -0.4993114225648955 0.8664225893270675 L 0.9783125645029107 0.20713407767853714 M -0.9316258489604555 0.36341887340740914 L 0.633520107426529 0.7737262264433584 M 0.14237527114667262 0.9898127510624984 L 0.8973714884469589 -0.4412758907106636 M -0.7354621639901006 -0.6775657941034202 L -0.4171330563080422 0.9088454287364335 M -0.7633992628501468 0.6459269041306861 L 0.8502163369378467 0.5264334529681695 M 0.9944363101327144 0.10533957038849119 L -0.20711383481281698 -0.9783168502224262 M 0.6416639998966661 0.7669858611712548 L 0.5311618205264975 -0.8472703939209588 M 0.6119739932063597 -0.7908778866797721 L -0.941279931736801 -0.3376271465826811 M -0.999999997867788 -6.530255658566156e-05 L 0.30895488729408654 0.9510766938670605 M 0.1862461439575577 0.9825031164637295 L 0.8768627675734378 -0.48074076885932104 M 0.8196392703352864 0.5728799756705057 L 0.29155877012575837 -0.9565529172830718 M 0.7607627462282952 0.6490300793886078 L 0.3821756690021977 -0.9240896915466175 M -0.6545636147367498 -0.7560069273907216 L -0.5167340338060717 0.856145979554016 M -0.28251279088559117 -0.9592635315626432 L -0.8250125790250102 0.565114364045457 M 0.9638094220292869 0.2665921941985024 L -0.044289247259836684 -0.9990187498626625 M 0.5598681406454041 -0.8285817190176585 L -0.9610368132233171 -0.2764204110219993 M -0.27514365513792244 0.9614031251443611 L 0.9993727722871275 -0.035412737978604156 M 0.7491885782144367 0.6623567575506653 L 0.39842670772082395 -0.9172001736669837 M 0.9811924978023189 -0.1930318166946749 L -0.4867893236938818 -0.8735194069610893 M 0.9124156231738314 0.4092648660565781 L 0.10728208425984985 -0.994228622801045 M -0.6071169287834209 0.7946125060585106 L 0.9433308503833704 0.3318537429576276 M -0.9687899223980067 0.24788321092817955 L 0.5351234930335813 0.8447738438206635 M -0.8606453106877956 -0.509204918663506 L -0.2183286288928353 0.9758753044348313 M -0.1071321989675259 -0.9942447847207359 L -0.9124773111754043 0.40912731098046284 M -0.6023855762510958 0.7982052477431073 L 0.9452856824350039 0.3262437410639305 M 0.9998458594403844 -0.01755725946493815 L -0.32566730834491786 -0.9454844283621895 M -0.3716594862643994 0.9283691217773686 L 0.9977806001699372 0.06658734057251421 M -0.8074034413789951 0.5899997312282063 L 0.8106244736999009 0.5855663605764583 M 0.999247279885856 0.038792700869077365 L -0.2718903401214435 -0.9623282407518995 M -0.9887840700494356 -0.1493521436621275 L 0.1635087519599877 0.9865418835672853 M -0.4301829406657862 -0.9027417335872628 L -0.7256245689038323 0.6880908261291728 M -0.608940572069822 -0.7932158468457863 L -0.5662201146372862 0.8242540759863662 M 0.999986288439521 -0.005236691030707335 L -0.3139931463983186 -0.9494252493034321 M -0.29297159288911695 0.956121145964262 L 0.9998584473087366 -0.016825140277641 M 0.9231737847491152 0.38438283410162116 L 0.08029341087542963 -0.9967712717419124 M -0.5848356287551032 0.811151827550566 L 0.952175379497973 0.30555203595769265 M 0.0031051916640719057 -0.9999951788807431 L -0.9520114881332582 0.3060622918007039 M -0.9943963705444027 -0.10571593185570054 L 0.20674355177540932 0.9783951675060996 M 0.8149229514888241 0.5795693083115631 L 0.2993781261981495 -0.9541345489783319 M -0.9950244154874079 -0.09963138352919848 L 0.21272437767066177 0.9771122449056862 M -0.9506138078637612 -0.31037620446606445 L -0.0014294900430239694 0.9999989782785865 M 0.3846406912258647 0.9230663782487634 L 0.7590277836895345 -0.6510582336376318 M -0.42644612159535356 -0.9045129658419944 L -0.728463851479235 0.685084240869719 M -0.8276257927412156 -0.561280275076075 L -0.2780588281389639 0.9605640468464277 M -0.6996936886046239 -0.7144429593234547 L -0.4632583913500437 0.8862232579004964 M 0.6105375935698912 0.7919872769419256 L 0.5645581684405918 -0.8253932847116 M -0.7451880672762258 0.6668543652021206 L 0.8644919662391201 0.5026466356278734 M 0.702396878837671 -0.7117855186775706 L -0.8940008280995904 -0.4480653070225887 M -0.9927481969330543 0.1202123849117456 L 0.42110483599709764 0.9070119718613738 M -0.4504132659391961 -0.8928201889887947 L -0.7099371049505294 0.7042650829158442 M 0.12582934230168918 -0.9920519021784718 L -0.9823808312320824 0.18689008113798553 M -0.5508251389112641 -0.8346206721279953 L -0.6235571000094491 0.7817778092449323 M -0.8656475410000204 0.5006539071660362 L 0.7436499621267776 0.6685691690684235 M 0.960472975639828 0.278373244162535 L -0.03205378428758096 -0.9994861454331647 M 0.3171802337227252 0.9483652773776555 L 0.8039348943779402 -0.594717315706824 M -0.2964208276857706 0.9550574291183136 L 0.99991266464066 -0.013216016465450576 M -0.6061086849375042 -0.795381834117004 L -0.5691551921958281 0.8222301181521692 M -0.04271503016896847 0.9990872965850702 L 0.9633881540023896 -0.2681105457229685 M -0.439938785387766 -0.8980277641095163 L -0.7181265957008302 0.695912489144387 M 0.4066881597547176 0.9135670422663688 L 0.7431803358446388 -0.6690911659959724 M 0.8365170217534108 0.5479409387121971 L 0.26262482450139696 -0.9648980265062265 M 0.09152255499321517 -0.9958030035742581 L -0.9753469603571034 0.22067692883978357 M -0.061771972635934425 -0.9980902881987508 L -0.9301516831217618 0.3671754980738143 M -0.9512678308662884 -0.30836587677456556 L 0.0006845494303572743 0.9999997656960112 M -0.5380364688996786 0.8429215610802497 L 0.9679284558745433 0.25122600245261667 M -0.3993529136150302 -0.9167972787847847 L -0.7485191890497396 0.6631131303362348 M -0.4856112975968735 0.874174849584613 L 0.9814518306966858 0.1917089043892428 M -0.9318342958031326 0.3628840657359868 L 0.6330758887224684 0.7740897358305798 M 0.5052168694719957 -0.8629924187389577 L -0.9768751618667577 -0.21381047244650067 M 0.9969153635549769 0.07848412519770054 L -0.23342095059696913 -0.9723757811784534 M -0.23406045604536335 -0.9722220440392393 L -0.8523094516401448 0.5230378558430314 M -0.8471301347755724 -0.5313854860222667 L -0.243600021053353 0.9698757805733712 M 0.08132298142967431 0.996687801014635 L 0.9227762445718485 -0.38533622001295964 M 0.7183003160814891 -0.6957331786807589 L -0.8836485779211526 -0.4681508205033126 M 0.7046588657468631 -0.7095462514342137 L -0.8925701507920635 -0.45090855604549474 M 0.7376974737609101 0.6751314221740619 L 0.41412708231466794 -0.9102190723630988 M -0.9312901607458285 -0.3642782404948295 L -0.058664708002503625 0.9982777429327877 M -0.9951566810668583 -0.09830147571626428 L 0.21403006747404568 0.9768270728317553 M 0.4663847789791865 0.8845819565967504 L 0.6971666113960839 -0.7169091406548683 M 0.136358286827378 0.9906595871506532 L 0.9000362278363819 -0.4358150853080425 M -0.9983422016985369 -0.05755734799065886 L 0.25376441565936547 0.9672660550981105 M -0.6533230724531988 0.7570792316530103 L 0.921913068820617 0.3873968166334777 M -0.3049626963963808 -0.9523642967933273 L -0.8115136145152565 0.5843335121798027 M 0.9960399584937206 -0.08890669875677083 L -0.39234856944599406 -0.9198166121861912 M 0.2948620989673269 0.9555398173768492 L 0.8176549703177618 -0.5757085630027228 M -0.9436956808061174 -0.3308148455373164 L -0.023005611648112895 0.9997353358928033 M -0.7356459838114083 0.6773662129912777 L 0.8715406616249283 0.49032323536049394 M 0.2229489341874887 0.9748301250703442 L 0.8582235331872546 -0.5132761119354623 M 0.9582761619087355 -0.28584400906344515 L -0.5679774267979182 -0.8230441316527416 M -0.23382820430041013 -0.972277928821613 L -0.8524343709627468 0.5228342406550534 M -0.9505535411998075 -0.31056072725395556 L -0.0016236050662091406 0.9999986819524259 M 0.9684927438714187 -0.24904177374169678 L -0.5361335185318354 -0.8441331946480212 M 0.06350962097941414 -0.9979812262978954 L -0.9687621005997925 0.24799192011329238 M 0.9841048539058268 -0.17758839072132854 L -0.47300172031766463 -0.881061503288238 M 0.8061057093979986 0.5917715651127126 L 0.3137078396919728 -0.9495195581533828 M 0.4208005387395598 -0.9071531880539782 L -0.9927884684893161 -0.1198793428186781 M -0.762665628084178 0.6467929651279195 L 0.8508133042824261 0.5254680972771039 M -0.6644089050162316 -0.74736925741907 L -0.5054767594830112 0.862840220216092 M -0.9907108336817901 -0.1359854551984596 L 0.17681663083118748 0.9842438107814078 M 0.49333707970233465 -0.8698382181709264 L -0.9797148470973545 -0.2003966526092873 M -0.9999960842622946 -0.00279847459837594 L 0.306354276842979 0.9519175684165175 M 0.9315499015075516 -0.3636135049764666 L -0.6336817439949307 -0.7735938516608978 M 0.21700175235561625 -0.976171214221456 L -0.9954512235920973 0.09527256398878116 M 0.8850233727976324 -0.46554659229974277 L -0.7162483828591765 -0.6978454370787377 M 0.7600731413381173 0.6498375334007773 L 0.3831567030325492 -0.9236833553340814 M 0.9886172776325578 -0.15045224613275182 L -0.4485881287969518 -0.8937386031175163 M -0.9840862447927048 0.17769148209689944 L 0.47309401550997054 0.8810119479829157 M -0.3891427491090723 0.9211774643443215 L 0.9963435528414032 0.08543725599157588 M -0.35178631468037946 -0.9360803324520802 L -0.7815573503295145 0.6238333977480754 M 0.4046080152897397 -0.9144902153458493 L -0.9947626311776763 -0.10221207175508364 M 0.04533925201246956 0.9989716473588977 L 0.9360678954306823 -0.3518194070030437 M -0.7974083746975983 0.6034400417291969 L 0.8203183231184354 0.5719072029238295 M 0.9248338236028892 -0.3803713957700553 L -0.6475440630254489 -0.7620280089606244 M 0.7695591166697857 0.6385755757546785 L 0.3695146172412799 -0.9292249176841043 M 0.9457029878278876 0.3250320888980136 L 0.016885591281500252 -0.9998574282401838 M -0.9852118098405543 -0.17134085838088778 L 0.14149235242888186 0.9899393487502863 M -0.9440843027931105 0.3297041540830909 L 0.605305377876 0.795993341375663 M -0.9397217342909291 0.3419401440329117 L 0.6155943880448002 0.7880631633363838 M 0.23873063576592843 -0.9710858270754422 L -0.9973293272515755 0.07303569677849171 M -0.548355099778592 0.8362455886561139 L 0.9647678610982285 0.2631025925222882 M -0.6062539849814405 0.7952710894368809 L 0.9436905360968907 0.3308295211754283 M 0.6531360833841596 0.7572405539731744 L 0.5183484138539415 -0.8551695281376103 M 0.9456042385753063 0.325319264705328 L 0.01718922690159841 -0.9998522543248705 M 0.704528032758309 -0.7096761592851397 L -0.8926532708833167 -0.4507439827455449 M -0.6255121176504574 0.7802144517198077 L 0.9353219129572266 0.3537978506746959 M 0.09998792604315133 -0.9949886505109439 L -0.9771884080877935 0.21237423360390006 M -0.3707463137259716 -0.9287341766396903 L -0.7687117790560005 0.6395953413999813 M 0.9847554549437787 0.17394451402235006 L -0.13887510734631064 -0.9903099032926768 M -0.7702431269332387 -0.6377503629258918 L -0.3685184224073981 0.9296204453143028 M 0.32796796222230307 -0.944688845999438 L -0.9998001567963267 -0.01999115979728022 M 0.9757430910254273 -0.2189187527740475 L -0.5097253036357637 -0.8603372099551597 M 0.9996152234664443 -0.02773815087799809 L -0.3352786410295402 -0.9421190120517602" /></g></svg>