<svg xmlns="http://www.w3.org/2000/svg" xmlns:inkscape="http://www.inkscape.org/namespaces/inkscape" width="11in" height="8.5in" viewBox="3.5765201541239575 -5.349985601638738 2.8469905973571543 2.1999472797759827"><g inkscape:label="0-layer" inkscape:groupmode="layer"><path style="stroke-width: 0.008540971792071464; stroke: black;" fill="none" d="M 5.950617929388156 -4.560363580862469 L 4.334519321837058 -4.9964150768786695 M 4.334519321837058 -4.9964150768786695 L 4.573569957027692 -3.3454794538261523 M 4.573569957027692 -3.3454794538261523 L 5.944616311095249 -3.921823180567543 M 5.944616311095249 -3.921823180567543 L 4.907866568986904 -5.24574667003699 M 4.907866568986904 -5.24574667003699 L 4.035168347325136 -3.987131435891068 M 4.035168347325136 -3.987131435891068 L 5.50395816389279 -3.386271935707883 M 5.50395816389279 -3.386271935707883 L 5.5532706770359415 -5.083001535372049 M 5.5532706770359415 -5.083001535372049 L 4.073475099685311 -4.626233450263072 M 4.073475099685311 -4.626233450263072 L 5.244025596972045 -3.2802312089871952 M 5.244025596972045 -3.2802312089871952 L 5.8439173939661115 -4.786473142069057 M 5.8439173939661115 -4.786473142069057 L 4.319479610046878 -4.982729144266864 M 4.319479610046878 -4.982729144266864 L 4.582917515167858 -3.3411313621615903 M 4.582917515167858 -3.3411313621615903 L 5.9803279464458035 -4.052624425479358 M 5.9803279464458035 -4.052624425479358 L 5.209007737831525 -5.227913986773146 M 5.209007737831525 -5.227913986773146 L 4.035492035513483 -3.9859462432721773 M 4.035492035513483 -3.9859462432721773 L 5.525423242615689 -3.399158994806189 M 5.525423242615689 -3.399158994806189 L 5.217572699994141 -5.226044117966631 M 5.217572699994141 -5.226044117966631 L 4.088100235219 -3.839587014103651 M 4.088100235219 -3.839587014103651 L 5.492353038747773 -3.379604408768154 M 5.492353038747773 -3.379604408768154 L 5.91703324672985 -4.648810762633245 M 5.91703324672985 -4.648810762633245 L 4.124163748640859 -4.732608392804318 M 4.124163748640859 -4.732608392804318 L 4.6017083942502 -3.332741150607286 M 4.6017083942502 -3.332741150607286 L 5.992224086854453 -4.374464297956671 M 5.992224086854453 -4.374464297956671 L 4.214302345990994 -4.868610698650406 M 4.214302345990994 -4.868610698650406 L 4.509837359621574 -3.378369008136327 M 4.509837359621574 -3.378369008136327 L 5.99971529368685 -4.273860669911278 M 5.99971529368685 -4.273860669911278 L 4.452791297546782 -5.0869961982945116 M 4.452791297546782 -5.0869961982945116 L 4.275528153678989 -3.5606956086834893 M 4.275528153678989 -3.5606956086834893 L 5.9438212288468995 -3.9195435157574767 M 5.9438212288468995 -3.9195435157574767 L 5.176272616294202 -5.234341386280592 M 5.176272616294202 -5.234341386280592 L 4.000239512739505 -4.271885340131188 M 4.000239512739505 -4.271885340131188 L 5.266189831263851 -3.286079373738832 M 5.266189831263851 -3.286079373738832 L 5.7992223626405455 -4.851035452411307 M 5.7992223626405455 -4.851035452411307 L 4.230930978153818 -4.889165737220447 M 4.230930978153818 -4.889165737220447 L 4.758424751882936 -3.279617910564514 M 4.758424751882936 -3.279617910564514 L 5.916005481983807 -4.651165747510445 M 5.916005481983807 -4.651165747510445 L 4.208309911847983 -4.860922911930672 M 4.208309911847983 -4.860922911930672 L 4.80504737277215 -3.2691873404482594 M 4.80504737277215 -3.2691873404482594 L 5.996244438614285 -4.3365853251429325 M 5.996244438614285 -4.3365853251429325 L 4.669211473929757 -5.193704906748013 M 4.669211473929757 -5.193704906748013 L 4.118693638263032 -3.777454661686365 M 4.118693638263032 -3.777454661686365 L 5.840375085904323 -3.707994727893444 M 5.840375085904323 -3.707994727893444 L 5.072589408489418 -5.247361909125848 M 5.072589408489418 -5.247361909125848 L 4.025244391140477 -4.026725498551895 M 4.025244391140477 -4.026725498551895 L 5.244603186660696 -3.28037673239787 M 5.244603186660696 -3.28037673239787 L 5.817817272389364 -4.825477983055496 M 5.817817272389364 -4.825477983055496 L 4.143797705332998 -4.766640717140027 M 4.143797705332998 -4.766640717140027 L 4.698363886454597 -3.2965768751465987 M 4.698363886454597 -3.2965768751465987 L 5.930946452549071 -4.615155723611585 M 5.930946452549071 -4.615155723611585 L 4.224170166271515 -4.880942207414301 M 4.224170166271515 -4.880942207414301 L 4.712132396554855 -3.2923297838573298 M 4.712132396554855 -3.2923297838573298 L 5.967328019543771 -3.996471889910557 M 5.967328019543771 -3.996471889910557 L 4.943207308577942 -5.248385992590561 M 4.943207308577942 -5.248385992590561 L 4.058982756876217 -3.9116413912079144 M 4.058982756876217 -3.9116413912079144 L 5.423918476716297 -3.344299649388091 M 5.423918476716297 -3.344299649388091 L 5.676551627073684 -4.986395203612808 M 5.676551627073684 -4.986395203612808 L 4.170187006195028 -4.8080415713120574 M 4.170187006195028 -4.8080415713120574 L 4.842008639195815 -3.2625595056352803 M 4.842008639195815 -3.2625595056352803 L 5.998117468205262 -4.1886687708951005 M 5.998117468205262 -4.1886687708951005 L 4.87770329294388 -5.242493584585427 M 4.87770329294388 -5.242493584585427 L 4.102237714642226 -3.809519717820211 M 4.102237714642226 -3.809519717820211 L 5.651216094567281 -3.4911076504690945 M 5.651216094567281 -3.4911076504690945 L 5.383962792488398 -5.173348565810611 M 5.383962792488398 -5.173348565810611 L 4.042882891596087 -3.9602987041787125 M 4.042882891596087 -3.9602987041787125 L 5.589530317442521 -3.4422537497356487 M 5.589530317442521 -3.4422537497356487 L 5.760272470768417 -4.8996043181750615 M 5.760272470768417 -4.8996043181750615 L 4.0910769249080206 -4.666963839637612 M 4.0910769249080206 -4.666963839637612 L 4.611604398102413 -3.3285072672958234 M 4.611604398102413 -3.3285072672958234 L 5.995504922852327 -4.344709812463024 M 5.995504922852327 -4.344709812463024 L 4.336371233595015 -4.998062069884444 M 4.336371233595015 -4.998062069884444 L 4.5573686310524995 -3.353296330316608 M 4.5573686310524995 -3.353296330316608 L 5.989293860530083 -4.395937169759747 M 5.989293860530083 -4.395937169759747 L 4.627909718780899 -5.17819654309973 M 4.627909718780899 -5.17819654309973 L 4.230187358805098 -3.6117300747673213 M 4.230187358805098 -3.6117300747673213 L 5.947868034780187 -3.931336872792058 M 5.947868034780187 -3.931336872792058 L 5.15418197980743 -5.238042467256677 M 5.15418197980743 -5.238042467256677 L 4.0043106962964785 -4.157248663134179 M 4.0043106962964785 -4.157248663134179 L 5.044755631550461 -3.2510020353151265 M 5.044755631550461 -3.2510020353151265 L 5.906131859433616 -4.672995334867155 M 5.906131859433616 -4.672995334867155 L 4.41061809081576 -5.057854544535302 M 4.41061809081576 -5.057854544535302 L 4.824804767405206 -3.265466287790989 M 4.824804767405206 -3.265466287790989 L 5.98842165164018 -4.401732127675384 M 5.98842165164018 -4.401732127675384 L 4.595354735853091 -5.164473734015077 M 4.595354735853091 -5.164473734015077 L 4.184184836951797 -3.6716872647601186 M 4.184184836951797 -3.6716872647601186 L 5.9661818448415795 -3.9921383264257324 M 5.9661818448415795 -3.9921383264257324 L 4.774822273609721 -5.224317705647241 M 4.774822273609721 -5.224317705647241 L 4.11897593592613 -3.776928548184567 M 4.11897593592613 -3.776928548184567 L 5.476706852334168 -3.3709376717560637 M 5.476706852334168 -3.3709376717560637 L 5.655669423196429 -5.005048082896224 M 5.655669423196429 -5.005048082896224 L 4.012088339118653 -4.40501790314237 M 4.012088339118653 -4.40501790314237 L 5.350349817511228 -3.3133810778284216 M 5.350349817511228 -3.3133810778284216 L 5.801992036629664 -4.8473347245745915 M 5.801992036629664 -4.8473347245745915 L 4.244086579465437 -4.904671597563034 M 4.244086579465437 -4.904671597563034 L 4.509719476223141 -3.3784353104874607 M 4.509719476223141 -3.3784353104874607 L 5.981814111854035 -4.060155195582622 M 5.981814111854035 -4.060155195582622 L 4.90980377004171 -5.245924013216526 M 4.90980377004171 -5.245924013216526 L 4.036061434611754 -3.983875138032446 M 4.036061434611754 -3.983875138032446 L 5.380091720574397 -3.3250511992813903 M 5.380091720574397 -3.3250511992813903 L 5.717186419980064 -4.946881366515263 M 5.717186419980064 -4.946881366515263 L 4.0938267125200065 -4.672906577222087 M 4.0938267125200065 -4.672906577222087 L 4.8803693295427575 -3.2571815358858647 M 4.8803693295427575 -3.2571815358858647 L 5.98377469653903 -4.070591676755123 M 5.98377469653903 -4.070591676755123 L 4.930516566825153 -5.24758310556777 M 4.930516566825153 -5.24758310556777 L 4.115565037898233 -3.783336526164682 M 4.115565037898233 -3.783336526164682 L 5.352482697403297 -3.3141816693228883 M 5.352482697403297 -3.3141816693228883 L 5.818072364228974 -4.82511529877479 M 5.818072364228974 -4.82511529877479 L 4.099724099972784 -4.685319771926553 M 4.099724099972784 -4.685319771926553 L 4.751879492602486 -3.2812708253547846 M 4.751879492602486 -3.2812708253547846 L 5.999964586978123 -4.241584253469207 M 5.999964586978123 -4.241584253469207 L 4.975596268497666 -5.249702184597374 M 4.975596268497666 -5.249702184597374 L 4.00474974264684 -4.152650499546897 M 4.00474974264684 -4.152650499546897 L 5.366260542225017 -3.319487659829792 M 5.366260542225017 -3.319487659829792 L 5.679055491707278 -4.984086942522605 M 5.679055491707278 -4.984086942522605 L 4.105248525247758 -4.696564439279134 M 4.105248525247758 -4.696564439279134 L 5.4246344825539685 -3.344635125363192 M 5.4246344825539685 -3.344635125363192 L 5.638439619602187 -5.019671912000311 M 5.638439619602187 -5.019671912000311 L 4.015456383593473 -4.425139565470389 M 4.015456383593473 -4.425139565470389 L 5.442001939662076 -3.352985905721118 M 5.442001939662076 -3.352985905721118 L 5.773362576513065 -4.883963977879716 M 5.773362576513065 -4.883963977879716 L 4.1445971107409365 -4.767963219782299 M 4.1445971107409365 -4.767963219782299 L 4.823279914972899 -3.2657388499244653 M 4.823279914972899 -3.2657388499244653 L 5.93250606723319 -4.611154308534857 M 5.93250606723319 -4.611154308534857 L 4.681455598545046 -5.197907940836928 M 4.681455598545046 -5.197907940836928 L 4.089813613019117 -3.8358010852806514 M 4.089813613019117 -3.8358010852806514 L 5.754268332744178 -3.5934337183350653 M 5.754268332744178 -3.5934337183350653 L 5.56126192042498 -5.07763824022387 M 5.56126192042498 -5.07763824022387 L 4.055940820095389 -4.579776082877203 M 4.055940820095389 -4.579776082877203 L 4.910813337808794 -3.253985070750849 M 4.910813337808794 -3.253985070750849 L 5.919696454895886 -4.642630145113616 M 5.919696454895886 -4.642630145113616 L 4.296772378909409 -4.960964776156505 M 4.296772378909409 -4.960964776156505 L 4.541156339440716 -3.3614829798115533 M 4.541156339440716 -3.3614829798115533 L 5.997861559991533 -4.18463711227872 M 5.997861559991533 -4.18463711227872 L 4.620782266983467 -5.175307468340011 M 4.620782266983467 -5.175307468340011 L 4.338095483746053 -3.500411838832397 M 4.338095483746053 -3.500411838832397 L 5.890455939522611 -3.7949305330294028 M 5.890455939522611 -3.7949305330294028 L 5.186572467057408 -5.232441201566848 M 5.186572467057408 -5.232441201566848 L 4.007616449361313 -4.373186397064585 M 4.007616449361313 -4.373186397064585 L 5.135829903464754 -3.2592678276523186 M 5.135829903464754 -3.2592678276523186 L 5.917580466290785 -4.647550107384698 M 5.917580466290785 -4.647550107384698 L 4.466227880115832 -5.095628360471881 M 4.466227880115832 -5.095628360471881 L 4.555679091397079 -3.354132303195235 M 4.555679091397079 -3.354132303195235 L 5.920099791132259 -3.858315976380995 M 5.920099791132259 -3.858315976380995 L 5.045425504630591 -5.248967728972791 M 5.045425504630591 -5.248967728972791 L 4.008448053415209 -4.120289795220609 M 4.008448053415209 -4.120289795220609 L 5.531723911729775 -3.403082246204044 M 5.531723911729775 -3.403082246204044 L 5.187083130869888 -5.232344085411991 M 5.187083130869888 -5.232344085411991 L 4.02872494773218 -4.487959603382893 M 4.02872494773218 -4.487959603382893 L 5.101754339272687 -3.2551904431303553 M 5.101754339272687 -3.2551904431303553 L 5.861019404843365 -4.758572103524346 M 5.861019404843365 -4.758572103524346 L 4.286053826160212 -4.950200586160514 M 4.286053826160212 -4.950200586160514 L 4.296005249876514 -3.5397948241539137 M 4.296005249876514 -3.5397948241539137 L 5.8606878016423245 -3.7408669053144328 M 5.8606878016423245 -3.7408669053144328 L 5.200398987602902 -5.229714369481091 M 5.200398987602902 -5.229714369481091 L 4.007864939840984 -4.124828028683468 M 4.007864939840984 -4.124828028683468 L 5.532274037454159 -3.4034278831356133 M 5.532274037454159 -3.4034278831356133 L 5.753680511460692 -4.907240965433798 M 5.753680511460692 -4.907240965433798 L 4.021080282972021 -4.454245410263883 M 4.021080282972021 -4.454245410263883 L 4.913377547554797 -3.2537587888807358 M 4.913377547554797 -3.2537587888807358 L 5.800456923487428 -4.8493902849071215 M 5.800456923487428 -4.8493902849071215 L 4.020208641358565 -4.450022232593206 M 4.020208641358565 -4.450022232593206 L 5.20280102153855 -3.270780032034211 M 5.20280102153855 -3.270780032034211 L 5.700627039357739 -4.963527681117425 M 5.700627039357739 -4.963527681117425 L 4.112573007279451 -4.710948297090858 M 4.112573007279451 -4.710948297090858 L 4.706593974503835 -3.2940120794682897 M 4.706593974503835 -3.2940120794682897 L 5.985190502219491 -4.078536667661838 M 5.985190502219491 -4.078536667661838 L 4.801456683286924 -5.230092113726343 M 4.801456683286924 -5.230092113726343 L 4.093560371985188 -3.8276645873664292 M 4.093560371985188 -3.8276645873664292 L 5.778255327979804 -3.622052036812725 M 5.778255327979804 -3.622052036812725 L 5.431647023509667 -5.152042597162266 M 5.431647023509667 -5.152042597162266 L 4.002224674316539 -4.183333670738054 M 4.002224674316539 -4.183333670738054 L 5.263065246458026 -3.2852219550041686 M 5.263065246458026 -3.2852219550041686 L 5.736367506120915 -4.926581773275975 M 5.736367506120915 -4.926581773275975 L 4.033263622662376 -4.505774855550983 M 4.033263622662376 -4.505774855550983 L 4.920691281513868 -3.2531498973405846 M 4.920691281513868 -3.2531498973405846 L 5.973931200516356 -4.476843595150426 M 5.973931200516356 -4.476843595150426 L 4.477331515971872 -5.102536014373433 M 4.477331515971872 -5.102536014373433 L 4.282041609330769 -3.553913978543134 M 4.282041609330769 -3.553913978543134 L 5.819927888751582 -3.6775331824049777 M 5.819927888751582 -3.6775331824049777 L 5.561577743076948 -5.077423977462946 M 5.561577743076948 -5.077423977462946 L 4.12563900985593 -4.73527606464185 M 4.12563900985593 -4.73527606464185 L 4.981169286521674 -3.250177313605109 M 4.981169286521674 -3.250177313605109 L 5.896332113448937 -4.6933832906190345 M 5.896332113448937 -4.6933832906190345 L 4.328350900942969 -4.990869413416344 M 4.328350900942969 -4.990869413416344 L 4.620759891801772 -3.324701701971847 M 4.620759891801772 -3.324701701971847 L 5.9955723027509675 -4.1560011170537905 M 5.9955723027509675 -4.1560011170537905 L 4.781195886021492 -5.225768804433756 M 4.781195886021492 -5.225768804433756 L 4.2355723857942715 -3.6052904354364377 M 4.2355723857942715 -3.6052904354364377 L 5.911316044630487 -3.838292498490682 M 5.911316044630487 -3.838292498490682 L 4.871631202311377 -5.241726500492942 M 4.871631202311377 -5.241726500492942 L 4.058912934411724 -3.9118356391006768 M 4.058912934411724 -3.9118356391006768 L 5.77793918179177 -3.6216604186961074 M 5.77793918179177 -3.6216604186961074 L 5.18771468801007 -5.232223597713515 M 5.18771468801007 -5.232223597713515 L 4.020741424325865 -4.047385484309082 M 4.020741424325865 -4.047385484309082 L 5.506899092277102 -3.3879945996406695 M 5.506899092277102 -3.3879945996406695 L 5.243124204073965 -5.219995165654655 M 5.243124204073965 -5.219995165654655 L 4.063468198945115 -3.8994173626477022 M 4.063468198945115 -3.8994173626477022 L 5.509958760111301 -3.389801149160414 M 5.509958760111301 -3.389801149160414 L 5.553715390760231 -5.082705990152133 M 5.553715390760231 -5.082705990152133 L 4.042055924366982 -4.536954958067642 M 4.042055924366982 -4.536954958067642 L 4.836122794645237 -3.263519254336349 M 4.836122794645237 -3.263519254336349 L 5.88921495231276 -4.707489637678731 M 5.88921495231276 -4.707489637678731 L 4.405118863841962 -5.053813681050106 M 4.405118863841962 -5.053813681050106 L 4.2173706523454815 -3.627512004782532 M 4.2173706523454815 -3.627512004782532 L 5.876582286038984 -3.7687479913780413 M 5.876582286038984 -3.7687479913780413 L 5.274976439918952 -5.211450964682807 M 5.274976439918952 -5.211450964682807 L 4.020186534151247 -4.0500860881743 M 4.020186534151247 -4.0500860881743 L 5.677288482570775 -3.5142824513599145 M 5.677288482570775 -3.5142824513599145 L 5.5025683865901245 -5.114537458297903 M 5.5025683865901245 -5.114537458297903 L 4.046257111190547 -4.5506235221093 M 4.046257111190547 -4.5506235221093 L 5.021734476750101 -3.250236221640132 M 5.021734476750101 -3.250236221640132 L 5.820468814593849 -4.82169128406769 M 5.820468814593849 -4.82169128406769 L 4.5636456115932384 -5.149774887245783 M 4.5636456115932384 -5.149774887245783 L 4.4048354109253065 -3.4463961722891368 M 4.4048354109253065 -3.4463961722891368 L 5.929706287635133 -3.881698196132982 M 5.929706287635133 -3.881698196132982 L 5.1262180644966975 -5.242002520256228 M 5.1262180644966975 -5.242002520256228 L 4.002312984386075 -4.182024865756806 M 4.002312984386075 -4.182024865756806 L 5.63864662817283 -3.480499847743046 M 5.63864662817283 -3.480499847743046 L 5.671654994653105 -4.990864068610118 M 5.671654994653105 -4.990864068610118 L 4.103085528757425 -4.692204060672956 M 4.103085528757425 -4.692204060672956 L 4.793289546752006 -3.2715978390671814 M 4.793289546752006 -3.2715978390671814 L 5.997501331323398 -4.179352324822056 M 5.997501331323398 -4.179352324822056 L 4.51725176896767 -5.125759182329912 M 4.51725176896767 -5.125759182329912 L 4.202081493250437 -3.6472346587713034 M 4.202081493250437 -3.6472346587713034 L 5.787054347727618 -3.6331163369621025 M 5.787054347727618 -3.6331163369621025 L 5.569734763833909 -5.071828631089913 M 5.569734763833909 -5.071828631089913 L 4.065132454367007 -4.604996721283654 M 4.065132454367007 -4.604996721283654 L 4.741793929546364 -3.283910136073827 M 4.741793929546364 -3.283910136073827 L 5.999834139396155 -4.268212459964263 M 5.999834139396155 -4.268212459964263 L 4.933290725836872 -5.247772455392826 M 4.933290725836872 -5.247772455392826 L 4.098261240817819 -3.817718598377653 M 4.098261240817819 -3.817718598377653 L 5.776956630544996 -3.6204458766300016 M 5.776956630544996 -3.6204458766300016 L 4.951560350900997 -5.248826111190114 M 4.951560350900997 -5.248826111190114 L 4.032925849911063 -3.9955052294648077 M 4.032925849911063 -3.9955052294648077 L 5.699317193737061 -3.5351885125827076 M 5.699317193737061 -3.5351885125827076 L 5.220491615150603 -5.2253888699632975 M 5.220491615150603 -5.2253888699632975 L 4.057537470057385 -3.915688199947766 M 4.057537470057385 -3.915688199947766 L 5.525455157628372 -3.399178704238227 M 5.525455157628372 -3.399178704238227 L 5.7272683368118384 -4.936353237240812 M 5.7272683368118384 -4.936353237240812 L 4.077110282779677 -4.6350643710459245 M 4.077110282779677 -4.6350643710459245 L 5.013822938855779 -3.2500955413833834 M 5.013822938855779 -3.2500955413833834 L 5.927402530282111 -4.624064896543818 M 5.927402530282111 -4.624064896543818 L 4.5676668880967775 -5.15171396814737 M 4.5676668880967775 -5.15171396814737 L 4.284458075440248 -3.5514302080698554 M 4.284458075440248 -3.5514302080698554 L 5.928416145170543 -3.878457995124818 M 5.928416145170543 -3.878457995124818 L 5.1429138270562875 -5.23973513529435 M 5.1429138270562875 -5.23973513529435 L 4.057253969325936 -3.9164884984767427 M 4.057253969325936 -3.9164884984767427 L 5.802284673712466 -3.6530583761153164 M 5.802284673712466 -3.6530583761153164 L 5.6371282606085575 -5.020757795636161 M 5.6371282606085575 -5.020757795636161 L 4.0236959473443035 -4.466403319678933 M 4.0236959473443035 -4.466403319678933 L 5.173888483166491 -3.265234649562619 M 5.173888483166491 -3.265234649562619 L 5.9327368143866615 -4.61055794969439 M 5.9327368143866615 -4.61055794969439 L 4.27617704371788 -4.9399857447505795 M 4.27617704371788 -4.9399857447505795 L 4.446206585238926 -3.4173458978860016 M 4.446206585238926 -3.4173458978860016 L 5.9999955035472325 -4.25299881398493 M 5.9999955035472325 -4.25299881398493 L 4.582565756568774 -5.158707132364988 M 4.582565756568774 -5.158707132364988 L 4.131500736778759 -3.754309542371288 M 4.131500736778759 -3.754309542371288 L 5.684775507719394 -3.521245923491575 M 5.684775507719394 -3.521245923491575 L 5.389138727386285 -5.171179163272912 M 5.389138727386285 -5.171179163272912 L 4.056441693413882 -3.9187935355819006 M 4.056441693413882 -3.9187935355819006 L 5.7659236384026435 -3.607068448327463 M 5.7659236384026435 -3.607068448327463 L 5.6884981941387895 -4.9752380551705935 M 5.6884981941387895 -4.9752380551705935 L 4.255950660137329 -4.918124673881996 M 4.255950660137329 -4.918124673881996 L 4.669950404377156 -3.3060364072543917 M 4.669950404377156 -3.3060364072543917 L 5.999544435347765 -4.280181480502404 M 5.999544435347765 -4.280181480502404 L 4.404339356734453 -5.0532362031584945 M 4.404339356734453 -5.0532362031584945 L 4.492752576470573 -3.3881995292860663 M 4.492752576470573 -3.3881995292860663 L 5.97005254208048 -4.007104825895617 M 5.97005254208048 -4.007104825895617 L 4.846171311340543 -5.238097532911256 M 4.846171311340543 -5.238097532911256 L 4.166025673755655 -3.6981967532124416 M 4.166025673755655 -3.6981967532124416 L 5.749787240785308 -3.5883210041450955 M 5.749787240785308 -3.5883210041450955 L 5.2788421936885435 -5.210336936194251 M 5.2788421936885435 -5.210336936194251 L 4.00689837752247 -4.367256843862086 M 4.00689837752247 -4.367256843862086 L 5.540497627539539 -3.408654461814808 M 5.540497627539539 -3.408654461814808 L 5.410760453491149 -5.161743302606466 M 5.410760453491149 -5.161743302606466 L 4.006855864598524 -4.366896220288147 M 4.006855864598524 -4.366896220288147 L 4.945826197270048 -3.251468478665908 M 4.945826197270048 -3.251468478665908 L 5.800047075280482 -4.849937227829002 M 5.800047075280482 -4.849937227829002 L 4.369382716919415 -5.026093964852235 M 4.369382716919415 -5.026093964852235 L 4.247109069562107 -3.5918546916794414 M 4.247109069562107 -3.5918546916794414 L 5.978230431000089 -4.0424783773545965 M 5.978230431000089 -4.0424783773545965 L 4.814940485045623 -5.232727315141312 M 4.814940485045623 -5.232727315141312 L 4.0829725680508595 -3.8511758670130845 M 4.0829725680508595 -3.8511758670130845 L 5.4134527766558 -3.339474436670991 M 5.4134527766558 -3.339474436670991 L 5.882646979924977 -4.720036497337512 M 5.882646979924977 -4.720036497337512 L 4.52584621198433 -5.130442039722316 M 4.52584621198433 -5.130442039722316 L 4.190538201927051 -3.662827455120295 M 4.190538201927051 -3.662827455120295 L 5.71269232688098 -3.548523238300103 M 5.71269232688098 -3.548523238300103 L 5.4604224134213375 -5.137699949993955 M 5.4604224134213375 -5.137699949993955 L 4.002654304207664 -4.322811833409836 M 4.002654304207664 -4.322811833409836 L 4.991095441610934 -3.2500396463659693 M 4.991095441610934 -3.2500396463659693 L 5.955686348310393 -4.5443868265618335 M 5.955686348310393 -4.5443868265618335 L 4.170816488531977 -4.808976479209599 M 4.170816488531977 -4.808976479209599 L 4.464033671425475 -3.405760641385191 M 4.464033671425475 -3.405760641385191 L 5.9911715803985475 -4.382585437398857 M 5.9911715803985475 -4.382585437398857 L 4.41858983696616 -5.063610608535166 M 4.41858983696616 -5.063610608535166 L 4.267092957572329 -3.569671206577346 M 4.267092957572329 -3.569671206577346 L 5.818505198616755 -3.675500879167474 M 5.818505198616755 -3.675500879167474 L 5.177233506736874 -5.234168829058181 M 5.177233506736874 -5.234168829058181 L 4.046802107490197 -3.9476528853868964 M 4.046802107490197 -3.9476528853868964 L 5.358712620171184 -3.316551953170438 M 5.358712620171184 -3.316551953170438 L 5.896906700064884 -4.692219822462449 M 5.896906700064884 -4.692219822462449 L 4.287577343405928 -4.951750638312104 M 4.287577343405928 -4.951750638312104 L 4.652251771229768 -3.312412047119223 M 4.652251771229768 -3.312412047119223 L 5.9210710237141075 -3.860605381040973 M 5.9210710237141075 -3.860605381040973 L 4.977084200784752 -5.249737398593414 M 4.977084200784752 -5.249737398593414 L 4.040932409322876 -3.9668227471833655 M 4.040932409322876 -3.9668227471833655 L 5.424037028114708 -3.3443551475398063 M 5.424037028114708 -3.3443551475398063 L 5.841869849055918 -4.789680606702303 M 5.841869849055918 -4.789680606702303 L 4.167496204423176 -4.804019341133666 M 4.167496204423176 -4.804019341133666 L 4.7085891277246885 -3.2934020157246087 M 4.7085891277246885 -3.2934020157246087 L 5.94595842362743 -3.9257120711955076 M 5.94595842362743 -3.9257120711955076 L 4.989953511441113 -5.249949532760347 M 4.989953511441113 -5.249949532760347 L 4.001039232485253 -4.295578338784424 M 4.001039232485253 -4.295578338784424 L 5.116007732948489 -3.256751689708887 M 5.116007732948489 -3.256751689708887 L 5.82816685836028 -4.810481627454159 M 5.82816685836028 -4.810481627454159 L 4.1916288978951055 -4.838673221135223 M 4.1916288978951055 -4.838673221135223 L 4.946221074817151 -3.2514471334945867 M 4.946221074817151 -3.2514471334945867 L 5.862231050504757 -4.756515168129705 M 5.862231050504757 -4.756515168129705 L 4.288467788271493 -4.952653479086768 M 4.288467788271493 -4.952653479086768 L 4.444990840907959 -3.4181557637851028 M 4.444990840907959 -3.4181557637851028 L 5.9899822268774425 -4.108807965993897 M 5.9899822268774425 -4.108807965993897 L 4.634295532169937 -5.180731025704596 M 4.634295532169937 -5.180731025704596 L 4.077094914233764 -3.864972465053709 M 4.077094914233764 -3.864972465053709 L 5.625611761155619 -3.469865444744456 M 5.625611761155619 -3.469865444744456 L 5.591253966162361 -5.056485429190929 M 5.591253966162361 -5.056485429190929 L 4.136181168283237 -4.753802566459806 M 4.136181168283237 -4.753802566459806 L 4.948963790052992 -3.251303196523467 M 4.948963790052992 -3.251303196523467 L 5.94828325859773 -4.5674253636105195 M 5.94828325859773 -4.5674253636105195 L 4.185710552414456 -4.830459038650298 M 4.185710552414456 -4.830459038650298 L 4.479409279662558 -3.3961936391086422 M 4.479409279662558 -3.3961936391086422 L 5.776054340934948 -3.6193339553170603 M 5.776054340934948 -3.6193339553170603 L 5.49084364789598 -5.121247676220813 M 5.49084364789598 -5.121247676220813 L 4.044343524406418 -4.544483786745643 M 4.044343524406418 -4.544483786745643 L 5.144537566953256 -3.260500686337159 M 5.144537566953256 -3.260500686337159 L 5.817777288213826 -4.8255348007563414 M 5.817777288213826 -4.8255348007563414 L 4.268046953326305 -4.931355074439969 M 4.268046953326305 -4.931355074439969 L 4.57950325348466 -3.3427059538550834 M 4.57950325348466 -3.3427059538550834 L 5.997171008806971 -4.174833656501809 M 5.997171008806971 -4.174833656501809 L 4.787751734835895 -5.227215776548265 M 4.787751734835895 -5.227215776548265 L 4.098773377810122 -3.816651900366202 M 4.098773377810122 -3.816651900366202 L 5.734119739649976 -3.570979965055337 M 5.734119739649976 -3.570979965055337 L 5.467890967625575 -5.133786197230078 M 5.467890967625575 -5.133786197230078 L 4.073941563388319 -4.627380142535784 M 4.073941563388319 -4.627380142535784 L 4.611344844182273 -3.3286167084994984 M 4.611344844182273 -3.3286167084994984 L 5.990840102843644 -4.114959670480272 M 5.990840102843644 -4.114959670480272 L 4.768206498476126 -5.222765014097085 M 4.768206498476126 -5.222765014097085 L 4.277880602470874 -3.5582315591817073 M 4.277880602470874 -3.5582315591817073 L 5.924762685369594 -3.86945568490908 M 5.924762685369594 -3.86945568490908 L 5.21857861821018 -5.22581934171307 M 5.21857861821018 -5.22581934171307 L 4.01301302997331 -4.089199748142194 M 4.01301302997331 -4.089199748142194 L 5.396189907030228 -3.331831411140972 M 5.396189907030228 -3.331831411140972 L 5.844222677602748 -4.785992603140421 M 5.844222677602748 -4.785992603140421 L 4.20191309127031 -4.8525423521332645 M 4.20191309127031 -4.8525423521332645 L 4.433262572728764 -3.426101530205341 M 4.433262572728764 -3.426101530205341 L 5.995051599725478 -4.349359518335016 M 5.995051599725478 -4.349359518335016 L 4.63867445026095 -5.1824397284038115 M 4.63867445026095 -5.1824397284038115 L 4.123842017069831 -3.76797594567518 M 4.123842017069831 -3.76797594567518 L 5.903468937486831 -3.821346434755972 M 5.903468937486831 -3.821346434755972 L 5.177394846879634 -5.234139760552612 M 5.177394846879634 -5.234139760552612 L 4.008999207110479 -4.116144000910152 M 4.008999207110479 -4.116144000910152 L 5.2638601439838 -3.2854390509579767 M 5.2638601439838 -3.2854390509579767 L 5.779957479609275 -4.8758325095435255 M 5.779957479609275 -4.8758325095435255 L 4.0860587393193795 -4.655846488250814 M 4.0860587393193795 -4.655846488250814 L 5.0229540425088475 -3.2502634787442735 M 5.0229540425088475 -3.2502634787442735 L 5.919260212555249 -4.643650430728684 M 5.919260212555249 -4.643650430728684 L 4.4579502789287915 -5.090346416596527 M 4.4579502789287915 -5.090346416596527 L 4.47916090860815 -3.3963451277722876 M 4.47916090860815 -3.3963451277722876 L 5.898769711413625 -3.811578962816028 M 5.898769711413625 -3.811578962816028 L 5.287723986994115 -5.207713374297452 M 5.287723986994115 -5.207713374297452 L 4.0038783532267725 -4.162013269012916 M 4.0038783532267725 -4.162013269012916 L 5.325406274715467 -3.304425700235142 M 5.325406274715467 -3.304425700235142 L 5.793314582916726 -4.858811935273662 M 5.793314582916726 -4.858811935273662 L 4.265448321171179 -4.928552747492603 M 4.265448321171179 -4.928552747492603 L 4.76295144458527 -3.278502196412267 M 4.76295144458527 -3.278502196412267 L 5.976569706951779 -4.46520131845348 M 5.976569706951779 -4.46520131845348 L 4.389776813725965 -5.042229551918865 M 4.389776813725965 -5.042229551918865 L 4.270332702069858 -3.566197664283511 M 4.270332702069858 -3.566197664283511 L 5.808367519742501 -3.661321859565554 M 5.808367519742501 -3.661321859565554 L 5.506480542086393 -5.112251390539832 M 5.506480542086393 -5.112251390539832 L 4.013383763323882 -4.413059503025901 M 4.013383763323882 -4.413059503025901 L 5.493508985297109 -3.380259302187705 M 5.493508985297109 -3.380259302187705 L 5.839046747309519 -4.794059331166479 M 5.839046747309519 -4.794059331166479 L 4.139548603585268 -4.759532525368046 M 4.139548603585268 -4.759532525368046 L 4.530655110493322 -3.3669850654185036 M 4.530655110493322 -3.3669850654185036 L 5.965615648931988 -3.9900261195087947 M 5.965615648931988 -3.9900261195087947 L 4.832600668285203 -5.2358891741678875 M 4.832600668285203 -5.2358891741678875 L 4.008988720294451 -4.116221662828506 M 4.008988720294451 -4.116221662828506 L 5.44642747572884 -3.355180180754597 M 5.44642747572884 -3.355180180754597 L 5.825236845260462 -4.814786817502464 M 5.825236845260462 -4.814786817502464 L 4.087956671749623 -4.6600938519338895 M 4.087956671749623 -4.6600938519338895 L 4.949325803162052 -3.2512847624198233 M 4.949325803162052 -3.2512847624198233 L 5.915026156521961 -4.653394512705178 M 5.915026156521961 -4.653394512705178 L 4.480778553630181 -5.10463974259897 M 4.480778553630181 -5.10463974259897 L 4.243532030985136 -3.595969257714496 M 4.243532030985136 -3.595969257714496 L 5.973013255711524 -4.019250776361736 M 5.973013255711524 -4.019250776361736 L 4.861116384293194 -5.240308710094082 M 4.861116384293194 -5.240308710094082 L 4.130646847669835 -3.755808643809297 M 4.130646847669835 -3.755808643809297 L 5.571850348189231 -3.4296420419866367 M 5.571850348189231 -3.4296420419866367 L 5.663842944830398 -4.997872010840696 M 5.663842944830398 -4.997872010840696 L 4.347865665679739 -5.008103429619383 M 4.347865665679739 -5.008103429619383 L 4.289714830070396 -3.546085958814521 M 4.289714830070396 -3.546085958814521 L 5.947252374895041 -3.9295114069803656 M 5.947252374895041 -3.9295114069803656 L 5.192963625692232 -5.231205910683231 M 5.192963625692232 -5.231205910683231 L 4.010747098710042 -4.103785440911647 M 4.010747098710042 -4.103785440911647 L 5.081255374673514 -3.253306685039642 M 5.081255374673514 -3.253306685039642 L 5.992800722938129 -4.369777813193965 M 5.992800722938129 -4.369777813193965 L 4.752017247438009 -5.218764447340931 M 4.752017247438009 -5.218764447340931 L 4.016886021554929 -4.067005723078822 M 4.016886021554929 -4.067005723078822 L 5.580381509377153 -3.4356552919229486 M 5.580381509377153 -3.4356552919229486 L 5.498235883010641 -5.117041524311614 M 5.498235883010641 -5.117041524311614 L 4.009464794101586 -4.387258900898216 M 4.009464794101586 -4.387258900898216 L 5.300831650333799 -3.2963227389952916 M 5.300831650333799 -3.2963227389952916 L 5.886687381111562 -4.712369428247067 M 5.886687381111562 -4.712369428247067 L 4.332371763811088 -4.994494820830396 M 4.332371763811088 -4.994494820830396 L 4.720481133793295 -3.289859800115359 M 4.720481133793295 -3.289859800115359 L 5.992409857505356 -4.372974284816781 M 5.992409857505356 -4.372974284816781 L 4.533283008408578 -5.134406721910147 M 4.533283008408578 -5.134406721910147 L 4.2378900771682755 -3.602552345342558 M 4.2378900771682755 -3.602552345342558 L 5.7720847030254765 -3.614480361157846 M 5.7720847030254765 -3.614480361157846 L 5.210009475988428 -5.227699350513779 M 5.210009475988428 -5.227699350513779 L 4.026143340615194 -4.022836607324452 M 4.026143340615194 -4.022836607324452 L 5.42306870248759 -3.3439023932404037 M 5.42306870248759 -3.3439023932404037 L 5.756656937581101 -4.903812112774296 M 5.756656937581101 -4.903812112774296 L 4.299936166044702 -4.964080267468447 M 4.299936166044702 -4.964080267468447 L 4.431688127775418 -3.4271867673107157 M 4.431688127775418 -3.4271867673107157 L 5.834995676580448 -3.6997434960929954 M 5.834995676580448 -3.6997434960929954 L 5.30279912169166 -5.203054401334341 M 5.30279912169166 -5.203054401334341 L 4.0032035718588785 -4.170019497093968 M 4.0032035718588785 -4.170019497093968 L 5.417401310973514 -3.3412777401221034 M 5.417401310973514 -3.3412777401221034 L 5.67480581416772 -4.987995334108177 M 5.67480581416772 -4.987995334108177 L 4.133707583906407 -4.749537235667898 M 4.133707583906407 -4.749537235667898 L 4.725943647368958 -3.2882863650844034 M 4.725943647368958 -3.2882863650844034 L 5.999195339422534 -4.209891725588268 M 5.999195339422534 -4.209891725588268 L 4.879078319853466 -5.242662050886675 M 4.879078319853466 -5.242662050886675 L 4.12496053575939 -3.7659484159498007 M 4.12496053575939 -3.7659484159498007 L 5.630629478022678 -3.4739159443405345 M 5.630629478022678 -3.4739159443405345 L 5.634492103361166 -5.022929343971572 M 5.634492103361166 -5.022929343971572 L 4.148550960637963 -4.774437349327319 M 4.148550960637963 -4.774437349327319 L 4.6047379676999185 -3.331431588926546 M 4.6047379676999185 -3.331431588926546 L 5.954402542743626 -3.9514773268167036 M 5.954402542743626 -3.9514773268167036 L 5.0853295453098495 -5.246352783253609 M 5.0853295453098495 -5.246352783253609 L 4.000086048553492 -4.236881703516389 M 4.000086048553492 -4.236881703516389 L 5.302404468549404 -3.2968203016212776 M 5.302404468549404 -3.2968203016212776 L 5.703480250794107 -4.960714806897014 M 5.703480250794107 -4.960714806897014 L 4.063244834879851 -4.599985372009635 M 4.063244834879851 -4.599985372009635 L 4.8964723301191135 -3.2553734260693443 M 4.8964723301191135 -3.2553734260693443 L 5.884117817942456 -4.717264040983971 M 5.884117817942456 -4.717264040983971 L 4.0911140072222585 -4.667044664433462 M 4.0911140072222585 -4.667044664433462 L 5.1660728978491415 -3.2638865214388413 M 5.1660728978491415 -3.2638865214388413 L 5.864842291637687 -4.752043634154317 M 5.864842291637687 -4.752043634154317 L 4.26069447152944 -4.923370132670633 M 4.26069447152944 -4.923370132670633 L 4.636652127028365 -3.3183464575245853 M 4.636652127028365 -3.3183464575245853 L 5.996169336913471 -4.1625548618082435 M 5.996169336913471 -4.1625548618082435 L 4.857659585137902 -5.23981776418535 M 4.857659585137902 -5.23981776418535 L 4.038797992527979 -3.97415457076153 M 4.038797992527979 -3.97415457076153 L 5.398638302273274 -3.332891770857615 M 5.398638302273274 -3.332891770857615 L 5.605474909990175 -5.045864393833767 M 5.605474909990175 -5.045864393833767 L 4.075147612029545 -4.630326255293198 M 4.075147612029545 -4.630326255293198 L 4.398469125663317 -3.451150447693844 M 4.398469125663317 -3.451150447693844 L 5.9357389961875775 -3.8973067465716644 M 5.9357389961875775 -3.8973067465716644 L 5.159806037785004 -5.237148433766401 M 5.159806037785004 -5.237148433766401 L 4.024672540524552 -4.02923689893198 M 4.024672540524552 -4.02923689893198 L 5.774042987592313 -3.616866954456517 M 5.774042987592313 -3.616866954456517 L 5.201826358121076 -5.229421319539035 M 5.201826358121076 -5.229421319539035 L 4.113242895328117 -3.787764305452359 M 4.113242895328117 -3.787764305452359 L 5.56001742773852 -3.4215191730467565 M 5.56001742773852 -3.4215191730467565 L 5.606059505944268 -5.045419307821095 M 5.606059505944268 -5.045419307821095 L 4.033532555064672 -4.506789170099088 M 4.033532555064672 -4.506789170099088 L 5.015035132453519 -3.2501130339922892 M 5.015035132453519 -3.2501130339922892 L 5.9014066504790135 -4.682973498579538 M 5.9014066504790135 -4.682973498579538 L 4.2283109460995165 -4.886000003215547 M 4.2283109460995165 -4.886000003215547 L 4.5768951465337615 -3.34391927347873 M 4.5768951465337615 -3.34391927347873 L 5.98650030639471 -4.413759413418412 M 5.98650030639471 -4.413759413418412 L 4.918052433414091 -5.246636642077065 M 4.918052433414091 -5.246636642077065 L 4.048299102634193 -3.94297328788342 M 4.048299102634193 -3.94297328788342 L 5.782744163164807 -3.627656385080215 M 5.782744163164807 -3.627656385080215 L 5.198129569790994 -5.230175838089491 M 5.198129569790994 -5.230175838089491 L 4.015400347524675 -4.424824267038277 M 4.015400347524675 -4.424824267038277 L 5.212245100077346 -3.2727835360099804 M 5.212245100077346 -3.2727835360099804 L 5.850943382207309 -4.775257422867669 M 5.850943382207309 -4.775257422867669 L 4.342726212023043 -5.003651887570397 M 4.342726212023043 -5.003651887570397 L 4.440470845342181 -3.421189330976063 M 4.440470845342181 -3.421189330976063 L 5.997711961034224 -4.317608008469728 M 5.997711961034224 -4.317608008469728 L 4.288942040544232 -4.953133400070426 M 4.288942040544232 -4.953133400070426 L 4.527451605650166 -3.368695276877859 M 4.527451605650166 -3.368695276877859 L 5.988281359833332 -4.4026432239111175 M 5.988281359833332 -4.4026432239111175 L 4.436228741734068 -5.075930970695038 M 4.436228741734068 -5.075930970695038 L 4.085791067621745 -3.8447568286080425 M 4.085791067621745 -3.8447568286080425 L 5.607313339879693 -3.45553759862145 M 5.607313339879693 -3.45553759862145 L 5.52113575704269 -5.103473797331554 M 5.52113575704269 -5.103473797331554 L 4.051812105146462 -4.5677101132372355 M 4.051812105146462 -4.5677101132372355 L 5.02619095240527 -3.250343041832797 M 5.02619095240527 -3.250343041832797 L 5.881385245623788 -4.7223981888160615 M 5.881385245623788 -4.7223981888160615 L 4.216808536498127 -4.871780613639404 M 4.216808536498127 -4.871780613639404 L 4.849888814039538 -3.2613308784787787 M 4.849888814039538 -3.2613308784787787 L 5.9979891221472705 -4.313385424789304 M 5.9979891221472705 -4.313385424789304 L 4.676368016812457 -5.1961830369744 M 4.676368016812457 -5.1961830369744 L 4.06385308128471 -3.898390917950252 M 4.06385308128471 -3.898390917950252 L 5.634519035507083 -3.47709276521748 M 5.634519035507083 -3.47709276521748 L 5.462720343575084 -5.136504305484049 M 5.462720343575084 -5.136504305484049 L 4.03334022685263 -4.506064216513506 M 4.03334022685263 -4.506064216513506 L 4.9231709648189765 -3.2529557184592286 M 4.9231709648189765 -3.2529557184592286 L 5.826730653703588 -4.812597925899873 M 5.826730653703588 -4.812597925899873 L 4.27460353925586 -4.938331297225308 M 4.27460353925586 -4.938331297225308 L 4.572347662946947 -3.3460567060854634 M 4.572347662946947 -3.3460567060854634 L 5.956169857140667 -3.9571874246286605 M 5.956169857140667 -3.9571874246286605 L 5.06623034716624 -5.247804360139922 M 5.06623034716624 -5.247804360139922 L 4.0677653250198915 -3.8881457326979114 M 4.0677653250198915 -3.8881457326979114 L 5.685884822525381 -3.5222898858547267 M 5.685884822525381 -3.5222898858547267 L 5.367584147443029 -5.179990265835391 M 5.367584147443029 -5.179990265835391 L 4.000075519691666 -4.237710423924789 M 4.000075519691666 -4.237710423924789 L 5.212434351599137 -3.2728246594082235 M 5.212434351599137 -3.2728246594082235 L 5.797969541844475 -4.8526977769069 M 5.797969541844475 -4.8526977769069 L 4.15786586676988 -4.789268116662533 M 4.15786586676988 -4.789268116662533 L 4.540599496069803 -3.3617707632662155 M 4.540599496069803 -3.3617707632662155 L 5.8808760199746875 -3.7766529418771535 M 5.8808760199746875 -3.7766529418771535 L 4.960299927747338 -5.249211641376908 M 4.960299927747338 -5.249211641376908 L 4.097911291355381 -3.8184493520617973 M 4.097911291355381 -3.8184493520617973 L 5.199168400618508 -3.2700347209237126 M 5.199168400618508 -3.2700347209237126 L 5.900259043996249 -4.685354629816843 M 5.900259043996249 -4.685354629816843 L 4.249897255023383 -4.91132130767014 M 4.249897255023383 -4.91132130767014 L 4.505366887357653 -3.380898116514673 M 4.505366887357653 -3.380898116514673 L 5.993858164872699 -4.360661412045349 M 5.993858164872699 -4.360661412045349 L 4.669251335431006 -5.193718878101857 M 4.669251335431006 -5.193718878101857 L 4.1938662426608895 -3.6582666434293842 M 4.1938662426608895 -3.6582666434293842 L 5.901083901234985 -3.816355211105748 M 5.901083901234985 -3.816355211105748 L 5.038120336497252 -5.249273155821438 M 5.038120336497252 -5.249273155821438 L 4.020486464642099 -4.048621664395931 M 4.020486464642099 -4.048621664395931 L 5.6019465307309995 -3.4514636049991747 M 5.6019465307309995 -3.4514636049991747 L 5.5177398414034755 -5.105538109392857 M 5.5177398414034755 -5.105538109392857 L 4.06916194947266 -4.61543196862133 M 4.06916194947266 -4.61543196862133 L 5.447896762777828 -3.355914718892463 M 5.447896762777828 -3.355914718892463 L 5.529861222149974 -5.098084362113661 M 5.529861222149974 -5.098084362113661 L 4.167217158673644 -4.803599800571136 M 4.167217158673644 -4.803599800571136 L 4.88063785119727 -3.257149216934793 M 4.88063785119727 -3.257149216934793 L 5.9950667656323215 -4.349207519543785 M 5.9950667656323215 -4.349207519543785 L 4.546723822414839 -5.141370128977736 M 4.546723822414839 -5.141370128977736 L 4.131749040932911 -3.7538747415429436 M 4.131749040932911 -3.7538747415429436 L 5.81631890439135 -3.672398540225784 M 5.81631890439135 -3.672398540225784 L 4.941529196787209 -5.248289119028977 M 4.941529196787209 -5.248289119028977 L 4.060199036478669 -3.908277672716022 M 4.060199036478669 -3.908277672716022 L 5.351676275297977 -3.3138783212677203 M 5.351676275297977 -3.3138783212677203 L 5.799424193523929 -4.850766975464378 M 5.799424193523929 -4.850766975464378 L 4.020430375482934 -4.451105322464359 M 4.020430375482934 -4.451105322464359 L 5.01731191440972 -3.250149862419637 M 5.01731191440972 -3.250149862419637 L 5.922659767335751 -4.635615033083434 M 5.922659767335751 -4.635615033083434 L 4.40460272278519 -5.053431442181092 M 4.40460272278519 -5.053431442181092 L 4.542282154386802 -3.360902494769436 M 4.542282154386802 -3.360902494769436 L 5.999045986772902 -4.206329457148337 M 5.999045986772902 -4.206329457148337 L 4.822811187803312 -5.234176876802299 M 4.822811187803312 -5.234176876802299 L 4.18968079234723 -3.664011278513838 M 4.18968079234723 -3.664011278513838 L 5.8352414886563935 -3.700116689081173 M 5.8352414886563935 -3.700116689081173 L 5.090467290678907 -5.245899427310418 M 5.090467290678907 -5.245899427310418 L 4.135408665626 -3.7475243045426128 M 4.135408665626 -3.7475243045426128 L 5.909343555201991 -3.833953970560223 M 5.909343555201991 -3.833953970560223 L 4.971808722428593 -5.2496025469499825 M 4.971808722428593 -5.2496025469499825 L 4.0669681516538265 -3.890206211877243 M 4.0669681516538265 -3.890206211877243 L 5.631547180371935 -3.4746625515530294 M 5.631547180371935 -3.4746625515530294 L 5.558655371890666 -5.079399888749511 M 5.558655371890666 -5.079399888749511 L 4.005496391222117 -4.354702302399552 M 4.005496391222117 -4.354702302399552 L 5.218388409521014 -3.2741380719656688 M 5.218388409521014 -3.2741380719656688 L 5.909473395948207 -4.66576212196692 M 5.909473395948207 -4.66576212196692 L 4.15225317922447 -4.780401100927385 M 4.15225317922447 -4.780401100927385 L 5.079067484139567 -3.2531307342726232 M 5.079067484139567 -3.2531307342726232 L 5.82377203081737 -4.816921194914272 M 5.82377203081737 -4.816921194914272 L 4.256587760534145 -4.918833493638261 M 4.256587760534145 -4.918833493638261 L 4.79751408749053 -3.270714824356456 M 4.79751408749053 -3.270714824356456 L 5.9850504833694895 -4.42226591425333 M 5.9850504833694895 -4.42226591425333 L 4.589314755190921 -5.1617771820440055 M 4.589314755190921 -5.1617771820440055 L 4.26883684644881 -3.567797359365211 M 4.26883684644881 -3.567797359365211 L 5.942165263474145 -3.914851351930678 M 5.942165263474145 -3.914851351930678 L 5.069259343378448 -5.247598688529003 M 5.069259343378448 -5.247598688529003 L 4.023694315273671 -4.033604043542734 M 4.023694315273671 -4.033604043542734 L 5.534587109217295 -3.4048866214177558 M 5.534587109217295 -3.4048866214177558 L 5.639625126964738 -5.018686995437898 M 5.639625126964738 -5.018686995437898 L 4.034695944115697 -4.5111284735399675 M 4.034695944115697 -4.5111284735399675 L 5.139204541200878 -3.2597363504050785 M 5.139204541200878 -3.2597363504050785 L 5.946933325842405 -4.571430049013844 M 5.946933325842405 -4.571430049013844 L 4.52429248453744 -5.129603524170088 M 4.52429248453744 -5.129603524170088 L 4.4528091868090085 -3.4129921063936246 M 4.4528091868090085 -3.4129921063936246 L 5.989127516674055 -4.1029396186656095 M 5.989127516674055 -4.1029396186656095 L 4.750098303055172 -5.218271212968813 M 4.750098303055172 -5.218271212968813 L 4.16814786988191 -3.695002672422654 M 4.16814786988191 -3.695002672422654 L 5.875746959793103 -3.7672295965853566 M 5.875746959793103 -3.7672295965853566 L 5.0731843189287265 -5.247318432328882 M 5.0731843189287265 -5.247318432328882 L 4.1597666389430525 -3.7077750476352596 M 4.1597666389430525 -3.7077750476352596 L 5.647420393832555 -3.4878669186751576 M 5.647420393832555 -3.4878669186751576 L 5.266172093090146 -5.213925524540153 M 5.266172093090146 -5.213925524540153 L 4.000563725024344 -4.2835727905123315 M 4.000563725024344 -4.2835727905123315 L 5.238735025029907 -3.2789152519867435 M 5.238735025029907 -3.2789152519867435 L 5.691491857173293 -4.972384254716997 M 5.691491857173293 -4.972384254716997 L 4.145501061500148 -4.769453139467486 M 4.145501061500148 -4.769453139467486 L 4.919136881399616 -3.253274784080276 M 4.919136881399616 -3.253274784080276 L 5.9058993018873505 -4.673493157961272 M 5.9058993018873505 -4.673493157961272 L 4.184942832567906 -4.829380543181742 M 4.184942832567906 -4.829380543181742 L 4.675106375278844 -3.3042494342504742 M 4.675106375278844 -3.3042494342504742 L 5.999041843311657 -4.293765229491536 M 5.999041843311657 -4.293765229491536 L 4.685375740659688 -5.19921629539034 M 4.685375740659688 -5.19921629539034 L 4.021200708280094 -4.045178256699613 M 4.021200708280094 -4.045178256699613 L 5.62553028232222 -3.4698001115753194 M 5.62553028232222 -3.4698001115753194 L 5.420952604558985 -5.157082633895615 M 5.420952604558985 -5.157082633895615 L 4.040495495509136 -4.531693283309596 M 4.040495495509136 -4.531693283309596 L 5.225478377083717 -3.2757518275779556 M 5.225478377083717 -3.2757518275779556 L 5.801244949067451 -4.848336470218804 M 5.801244949067451 -4.848336470218804 L 4.182562006612133 -4.8260166030298235 M 4.182562006612133 -4.8260166030298235 L 4.693107665763178 -3.2982557616740333 M 4.693107665763178 -3.2982557616740333 L 5.992088529584226 -4.375540230473772 M 5.992088529584226 -4.375540230473772 L 4.590328974493793 -5.16223333136906 M 4.590328974493793 -5.16223333136906 L 4.216083844535655 -3.6291332983626834 M 4.216083844535655 -3.6291332983626834 L 5.79840057213935 -3.6478733302638404 M 5.79840057213935 -3.6478733302638404 L 5.348467225090735 -5.187320965858314 M 5.348467225090735 -5.187320965858314 L 4.035638707466611 -3.9854110783435335 M 4.035638707466611 -3.9854110783435335 L 5.665034652605807 -3.5031874995465904 M 5.665034652605807 -3.5031874995465904 L 5.3787897020331625 -5.175482772197099 M 5.3787897020331625 -5.175482772197099 L 4.006265222358768 -4.13823599995378 M 4.006265222358768 -4.13823599995378 L 5.636428333079403 -3.478664160787422 M 5.636428333079403 -3.478664160787422 L 5.428048767844489 -5.153755637518691 M 5.428048767844489 -5.153755637518691 L 4.004338634758694 -4.343050769829267 M 4.004338634758694 -4.343050769829267 L 5.205001883163972 -3.2712384213204806 M 5.205001883163972 -3.2712384213204806 L 5.744658803898382 -4.917445327930784 M 5.744658803898382 -4.917445327930784 L 4.1882388929415875 -4.833989644657592 M 4.1882388929415875 -4.833989644657592 L 4.645746346711555 -3.314850627369194 M 4.645746346711555 -3.314850627369194 L 5.994087918933195 -4.141421874067243 M 5.994087918933195 -4.141421874067243 L 5.064591884693769 -5.2479117638507455 M 5.064591884693769 -5.2479117638507455 L 4.003111061021853 -4.328819054441319 M 4.003111061021853 -4.328819054441319 L 5.403656979046963 -3.3350895982301436 M 5.403656979046963 -3.3350895982301436 L 5.7031256248926985 -4.96106564789705 M 5.7031256248926985 -4.96106564789705 L 4.201215406200478 -4.851617131328998 M 4.201215406200478 -4.851617131328998 L 4.40654205414852 -3.4451350010680413 M 4.40654205414852 -3.4451350010680413 L 5.9260780276774065 -3.872667935826911 M 5.9260780276774065 -3.872667935826911 L 5.1534290596746315 -5.238159665057909 M 5.1534290596746315 -5.238159665057909 L 4.018407080218331 -4.0590148177619545 M 4.018407080218331 -4.0590148177619545 L 5.776525891786939 -3.6199146570626333 M 5.776525891786939 -3.6199146570626333 L 5.433180199290441 -5.1513073365632245 M 5.433180199290441 -5.1513073365632245 L 4.038823520612096 -4.525934368050583 M 4.038823520612096 -4.525934368050583 L 5.023463549309328 -3.2502753069700594 M 5.023463549309328 -3.2502753069700594 L 5.825712429159676 -4.814091290777679 M 5.825712429159676 -4.814091290777679 L 4.08625468896032 -4.656287467875885 M 4.08625468896032 -4.656287467875885 L 4.77715829449474 -3.275145357354489 M 4.77715829449474 -3.275145357354489 L 5.994894162523764 -4.149076239783988 M 5.994894162523764 -4.149076239783988 L 4.827425045179127 -5.234996388302299 M 4.827425045179127 -5.234996388302299 L 4.168068951115675 -3.6951209772371754 M 4.168068951115675 -3.6951209772371754 L 5.9876317268710135 -4.093208507635842 M 5.9876317268710135 -4.093208507635842 L 5.018805948162714 -5.249823152519335 M 5.018805948162714 -5.249823152519335 L 4.003703992011241 -4.164010090907935 M 4.003703992011241 -4.164010090907935 L 5.444834904403105 -3.3543874119773207 M 5.444834904403105 -3.3543874119773207 L 5.755115712440406 -4.9055915350472565 M 5.755115712440406 -4.9055915350472565 L 4.3257291571823915 -4.9884841437201155 M 4.3257291571823915 -4.9884841437201155 L 4.732727505652922 -3.2863790092751763 M 4.732727505652922 -3.2863790092751763 L 5.981422065785328 -4.0581387772642445 M 5.981422065785328 -4.0581387772642445 L 4.976955180870318 -5.249734432892696 M 4.976955180870318 -5.249734432892696 L 4.009427418001564 -4.113011096095522 M 4.009427418001564 -4.113011096095522 L 5.175765063239442 -3.2655678578264347 M 5.175765063239442 -3.2655678578264347 L 5.9683950987068535 -4.499421195571955 M 5.9683950987068535 -4.499421195571955 L 4.270052402911833 -4.933503113017938 M 4.270052402911833 -4.933503113017938 L 4.510831507208862 -3.377810693908457 M 4.510831507208862 -3.377810693908457 L 5.871869134629805 -3.760261077634344 M 5.871869134629805 -3.760261077634344 L 5.011059173697564 -5.249938845468625 M 5.011059173697564 -5.249938845468625 L 4.045157509179946 -3.9528875335423383 M 4.045157509179946 -3.9528875335423383 L 5.509659655911018 -3.389623899020514 M 5.509659655911018 -3.389623899020514 L 5.477895605408247 -5.1284166382369385 M 5.477895605408247 -5.1284166382369385 L 4.000455516516279 -4.219820113697009 M 4.000455516516279 -4.219820113697009 L 5.431981111700806 -3.3481173473595716 M 5.431981111700806 -3.3481173473595716 L 5.333930829040241 -5.192597581906774 M 5.333930829040241 -5.192597581906774 L 4.009128129811113 -4.384807035678329 M 4.009128129811113 -4.384807035678329 L 4.870838761163178 -3.2583763948038866 M 4.870838761163178 -3.2583763948038866 L 5.939043233826508 -4.59379907650349 M 5.939043233826508 -4.59379907650349 L 4.294601810130619 -4.958811253951995 M 4.294601810130619 -4.958811253951995 L 4.440401928088491 -3.4212358611082876 M 4.440401928088491 -3.4212358611082876 L 5.841640829424855 -3.7099623029407653 M 5.841640829424855 -3.7099623029407653 L 5.843973912840043 -4.786384222778288 M 5.843973912840043 -4.786384222778288 L 4.304737632610504 -4.968756036838615 M 4.304737632610504 -4.968756036838615 L 4.292817353371226 -3.5429690923961514 M 4.292817353371226 -3.5429690923961514 L 5.896697383602213 -3.8073558966382297 M 5.896697383602213 -3.8073558966382297 L 5.234821248929106 -5.22203856973444 M 5.234821248929106 -5.22203856973444 L 4.004673022784639 -4.1534380591157545 M 4.004673022784639 -4.1534380591157545 L 5.084656090760994 -3.2535897700760663 M 5.084656090760994 -3.2535897700760663 L 5.954630180297103 -4.547793920129204 M 5.954630180297103 -4.547793920129204 L 4.479653709156589 -5.103955348718834 M 4.479653709156589 -5.103955348718834 L 4.389932206984453 -3.4576507790594233 M 4.389932206984453 -3.4576507790594233 L 5.976322828059793 -4.0336814029970425 M 5.976322828059793 -4.0336814029970425 L 5.3078922795438865 -5.2014212233271175 M 5.3078922795438865 -5.2014212233271175 L 4.013429279357581 -4.086665333835408 M 4.013429279357581 -4.086665333835408 L 5.337446827664559 -3.3086554092686753 M 5.337446827664559 -3.3086554092686753 L 5.377596612738018 -5.175970192851139 M 5.377596612738018 -5.175970192851139 L 4.003702124054602 -4.33596826383433 M 4.003702124054602 -4.33596826383433 L 5.023913561005672 -3.2502859700894318 M 5.023913561005672 -3.2502859700894318 L 5.999512620193364 -4.2812173361162635 M 5.999512620193364 -4.2812173361162635 L 4.679899019222299 -5.197383429296266 M 4.679899019222299 -5.197383429296266 L 4.207070255579701 -3.6406869274227254 M 4.207070255579701 -3.6406869274227254 L 5.8936781397280384 -3.801291428015652 M 5.8936781397280384 -3.801291428015652 L 5.055350050952248 -5.248467010902004 M 5.055350050952248 -5.248467010902004 L 4.08849884585202 -3.838702484827709 M 4.08849884585202 -3.838702484827709 L 5.807806890013566 -3.6605527772169846 M 5.807806890013566 -3.6605527772169846 L 5.16631222535935 -5.236073143177534 M 5.16631222535935 -5.236073143177534 L 4.002635519063565 -4.177445936251671 M 4.002635519063565 -4.177445936251671 L 5.418416069880639 -3.341744533478801 M 5.418416069880639 -3.341744533478801 L 5.918582647400995 -4.645228946173961 M 5.918582647400995 -4.645228946173961 L 4.279018561361392 -4.94295437449994 M 4.279018561361392 -4.94295437449994 L 4.574535169466734 -3.345025040136856 M 4.574535169466734 -3.345025040136856 L 5.997167568276812 -4.174788027702306 M 5.997167568276812 -4.174788027702306 L 4.547035944056635 -5.141528779133537 M 4.547035944056635 -5.141528779133537 L 4.545589581231664 -3.3592075599137665 M 4.545589581231664 -3.3592075599137665 L 5.957371226261432 -3.9611395923171844 M 5.957371226261432 -3.9611395923171844 L 5.010611244901991 -5.2499436991559225 M 5.010611244901991 -5.2499436991559225 L 4.085957362084491 -3.8443818839444464 M 4.085957362084491 -3.8443818839444464 L 5.624606103768028 -3.469060043834532 M 5.624606103768028 -3.469060043834532 L 5.703569724689725 -4.960626232628676 M 5.703569724689725 -4.960626232628676 L 4.141574663247507 -4.762938535519968 M 4.141574663247507 -4.762938535519968 L 4.689865968935117 -3.299307156450914 M 4.689865968935117 -3.299307156450914 L 5.9911041523819994 -4.383088538691951 M 5.9911041523819994 -4.383088538691951 L 4.544106813071876 -5.140034494900348 M 4.544106813071876 -5.140034494900348 L 4.1921756605316896 -3.660576691534354 M 4.1921756605316896 -3.660576691534354 L 5.790219417778856 -3.63717598630174 M 5.790219417778856 -3.63717598630174 L 5.479993166548066 -5.127272226886934 M 5.479993166548066 -5.127272226886934 L 4.094526462775184 -4.674402725469075 M 4.094526462775184 -4.674402725469075 L 4.763784076167431 -3.2782994096287035 M 4.763784076167431 -3.2782994096287035 L 5.991149202849266 -4.382752618397018 M 5.991149202849266 -4.382752618397018 L 4.708788924993594 -5.206658826224696 M 4.708788924993594 -5.206658826224696 L 4.074177681507612 -3.8720409617678406 M 4.074177681507612 -3.8720409617678406 L 5.648268430122431 -3.4885881255807742 M 5.648268430122431 -3.4885881255807742 L 5.421764262724153 -5.156705523689335 M 5.421764262724153 -5.156705523689335 L 4.026808300024644 -4.479995467562031 M 4.026808300024644 -4.479995467562031 L 5.29729462874247 -3.2952142105577416 M 5.29729462874247 -3.2952142105577416 L 5.897217825532029 -4.691588239820285 M 5.897217825532029 -4.691588239820285 L 4.317633329993607 -4.981010073572442 M 4.317633329993607 -4.981010073572442 L 4.377451997618229 -3.4674183846201942 M 4.377451997618229 -3.4674183846201942 L 5.914841160513019 -3.846186118327772 M 5.914841160513019 -3.846186118327772 L 5.224487940153706 -5.224476867209041 M 5.224487940153706 -5.224476867209041 L 4.0134256352181215 -4.086687346616277 M 4.0134256352181215 -4.086687346616277 L 5.734847122885384 -3.5717672184367126 M 5.734847122885384 -3.5717672184367126 L 5.255969372157084 -5.216684892049891 M 5.255969372157084 -5.216684892049891 L 4.028192698359428 -4.485776522321602 M 4.028192698359428 -4.485776522321602 L 5.208789029902577 -3.272039294760602 M 5.208789029902577 -3.272039294760602 L 5.595831069291275 -5.053109791290839 M 5.595831069291275 -5.053109791290839 L 4.019051162097186 -4.444266253932891 M 4.019051162097186 -4.444266253932891 L 4.957372217717005 -3.2509089770308046 M 4.957372217717005 -3.2509089770308046 L 5.857105820636236 -4.765140381091877 M 5.857105820636236 -4.765140381091877 L 4.263722672149749 -4.92667990696761 M 4.263722672149749 -4.92667990696761 L 4.670981418988154 -3.3056765525790692 M 4.670981418988154 -3.3056765525790692 L 5.9975255342794505 -4.179694890224844 M 5.9975255342794505 -4.179694890224844 L 4.809725501101797 -5.231730928039368 M 4.809725501101797 -5.231730928039368 L 4.0174868848003875 -4.063806610050859 M 4.0174868848003875 -4.063806610050859 L 5.564206840108509 -3.42436652104292 M 5.564206840108509 -3.42436652104292 L 5.548617289762412 -5.086073602844717 M 5.548617289762412 -5.086073602844717 L 4.034785983047 -4.5114610897962715 M 4.034785983047 -4.5114610897962715 L 5.357367874449083 -3.3160362949708673 M 5.357367874449083 -3.3160362949708673 L 5.7713056414358785 -4.8864649302901055 M 5.7713056414358785 -4.8864649302901055 L 4.384830785059135 -5.038395102083365 M 4.384830785059135 -5.038395102083365 L 4.293320850588255 -3.5424658454981186 M 4.293320850588255 -3.5424658454981186 L 5.851563978277605 -3.725749305293719 M 5.851563978277605 -3.725749305293719 L 5.2747225074999 -5.211523553467604 M 5.2747225074999 -5.211523553467604 L 4.072459524447429 -3.8762772870004953 M 4.072459524447429 -3.8762772870004953 L 5.327833436396228 -3.305264461354057 M 5.327833436396228 -3.305264461354057 L 5.809321714190737 -4.837365612663327 M 5.809321714190737 -4.837365612663327 L 4.347964592150442 -5.008188516736082 M 4.347964592150442 -5.008188516736082 L 4.360237540054205 -3.4814273002219602 M 4.360237540054205 -3.4814273002219602 L 5.978436663281098 -4.043452920748437 M 5.978436663281098 -4.043452920748437 L 4.718052750120346 -5.209429907958524 M 4.718052750120346 -5.209429907958524 L 4.14668446713212 -3.7286051387226697 M 4.14668446713212 -3.7286051387226697 L 5.664650447311493 -3.5028455428168606 M 5.664650447311493 -3.5028455428168606 L 5.673330625673396 -4.98934151008196 M 5.673330625673396 -4.98934151008196 L 4.19297340544148 -4.840515093520292 M 4.19297340544148 -4.840515093520292 L 4.488010557202374 -3.3910082593739466 M 4.488010557202374 -3.3910082593739466 L 5.983503749573972 -4.069112259746719 M 5.983503749573972 -4.069112259746719 L 4.675191490629016 -5.19577980113777 M 4.675191490629016 -5.19577980113777 L 4.173196406609331 -3.6875092730041876 M 4.173196406609331 -3.6875092730041876 L 5.915818199647415 -3.848406891002138 M 5.915818199647415 -3.848406891002138 L 5.265311786472206 -5.214162670900988 M 5.265311786472206 -5.214162670900988 L 4.013726345247258 -4.415118981164092 M 4.013726345247258 -4.415118981164092 L 4.8154682407578955 -3.2671734487555733 M 4.8154682407578955 -3.2671734487555733 L 5.998649779722014 -4.198051780962468 M 5.998649779722014 -4.198051780962468 L 4.8263038324570715 -5.2347992898966265 M 4.8263038324570715 -5.2347992898966265 L 4.260387305688663 -3.576967264976268 M 4.260387305688663 -3.576967264976268 L 5.95420367870663 -3.950842283163657 M 5.95420367870663 -3.950842283163657 L 5.142033884104899 -5.239861796295865 M 5.142033884104899 -5.239861796295865 L 4.0070868937551625 -4.368842599463443 M 4.0070868937551625 -4.368842599463443 L 4.905188070479144 -3.254504797590399 M 4.905188070479144 -3.254504797590399 L 5.996615614545306 -4.332202900462719 M 5.996615614545306 -4.332202900462719 L 5.027290641427076 -5.249627541082427 M 5.027290641427076 -5.249627541082427 L 4.026412574381846 -4.021685469848687 M 4.026412574381846 -4.021685469848687 L 5.632023139620241 -3.4750504848800965 M 5.632023139620241 -3.4750504848800965 L 5.766387265726894 -4.892378828209379 M 5.766387265726894 -4.892378828209379 L 4.092245182070095 -4.669501121005707 M 4.092245182070095 -4.669501121005707 L 4.939035358913568 -3.251860073668425 M 4.939035358913568 -3.251860073668425 L 5.987560099496195 -4.407242010554007 M 5.987560099496195 -4.407242010554007 L 4.49999976878039 -5.116025270289693 M 4.49999976878039 -5.116025270289693 L 4.528354702239885 -3.368211639280279 M 4.528354702239885 -3.368211639280279 L 5.926238334957055 -3.873061613979177 M 5.926238334957055 -3.873061613979177 L 4.912378008397428 -5.246153796653709 M 4.912378008397428 -5.246153796653709 L 4.0316617524050535 -4.000358180096468 M 4.0316617524050535 -4.000358180096468 L 5.526243265639796 -3.3996659330776153 M 5.526243265639796 -3.3996659330776153 L 5.606223645119541 -5.045294217317074 M 5.606223645119541 -5.045294217317074 L 4.234345406274845 -4.893251928180218 M 4.234345406274845 -4.893251928180218 L 4.567039253025587 -3.3485872246415855 M 4.567039253025587 -3.3485872246415855 L 5.933372932623377 -3.8910919774565684 M 5.933372932623377 -3.8910919774565684 L 5.063905925920101 -5.247955927199341 M 5.063905925920101 -5.247955927199341 L 4.113917614442462 -3.786472216577407 M 4.113917614442462 -3.786472216577407 L 5.8735897479571175 -3.7633369212029537 M 5.8735897479571175 -3.7633369212029537 L 5.163799005877142 -5.236493733215604 M 5.163799005877142 -5.236493733215604 L 4.006101353416884 -4.360297236231247 M 4.006101353416884 -4.360297236231247 L 5.595202898831015 -3.446424546652179 M 5.595202898831015 -3.446424546652179 L 5.434391725233101 -5.15072405821595 M 5.434391725233101 -5.15072405821595 L 4.000030920398967 -4.257863831245736 M 4.000030920398967 -4.257863831245736 L 5.330418674486128 -3.3061655338191818 M 5.330418674486128 -3.3061655338191818 L 5.817019151013251 -4.826610533096289 M 5.817019151013251 -4.826610533096289 L 4.4755178176920944 -5.101421423527466 M 4.4755178176920944 -5.101421423527466 L 4.449013097490996 -3.4154861096042004 M 4.449013097490996 -3.4154861096042004 L 5.953281892057136 -3.947917835223649 M 5.953281892057136 -3.947917835223649 L 4.95698260922836 -5.249074323607208 M 4.95698260922836 -5.249074323607208 L 4.216196252642356 -3.628991396494288 M 4.216196252642356 -3.628991396494288 L 5.8335651888178255 -3.697578896138912 M 5.8335651888178255 -3.697578896138912 L 5.442104941927621 -5.146963332764041 M 5.442104941927621 -5.146963332764041 L 4.00021188470317 -4.229415430264127 M 4.00021188470317 -4.229415430264127 L 5.132927067292303 -3.258874178128192 M 5.132927067292303 -3.258874178128192 L 5.918475058516841 -4.6454789082650105 M 5.918475058516841 -4.6454789082650105 L 4.278405126090155 -4.942315562404194 M 4.278405126090155 -4.942315562404194 L 4.573616422960009 -3.3454575492379686 M 4.573616422960009 -3.3454575492379686 L 5.997816279914349 -4.3160505226163215 M 5.997816279914349 -4.3160505226163215 L 4.373109374867562 -5.0291072738211735 M 4.373109374867562 -5.0291072738211735 L 4.4324146760062675 -3.426685418575057 M 4.4324146760062675 -3.426685418575057 L 5.9912187610519325 -4.1177677507615025 M 5.9912187610519325 -4.1177677507615025 L 4.798930059159424 -5.229576887686907 M 4.798930059159424 -5.229576887686907 L 4.140388442748191 -3.7390518904633083 M 4.140388442748191 -3.7390518904633083 L 5.552733305791401 -3.416641798103055 M 5.552733305791401 -3.416641798103055 L 5.655549723325764 -5.005152011351035 M 5.655549723325764 -5.005152011351035 L 4.021939362535162 -4.458320400925772 M 4.021939362535162 -4.458320400925772 L 5.236177183346785 -3.2782899928135047 M 5.236177183346785 -3.2782899928135047 L 5.811747874266878 -4.83400803814948 M 5.811747874266878 -4.83400803814948 L 4.365163925697726 -5.022646852555861 M 4.365163925697726 -5.022646852555861 L 4.514070013172194 -3.3760022609288236 M 4.514070013172194 -3.3760022609288236 L 5.868312503594456 -3.7539824639173247 M 5.868312503594456 -3.7539824639173247 L 4.947685723601533 -5.248630670711101 M 4.947685723601533 -5.248630670711101 L 4.307284473352987 -3.528789074443439 M 4.307284473352987 -3.528789074443439 L 5.917321951839823 -3.851853749643705 M 5.917321951839823 -3.851853749643705 L 4.919092190859421 -5.246721589221419 M 4.919092190859421 -5.246721589221419 L 4.006487448322066 -4.136277488339384 M 4.006487448322066 -4.136277488339384 L 5.636909064967071 -3.4790610640506143 M 5.636909064967071 -3.4790610640506143 L 5.6172858681830675 -5.03673893823903 M 5.6172858681830675 -5.03673893823903 L 4.095862116361137 -4.677240783831597 M 4.095862116361137 -4.677240783831597 L 5.067894545321713 -3.2523074969132235 M 5.067894545321713 -3.2523074969132235 L 5.887109064948302 -4.711559862733479 M 5.887109064948302 -4.711559862733479 L 4.097276397649409 -4.680220987120773 M 4.097276397649409 -4.680220987120773 L 4.597455116883948 -3.334599750340277 M 4.597455116883948 -3.334599750340277 L 5.998209015127254 -4.309822755859927 M 5.998209015127254 -4.309822755859927 L 4.598419627975289 -5.165823784799508 M 4.598419627975289 -5.165823784799508 L 4.116684964202611 -3.7812201502471994 M 4.116684964202611 -3.7812201502471994 L 5.538577718686597 -3.4074241630960804 M 5.538577718686597 -3.4074241630960804 L 5.665845441006984 -4.996089705524889 M 5.665845441006984 -4.996089705524889 L 4.050457011598375 -4.563636912969936 M 4.050457011598375 -4.563636912969936 L 5.2366904690504 -3.2784148921166496 M 5.2366904690504 -3.2784148921166496 L 5.913315785580347 -4.657252103505622 M 5.913315785580347 -4.657252103505622 L 4.459889562032643 -5.091594150881949 M 4.459889562032643 -5.091594150881949 L 4.765997543476016 -3.2777639945256394 M 4.765997543476016 -3.2777639945256394 L 5.995324700472018 -4.34658540588664 M 5.995324700472018 -4.34658540588664 L 4.654188780844592 -5.188304108861434 M 4.654188780844592 -5.188304108861434 L 4.195351062187739 -3.656249137366858 M 4.195351062187739 -3.656249137366858 L 5.961104996176703 -3.973816752274545 M 5.961104996176703 -3.973816752274545 L 4.473034838479 -5.0998868857343 M 4.473034838479 -5.0998868857343 L 4.456114850765975 -3.4108403343566356 M 4.456114850765975 -3.4108403343566356 L 5.98605181769702 -4.083561384239106 M 5.98605181769702 -4.083561384239106 L 4.887145067788936 -5.243611475515272 M 4.887145067788936 -5.243611475515272 L 4.3770846839103905 -3.4677107255107087 M 4.3770846839103905 -3.4677107255107087 L 5.910303924445286 -3.836059466662771 M 5.910303924445286 -3.836059466662771 L 5.512413202391392 -5.108739023228244 M 5.512413202391392 -5.108739023228244 L 4.052509625193536 -4.569784286119731 M 4.052509625193536 -4.569784286119731 L 5.131091276453112 -3.2586296972180913 M 5.131091276453112 -3.2586296972180913 L 5.9832252308736695 -4.432395573886594 M 5.9832252308736695 -4.432395573886594 L 4.853366972636769 -5.239190959969961 M 4.853366972636769 -5.239190959969961 L 4.21635961306671 -3.628785267425954 M 4.21635961306671 -3.628785267425954 L 5.885103704520314 -3.7846061536242486 M 5.885103704520314 -3.7846061536242486 L 5.04417129013958 -5.249023972248617 M 5.04417129013958 -5.249023972248617 L 4.105383731811252 -3.803164758896483 M 4.105383731811252 -3.803164758896483 L 5.843135202497224 -3.712298381711598 M 5.843135202497224 -3.712298381711598 L 5.355073104514093 -5.184838537101848 M 5.355073104514093 -5.184838537101848 L 4.001722377606349 -4.308666759140753 M 4.001722377606349 -4.308666759140753 L 5.268702781919399 -3.286776861267974 M 5.268702781919399 -3.286776861267974 L 5.728555170480149 -4.934987126570012 M 5.728555170480149 -4.934987126570012 L 4.033515492295352 -4.506724943016653 M 4.033515492295352 -4.506724943016653 L 5.183728212229283 -3.2670229178505577 M 5.183728212229283 -3.2670229178505577 L 5.625572432088543 -5.0301660927077165 M 5.625572432088543 -5.0301660927077165 L 4.075356892034417 -4.630834771117012 M 4.075356892034417 -4.630834771117012 L 4.8692974545105825 -3.2585783719312014 M 4.8692974545105825 -3.2585783719312014 L 5.9962806708505125 -4.163832576401213 M 5.9962806708505125 -4.163832576401213 L 4.78679690770794 -5.227007902443528 M 4.78679690770794 -5.227007902443528 L 4.040902311646138 -3.9669247022534835 M 4.040902311646138 -3.9669247022534835 L 5.461668686285672 -3.3629475640621567 M 5.461668686285672 -3.3629475640621567 L 5.754614019130042 -4.906168943285497 M 5.754614019130042 -4.906168943285497 L 4.059002067719484 -4.588412309828992 M 4.059002067719484 -4.588412309828992 L 5.24979338101187 -3.2817008381689785 M 5.24979338101187 -3.2817008381689785 L 5.851185102759395 -4.774865621698048 M 5.851185102759395 -4.774865621698048 L 4.105269064070582 -4.6966055891845375 M 4.105269064070582 -4.6966055891845375 L 4.720779625630881 -3.2897729526111186 M 4.720779625630881 -3.2897729526111186 L 5.999999985206102 -4.250172011034638 M 5.999999985206102 -4.250172011034638 L 5.078857035966086 -5.246885935239656 M 5.078857035966086 -5.246885935239656 L 4.024598220366218 -4.029565501140927 M 4.024598220366218 -4.029565501140927 L 5.35456653484505 -3.3149692131443085 M 5.35456653484505 -3.3149692131443085 L 5.845776054176438 -4.783538064416903 M 5.845776054176438 -4.783538064416903 L 4.4077879643526625 -5.05578216959327 M 4.4077879643526625 -5.05578216959327 L 4.382670844508645 -3.46329502748468 M 4.382670844508645 -3.46329502748468 L 5.903658016029025 -3.82174518091855 M 5.903658016029025 -3.82174518091855 L 5.394638904313388 -5.168836294016692 M 5.394638904313388 -5.168836294016692 L 4.0173152906816 -4.435285622949571 M 4.0173152906816 -4.435285622949571 L 5.09952630341457 -3.254965068488231 M 5.09952630341457 -3.254965068488231 L 5.964626056405085 -4.513622023557164 M 5.964626056405085 -4.513622023557164 L 4.767427974069965 -5.222579175571223 M 4.767427974069965 -5.222579175571223 L 4.37795709475154 -3.4670168430738397 M 4.37795709475154 -3.4670168430738397 L 5.854955099638044 -3.7312979876625665 M 5.854955099638044 -3.7312979876625665 L 5.339462037314898 -5.190619755917352 M 5.339462037314898 -5.190619755917352 L 4.002766340053318 -4.175669471484815 M 4.002766340053318 -4.175669471484815 L 5.256245977548289 -3.283388392894891 M 5.256245977548289 -3.283388392894891 L 5.9452545759875335 -4.576333857536463 M 5.9452545759875335 -4.576333857536463 L 4.544605731184516 -5.140289874102818 M 4.544605731184516 -5.140289874102818 L 4.440687058322747 -3.421043406882883 M 4.440687058322747 -3.421043406882883 L 5.857617404320198 -3.7357117658286487 M 5.857617404320198 -3.7357117658286487 L 5.417541559301552 -5.158657826828135 M 5.417541559301552 -5.158657826828135 L 4.079582340292597 -4.6409364803887545 M 4.079582340292597 -4.6409364803887545 L 4.797723604720648 -3.2706715260379737 M 4.797723604720648 -3.2706715260379737 L 5.994499958224363 -4.1452630290120025 M 5.994499958224363 -4.1452630290120025 L 4.8677672791724005 -5.241218698140088 M 4.8677672791724005 -5.241218698140088 L 4.087385264048406 -3.841179325713581 M 4.087385264048406 -3.841179325713581 L 5.749939588475158 -3.5884936783085806 M 5.749939588475158 -3.5884936783085806 L 5.574166020088465 -5.068738896948089 M 5.574166020088465 -5.068738896948089 L 4.010417608345017 -4.106032329579158 M 4.010417608345017 -4.106032329579158 L 5.614017231460321 -3.4607073803272943 M 5.614017231460321 -3.4607073803272943 L 5.39559441357698 -5.168425315388619 M 5.39559441357698 -5.168425315388619 L 4.006895641119863 -4.367233665699201 M 4.006895641119863 -4.367233665699201 L 5.333227620484059 -3.3071535899487485 M 5.333227620484059 -3.3071535899487485 L 5.833470181270215 -4.802564436906136 M 5.833470181270215 -4.802564436906136 L 4.266147348858109 -4.929308682715021 M 4.266147348858109 -4.929308682715021 L 4.851951483928482 -3.261019900660776 M 4.851951483928482 -3.261019900660776 L 5.921067019414123 -4.639404090563496 M 5.921067019414123 -4.639404090563496 L 4.0756516029085486 -4.63154952600477 M 4.0756516029085486 -4.63154952600477 L 5.0583157320137175 -3.2517018103794317 M 5.0583157320137175 -3.2517018103794317 L 5.945024387703774 -4.576999857255485 M 5.945024387703774 -4.576999857255485 L 4.642424182771198 -5.183884112153727 M 4.642424182771198 -5.183884112153727 L 4.216904107697616 -3.6280990243944524 M 4.216904107697616 -3.6280990243944524 L 5.832869077064595 -3.696529946185369 M 5.832869077064595 -3.696529946185369 L 5.23811370206951 -5.221237285572765 M 5.23811370206951 -5.221237285572765 L 4.012413732967108 -4.09292242308962 M 4.012413732967108 -4.09292242308962 L 5.612651387614535 -3.459646738948978 M 5.612651387614535 -3.459646738948978 L 5.383910833215275 -5.173370170700761 M 5.383910833215275 -5.173370170700761 L 4.009266590610747 -4.11417911972032 M 4.009266590610747 -4.11417911972032 L 5.415687402164229 -3.3404924499038207 M 5.415687402164229 -3.3404924499038207 L 5.442029744101667 -5.1470003931601225 M 5.442029744101667 -5.1470003931601225 L 4.00531130389344 -4.352929091309657 M 4.00531130389344 -4.352929091309657 L 5.502610699640816 -3.385487140288492 M 5.502610699640816 -3.385487140288492 L 5.545215028307339 -5.088296232192312 M 5.545215028307339 -5.088296232192312 L 4.009223295188663 -4.385504690705485 M 4.009223295188663 -4.385504690705485 L 5.3488509657518675 -3.3128217865880636 M 5.3488509657518675 -3.3128217865880636 L 5.736420519014403 -4.926524071393294 M 5.736420519014403 -4.926524071393294 L 4.068617717627399 -4.614042640472795 M 4.068617717627399 -4.614042640472795 L 5.026957699147527 -3.2503634248104607 M 5.026957699147527 -3.2503634248104607 L 5.999993231020619 -4.25367939029491 M 5.999993231020619 -4.25367939029491 L 5.004899370453169 -5.249987998012557 M 5.004899370453169 -5.249987998012557 L 4.099571111890942 -3.8149967615537954 M 4.099571111890942 -3.8149967615537954 L 5.689681674414082 -3.5258873098906576 M 5.689681674414082 -3.5258873098906576 L 5.675136350238813 -4.987692963627968 M 5.675136350238813 -4.987692963627968 L 4.202609656114402 -4.853463867582813 M 4.202609656114402 -4.853463867582813 L 4.584924196821626 -3.340213169134754 M 4.584924196821626 -3.340213169134754 L 5.966642721895686 -3.9938714225118552 M 5.966642721895686 -3.9938714225118552 L 5.019337291216353 -5.249813017102905 M 5.019337291216353 -5.249813017102905 L 4.0012498459579415 -4.299981294510695 M 4.0012498459579415 -4.299981294510695 L 4.815943079935436 -3.267084413504218 M 4.815943079935436 -3.267084413504218 L 5.987191598906929 -4.409539170887849 M 5.987191598906929 -4.409539170887849 L 4.781539372212091 -5.225845763482382 M 4.781539372212091 -5.225845763482382 L 4.369163898063966 -3.474083888236525 M 4.369163898063966 -3.474083888236525 L 5.964678212234403 -3.986568895457965 M 5.964678212234403 -3.986568895457965 L 5.290515843370761 -5.206870181764787 M 5.290515843370761 -5.206870181764787 L 4.004747802984795 -4.152670331674216 M 4.004747802984795 -4.152670331674216 L 5.5743240030825625 -3.431371916262812 M 5.5743240030825625 -3.431371916262812 L 5.54651151688458 -5.087451587802253 M 5.54651151688458 -5.087451587802253 L 4.012467034500253 -4.40741233131898 M 4.012467034500253 -4.40741233131898 L 5.008476419481837 -3.2500359254889366 M 5.008476419481837 -3.2500359254889366 L 5.994123424882936 -4.358252557009163 M 5.994123424882936 -4.358252557009163 L 4.615601351637871 -5.1731671999899955 M 4.615601351637871 -5.1731671999899955 L 4.378030234436578 -3.466958742641882 M 4.378030234436578 -3.466958742641882 L 5.898327633421884 -3.810673853463469 M 5.898327633421884 -3.810673853463469 L 5.244350439498172 -5.219686992135633 M 5.244350439498172 -5.219686992135633 L 4.023514864151574 -4.465584738483688 M 4.023514864151574 -4.465584738483688 L 5.218496950025262 -3.2741623686136827 M 5.218496950025262 -3.2741623686136827 L 5.762941353257254 -4.896467703361885 M 5.762941353257254 -4.896467703361885 L 4.0929974389925645 -4.6711251053142675 M 4.0929974389925645 -4.6711251053142675 L 5.0815851084451324 -3.2533336214760746 M 5.0815851084451324 -3.2533336214760746 L 5.957767743994106 -4.537542950816812 M 5.957767743994106 -4.537542950816812 L 4.576391091262427 -5.1558451812744615 M 4.576391091262427 -5.1558451812744615 L 4.216854497449433 -3.6281614985908153 M 4.216854497449433 -3.6281614985908153 L 5.771906361198466 -3.614263757882765 M 5.771906361198466 -3.614263757882765 L 5.045604709637468 -5.248959563975881 M 5.045604709637468 -5.248959563975881 L 4.228053045929553 -3.6143130486620336 M 4.228053045929553 -3.6143130486620336 L 5.782130520639961 -3.6268853647333716 M 5.782130520639961 -3.6268853647333716 L 5.442693622984014 -5.146672937123279 M 5.442693622984014 -5.146672937123279 L 4.000281600384804 -4.226269819410039 M 4.000281600384804 -4.226269819410039 L 5.4558694186407815 -3.3599533309156673 M 5.4558694186407815 -3.3599533309156673 L 5.43971520485351 -5.148137260456683 M 5.43971520485351 -5.148137260456683 L 4.01613867948566 -4.428932674477802 M 4.01613867948566 -4.428932674477802 L 5.061830247519136 -3.2519133201511394 M 5.061830247519136 -3.2519133201511394 L 5.807470945812654 -4.839907341595625 M 5.807470945812654 -4.839907341595625 L 4.435976296583526 -5.075758597887037 M 4.435976296583526 -5.075758597887037 L 4.353214173552912 -3.4873283178803884" /></g></svg>