<svg xmlns="http://www.w3.org/2000/svg" xmlns:inkscape="http://www.inkscape.org/namespaces/inkscape" width="11in" height="8.5in" viewBox="3.188270877106942 -5.649980719610708 3.623459908130715 2.7999462926464616"><g inkscape:label="0-layer" inkscape:groupmode="layer"><path style="stroke-width: 0.010870379724392145; stroke: black;" fill="none" d="M 5.543767823772538 -5.089235696231802 L 4.126779770545723 -4.737325795409826 M 4.126779770545723 -4.737325795409826 L 4.859684088593336 -3.2598932153519415 M 4.859684088593336 -3.2598932153519415 L 5.999273766983535 -4.288104312335166 M 5.999273766983535 -4.288104312335166 L 4.620171829788605 -5.1750570583017375 M 4.620171829788605 -5.1750570583017375 L 4.222262090163549 -3.6214113080851447 M 4.222262090163549 -3.6214113080851447 L 5.60407724662003 -3.45307423174052 M 5.60407724662003 -3.45307423174052 L 5.452290914340937 -5.141870466382109 M 5.452290914340937 -5.141870466382109 L 4.005339330344217 -4.353199574804892 M 4.005339330344217 -4.353199574804892 L 5.063390133436943 -3.2520111769248885 M 5.063390133436943 -3.2520111769248885 L 5.7461725327533335 -4.915752620246045 M 5.7461725327533335 -4.915752620246045 L 4.097284405979966 -4.680237790428802 M 4.097284405979966 -4.680237790428802 L 5.010760253566548 -3.25005789320422 M 5.010760253566548 -3.25005789320422 L 5.9863817138214035 -4.414472230600644 M 5.9863817138214035 -4.414472230600644 L 4.601774967142383 -5.167287753764079 M 4.601774967142383 -5.167287753764079 L 4.231651284956873 -3.609968553826006 M 4.231651284956873 -3.609968553826006 L 5.856587780666146 -3.7339986685933395 M 5.856587780666146 -3.7339986685933395 L 5.2137294626985735 -5.226892889100222 M 5.2137294626985735 -5.226892889100222 L 4.066332953165621 -3.8918577857113603 M 4.066332953165621 -3.8918577857113603 L 5.714341240565644 -3.550202463545965 M 5.714341240565644 -3.550202463545965 L 5.279952712378453 -5.210013790959248 M 5.279952712378453 -5.210013790959248 L 4.022484787405586 -4.039135092662395 M 4.022484787405586 -4.039135092662395 L 5.5379453322194845 -3.407020273349787 M 5.5379453322194845 -3.407020273349787 L 5.370647510312156 -5.178773612404767 M 5.370647510312156 -5.178773612404767 L 4.000009361620876 -4.254327026012457 M 4.000009361620876 -4.254327026012457 L 5.373761699709031 -3.322475233845146 M 5.373761699709031 -3.322475233845146 L 5.689455550758725 -4.974327994438971 M 5.689455550758725 -4.974327994438971 L 4.224603653231917 -4.881474865231159 M 4.224603653231917 -4.881474865231159 L 4.452574935317146 -3.4131452942374207 M 4.452574935317146 -3.4131452942374207 L 5.982116234709897 -4.061724400095884 M 5.982116234709897 -4.061724400095884 L 4.851089889430567 -5.238850736446204 M 4.851089889430567 -5.238850736446204 L 4.1428997577162665 -3.734850337593855 M 4.1428997577162665 -3.734850337593855 L 5.785359098588781 -3.630959543919934 M 5.785359098588781 -3.630959543919934 L 5.525279829731644 -5.100929550830793 M 5.525279829731644 -5.100929550830793 L 4.021737243443099 -4.457369185593459 M 4.021737243443099 -4.457369185593459 L 5.451800644128833 -3.357881074091144 M 5.451800644128833 -3.357881074091144 L 5.6383611844858885 -5.019736966854115 M 5.6383611844858885 -5.019736966854115 L 4.057296157857927 -4.583630733012671 M 4.057296157857927 -4.583630733012671 L 5.018954462752837 -3.2501796519665387 M 5.018954462752837 -3.2501796519665387 L 5.892174904381375 -4.701690092864659 M 5.892174904381375 -4.701690092864659 L 4.33507894190938 -4.996913640595518 M 4.33507894190938 -4.996913640595518 L 4.588877965523834 -3.3384196838631395 M 4.588877965523834 -3.3384196838631395 L 5.974743824577033 -4.026674057823684 M 5.974743824577033 -4.026674057823684 L 5.371774672146675 -5.178323000442321 M 5.371774672146675 -5.178323000442321 L 4.000948826106591 -4.2935517157205245 M 4.000948826106591 -4.2935517157205245 L 5.140565431611307 -3.2599286089195756 M 5.140565431611307 -3.2599286089195756 L 5.926615250198809 -4.626010874974378 M 5.926615250198809 -4.626010874974378 L 4.295321153989919 -4.959526408237142 M 4.295321153989919 -4.959526408237142 L 4.5733231971932975 -3.345595828212491 M 4.5733231971932975 -3.345595828212491 L 5.981647342507892 -4.0592947432628215 M 5.981647342507892 -4.0592947432628215 L 4.910143670513712 -5.245954737953112 M 4.910143670513712 -5.245954737953112 L 4.164776375597083 -3.700089555255354 M 4.164776375597083 -3.700089555255354 L 5.700159459408446 -3.5360134935442598 M 5.700159459408446 -3.5360134935442598 L 5.369414859120009 -5.17926458119383 M 5.369414859120009 -5.17926458119383 L 4.00196268658615 -4.312622049101457 M 4.00196268658615 -4.312622049101457 L 4.910082343476266 -3.254050796955347 M 4.910082343476266 -3.254050796955347 L 5.999858064285557 -4.266847886607492 M 5.999858064285557 -4.266847886607492 L 4.939917973204157 -5.248193443204324 M 4.939917973204157 -5.248193443204324 L 4.174900911149957 -3.685011952711538 M 4.174900911149957 -3.685011952711538 L 5.969373822528032 -4.004410113812905 M 5.969373822528032 -4.004410113812905 L 5.113067583864116 -5.243587299374912 M 5.113067583864116 -5.243587299374912 L 4.000310414523525 -4.225085492381488 M 4.000310414523525 -4.225085492381488 L 5.524935274635283 -3.398857851211926 M 5.524935274635283 -3.398857851211926 L 5.597093383315559 -5.052171734481326 M 5.597093383315559 -5.052171734481326 L 4.103608443106021 -4.693263101023747 M 4.103608443106021 -4.693263101023747 L 4.699261678818491 -3.296293303906842 M 4.699261678818491 -3.296293303906842 L 5.98673242919434 -4.087645101163416 M 5.98673242919434 -4.087645101163416 L 4.723712704791785 -5.211075090982244 M 4.723712704791785 -5.211075090982244 L 4.213088130011787 -3.632934599194174 M 4.213088130011787 -3.632934599194174 L 5.970370230211662 -4.008377119628614 M 5.970370230211662 -4.008377119628614 L 4.842003615994621 -5.23743969063494 M 4.842003615994621 -5.23743969063494 L 4.573584394400526 -3.3454726475660155 M 4.573584394400526 -3.3454726475660155 L 5.986144619661088 -4.084112118846829 M 5.986144619661088 -4.084112118846829 L 4.812061168235728 -5.23218073464871 M 4.812061168235728 -5.23218073464871 L 4.019289320165339 -4.054535009635388 M 4.019289320165339 -4.054535009635388 L 5.465587499846825 -3.364998146902289 M 5.465587499846825 -3.364998146902289 L 5.6510643705345895 -5.009022519705706 M 5.6510643705345895 -5.009022519705706 L 4.249141053569051 -4.9104625974001905 M 4.249141053569051 -4.9104625974001905 L 4.768643165072294 -3.2771310391773034 M 4.768643165072294 -3.2771310391773034 L 5.976007652887726 -4.0322637799892 M 5.976007652887726 -4.0322637799892 L 4.728710475836823 -5.212497789129573 M 4.728710475836823 -5.212497789129573 L 4.067376841597425 -3.8891481683416234 M 4.067376841597425 -3.8891481683416234 L 5.5482585139001905 -3.413691084624853 M 5.5482585139001905 -3.413691084624853 L 5.637418849798199 -5.020517494883757 M 5.637418849798199 -5.020517494883757 L 4.115210109254521 -4.715990181478755 M 4.115210109254521 -4.715990181478755 L 4.768251346633866 -3.2772243004356127 M 4.768251346633866 -3.2772243004356127 L 5.890248003366432 -4.705476116280623 M 5.890248003366432 -4.705476116280623 L 4.298410763230978 -4.962581604344275 M 4.298410763230978 -4.962581604344275 L 4.555820705117498 -3.354062081393089 M 4.555820705117498 -3.354062081393089 L 5.999980172555766 -4.243702818460596 M 5.999980172555766 -4.243702818460596 L 5.176017103747441 -5.234387108402158 M 5.176017103747441 -5.234387108402158 L 4.030392510856412 -4.494665725014085 M 4.030392510856412 -4.494665725014085 L 4.979109467159004 -3.250218230993574 M 4.979109467159004 -3.250218230993574 L 5.990448936007695 -4.112119960976129 M 5.990448936007695 -4.112119960976129 L 4.7177502905565465 -5.209340972500959 M 4.7177502905565465 -5.209340972500959 L 4.196743021576259 -3.6543673727761714 M 4.196743021576259 -3.6543673727761714 L 5.766504958250595 -3.607761610476877 M 5.766504958250595 -3.607761610476877 L 5.56209369191714 -5.077073564749206 M 5.56209369191714 -5.077073564749206 L 4.046778294356884 -4.552272029620389 M 4.046778294356884 -4.552272029620389 L 4.853962443168364 -3.2607209534238346 M 4.853962443168364 -3.2607209534238346 L 5.998192699218933 -4.310094385977565 M 5.998192699218933 -4.310094385977565 L 4.556170054234722 -5.146111030644078 M 4.556170054234722 -5.146111030644078 L 4.171340617794578 -3.69024681485236 M 4.171340617794578 -3.69024681485236 L 5.784924022397802 -3.63040797369329 M 5.784924022397802 -3.63040797369329 L 5.262008673679299 -5.215065518458107 M 5.262008673679299 -5.215065518458107 L 4.000420992651038 -4.279013928849139 M 4.000420992651038 -4.279013928849139 L 5.305224058320134 -3.297719435133433 M 5.305224058320134 -3.297719435133433 L 5.683150550940323 -4.980277566922286 M 5.683150550940323 -4.980277566922286 L 4.078108636801188 -4.637448466843574 M 4.078108636801188 -4.637448466843574 L 4.554649047709962 -3.354643909221389 M 4.554649047709962 -3.354643909221389 L 5.99992882728172 -4.261930648389926 M 5.99992882728172 -4.261930648389926 L 4.441360655728189 -5.0794106841797735 M 4.441360655728189 -5.0794106841797735 L 4.890628564484161 -3.255999049752363 M 4.890628564484161 -3.255999049752363 L 5.885128298011291 -4.715347070539437 M 5.885128298011291 -4.715347070539437 L 4.484266115054586 -5.10674883129136 M 4.484266115054586 -5.10674883129136 L 4.2023754826118465 -3.6468456837082943 M 4.2023754826118465 -3.6468456837082943 L 5.731121548505627 -3.5677527711227146 M 5.731121548505627 -3.5677527711227146 L 5.337696434913637 -5.191255075867653 M 5.337696434913637 -5.191255075867653 L 4.04056720541749 -3.9680625731131167 M 4.04056720541749 -3.9680625731131167 L 5.613301839800235 -3.4601513731748037 M 5.613301839800235 -3.4601513731748037 L 5.356188699551622 -5.184414046508144 M 5.356188699551622 -5.184414046508144 L 4.000677650598646 -4.286808178261869 M 4.000677650598646 -4.286808178261869 L 5.588247555979243 -3.4413190908124225 M 5.588247555979243 -3.4413190908124225 L 5.326181662159481 -5.195307105268377 M 5.326181662159481 -5.195307105268377 L 4.0000194506440145 -4.243762940620592 M 4.0000194506440145 -4.243762940620592 L 5.1349423967324315 -3.2591465549516885 M 5.1349423967324315 -3.2591465549516885 L 5.922612610249646 -4.635727846296238 M 5.922612610249646 -4.635727846296238 L 4.38144542315491 -5.03574183766934 M 4.38144542315491 -5.03574183766934 L 4.388785082191099 -3.4585353297538433 M 4.388785082191099 -3.4585353297538433 L 5.88783388341407 -3.7898359037670466 M 5.88783388341407 -3.7898359037670466 L 4.865465220877944 -5.240908872301878 M 4.865465220877944 -5.240908872301878 L 4.135308527372885 -3.747696648263271 M 4.135308527372885 -3.747696648263271 L 5.6782729986646014 -3.5151899978344536 M 5.6782729986646014 -3.5151899978344536 L 5.432247153710822 -5.1517551763693366 M 5.432247153710822 -5.1517551763693366 L 4.157413620184306 -4.78856122451313 M 4.157413620184306 -4.78856122451313 L 4.699727607145107 -3.2961465049132563 M 4.699727607145107 -3.2961465049132563 L 5.996690694459769 -4.168712488183589 M 5.996690694459769 -4.168712488183589 L 4.943155520498078 -5.248383045303833 M 4.943155520498078 -5.248383045303833 L 4.0563741425966455 -3.9189860407176385 M 4.0563741425966455 -3.9189860407176385 L 5.5723474663503865 -3.4299887941239504 M 5.5723474663503865 -3.4299887941239504 L 5.701848986784988 -4.962325767994452 M 5.701848986784988 -4.962325767994452 L 4.094517291746472 -4.674383158306095 M 4.094517291746472 -4.674383158306095 L 4.680105081148207 -3.3025469716694107 M 4.680105081148207 -3.3025469716694107 L 5.9971981766729625 -4.175194943752985 M 5.9971981766729625 -4.175194943752985 L 4.935987429595378 -5.247949092303908 M 4.935987429595378 -5.247949092303908 L 4.116370449393863 -3.7818132666386237 M 4.116370449393863 -3.7818132666386237 L 5.678956519870232 -3.515821517527445 M 5.678956519870232 -3.515821517527445 L 5.267776183089654 -5.21348114448075 M 5.267776183089654 -5.21348114448075 L 4.00277087209869 -4.175608693618188 M 4.00277087209869 -4.175608693618188 L 5.485881339703597 -3.375975215610085 M 5.485881339703597 -3.375975215610085 L 5.5547493462039 -5.08201752558846 M 5.5547493462039 -5.08201752558846 L 4.034277927625842 -4.509578271296658 M 4.034277927625842 -4.509578271296658 L 4.619379728387694 -3.325268574753851 M 4.619379728387694 -3.325268574753851 L 5.999995819822272 -4.252891424905411 M 5.999995819822272 -4.252891424905411 L 4.470466643999112 -5.098289116329118 M 4.470466643999112 -5.098289116329118 L 4.438697026826984 -3.422389601136421 M 4.438697026826984 -3.422389601136421 L 5.831201643165245 -3.694028932048261 M 5.831201643165245 -3.694028932048261 L 5.119134082554825 -5.242878174991182 M 5.119134082554825 -5.242878174991182 L 4.05255315907295 -3.930086756108232 M 4.05255315907295 -3.930086756108232 L 5.757749859427777 -3.597454867049655 M 5.757749859427777 -3.597454867049655 L 4.983583704468201 -5.249865243540855 M 4.983583704468201 -5.249865243540855 L 4.010867555281589 -4.102972768490396 M 4.010867555281589 -4.102972768490396 L 5.423270481936309 -3.3439966340452125 M 5.423270481936309 -3.3439966340452125 L 5.886403632133718 -4.712913167818924 M 5.886403632133718 -4.712913167818924 L 4.1930710945673075 -4.8406485770550844 M 4.1930710945673075 -4.8406485770550844 L 4.3099783560844305 -3.526211266371149 M 4.3099783560844305 -3.526211266371149 L 5.910415734399708 -3.836305438085728 M 5.910415734399708 -3.836305438085728 L 4.973440279059195 -5.249647228387868 M 4.973440279059195 -5.249647228387868 L 4.007586953004795 -4.127051457293332 M 4.007586953004795 -4.127051457293332 L 5.325177629337963 -3.3043470460162765 M 5.325177629337963 -3.3043470460162765 L 5.769804619045279 -4.888279600564324 M 5.769804619045279 -4.888279600564324 L 4.27203751925254 -4.935616967864713 M 4.27203751925254 -4.935616967864713 L 4.773949381361826 -3.2758844432957153 M 4.773949381361826 -3.2758844432957153 L 5.96115769678135 -4.525999786083197 M 5.96115769678135 -4.525999786083197 L 4.706159259095993 -5.2058543921460965 M 4.706159259095993 -5.2058543921460965 L 4.128932034507663 -3.7588375019476326 M 4.128932034507663 -3.7588375019476326 L 5.757710788148113 -3.5974094993612264 M 5.757710788148113 -3.5974094993612264 L 5.615422997199119 -5.038197015040309 M 5.615422997199119 -5.038197015040309 L 4.047128184438215 -4.553373207630448 M 4.047128184438215 -4.553373207630448 L 4.934588976034555 -3.2521415942410505 M 4.934588976034555 -3.2521415942410505 L 5.988938347561914 -4.398327154363294 M 5.988938347561914 -4.398327154363294 L 4.259794230853611 -4.922380412655219 M 4.259794230853611 -4.922380412655219 L 4.976377144271397 -3.2502790585932364 M 4.976377144271397 -3.2502790585932364 L 5.979679255373558 -4.45057057757984 M 5.979679255373558 -4.45057057757984 L 4.257019806495575 -4.919313403466663 M 4.257019806495575 -4.919313403466663 L 4.992685066334149 -3.250026754485169 M 4.992685066334149 -3.250026754485169 L 5.997989683287633 -4.186623410856609 M 5.997989683287633 -4.186623410856609 L 4.7477735423362075 -5.2176682355303265 M 4.7477735423362075 -5.2176682355303265 L 4.155976424949116 -3.71369392623398 M 4.155976424949116 -3.71369392623398 L 5.613782544218575 -3.4605248652347727 M 5.613782544218575 -3.4605248652347727 L 5.499929326283873 -5.116066203428672 M 5.499929326283873 -5.116066203428672 L 4.025113737224465 -4.472703333274447 M 4.025113737224465 -4.472703333274447 L 5.132810327474373 -3.2588585283037794 M 5.132810327474373 -3.2588585283037794 L 5.885451059444736 -4.714732634240586 M 5.885451059444736 -4.714732634240586 L 4.310768484306972 -4.974541177418849 M 4.310768484306972 -4.974541177418849 L 4.18780935501991 -3.666607888117413 M 4.18780935501991 -3.666607888117413 L 5.5952224975297895 -3.4464390636458244 M 5.5952224975297895 -3.4464390636458244 L 5.838624849334571 -4.794709429034021 M 5.838624849334571 -4.794709429034021 L 4.462849863954228 -5.093486651551765 M 4.462849863954228 -5.093486651551765 L 4.447390542730634 -3.416559667560745 M 4.447390542730634 -3.416559667560745 L 5.917822219029326 -3.853008344853341 M 5.917822219029326 -3.853008344853341 L 5.594706256125354 -5.053943075674742 M 5.594706256125354 -5.053943075674742 L 4.033376869375047 -3.993797495443905 M 4.033376869375047 -3.993797495443905 L 5.648445224492933 -3.488738684266494 M 5.648445224492933 -3.488738684266494 L 5.408822153189352 -5.162614073451436 M 5.408822153189352 -5.162614073451436 L 4.027641509342706 -4.483492967017571 M 4.027641509342706 -4.483492967017571 L 5.054801546001421 -3.2515027338265496 M 5.054801546001421 -3.2515027338265496 L 5.994723293425847 -4.147405801742807 M 5.994723293425847 -4.147405801742807 L 4.643574659717129 -5.184323807255407 M 4.643574659717129 -5.184323807255407 L 4.128232169980781 -3.7600807714086106 M 4.128232169980781 -3.7600807714086106 L 5.488823670826602 -3.377617389650845 M 5.488823670826602 -3.377617389650845 L 5.607695313647983 -5.044170262456534 M 5.607695313647983 -5.044170262456534 L 4.094546293257684 -4.674445031713884 M 4.094546293257684 -4.674445031713884 L 4.656515144529243 -3.310841784329055 M 4.656515144529243 -3.310841784329055 L 5.9849749369660525 -4.07730265332461 M 5.9849749369660525 -4.07730265332461 L 5.040969971860055 -5.249160378220527 M 5.040969971860055 -5.249160378220527 L 4.0698354681154525 -3.8828570528744955 M 4.0698354681154525 -3.8828570528744955 L 5.560909581264943 -3.4221229308374426 M 5.560909581264943 -3.4221229308374426 L 5.555700669448738 -5.081382442666565 M 5.555700669448738 -5.081382442666565 L 4.013346287453677 -4.412832587397483 M 4.013346287453677 -4.412832587397483 L 5.38237510325693 -3.3259928136593024 M 5.38237510325693 -3.3259928136593024 L 5.896760878991381 -4.69251545273652 M 5.896760878991381 -4.69251545273652 L 4.2402346314706785 -4.9001973429532795 M 4.2402346314706785 -4.9001973429532795 L 4.546651759616212 -3.3586665197913166 M 4.546651759616212 -3.3586665197913166 L 5.995144094346302 -4.348428814316122 M 5.995144094346302 -4.348428814316122 L 4.688170610824446 -5.2001381120902375 M 4.688170610824446 -5.2001381120902375 L 4.383788617643949 -3.4624191900161323 M 4.383788617643949 -3.4624191900161323 L 5.897570078820976 -3.80912818914643 M 5.897570078820976 -3.80912818914643 L 5.241825151058761 -5.2203198422764565 M 5.241825151058761 -5.2203198422764565 L 4.000898959992647 -4.207607643893896 M 4.000898959992647 -4.207607643893896 L 5.242187872948118 -3.279770628048776 M 5.242187872948118 -3.279770628048776 L 5.834410371463842 -4.801143658217685 M 5.834410371463842 -4.801143658217685 L 4.329831013856632 -4.99220854886721 M 4.329831013856632 -4.99220854886721 L 4.522549385588736 -3.3713414139733757 M 4.522549385588736 -3.3713414139733757 L 5.993759890359578 -4.1384595126758 M 5.993759890359578 -4.1384595126758 L 4.912398120777847 -5.2461555655402154 M 4.912398120777847 -5.2461555655402154 L 4.067496767101852 -3.8888383732530514 M 4.067496767101852 -3.8888383732530514 L 5.765633104370663 -3.6067224941817546 M 5.765633104370663 -3.6067224941817546 L 5.213278102793717 -5.226991530602345 M 5.213278102793717 -5.226991530602345 L 4.004685065228101 -4.153314010218592 M 4.004685065228101 -4.153314010218592 L 5.332811779304427 -3.307006723483024 M 5.332811779304427 -3.307006723483024 L 5.609237868130594 -5.0429875282976955 M 5.609237868130594 -5.0429875282976955 L 4.176952751162225 -4.817972909724196 M 4.176952751162225 -4.817972909724196 L 4.8733542667345455 -3.2580519881336243 M 4.8733542667345455 -3.2580519881336243 L 5.898868872505606 -4.688217697087304 M 5.898868872505606 -4.688217697087304 L 4.210259774596002 -4.863441420494935 M 4.210259774596002 -4.863441420494935 L 4.583898457600279 -3.3406818453299345 M 4.583898457600279 -3.3406818453299345 L 5.975493685583521 -4.470027428714419 M 5.975493685583521 -4.470027428714419 L 4.7501515898851014 -5.218284964234733 M 4.7501515898851014 -5.218284964234733 L 4.216959323744825 -3.6280295028461254 M 4.216959323744825 -3.6280295028461254 L 5.660630270565754 -3.4992885736767967 M 5.660630270565754 -3.4992885736767967 L 5.643489196921864 -5.01545519362328 M 5.643489196921864 -5.01545519362328 L 4.148470880260004 -4.774307312780231 M 4.148470880260004 -4.774307312780231 L 4.916440265323767 -3.2534972299382017 M 4.916440265323767 -3.2534972299382017 L 5.917276763851149 -4.648250346514305 M 5.917276763851149 -4.648250346514305 L 4.136271074451596 -4.753956687792711 M 4.136271074451596 -4.753956687792711 L 4.4892541408681685 -3.390268258478444 M 4.4892541408681685 -3.390268258478444 L 5.996417138349015 -4.165425261428964 M 5.996417138349015 -4.165425261428964 L 4.979472210283187 -5.2497892827237855 M 4.979472210283187 -5.2497892827237855 L 4.088225404835213 -3.8393090120150077 M 4.088225404835213 -3.8393090120150077 L 5.4217514739835915 -3.3432885275939936 M 5.4217514739835915 -3.3432885275939936 L 5.7074061252489 -4.956807310347267 M 5.7074061252489 -4.956807310347267 L 4.0433477722138225 -4.541232750685328 M 4.0433477722138225 -4.541232750685328 L 5.046388528718542 -3.2510765272537996 M 5.046388528718542 -3.2510765272537996 L 5.825226619971361 -4.814801757867875 M 5.825226619971361 -4.814801757867875 L 4.120688414155979 -4.7262469264997655 M 4.120688414155979 -4.7262469264997655 L 4.976541727956975 -3.250275183126499 M 4.976541727956975 -3.250275183126499 L 5.827799050346746 -4.811024716251454 M 5.827799050346746 -4.811024716251454 L 4.33577155369493 -4.997529645645678 M 4.33577155369493 -4.997529645645678 L 4.347298082465777 -3.492385185699786 M 4.347298082465777 -3.492385185699786 L 5.843599489720049 -3.7130270947765855 M 5.843599489720049 -3.7130270947765855 L 5.6082250763683 -5.043764610244609 M 5.6082250763683 -5.043764610244609 L 4.049279112121857 -4.5600480500699785 M 4.049279112121857 -4.5600480500699785 L 5.299231931311123 -3.2958195918570663 M 5.299231931311123 -3.2958195918570663 L 5.664958333298512 -4.996880455613122 M 5.664958333298512 -4.996880455613122 L 4.066230777789364 -4.607875732136371 M 4.066230777789364 -4.607875732136371 L 4.885764180098645 -3.2565463385484628 M 4.885764180098645 -3.2565463385484628 L 5.997111160860816 -4.174043875251589 M 5.997111160860816 -4.174043875251589 L 5.108228677916302 -5.2441260248461905 M 5.108228677916302 -5.2441260248461905 L 4.035687026260675 -3.985235031248431 M 4.035687026260675 -3.985235031248431 L 5.553466133320855 -3.4171283176461924 M 5.553466133320855 -3.4171283176461924 L 5.604139674703861 -5.04687844333293 M 5.604139674703861 -5.04687844333293 L 4.071320231342776 -4.620882578839671 M 4.071320231342776 -4.620882578839671 L 4.827665778200401 -3.2649614647148435 M 4.827665778200401 -3.2649614647148435 L 5.979875774658282 -4.050391718012925 M 5.979875774658282 -4.050391718012925 L 4.730544850890389 -5.213012940005646 M 4.730544850890389 -5.213012940005646 L 4.455939164114158 -3.410954228390847 M 4.455939164114158 -3.410954228390847 L 5.826499965956476 -3.6870632306608986 M 5.826499965956476 -3.6870632306608986 L 5.0182615920907345 -5.249833243223245 M 5.0182615920907345 -5.249833243223245 L 4.024497426323971 -4.030011980436563 M 4.024497426323971 -4.030011980436563 L 5.61698263118496 -3.4630232323530237 M 5.61698263118496 -3.4630232323530237 L 5.772493544346751 -4.885022616874859 M 5.772493544346751 -4.885022616874859 L 4.111864405156279 -4.7095815109113826 M 4.111864405156279 -4.7095815109113826 L 4.794062765095237 -3.271434797634935 M 4.794062765095237 -3.271434797634935 L 5.975627104460724 -4.469435077053746 M 5.975627104460724 -4.469435077053746 L 4.558736625546739 -5.147377643116944 M 4.558736625546739 -5.147377643116944 L 4.187355409810125 -3.66724038400458 M 4.187355409810125 -3.66724038400458 L 5.8199703945862336 -3.6775940671148697 M 5.8199703945862336 -3.6775940671148697 L 4.955306345842247 -5.249000739378118 M 4.955306345842247 -5.249000739378118 L 4.082378761474104 -3.852544011736896 M 4.082378761474104 -3.852544011736896 L 5.849610761206299 -3.72258976646025 M 5.849610761206299 -3.72258976646025 L 5.127427657792368 -5.241847867381662 M 5.127427657792368 -5.241847867381662 L 4.021964920718094 -4.041559639958964 M 4.021964920718094 -4.041559639958964 L 5.320059234359187 -3.3026024664896942 M 5.320059234359187 -3.3026024664896942 L 5.871810359267674 -4.7398435438724995 M 5.871810359267674 -4.7398435438724995 L 4.355580019064399 -5.01467175191121 M 4.355580019064399 -5.01467175191121 L 4.287990324481324 -3.5478303467339316 M 4.287990324481324 -3.5478303467339316 L 5.795586442419655 -3.64415991166147 M 5.795586442419655 -3.64415991166147 L 5.4789816215349685 -5.127824929146884 M 5.4789816215349685 -5.127824929146884 L 4.100284256959334 -4.686476324357671 M 4.100284256959334 -4.686476324357671 L 4.349380229012485 -3.4905963434377245 M 4.349380229012485 -3.4905963434377245 L 5.945729191684526 -3.925044163007135 M 5.945729191684526 -3.925044163007135 L 4.732857205231552 -5.21365695514706 M 4.732857205231552 -5.21365695514706 L 4.079945255039609 -3.8582101758903495 M 4.079945255039609 -3.8582101758903495 L 5.830545482196135 -3.6930491924742457 M 5.830545482196135 -3.6930491924742457 L 5.454849530088937 -5.140568304498804 M 5.454849530088937 -5.140568304498804 L 4.0067156626005875 -4.3656988551240286 M 4.0067156626005875 -4.3656988551240286 L 5.390808162265515 -3.3295278492498257 M 5.390808162265515 -3.3295278492498257 L 5.774362783298942 -4.882741874575656 M 5.774362783298942 -4.882741874575656 L 4.084293921372653 -4.651848699842273 M 4.084293921372653 -4.651848699842273 L 4.915489985169553 -3.2535773700917074 M 4.915489985169553 -3.2535773700917074 L 5.942719912493141 -4.583585321303148 M 5.942719912493141 -4.583585321303148 L 4.63343960766498 -5.180394259855034 M 4.63343960766498 -5.180394259855034 L 4.2787471532745975 -3.557328121625756 M 4.2787471532745975 -3.557328121625756 L 5.836570300404691 -3.7021404080598717 M 5.836570300404691 -3.7021404080598717 L 4.862972848750163 -5.24056729191931 M 4.862972848750163 -5.24056729191931 L 4.2857578049599585 -3.5501013738944875 M 4.2857578049599585 -3.5501013738944875 L 5.769067587528512 -3.6108325369568037 M 5.769067587528512 -3.6108325369568037 L 5.329579882058167 -5.194127693345834 M 5.329579882058167 -5.194127693345834 L 4.017888233584698 -4.061701093288846 M 4.017888233584698 -4.061701093288846 L 5.657689163321823 -3.4967105705978345 M 5.657689163321823 -3.4967105705978345 L 5.288994425495582 -5.207330779841784 M 5.288994425495582 -5.207330779841784 L 4.013322331004725 -4.087312638763641 M 4.013322331004725 -4.087312638763641 L 5.286609869649251 -3.2919526198461586 M 5.286609869649251 -3.2919526198461586 L 5.978582265350839 -4.45585613894373 M 5.978582265350839 -4.45585613894373 L 4.545975991590635 -5.1409894498746285 M 4.545975991590635 -5.1409894498746285 L 4.415693135657336 -3.438467198271047 M 4.415693135657336 -3.438467198271047 L 5.865679333245456 -3.7494010667293605 M 5.865679333245456 -3.7494010667293605 L 5.424487911260165 -5.155433605072168 M 5.424487911260165 -5.155433605072168 L 4.049741056033246 -4.561460975743654 M 4.049741056033246 -4.561460975743654 L 5.048205065741365 -3.2511625399311104 M 5.048205065741365 -3.2511625399311104 L 5.901546354986566 -4.682682527738799 M 5.901546354986566 -4.682682527738799 L 4.366022424225658 -5.023351429438963 M 4.366022424225658 -5.023351429438963 L 4.426973079942849 -3.43046345481741 M 4.426973079942849 -3.43046345481741 L 5.996197872345853 -4.337119453244361 M 5.996197872345853 -4.337119453244361 L 4.718621685204126 -5.20959691744119 M 4.718621685204126 -5.20959691744119 L 4.15157435837169 -3.720685414306776 M 4.15157435837169 -3.720685414306776 L 5.837487814071908 -3.70354399876929 M 5.837487814071908 -3.70354399876929 L 5.085359569835336 -5.2463502114404985 M 5.085359569835336 -5.2463502114404985 L 4.018103867611982 -4.439420128818063 M 4.018103867611982 -4.439420128818063 L 4.540055829882001 -3.3620521634834257 M 4.540055829882001 -3.3620521634834257 L 5.990351080278336 -4.111418840416413 M 5.990351080278336 -4.111418840416413 L 5.02678397156015 -5.249641245081187 M 5.02678397156015 -5.249641245081187 L 4.073823343463754 -3.872910089120192 M 4.073823343463754 -3.872910089120192 L 5.712589652439939 -3.5484189375164643 M 5.712589652439939 -3.5484189375164643 L 5.138710573329851 -5.240332962617374 M 5.138710573329851 -5.240332962617374 L 4.000075778269981 -4.237689403035768 M 4.000075778269981 -4.237689403035768 L 5.24100375885299 -3.2794758178083714 M 5.24100375885299 -3.2794758178083714 L 5.910479265684914 -4.663554720391221 M 5.910479265684914 -4.663554720391221 L 4.693668085909253 -5.201924765099374 M 4.693668085909253 -5.201924765099374 L 4.059314875853448 -3.9107191470044538 M 4.059314875853448 -3.9107191470044538 L 5.679103618092385 -3.515957578954845 M 5.679103618092385 -3.515957578954845 L 5.495027005121788 -5.1188775887316655 M 5.495027005121788 -5.1188775887316655 L 4.0820151088685614 -4.646615354788995 M 4.0820151088685614 -4.646615354788995 L 5.127377037312062 -3.2581456304650356 M 5.127377037312062 -3.2581456304650356 L 5.956097129383196 -4.543049960220457 M 5.956097129383196 -4.543049960220457 L 4.454775885030135 -5.088290322296117 M 4.454775885030135 -5.088290322296117 L 4.187590683008077 -3.6669124408249507 M 4.187590683008077 -3.6669124408249507 L 5.464963753723352 -3.364670283045074 M 5.464963753723352 -3.364670283045074 L 5.640767309150923 -5.017735146729317 M 5.640767309150923 -5.017735146729317 L 4.135335198406536 -4.752349261854077 M 4.135335198406536 -4.752349261854077 L 4.5823599282978105 -3.3413874475286014 M 4.5823599282978105 -3.3413874475286014 L 5.972283380612399 -4.016194465880458 M 5.972283380612399 -4.016194465880458 L 4.846557159222884 -5.2381575252024595 M 4.846557159222884 -5.2381575252024595 L 4.017541924220405 -4.063516410010275 M 4.017541924220405 -4.063516410010275 L 5.498979297296708 -3.38338609469425 M 5.498979297296708 -3.38338609469425 L 5.632887481191354 -5.024243783411443 M 5.632887481191354 -5.024243783411443 L 4.126298694923062 -4.736462772991783 M 4.126298694923062 -4.736462772991783 L 4.987554354118853 -3.2500774500499547 M 4.987554354118853 -3.2500774500499547 L 5.7879565414127825 -4.8657308574733005 M 5.7879565414127825 -4.8657308574733005 L 4.323653287907542 -4.986583413498921 M 4.323653287907542 -4.986583413498921 L 4.821839931911352 -3.2659984806217786 M 4.821839931911352 -3.2659984806217786 L 5.996606415681523 -4.332314350039514 M 5.996606415681523 -4.332314350039514 L 4.641682361931714 -5.183599737708385 M 4.641682361931714 -5.183599737708385 L 4.126653492722033 -3.7629005458580593 M 4.126653492722033 -3.7629005458580593 L 5.516073675384108 -3.393455802905922 M 5.516073675384108 -3.393455802905922 L 5.583555352894055 -5.062073364979233 M 5.583555352894055 -5.062073364979233 L 4.009051649701407 -4.384243685290951 M 4.009051649701407 -4.384243685290951 L 5.094973143584372 -3.2545201649467215 M 5.094973143584372 -3.2545201649467215 L 5.758155010281092 -4.902074367220241 M 5.758155010281092 -4.902074367220241 L 4.246686725064896 -4.907661850654687 M 4.246686725064896 -4.907661850654687 L 4.888095953134945 -3.2562809832275406 M 4.888095953134945 -3.2562809832275406 L 5.986390547016287 -4.414419246917478 M 5.986390547016287 -4.414419246917478 L 4.830328385977246 -5.23550065621232 M 4.830328385977246 -5.23550065621232 L 4.080098177335533 -3.8578512569718058 M 4.080098177335533 -3.8578512569718058 L 5.571927512843065 -3.429695836867113 M 5.571927512843065 -3.429695836867113 L 5.2272401702960885 -5.223838746920559 M 5.2272401702960885 -5.223838746920559 L 4.007082911685257 -4.131190674892193 M 4.007082911685257 -4.131190674892193 L 5.304517318374374 -3.297493200648898 M 5.304517318374374 -3.297493200648898 L 5.698216800046327 -4.96588637375848 M 5.698216800046327 -4.96588637375848 L 4.013301481355741 -4.412560860311534 M 4.013301481355741 -4.412560860311534 L 5.0751464743849795 -3.252827493666463 M 5.0751464743849795 -3.252827493666463 L 5.848999758766018 -4.778393233884805 M 5.848999758766018 -4.778393233884805 L 4.300374060370798 -4.964509303366972 M 4.300374060370798 -4.964509303366972 L 4.516638683431575 -3.3745790511729576 M 4.516638683431575 -3.3745790511729576 L 5.903991284649226 -3.8224491173225785 M 5.903991284649226 -3.8224491173225785 L 5.131148722199234 -5.2413627048994265 M 5.131148722199234 -5.2413627048994265 L 4.078671690150151 -3.8612145251308623 M 4.078671690150151 -3.8612145251308623 L 5.894759111789955 -3.8034508628730186 M 5.894759111789955 -3.8034508628730186 L 5.387194626577911 -5.171998004959442 M 5.387194626577911 -5.171998004959442 L 4.000009648160178 -4.245607252878908 M 4.000009648160178 -4.245607252878908 L 5.217442811019042 -3.273926937193666 M 5.217442811019042 -3.273926937193666 L 5.971284230197998 -4.48792213887884 M 5.971284230197998 -4.48792213887884 L 4.536739334477548 -5.136222069111176 M 4.536739334477548 -5.136222069111176 L 4.411574770263067 -3.441448363424427 M 4.411574770263067 -3.441448363424427 L 5.948186042157337 -3.932284357549075 M 5.948186042157337 -3.932284357549075 L 4.920439718544917 -5.246830056536614 M 4.920439718544917 -5.246830056536614 L 4.111488415870539 -3.791145813065026 M 4.111488415870539 -3.791145813065026 L 5.59675484221291 -3.4475763847596177 M 5.59675484221291 -3.4475763847596177 L 5.244381023704205 -5.219679284739694 M 5.244381023704205 -5.219679284739694 L 4.012345717493878 -4.406649348059027 M 4.012345717493878 -4.406649348059027 L 5.279960535832461 -3.2899884904979517 M 5.279960535832461 -3.2899884904979517 L 5.769799656627056 -4.888285585499834 M 5.769799656627056 -4.888285585499834 L 4.048656373576475 -4.558131959496798 M 4.048656373576475 -4.558131959496798 L 4.9337121362853145 -3.252199459248421 M 4.9337121362853145 -3.252199459248421 L 5.997758845634953 -4.3169125246662015 M 5.997758845634953 -4.3169125246662015 L 4.523517948512518 -5.129184198339734 M 4.523517948512518 -5.129184198339734 L 4.309999906061431 -3.5261907223827773 M 4.309999906061431 -3.5261907223827773 L 5.860313130943768 -3.7402340569185393 M 5.860313130943768 -3.7402340569185393 L 5.269329081980014 -5.2130482052315985 M 5.269329081980014 -5.2130482052315985 L 4.017520715143 -4.06362818124277 M 4.017520715143 -4.06362818124277 L 5.508824139517278 -3.3891295131992845 M 5.508824139517278 -3.3891295131992845 L 5.451751319259308 -5.14214390405779 M 5.451751319259308 -5.14214390405779 L 4.009399731852642 -4.386788554880815 M 4.009399731852642 -4.386788554880815 L 5.161212068857796 -3.2630802115396667 M 5.161212068857796 -3.2630802115396667 L 5.8641499724551185 -4.753234363995364 M 5.8641499724551185 -4.753234363995364 L 4.395752948562116 -5.046797026116829 M 4.395752948562116 -5.046797026116829 L 4.6492758657377475 -3.313521179285942 M 4.6492758657377475 -3.313521179285942 L 5.992210461078245 -4.125427126039028 M 5.992210461078245 -4.125427126039028 L 4.891780855736638 -5.244127062711254 M 4.891780855736638 -5.244127062711254 L 4.08439884003678 -3.8479123032546187 M 4.08439884003678 -3.8479123032546187 L 5.580353703202901 -3.435635475245465 M 5.580353703202901 -3.435635475245465 L 5.540445625020466 -5.091378943399607 M 5.540445625020466 -5.091378943399607 L 4.004720122883615 -4.347046206557468 M 4.004720122883615 -4.347046206557468 L 5.225846587185751 -3.275837118826349 M 5.225846587185751 -3.275837118826349 L 5.62836392073965 -5.027919522259658 M 5.62836392073965 -5.027919522259658 L 4.0577333548286685 -4.584863508608454 M 4.0577333548286685 -4.584863508608454 L 4.8872445903364685 -3.256377225708061 M 4.8872445903364685 -3.256377225708061 L 5.978226841619511 -4.457538541806371 M 5.978226841619511 -4.457538541806371 L 4.613617572182123 -5.172338668534266 M 4.613617572182123 -5.172338668534266 L 4.119614993560989 -3.7757403238336793 M 4.119614993560989 -3.7757403238336793 L 5.521626012764516 -3.396825748860531 M 5.521626012764516 -3.396825748860531 L 5.469572018774064 -5.132894172131887 M 5.469572018774064 -5.132894172131887 L 4.0089558116990185 -4.116465671698813 M 4.0089558116990185 -4.116465671698813 L 5.469438473984395 -3.3670348143085125 M 5.469438473984395 -3.3670348143085125 L 5.7579537224923945 -4.902308327832722 M 5.7579537224923945 -4.902308327832722 L 4.040708230097707 -4.532416890779792 M 4.040708230097707 -4.532416890779792 L 4.96613557329819 -3.2505735641858586 M 4.96613557329819 -3.2505735641858586 L 5.794707867199207 -4.8569920969927765 M 5.794707867199207 -4.8569920969927765 L 4.435551718316825 -5.075468435074843 M 4.435551718316825 -5.075468435074843 L 4.3317447195035585 -3.506067960033564 M 4.3317447195035585 -3.506067960033564 L 5.828297821564844 -3.6897119323143377 M 5.828297821564844 -3.6897119323143377 L 5.210832404102561 -5.227522223471331 M 5.210832404102561 -5.227522223471331 L 4.0041395681875285 -4.340895546372075 M 4.0041395681875285 -4.340895546372075 L 5.243830997717507 -3.280182262199703 M 5.243830997717507 -3.280182262199703 L 5.944634633889201 -4.578124074790338 M 5.944634633889201 -4.578124074790338 L 4.433338572062437 -5.0739507425130235 M 4.433338572062437 -5.0739507425130235 L 4.449264749286243 -3.415320011249068 M 4.449264749286243 -3.415320011249068 L 5.971601764433286 -4.0133779144920645 M 5.971601764433286 -4.0133779144920645 L 4.956615696080971 -5.249058457835908 M 4.956615696080971 -5.249058457835908 L 4.094564665482107 -3.8255157776707467 M 4.094564665482107 -3.8255157776707467 L 5.674846574142107 -3.5120419379336916 M 5.674846574142107 -3.5120419379336916 L 5.57362224327609 -5.069119968025994 M 5.57362224327609 -5.069119968025994 L 4.042452622383527 -4.538275943532954 M 4.042452622383527 -4.538275943532954 L 4.937097840010592 -3.251980301663005 M 4.937097840010592 -3.251980301663005 L 5.9132091364217425 -4.657491193961115 M 5.9132091364217425 -4.657491193961115 L 4.119299589325413 -4.723673713264325 M 4.119299589325413 -4.723673713264325 L 4.528533959993714 -3.3681157824743706 M 4.528533959993714 -3.3681157824743706 L 5.953597762383595 -3.94891644419364 M 5.953597762383595 -3.94891644419364 L 4.616510956391577 -5.173545425754628 M 4.616510956391577 -5.173545425754628 L 4.214685073856604 -3.6309035077014307 M 4.214685073856604 -3.6309035077014307 L 5.9393250342329145 -3.906971604581584 M 5.9393250342329145 -3.906971604581584 L 5.184016482882758 -5.232923157742994 M 5.184016482882758 -5.232923157742994 L 4.012216626404226 -4.405833266178152 M 4.012216626404226 -4.405833266178152 L 4.714121730148898 -3.2917340584018753 M 4.714121730148898 -3.2917340584018753 L 5.995965073577201 -4.339741697188987 M 5.995965073577201 -4.339741697188987 L 4.6556313259932605 -5.188834498920252 M 4.6556313259932605 -5.188834498920252 L 4.109132927581549 -3.795735914604094 M 4.109132927581549 -3.795735914604094 L 5.50369838069307 -3.386120412738454 M 5.50369838069307 -3.386120412738454 L 5.9817320413752775 -4.440268754495138 M 5.9817320413752775 -4.440268754495138 L 4.950833790840414 -5.24879061062711 M 4.950833790840414 -5.24879061062711 L 4.14795281520229 -3.7265350108380733 M 4.14795281520229 -3.7265350108380733 L 5.6484714033417 -3.488760984284143 M 5.6484714033417 -3.488760984284143 L 5.594429674257249 -5.054147599861133 M 5.594429674257249 -5.054147599861133 L 4.03108261801414 -4.497384532430116 M 4.03108261801414 -4.497384532430116 L 4.958353192598021 -3.250867604652305 M 4.958353192598021 -3.250867604652305 L 5.999061733747075 -4.206691199944011 M 5.999061733747075 -4.206691199944011 L 4.726148787108942 -5.211772069254507 M 4.726148787108942 -5.211772069254507 L 4.13725847206595 -3.7443548121676424 M 4.13725847206595 -3.7443548121676424 L 5.817307903900553 -3.6737988283405834 M 5.817307903900553 -3.6737988283405834 L 5.275589846087516 -5.211275317863441 M 5.275589846087516 -5.211275317863441 L 4.00299628837782 -4.1726462734472545 M 4.00299628837782 -4.1726462734472545 L 5.544669251415176 -3.4113490555881834 M 5.544669251415176 -3.4113490555881834 L 5.813492830086463 -4.831574943922034 M 5.813492830086463 -4.831574943922034 L 4.175197367898827 -4.81542074429488 M 4.175197367898827 -4.81542074429488 L 4.8408615281881655 -3.262743727905771 M 4.8408615281881655 -3.262743727905771 L 5.999630262712349 -4.222809231904176 M 5.999630262712349 -4.222809231904176 L 4.950697192576227 -5.248783877112628 M 4.950697192576227 -5.248783877112628 L 4.029224907801526 -4.0100089160676085 M 4.029224907801526 -4.0100089160676085 L 5.507818754339919 -3.3885360641671336 M 5.507818754339919 -3.3885360641671336 L 5.36253518753581 -5.181970084175654 M 5.36253518753581 -5.181970084175654 L 4.001264013395619 -4.199736404213648 M 4.001264013395619 -4.199736404213648 L 5.6536635613192665 -3.4932147275459084 M 5.6536635613192665 -3.4932147275459084 L 5.522721321904502 -5.102503618541535 M 5.522721321904502 -5.102503618541535 L 4.063964742602126 -4.601906233119129 M 4.063964742602126 -4.601906233119129 L 5.091467135308455 -3.254191904452236 M 5.091467135308455 -3.254191904452236 L 5.837658812259079 -4.7961938431039925 M 5.837658812259079 -4.7961938431039925 L 4.203078681765554 -4.854083117247513 M 4.203078681765554 -4.854083117247513 L 4.92912784344127 -3.2525145928763095 M 4.92912784344127 -3.2525145928763095 L 5.991941925812904 -4.376693392939757 M 5.991941925812904 -4.376693392939757 L 4.504549387536921 -5.11863610943246 M 4.504549387536921 -5.11863610943246 L 4.333211375170168 -3.5047531081597576 M 4.333211375170168 -3.5047531081597576 L 5.928636871916798 -3.8790100269325554 M 5.928636871916798 -3.8790100269325554 L 4.7764322339312075 -5.22468838814003 M 4.7764322339312075 -5.22468838814003 L 4.228117194583743 -3.6142351577015845 M 4.228117194583743 -3.6142351577015845 L 5.987889204847852 -4.094839054704224 M 5.987889204847852 -4.094839054704224 L 4.945366785549141 -5.2485064906543 M 4.945366785549141 -5.2485064906543 L 4.169284395428267 -3.693302969002869 M 4.169284395428267 -3.693302969002869 L 5.898401442490177 -3.8108248092940933 M 5.898401442490177 -3.8108248092940933 L 5.394385848661569 -5.168944939795358 M 5.394385848661569 -5.168944939795358 L 4.00246990750165 -4.320240405467459 M 4.00246990750165 -4.320240405467459 L 5.187637427557648 -3.267761640038657 M 5.187637427557648 -3.267761640038657 L 5.967645272778672 -4.5023145379661855 M 5.967645272778672 -4.5023145379661855 L 4.45747922727824 -5.090042386529028 M 4.45747922727824 -5.090042386529028 L 4.646418829183279 -3.3145961537154784 M 4.646418829183279 -3.3145961537154784 L 5.998519187788537 -4.1955993417491895 M 5.998519187788537 -4.1955993417491895 L 4.8286822798299776 -5.235215833589648 M 4.8286822798299776 -5.235215833589648 L 4.189292339673636 -3.6645488154524304 M 4.189292339673636 -3.6645488154524304 L 5.7730571549881855 -3.6156636262032795 M 5.7730571549881855 -3.6156636262032795 L 5.373870590628405 -5.17748087929788 M 5.373870590628405 -5.17748087929788 L 4.044353670870038 -4.544516711954393 M 4.044353670870038 -4.544516711954393 L 5.229931827636015 -3.2767932621277422 M 5.229931827636015 -3.2767932621277422 L 5.8873281212479025 -4.711138596565791 M 5.8873281212479025 -4.711138596565791 L 4.252627232845679 -4.9144049570225175 M 4.252627232845679 -4.9144049570225175 L 4.3362759983468 -3.502022427054485 M 4.3362759983468 -3.502022427054485 L 5.979207633580557 -4.0471394312894535 M 5.979207633580557 -4.0471394312894535 L 4.613043251057067 -5.172097865981435 M 4.613043251057067 -5.172097865981435 L 4.336151877763974 -3.5021325848763687 M 4.336151877763974 -3.5021325848763687 L 5.702615216872932 -3.538430005538033 M 5.702615216872932 -3.538430005538033 L 5.517304034217389 -5.105801692089011 M 5.517304034217389 -5.105801692089011 L 4.036668971072525 -4.518315725788731 M 4.036668971072525 -4.518315725788731 L 5.0977736575862025 -3.2547913224442744 M 5.0977736575862025 -3.2547913224442744 L 5.82731693756731 -4.8117354224314575 M 5.82731693756731 -4.8117354224314575 L 4.028997769801873 -4.489070426758025 M 4.028997769801873 -4.489070426758025 L 4.829162887174558 -3.2647007150710667 M 4.829162887174558 -3.2647007150710667 L 5.999976716127374 -4.24317598335914 M 5.999976716127374 -4.24317598335914 L 4.598374364194762 -5.165803935711153 M 4.598374364194762 -5.165803935711153 L 4.252439761465675 -3.5858059848489265 M 4.252439761465675 -3.5858059848489265 L 5.900375608428533 -3.814886493260724 M 5.900375608428533 -3.814886493260724 L 4.98470030029689 -5.249882952744468 M 4.98470030029689 -5.249882952744468 L 4.056906194240266 -3.9174731987679463 M 4.056906194240266 -3.9174731987679463 L 5.614114855675642 -3.4607833351743733 M 5.614114855675642 -3.4607833351743733 L 5.450986029340488 -5.14253100861522 M 5.450986029340488 -5.14253100861522 L 4.025450702521977 -4.4741732963247225 M 4.025450702521977 -4.4741732963247225 L 5.101755687799591 -3.255190581065684 M 5.101755687799591 -3.255190581065684 L 5.957983541877551 -4.536823174607182 M 5.957983541877551 -4.536823174607182 L 4.499539903184968 -5.115759603756082 M 4.499539903184968 -5.115759603756082 L 4.294385865201189 -3.541403716653746 M 4.294385865201189 -3.541403716653746 L 5.996707147914556 -4.168914481588681 M 5.996707147914556 -4.168914481588681 L 5.153994291581638 -5.238071737355274 M 5.153994291581638 -5.238071737355274 L 4.016996056249405 -4.066415560107133 M 4.016996056249405 -4.066415560107133 L 5.479462678110535 -3.37243772853485 M 5.479462678110535 -3.37243772853485 L 5.8040155893462995 -4.844608217306255 M 5.8040155893462995 -4.844608217306255 L 4.194434862286464 -4.842507222656881 M 4.194434862286464 -4.842507222656881 L 4.673086333598829 -3.304945792708088 M 4.673086333598829 -3.304945792708088 L 5.986667553103473 -4.412748700925092 M 5.986667553103473 -4.412748700925092 L 4.585713681078415 -5.160146606846613 M 4.585713681078415 -5.160146606846613 L 4.470778093677987 -3.401516544728835 M 4.470778093677987 -3.401516544728835 L 5.940846845730187 -3.9111678691747827 M 5.940846845730187 -3.9111678691747827 L 5.2569545830366735 -5.216423479772946 M 5.2569545830366735 -5.216423479772946 L 4.025956291399473 -4.0236399908647025 M 4.025956291399473 -4.0236399908647025 L 5.165593946546914 -3.2638059801098884 M 5.165593946546914 -3.2638059801098884 L 5.731270932304172 -4.932087108489075 M 5.731270932304172 -4.932087108489075 L 4.100779333175966 -4.687495362668611 M 4.100779333175966 -4.687495362668611 L 4.838102147024748 -3.2631924781387185 M 4.838102147024748 -3.2631924781387185 L 5.943170283484705 -4.582309819823882 M 5.943170283484705 -4.582309819823882 L 4.466543048723085 -5.095827217068793 M 4.466543048723085 -5.095827217068793 L 4.498582730341795 -3.3847944049600054 M 4.498582730341795 -3.3847944049600054 L 5.9192517448617465 -3.85632979593493 M 5.9192517448617465 -3.85632979593493 L 4.8127166304204785 -5.2323059296771754 M 4.8127166304204785 -5.2323059296771754 L 4.214121223130914 -3.631619414869168 M 4.214121223130914 -3.631619414869168 L 5.78496115861069 -3.630455022236026 M 5.78496115861069 -3.630455022236026 L 5.263692832511888 -5.21460670227915 M 5.263692832511888 -5.21460670227915 L 4.003298548264819 -4.1688444942780665 M 4.003298548264819 -4.1688444942780665 L 5.746272838361604 -3.584359818878311 M 5.746272838361604 -3.584359818878311 L 5.415999136547265 -5.1593650083392975 M 5.415999136547265 -5.1593650083392975 L 4.002497533347472 -4.320631643207012 M 4.002497533347472 -4.320631643207012 L 5.407677157620983 -3.3368738667883413 M 5.407677157620983 -3.3368738667883413 L 5.830536726672515 -4.806963863862014 M 5.830536726672515 -4.806963863862014 L 4.028527200752052 -4.487151007422182 M 4.028527200752052 -4.487151007422182 L 5.220365203816627 -3.2745825627215512 M 5.220365203816627 -3.2745825627215512 L 5.8414890599982225 -4.790274154391368 M 5.8414890599982225 -4.790274154391368 L 4.250008227547189 -4.911447156810801 M 4.250008227547189 -4.911447156810801 L 4.438302769619615 -3.4226571319078136 M 4.438302769619615 -3.4226571319078136 L 5.969079851722888 -4.003252677856991 M 5.969079851722888 -4.003252677856991 L 4.900234563025915 -5.245010983650618 M 4.900234563025915 -5.245010983650618 L 4.00613517331039 -4.360601565401359 M 4.00613517331039 -4.360601565401359 L 5.400520574862141 -3.3337122345506844 M 5.400520574862141 -3.3337122345506844 L 5.697353100075438 -4.966727740369504 M 5.697353100075438 -4.966727740369504 L 4.045423075937611 -4.547964588579899 M 4.045423075937611 -4.547964588579899 L 5.0824667177135865 -3.253406180799044 M 5.0824667177135865 -3.253406180799044 L 5.901529735945438 -4.682717153815456 M 5.901529735945438 -4.682717153815456 L 4.1603192834702245 -4.7930803755320595 M 4.1603192834702245 -4.7930803755320595 L 4.922281256901006 -3.2530246758464316 M 4.922281256901006 -3.2530246758464316 L 5.930388775090225 -4.616574313320112 M 5.930388775090225 -4.616574313320112 L 4.294499218007665 -4.958709141050265 M 4.294499218007665 -4.958709141050265 L 4.943103313504682 -3.251619928551329 M 4.943103313504682 -3.251619928551329 L 5.918241100508116 -4.6460218192696505 M 5.918241100508116 -4.6460218192696505 L 4.427009465509007 -5.069561985077228 M 4.427009465509007 -5.069561985077228 L 4.307716548105051 -3.528374319863536 M 4.307716548105051 -3.528374319863536 L 5.748006644413355 -3.586308761611641 M 5.748006644413355 -3.586308761611641 L 5.532439676151425 -5.096467950521321 M 5.532439676151425 -5.096467950521321 L 4.005295689938065 -4.352778088833227 M 4.005295689938065 -4.352778088833227 L 5.082934086380158 -3.2534449652345896 M 5.082934086380158 -3.2534449652345896 L 5.894645847135173 -4.696776015698904 M 5.894645847135173 -4.696776015698904 L 4.379782829201092 -5.034430150520873 M 4.379782829201092 -5.034430150520873 L 4.438261649127521 -3.422685050806485 M 4.438261649127521 -3.422685050806485 L 5.975711771308744 -4.030941698788764 M 5.975711771308744 -4.030941698788764 L 4.7028965460632515 -5.204845295144116 M 4.7028965460632515 -5.204845295144116 L 4.175907494112339 -3.6835447575140687 M 4.175907494112339 -3.6835447575140687 L 5.900018780696527 -3.814148885061038 M 5.900018780696527 -3.814148885061038 L 5.188044418931529 -5.2321605248169485 M 5.188044418931529 -5.2321605248169485 L 4.032592278465067 -4.503223814667163 M 4.032592278465067 -4.503223814667163 L 5.430061304690996 -3.347200313354353 M 5.430061304690996 -3.347200313354353 L 5.88284025788891 -4.719673374858149 M 5.88284025788891 -4.719673374858149 L 4.342695719848022 -5.00362529369302 M 4.342695719848022 -5.00362529369302 L 4.5504564163993555 -3.356741601526473 M 4.5504564163993555 -3.356741601526473 L 5.974107898250068 -4.023916381471734 M 5.974107898250068 -4.023916381471734 L 5.0109585344584096 -5.249939953458468 M 5.0109585344584096 -5.249939953458468 L 4.0492161821758135 -3.9401449826714696 M 4.0492161821758135 -3.9401449826714696 L 5.670058687577737 -3.5076918731405398 M 5.670058687577737 -3.5076918731405398 L 5.529326330595998 -5.098418314122094 M 5.529326330595998 -5.098418314122094 L 4.001497459579165 -4.19529463670592 M 4.001497459579165 -4.19529463670592 L 5.3499959192205955 -3.313248775539135 M 5.3499959192205955 -3.313248775539135 L 5.8565025160017 -4.76614284852428 M 5.8565025160017 -4.76614284852428 L 4.145238265911188 -4.769020594906876 M 4.145238265911188 -4.769020594906876 L 4.977755179851733 -3.2502474466266307 M 4.977755179851733 -3.2502474466266307 L 5.98362679808854 -4.430217430017425 M 5.98362679808854 -4.430217430017425 L 4.8267230128387695 -5.2348731317892305 M 4.8267230128387695 -5.2348731317892305 L 4.09530899819986 -3.823931705871162 M 4.09530899819986 -3.823931705871162 L 5.798609927796336 -3.648151029555478 M 5.798609927796336 -3.648151029555478 L 5.2152957850354795 -5.226548885077422 M 5.2152957850354795 -5.226548885077422 L 4.024315962054535 -4.030818207648463 M 4.024315962054535 -4.030818207648463 L 5.336748969592561 -3.3084055376764643 M 5.336748969592561 -3.3084055376764643 L 5.9470407779114165 -4.571113321076749 M 5.9470407779114165 -4.571113321076749 L 4.359992218181858 -5.018368426740858 M 4.359992218181858 -5.018368426740858 L 4.660073921093527 -3.309547842323029 M 4.660073921093527 -3.309547842323029 L 5.993413740832693 -4.364582457316965 M 5.993413740832693 -4.364582457316965 L 4.445924619375864 -5.082466499377734 M 4.445924619375864 -5.082466499377734 L 4.194248243776519 -3.657746585199565 M 4.194248243776519 -3.657746585199565 L 5.816388504890093 -3.6724969185508027 M 5.816388504890093 -3.6724969185508027 L 5.488548552136704 -5.122536711093081 M 5.488548552136704 -5.122536711093081 L 4.000803211931306 -4.290072168810855 M 4.000803211931306 -4.290072168810855 L 5.577650259079407 -3.433715626643819 M 5.577650259079407 -3.433715626643819 L 5.393658170225745 -5.16925689826866 M 5.393658170225745 -5.16925689826866 L 4.005854647567488 -4.141949001685144 M 4.005854647567488 -4.141949001685144 L 5.374613387045765 -3.322818890266794 M 5.374613387045765 -3.322818890266794 L 5.7616000105817555 -4.898047393237462 M 5.7616000105817555 -4.898047393237462 L 4.114016897934912 -4.713717524852278 M 4.114016897934912 -4.713717524852278 L 4.78582722229741 -3.2732042069648553 M 4.78582722229741 -3.2732042069648553 L 5.995929018097368 -4.1598590497520025 M 5.995929018097368 -4.1598590497520025 L 4.520836401127015 -5.127725609467498 M 4.520836401127015 -5.127725609467498 L 4.323919361454876 -3.5131723605995653 M 4.323919361454876 -3.5131723605995653 L 5.9556817482602025 -4.544401759577491 M 5.9556817482602025 -4.544401759577491 L 4.297150522672659 -4.961338605883784 M 4.297150522672659 -4.961338605883784 L 4.511802972188824 -3.3772665572831913 M 4.511802972188824 -3.3772665572831913 L 5.97454404700107 -4.025803879483215 M 5.97454404700107 -4.025803879483215 L 5.015951082057278 -5.249872773397296 M 5.015951082057278 -5.249872773397296 L 4.000215111199631 -4.270740687703961 M 4.000215111199631 -4.270740687703961 L 5.109083588884966 -3.255967419731136 M 5.109083588884966 -3.255967419731136 L 5.909717494331862 -4.665227745347728 M 5.909717494331862 -4.665227745347728 L 4.088238665398525 -4.660720426477352 M 4.088238665398525 -4.660720426477352 L 4.863539740622118 -3.2593544541004986 M 4.863539740622118 -3.2593544541004986 L 5.965933832424455 -4.5087891639497375 M 5.965933832424455 -4.5087891639497375 L 4.605607345042401 -5.168942018690785 M 4.605607345042401 -5.168942018690785 L 4.337360003605486 -3.5010619283423505 M 4.337360003605486 -3.5010619283423505 L 5.954991937105464 -3.953368241647067 M 5.954991937105464 -3.953368241647067 L 5.01180449287558 -5.249930324546641 M 5.01180449287558 -5.249930324546641 L 4.000116593156501 -4.265269994074593 M 4.000116593156501 -4.265269994074593 L 5.2687231318282 -3.2867825383536466 M 5.2687231318282 -3.2867825383536466 L 5.585586470868777 -5.060609946358575 M 5.585586470868777 -5.060609946358575 L 4.080670453750347 -4.643488481905644 M 4.080670453750347 -4.643488481905644 L 5.290061020991518 -3.292991847421686 M 5.290061020991518 -3.292991847421686 L 5.77011295758879 -4.887907542324001 M 5.77011295758879 -4.887907542324001 L 4.008797305942721 -4.382352632363668 M 4.008797305942721 -4.382352632363668 L 4.861204247724073 -3.259678971671226 M 4.861204247724073 -3.259678971671226 L 5.9166843085975245 -4.649612159938957 M 5.9166843085975245 -4.649612159938957 L 4.427229518695032 -5.069715789615935 M 4.427229518695032 -5.069715789615935 L 4.329729155156087 -3.5078834360073707 M 4.329729155156087 -3.5078834360073707 L 5.971980127006329 -4.0149369601473675 M 5.971980127006329 -4.0149369601473675 L 4.8351977914878566 -5.236326635587583 M 4.8351977914878566 -5.236326635587583 L 4.086844606229965 -3.8423883872744877 M 4.086844606229965 -3.8423883872744877 L 5.4650026241611105 -3.3646906983865574 M 5.4650026241611105 -3.3646906983865574 L 5.624162934223783 -5.031294202935846 M 5.624162934223783 -5.031294202935846 L 4.217594236016471 -4.872768994479776 M 4.217594236016471 -4.872768994479776 L 4.581369117452633 -3.3418435243981284 M 4.581369117452633 -3.3418435243981284 L 5.951845916016616 -3.9434231708649703 M 5.951845916016616 -3.9434231708649703 L 5.046680499016899 -5.248909871315492 M 5.046680499016899 -5.248909871315492 L 4.014345663723909 -4.081223433557444 M 4.014345663723909 -4.081223433557444 L 5.494624568485182 -3.3808932538227268 M 5.494624568485182 -3.3808932538227268 L 5.539407809215811 -5.092044663516727 M 5.539407809215811 -5.092044663516727 L 4.17917408591728 -4.821178447396492 M 4.17917408591728 -4.821178447396492 L 4.807388451413899 -3.268724915555651 M 4.807388451413899 -3.268724915555651 L 5.999530311557221 -4.280645656761186 M 5.999530311557221 -4.280645656761186 L 4.796168473724208 -5.2290059800103785 M 4.796168473724208 -5.2290059800103785 L 4.002153825187412 -4.184402656975414 M 4.002153825187412 -4.184402656975414 L 5.4873148638169384 -3.376773669943995 M 5.4873148638169384 -3.376773669943995 L 5.647360090716266 -5.012184303792611 M 5.647360090716266 -5.012184303792611 L 4.021505985912388 -4.456275215173108 M 4.021505985912388 -4.456275215173108 L 4.593102101872463 -3.336526354786635 M 4.593102101872463 -3.336526354786635 L 5.999690818791407 -4.225135028168825 M 5.999690818791407 -4.225135028168825 L 4.731691451572254 -5.213333028002568 M 4.731691451572254 -5.213333028002568 L 4.16104468321943 -3.7057996908806343 M 4.16104468321943 -3.7057996908806343 L 5.6606849654231715 -3.499336708994117 M 5.6606849654231715 -3.499336708994117 L 5.613504334925668 -5.039691351749158 M 5.613504334925668 -5.039691351749158 L 4.00616227701222 -4.360844848172864 M 4.00616227701222 -4.360844848172864 L 5.303800114697423 -3.2972642075004046 M 5.303800114697423 -3.2972642075004046 L 5.838665037932066 -4.794647550394203 M 5.838665037932066 -4.794647550394203 L 4.198956213324985 -4.8486057565955685 M 4.198956213324985 -4.8486057565955685 L 4.699985605686302 -3.2960653255046313 M 4.699985605686302 -3.2960653255046313 L 5.952127213809636 -4.555702091460133 M 5.952127213809636 -4.555702091460133 L 4.322670319369022 -4.985679620307875 M 4.322670319369022 -4.985679620307875 L 4.538304295445018 -3.362961626311759 M 4.538304295445018 -3.362961626311759 L 5.999861245451717 -4.266658026405968 M 5.999861245451717 -4.266658026405968 L 4.848051121062264 -5.238388353932585 M 4.848051121062264 -5.238388353932585 L 4.1247807785001 -3.7662735129051645 M 4.1247807785001 -3.7662735129051645 L 5.84496979056596 -3.7151859640670253 M 5.84496979056596 -3.7151859640670253 L 4.76758979778109 -5.2226178581049005 M 4.76758979778109 -5.2226178581049005 L 4.029429070142645 -4.009184572512827 M 4.029429070142645 -4.009184572512827 L 5.336636086686047 -3.3083651742099254 M 5.336636086686047 -3.3083651742099254 L 5.881233752398091 -4.722680731185839 M 5.881233752398091 -4.722680731185839 L 4.275494161095873 -4.939268662709851 M 4.275494161095873 -4.939268662709851 L 4.384536719228225 -3.4618344399673107 M 4.384536719228225 -3.4618344399673107 L 5.730947038536591 -3.567565807674772 M 5.730947038536591 -3.567565807674772 L 4.986012797862568 -5.24990217430325 M 4.986012797862568 -5.24990217430325 L 4.019400887771979 -4.053976070089347 M 4.019400887771979 -4.053976070089347 L 5.199449507221732 -3.2700918950896423 M 5.199449507221732 -3.2700918950896423 L 5.84726823933445 -4.781165257349445 M 5.84726823933445 -4.781165257349445 L 4.061663293410362 -4.595722757518956 M 4.061663293410362 -4.595722757518956 L 4.852113890233904 -3.260995602366577 M 4.852113890233904 -3.260995602366577 L 5.945258583845699 -4.576322248193444 M 5.945258583845699 -4.576322248193444 L 4.5689392972450324 -5.152322930297348 M 4.5689392972450324 -5.152322930297348 L 4.180234583394883 -3.677300548508872 M 4.180234583394883 -3.677300548508872 L 5.577645142208766 -3.433712005672866 M 5.577645142208766 -3.433712005672866 L 5.50001589907102 -5.116016224256913 M 5.50001589907102 -5.116016224256913 L 4.000005842522327 -4.246581665534191 M 4.000005842522327 -4.246581665534191 L 5.535771997187045 -3.4056373012560273 M 5.535771997187045 -3.4056373012560273 L 5.534771026438715 -5.094997011403995 M 5.534771026438715 -5.094997011403995 L 4.016616915110968 -4.431542580002959 M 4.016616915110968 -4.431542580002959 L 5.414312602102459 -3.3398653573568966 M 5.414312602102459 -3.3398653573568966 L 5.5055172860807025 -5.112816477284481 M 5.5055172860807025 -5.112816477284481 L 4.000459296498653 -4.219695181174711 M 4.000459296498653 -4.219695181174711 L 5.425634093338306 -3.3451046366633994 M 5.425634093338306 -3.3451046366633994 L 5.5999850318739455 -5.050011225875751 M 5.5999850318739455 -5.050011225875751 L 4.096113844384848 -4.6777730913548226 M 4.096113844384848 -4.6777730913548226 L 4.601031944851175 -3.333035174627312 M 4.601031944851175 -3.333035174627312 L 5.98161919836168 -4.059149929505458 M 5.98161919836168 -4.059149929505458 L 4.956288827595025 -5.2490442099361685 M 4.956288827595025 -5.2490442099361685 L 4.097377953498808 -3.819565985115025 M 4.097377953498808 -3.819565985115025 L 5.777099287908362 -3.6206219762874485 M 5.777099287908362 -3.6206219762874485 L 5.437925922402315 -5.149011060270162 M 5.437925922402315 -5.149011060270162 L 4.150532568347787 -4.777641054659503 M 4.150532568347787 -4.777641054659503 L 4.569516031729371 -3.3474017765018744 M 4.569516031729371 -3.3474017765018744 L 5.956435600209729 -3.958056610536469 M 5.956435600209729 -3.958056610536469 L 5.146704674344608 -5.239180336705822 M 5.146704674344608 -5.239180336705822 L 4.040267201334575 -3.9690855020369544 M 4.040267201334575 -3.9690855020369544 L 5.843346507342064 -3.712629858892455 M 5.843346507342064 -3.712629858892455 L 5.211753404542955 -5.227323127560413 M 5.211753404542955 -5.227323127560413 L 4.018501579193049 -4.058529767448145 M 4.018501579193049 -4.058529767448145 L 5.232163097580814 -3.2773231286178945 M 5.232163097580814 -3.2773231286178945 L 5.988296321972754 -4.402546320752505 M 5.988296321972754 -4.402546320752505 L 4.481067379407635 -5.104815146850559 M 4.481067379407635 -5.104815146850559 L 4.359084173698266 -3.482388833069786 M 4.359084173698266 -3.482388833069786 L 5.979080830255366 -4.046528311978144 M 5.979080830255366 -4.046528311978144 L 5.06174822496058 -5.2480917576627 M 5.06174822496058 -5.2480917576627 L 4.001228605738894 -4.299555040164704 M 4.001228605738894 -4.299555040164704 L 5.5007739419537325 -3.384421893148793 M 5.5007739419537325 -3.384421893148793 L 5.54945489723308 -5.0855233784320975 M 5.54945489723308 -5.0855233784320975 L 4.003687014986458 -4.335792982774843 M 4.003687014986458 -4.335792982774843 L 4.807044957289407 -3.2687924014294665 M 4.807044957289407 -3.2687924014294665 L 5.9344497105760805 -4.606095125499185 M 5.9344497105760805 -4.606095125499185 L 4.284767942414592 -4.948887046526221 M 4.284767942414592 -4.948887046526221 L 4.402206077335458 -3.4483501849152964 M 4.402206077335458 -3.4483501849152964 L 5.909095406276556 -3.833412023352974 M 5.909095406276556 -3.833412023352974 L 4.965681819817646 -5.249410957769111 M 4.965681819817646 -5.249410957769111 L 4.104602300272952 -3.8047327102475292 M 4.104602300272952 -3.8047327102475292 L 5.40931956218191 -3.33760891279276 M 5.40931956218191 -3.33760891279276 L 5.726442943050888 -4.9372267824318 M 5.726442943050888 -4.9372267824318 L 4.02375344483791 -4.466662556834704 M 4.02375344483791 -4.466662556834704 L 5.228750631356887 -3.2765149468770334 M 5.228750631356887 -3.2765149468770334 L 5.596853966148922 -5.052349888198597 M 5.596853966148922 -5.052349888198597 L 4.015492962954183 -4.425345071237448 M 4.015492962954183 -4.425345071237448 L 5.08493584052294 -3.2536135774737485 M 5.08493584052294 -3.2536135774737485 L 5.899197873897019 -4.687542207768669 M 5.899197873897019 -4.687542207768669 L 4.597855136050613 -5.165576052766306 M 4.597855136050613 -5.165576052766306 L 4.2655385310439415 -3.571349610904916 M 4.2655385310439415 -3.571349610904916 L 5.992800705205851 -4.130222039828835 M 5.992800705205851 -4.130222039828835 L 4.909003258584367 -5.24585119021455 M 4.909003258584367 -5.24585119021455 L 4.212457787290085 -3.6337392895859972 M 4.212457787290085 -3.6337392895859972 L 5.657412317189531 -3.496468948743656 M 5.657412317189531 -3.496468948743656 L 5.711647479360693 -4.952536735779399 M 5.711647479360693 -4.952536735779399 L 4.116281811585724 -4.718019405009867 M 4.116281811585724 -4.718019405009867 L 4.871702529215787 -3.258264269580664 M 4.871702529215787 -3.258264269580664 L 5.9949617152920185 -4.149744401138072 M 5.9949617152920185 -4.149744401138072 L 4.478962026264232 -5.103533496662741 M 4.478962026264232 -5.103533496662741 L 4.439869996982266 -3.421595280240779 M 4.439869996982266 -3.421595280240779 L 5.883497151856376 -3.7815634699752034 M 5.883497151856376 -3.7815634699752034 L 5.154839150438413 -5.237939693246258 M 5.154839150438413 -5.237939693246258 L 4.149271622223276 -3.7243944185557156 M 4.149271622223276 -3.7243944185557156 L 5.753314724017254 -3.5923398091880507 M 5.753314724017254 -3.5923398091880507 L 5.205335203205383 -5.228691705454074 M 5.205335203205383 -5.228691705454074 L 4.00084113276782 -4.2089931953048305 M 4.00084113276782 -4.2089931953048305 L 5.158237093365964 -3.262598854424864 M 5.158237093365964 -3.262598854424864 L 5.833801475048922 -4.802064398604222 M 5.833801475048922 -4.802064398604222 L 4.041123643288569 -4.53382412254742 M 4.041123643288569 -4.53382412254742 L 5.3381798879295825 -3.3089185139426367 M 5.3381798879295825 -3.3089185139426367 L 5.765566840812516 -4.893356364893007 M 5.765566840812516 -4.893356364893007 L 4.1486583713198275 -4.774611695710447 M 4.1486583713198275 -4.774611695710447 L 4.780001806314358 -3.274499720771411 M 4.780001806314358 -3.274499720771411 L 5.977867006599442 -4.459227429856238 M 5.977867006599442 -4.459227429856238 L 4.548788416556721 -5.142417002844863 M 4.548788416556721 -5.142417002844863 L 4.207698714776311 -3.639869953671441 M 4.207698714776311 -3.639869953671441 L 5.8090173515201124 -3.6622152392759895 M 5.8090173515201124 -3.6622152392759895 L 5.617475043739615 -5.036590471820476 M 5.617475043739615 -5.036590471820476 L 4.096724614941385 -4.67906127621496 M 4.096724614941385 -4.67906127621496 L 5.174685603335555 -3.2653757366450424 M 5.174685603335555 -3.2653757366450424 L 5.9390137413449775 -4.5938796207473 M 5.9390137413449775 -4.5938796207473 L 4.487701064710709 -5.108807196582248 M 4.487701064710709 -5.108807196582248 L 4.329441967559041 -3.508142921359572 M 4.329441967559041 -3.508142921359572 L 5.922053373810023 -3.8629372455976245 M 5.922053373810023 -3.8629372455976245 L 4.788988006977825 -5.227483472392659 M 4.788988006977825 -5.227483472392659 L 4.21106297081699 -3.6355259452313 M 4.21106297081699 -3.6355259452313 L 5.9692967644124675 -4.004106156035736 M 5.9692967644124675 -4.004106156035736 L 4.995181734161836 -5.249988392089785 M 4.995181734161836 -5.249988392089785 L 4.115136871720451 -3.784148903391512 M 4.115136871720451 -3.784148903391512 L 5.619620816611197 -3.465098704535358 M 5.619620816611197 -3.465098704535358 L 4.97940963110205 -5.24978799588145 M 4.97940963110205 -5.24978799588145 L 4.095647699683075 -3.8232132653051587 M 4.095647699683075 -3.8232132653051587 L 5.863287141267942 -3.7452869015753363 M 5.863287141267942 -3.7452869015753363 L 5.203908415361229 -5.228989968357629 M 5.203908415361229 -5.228989968357629 L 4.014117280746161 -4.417437343136641 M 4.014117280746161 -4.417437343136641 L 5.280889711590959 -3.2902599466926743 M 5.280889711590959 -3.2902599466926743 L 5.740990570906483 -4.9215154308187445 M 5.740990570906483 -4.9215154308187445 L 4.374922529008546 -5.030562717056694 M 4.374922529008546 -5.030562717056694 L 4.288070913171448 -3.5477486380736143 M 4.288070913171448 -3.5477486380736143 L 5.821755508000125 -3.6801597723295973 M 5.821755508000125 -3.6801597723295973 L 5.385769536288542 -5.172595179302235 M 5.385769536288542 -5.172595179302235 L 4.089127995533429 -4.662688976687107 M 4.089127995533429 -4.662688976687107 L 5.108398370018568 -3.25589246387661 M 5.108398370018568 -3.25589246387661 L 5.954403438387271 -4.548519809718811 M 5.954403438387271 -4.548519809718811 L 4.696158647706148 -5.2027226420298005 M 4.696158647706148 -5.2027226420298005 L 4.291778686689896 -3.5440095104229017 M 4.291778686689896 -3.5440095104229017 L 5.935385068538023 -3.896369156384631 M 5.935385068538023 -3.896369156384631 L 5.269678463203665 -5.212950427843568 M 5.269678463203665 -5.212950427843568 L 4.001070558774749 -4.29625982547964 M 4.001070558774749 -4.29625982547964 L 5.50614660056859 -3.3875525414653596 M 5.50614660056859 -3.3875525414653596 L 5.584587884469964 -5.061330392214499 M 5.584587884469964 -5.061330392214499 L 4.190265785462372 -4.83679681475544 M 4.190265785462372 -4.83679681475544 L 4.659468957398885 -3.309766726272146 M 4.659468957398885 -3.309766726272146 L 5.99757451995528 -4.18039341169118 M 5.99757451995528 -4.18039341169118 L 4.776352143365374 -5.224670014016405 M 4.776352143365374 -5.224670014016405 L 4.056340158909937 -3.919082934387062 M 4.056340158909937 -3.919082934387062 L 5.804743059141691 -3.656376711404217 M 5.804743059141691 -3.656376711404217 L 5.4647755463801095 -5.135428535505306 M 5.4647755463801095 -5.135428535505306 L 4.094518891255373 -4.674386571072414 M 4.094518891255373 -4.674386571072414 L 4.520442974231384 -3.3724892826660415 M 4.520442974231384 -3.3724892826660415 L 5.986655823546329 -4.087180204329709 M 5.986655823546329 -4.087180204329709 L 4.900298729583388 -5.2450174152633275 M 4.900298729583388 -5.2450174152633275 L 4.045329216057383 -3.9523362731430147 M 4.045329216057383 -3.9523362731430147 L 5.548409707930168 -3.4137902223437306 M 5.548409707930168 -3.4137902223437306 L 5.567345214102049 -5.073480059282251 M 5.567345214102049 -5.073480059282251 L 4.127070160379738 -4.7378457697885095 M 4.127070160379738 -4.7378457697885095 L 4.633878165359883 -3.319433074841065 M 4.633878165359883 -3.319433074841065 L 5.961548712999072 -4.524634434348331 M 5.961548712999072 -4.524634434348331 L 4.300312523118617 -4.9644490427562795 M 4.300312523118617 -4.9644490427562795 L 4.500063717720736 -3.3839378118975585 M 4.500063717720736 -3.3839378118975585 L 5.9958876269802435 -4.159402900556039 M 5.9958876269802435 -4.159402900556039 L 4.790483079781004 -5.227805021536475 M 4.790483079781004 -5.227805021536475 L 4.114727058942975 -3.7849281562680384 M 4.114727058942975 -3.7849281562680384 L 5.40138236865897 -3.3340894180490572 M 5.40138236865897 -3.3340894180490572 L 5.800282354920901 -4.8496233421092425 M 5.800282354920901 -4.8496233421092425 L 4.150989199395129 -4.778375491914865 M 4.150989199395129 -4.778375491914865 L 4.787937636297943 -3.272743864741133 M 4.787937636297943 -3.272743864741133 L 5.971549463569998 -4.486836736670749 M 5.971549463569998 -4.486836736670749 L 4.903095055812825 -5.245293640988468 M 4.903095055812825 -5.245293640988468 L 4.098724291633253 -3.8167539988551327 M 4.098724291633253 -3.8167539988551327 L 5.453567958770869 -3.358778306605799 M 5.453567958770869 -3.358778306605799 L 5.687412719687664 -4.9762669982944345 M 5.687412719687664 -4.9762669982944345 L 4.014148249979902 -4.417619590091104 M 4.014148249979902 -4.417619590091104 L 5.176737838064185 -3.265742037575312 M 5.176737838064185 -3.265742037575312 L 5.713848137813393 -4.950300532728878 M 5.713848137813393 -4.950300532728878 L 4.0936176439083685 -4.672458311038834 M 4.0936176439083685 -4.672458311038834 L 4.779313784075252 -3.2746551409369014 M 4.779313784075252 -3.2746551409369014 L 5.963623954751791 -3.9827381923496756 M 5.963623954751791 -3.9827381923496756 L 4.910535097915519 -5.245989975499259 M 4.910535097915519 -5.245989975499259 L 4.0221407516515395 -4.0407363136629195 M 4.0221407516515395 -4.0407363136629195 L 5.455536971598183 -3.359783134563742 M 5.455536971598183 -3.359783134563742 L 5.929340242885639 -4.619224475019277 M 5.929340242885639 -4.619224475019277 L 4.469181956833266 -5.097485814069262 M 4.469181956833266 -5.097485814069262 L 4.451691467754365 -3.4137238772590495 M 4.451691467754365 -3.4137238772590495 L 5.984062497390672 -4.072177050892659 M 5.984062497390672 -4.072177050892659 L 4.4730861123913055 -5.099918675547897 M 4.4730861123913055 -5.099918675547897 L 4.251497751906707 -3.5868677472786548 M 4.251497751906707 -3.5868677472786548 L 5.873157571794448 -3.762561947712303 M 5.873157571794448 -3.762561947712303 L 5.347945851026717 -5.187514631754243 M 5.347945851026717 -5.187514631754243 L 4.09071131175069 -4.6661659301550875 M 4.09071131175069 -4.6661659301550875 L 4.781095537002059 -3.274253703015183 M 4.781095537002059 -3.274253703015183 L 5.956761374249967 -4.540873980863387 M 5.956761374249967 -4.540873980863387 L 4.50580792412175 -5.119352743217128 M 4.50580792412175 -5.119352743217128 L 4.4114466686745715 -3.4415416051609458 M 4.4114466686745715 -3.4415416051609458 L 5.970184965324964 -4.007634298925367 M 5.970184965324964 -4.007634298925367 L 4.761880704625577 -5.22123591427129 M 4.761880704625577 -5.22123591427129 L 4.053493138258128 -3.9273163148289743 M 4.053493138258128 -3.9273163148289743 L 5.571680283761105 -3.429523520654722 M 5.571680283761105 -3.429523520654722 L 5.758510831978308 -4.90166043133796 M 5.758510831978308 -4.90166043133796 L 4.1709336797404895 -4.809150280882836 M 4.1709336797404895 -4.809150280882836 L 4.817187150647662 -3.2668522684196035 M 4.817187150647662 -3.2668522684196035 L 5.926263285206826 -4.626877070777541 M 5.926263285206826 -4.626877070777541 L 4.11834161282952 -4.72188821592825 M 4.11834161282952 -4.72188821592825 L 4.862172600162369 -3.25954373753608 M 4.862172600162369 -3.25954373753608 L 5.910953094009207 -4.662509952019407 M 5.910953094009207 -4.662509952019407 L 4.376062785484522 -5.0314744732508325 M 4.376062785484522 -5.0314744732508325 L 4.551812173677246 -3.3560605879948664 M 4.551812173677246 -3.3560605879948664 L 5.938249251718162 -3.904039971022217 M 5.938249251718162 -3.904039971022217 L 4.93387500739254 -5.247811347576617 M 4.93387500739254 -5.247811347576617 L 4.1199555779406465 -3.775108627997709 M 4.1199555779406465 -3.775108627997709 L 5.776297351022521 -3.619633104616512 M 5.776297351022521 -3.619633104616512 L 5.146225413761963 -5.2392512968756435 M 5.146225413761963 -5.2392512968756435 L 4.0585518750984715 -3.9128421317551743 M 4.0585518750984715 -3.9128421317551743 L 5.763937300363156 -3.6047095219098195 M 5.763937300363156 -3.6047095219098195 L 5.573104377477894 -5.069482380845174 M 5.573104377477894 -5.069482380845174 L 4.151792141861298 -4.779663505814546 M 4.151792141861298 -4.779663505814546 L 4.425811058315657 -3.431277178009912 M 4.425811058315657 -3.431277178009912 L 5.977689008787049 -4.039942383863386 M 5.977689008787049 -4.039942383863386 L 4.837145701774283 -5.236650129250187 M 4.837145701774283 -5.236650129250187 L 4.226328509707951 -3.6164130485014074 M 4.226328509707951 -3.6164130485014074 L 5.925317389692308 -3.870806476409455 M 5.925317389692308 -3.870806476409455 L 5.155485160359453 -5.237838228106199 M 5.155485160359453 -5.237838228106199 L 4.002959321248853 -4.326875775868945 M 4.002959321248853 -4.326875775868945 L 5.547072622798013 -3.4129148517713968 M 5.547072622798013 -3.4129148517713968 L 5.64893177643699 -5.010846600524923 M 5.64893177643699 -5.010846600524923 L 4.032843814405604 -4.504182833146731 M 4.032843814405604 -4.504182833146731 L 5.4108566765315995 -3.3383000541025525 M 5.4108566765315995 -3.3383000541025525 L 5.589502707221753 -5.057766400748523 M 5.589502707221753 -5.057766400748523 L 4.225418991050214 -4.882474711410923 M 4.225418991050214 -4.882474711410923 L 4.552826211988363 -3.355552906363197 M 4.552826211988363 -3.355552906363197 L 5.999945422859987 -4.239552449982798 M 5.999945422859987 -4.239552449982798 L 4.615611227454854 -5.173171312130764 M 4.615611227454854 -5.173171312130764 L 4.260301422682736 -3.5770616560822113 M 4.260301422682736 -3.5770616560822113 L 5.901322439930999 -3.8168512273169513 M 5.901322439930999 -3.8168512273169513 L 4.946903417924924 -5.248589381563786 M 4.946903417924924 -5.248589381563786 L 4.000116824676978 -4.234714853420689 M 4.000116824676978 -4.234714853420689 L 5.724203253282932 -3.560413422451961 M 5.724203253282932 -3.560413422451961 L 5.32303055884634 -5.196388534404037 M 5.32303055884634 -5.196388534404037 L 4.00580841986305 -4.142375179513295 M 4.00580841986305 -4.142375179513295 L 5.126395978448883 -3.2580201329502954 M 5.126395978448883 -3.2580201329502954 L 5.886689857359756 -4.712364679506702 M 5.886689857359756 -4.712364679506702 L 4.2172739879064345 -4.8723664434978025 M 4.2172739879064345 -4.8723664434978025 L 4.394718661551113 -3.453988378649204 M 4.394718661551113 -3.453988378649204 L 5.946506909001071 -3.927316453451315 M 5.946506909001071 -3.927316453451315 L 5.172690387699728 -5.234976157069864 M 5.172690387699728 -5.234976157069864 L 4.044471109129042 -3.9551024945664714 M 4.044471109129042 -3.9551024945664714 L 5.5106754125551145 -3.3902264117736207 M 5.5106754125551145 -3.3902264117736207 L 5.709053135221133 -4.95515505488728 M 5.709053135221133 -4.95515505488728 L 4.3384296857766245 -4.9998831371209675 M 4.3384296857766245 -4.9998831371209675 L 4.2746402643696015 -3.5616300021600313 M 4.2746402643696015 -3.5616300021600313 L 5.9617098850774894 -3.975930488845908 M 5.9617098850774894 -3.975930488845908 L 4.621883328019633 -5.1757579502064734 M 4.621883328019633 -5.1757579502064734 L 4.043912673202936 -3.956918060027501 M 4.043912673202936 -3.956918060027501 L 5.514425285268128 -3.392464796129742 M 5.514425285268128 -3.392464796129742 L 5.581020159078076 -5.063889166130676 M 5.581020159078076 -5.063889166130676 L 4.135197979292389 -4.752113000210146 M 4.135197979292389 -4.752113000210146 L 4.686563611168227 -3.300390801352421 M 4.686563611168227 -3.300390801352421 L 5.938966288483865 -4.594009170067942 M 5.938966288483865 -4.594009170067942 L 4.351828897676622 -5.011494728880573 M 4.351828897676622 -5.011494728880573 L 4.322479259169958 -3.514496331929533 M 4.322479259169958 -3.514496331929533 L 5.872654693814867 -3.7616622220605076 M 5.872654693814867 -3.7616622220605076 L 5.236397661908424 -5.221656392684281 M 5.236397661908424 -5.221656392684281 L 4.000211604087875 -4.229429064205543 M 4.000211604087875 -4.229429064205543 L 5.403092811534817 -3.334840896188561 M 5.403092811534817 -3.334840896188561 L 5.605075685905276 -5.046167956103647 M 5.605075685905276 -5.046167956103647 L 4.005237727775111 -4.35221556514531 M 4.005237727775111 -4.35221556514531 L 4.745191386630197 -3.2830084950980396 M 4.745191386630197 -3.2830084950980396 L 5.972698672542553 -4.017928260156573 M 5.972698672542553 -4.017928260156573 L 4.858478895387496 -5.2399352387652725 M 4.858478895387496 -5.2399352387652725 L 4.105973741079998 -3.8019854373332214 M 4.105973741079998 -3.8019854373332214 L 5.915915002403055 -3.848627718479449 M 5.915915002403055 -3.848627718479449 L 4.949280866079225 -5.248712956486661 M 4.949280866079225 -5.248712956486661 L 4.058435467691444 -3.9131673538705454 M 4.058435467691444 -3.9131673538705454 L 5.711542961474132 -3.5473574066592453 M 5.711542961474132 -3.5473574066592453 L 5.605897103409404 -5.045543022142796" /></g></svg>