<svg xmlns="http://www.w3.org/2000/svg" xmlns:inkscape="http://www.inkscape.org/namespaces/inkscape" width="11in" height="8.5in" viewBox="-2.048204206981484 -1.596289745666085 4.120228157377642 3.183812667064541"><g inkscape:label="0-layer" inkscape:groupmode="layer"><path style="stroke-width: 0.012360684472132925; stroke: black;" fill="none" d="M -0.07149903593686066 -0.9974406688420617 L -0.8562662603732152 0.5165346952010768 M -0.8250679860493579 0.5574979051727773 L 0.8713072980359421 0.48204220589579566 M 0.8165723190948376 0.5283203197504827 L 0.10002077653961869 -0.9674236697712049 M 0.2358244337771736 -0.9618765152756643 L -0.964100303115484 0.22656169079924232 M -0.9247263685343915 0.3578290102946899 L 0.7386449688897005 0.6614862562481655 M 0.700508352321289 0.7246573896226518 L 0.3276503250130272 -0.9531450826214553 M 0.33659186730731694 -0.9541497779653726 L -1.0029631872671458 0.13326938476531136 M -0.9996640676461868 0.02355248999821418 L 0.47482341189164967 0.8800145995650348 M 0.4858561886393459 0.8893258124832819 L 0.5718210071697964 -0.8366465039355157 M 0.6254706935420978 -0.806447556304761 L -1.0025077868169263 -0.19117893953409687 M -1.0018459806109539 -0.15158538094520538 L 0.31976499400586694 0.9614696278047762 M 0.2337932093390654 0.990274808842134 L 0.7762014194741749 -0.6578866301777694 M 0.7234548295479354 -0.7178320294100783 L -0.9680346410812123 -0.3187140513218587 M -0.9890043605956929 -0.3046943645976109 L 0.17751391717152976 1.0195376845930004 M 0.11472008902399843 1.0195447902528831 L 0.8563392292714092 -0.5650799966096115 M 0.732441339520011 -0.707293403200159 L -0.9627244465253275 -0.331505526516275 M -0.9367068794925849 -0.3925745688869418 L 0.07546952222160629 1.0128370655940406 M 0.033905106398296754 1.0138845579619533 L 0.8879851597204559 -0.49050362815153736 M 0.8717216757156665 -0.5122584603809995 L -0.8521789894621082 -0.544149225914897 M -0.8855566356314849 -0.5101019171426149 L -0.052469836617057314 1.0206181641676306 M 0.002951443620546198 1.0127388138307127 L 0.9010169630577103 -0.4624035557183194 M 0.8471634964267818 -0.5413645908727942 L -0.8669635615361212 -0.5090538212188589 M -0.9045064339885558 -0.42812166742849705 L 0.02917812915890359 1.00028430359935 M 0.08256042006051735 0.9920012076026845 L 0.8463979016147517 -0.5239209968954275 M 0.7862847806276981 -0.617686544423423 L -0.9073285614794054 -0.4201610464241175 M -0.910606020446205 -0.406602152588819 L 0.05112131158253782 0.9959494196317485 M 0.17508475916581484 0.9932329546566669 L 0.8054902253275148 -0.6069199881450549 M 0.7421423971827277 -0.660959299119573 L -0.9258446455134012 -0.36118447525181235 M -0.8757074745322824 -0.4337555333938659 L 0.011083863831824659 0.9771819644590576 M -0.06182929280158322 0.9974619004456867 L 0.9168149724639697 -0.3977479233823293 M 0.8288685090026454 -0.5397568915798321 L -0.85722534049375 -0.4934827482694459 M -0.8234021871260874 -0.5139143410929096 L -0.08408426036773618 0.9669689492964055 M -0.0027097782530617 0.9824341601198452 L 0.8765854598355906 -0.4436013452114325 M 0.8680431969884627 -0.4655725979654638 L -0.8089115870668648 -0.5620666153786653 M -0.8424321658196692 -0.5133597767858931 L -0.07495071041497035 0.9836730175406724 M 0.15612830820727167 0.9748860261238282 L 0.7977490409498909 -0.5817003354122325 M 0.7661620201985039 -0.6187072744483616 L -0.8991024965276745 -0.4017681338628984 M -0.9151835906334743 -0.4067618018264234 L 0.05305723644716896 1.0001005437706982 M -0.05890666397631431 1.0125706617712804 L 0.9289501316565387 -0.4072112388380833 M 0.9038652374486655 -0.4342657786355823 L -0.7972798728425718 -0.6081972856912744 M -0.8283191960001621 -0.6003932292948096 L -0.15890523864422043 1.0106106299543995 M -0.24820310770756743 1.002762239659601 L 1.0061495506515101 -0.23409394201174308 M 0.995327144714975 -0.31461150903275525 L -0.7321899749664236 -0.7440123434332258 M -0.7326781918716564 -0.7520844179087818 L -0.33748318462105037 0.994260229820918 M -0.31563117267460505 1.0109135685925468 L 1.0440241388224267 -0.1777157221085251 M 1.0258327946948393 -0.2925244775548152 L -0.7263595610988635 -0.7812203790483248 M -0.6475117784930713 -0.8586511178564158 L -0.4710995521063853 0.9667566692236966 M -0.34530035863484554 0.9974285990504402 L 1.0454784715428835 -0.14515823578919937 M 1.0553475693981909 -0.01190813146618453 L -0.48972799325726796 -0.9349153910648249 M -0.625200144953307 -0.8549853626871058 L -0.4779626099951762 0.9452126401532287 M -0.31662437105396896 1.0054163201064166 L 1.039576957184788 -0.17433507728528777 M 1.012825095682185 -0.32627020827613573 L -0.7505218555598472 -0.7543101932091224 M -0.5977685442220994 -0.8796492806293176 L -0.51239200791835 0.9319680893649124 M -0.6342943164502768 0.8698329006109011 L 1.0629903831052212 0.1702645009745507 M 1.0211771865912784 0.330491649768802 L -0.16913452512942384 -1.0599156048434364 M -0.17265778071499774 -1.0517814283225773 L -0.8587591225048509 0.6313379853298924 M -0.7187335689106154 0.8046310024473109 L 1.0432296848740998 0.2751014681455565 M 1.0910537441013235 0.12073146021261923 L -0.3877555158030358 -1.0269469401906357 M -0.3837018265341028 -1.0185526956971218 L -0.7333401131165872 0.8042940781154811 M -0.8160532542646675 0.7203141303622392 L 1.0122850143355273 0.4000930016223533 M 1.0491771161351167 0.24783204897590336 L -0.25549647072898174 -1.047337051271571 M -0.12406014491015671 -1.0586374949860864 L -0.8869307875975083 0.5911497638984632 M -0.9123842010199761 0.5456226380699549 L 0.9003670896407269 0.5652327815485974 M 0.9470183507316451 0.46885609728589595 L -0.01218349272395615 -1.0566557429407613 M 0.11846603537008676 -1.065654301155328 L -1.00328738945862 0.37824291832163204 M -1.0205912929296275 0.31891842094842676 L 0.7474971448558556 0.7645675672276132 M 0.652503607787961 0.8491102204825518 L 0.4603323072234593 -0.9668729449263537 M 0.43505041030200303 -0.9686216696589672 L -1.0605569803212709 0.052112281937122334 M -1.0641789434761193 0.0022323228185487207 L 0.4851161445564519 0.9471769281891315 M 0.5830644817457584 0.9050472233989868 L 0.5416972452989237 -0.930397098496778 M 0.4592653028815649 -0.9637773607781909 L -1.0672340006866503 0.028337384456535834 M -1.0610935732717466 -0.00999568069754354 L 0.4728201848848507 0.9499792406345867 M 0.5090175450193377 0.9081053007726159 L 0.5780386179989107 -0.86580913285247 M 0.5838038676562239 -0.866700754475604 L -1.037277436383874 -0.1266991462790718 M -1.0333797416274193 -0.046794466891653945 L 0.4274504100257797 0.9419923351633063 M 0.37187295694460726 0.9670174539617369 L 0.6927920709210236 -0.7703579679878212 M 0.7152067283939627 -0.7540163181531253 L -0.9965305188595894 -0.29493761605232405 M -1.0343699545098444 -0.08292061349875204 L 0.39571132494641065 0.9592755486537032 M 0.3801927689608078 0.9647186231217798 L 0.6869666820296424 -0.7767273274124278 M 0.8125296814199066 -0.658872838890325 L -0.955940754182831 -0.4248472378491961 M -0.9047137622984918 -0.4719875774041026 L -0.009812557735775407 1.020383740867507 M -0.03419207140049913 1.0220229068381887 L 0.9261519534450278 -0.43352333152737843 M 0.9258719588890416 -0.43823087348343287 L -0.8108036406853778 -0.626005302679155 M -0.7046681906069592 -0.7158659355508302 L -0.3179285550157796 0.9528602890460539 M -0.41034640767669484 0.9310696671744274 L 1.0158825186137772 -0.0570754570756614 M 1.0117781704231321 -0.12060545593034346 L -0.5667979253026145 -0.846747219669246 M -0.45823859353713053 -0.9176549202328507 L -0.6096005528011537 0.8249001923014534 M -0.5688472526248631 0.8423351465438107 L 1.0087773596183307 0.12443445922776837 M 1.0058018886846203 0.1519564446660096 L -0.32123031849303174 -0.9651628271115443 M -0.3718475371598075 -0.9439620148321908 L -0.6722610645793748 0.7598683684615838 M -0.7325781995988849 0.7224424548731431 L 0.9762844835768278 0.3247499441998474 M 0.9454493363584816 0.37817279347080085 L -0.09227059043879059 -1.0140883824806786 M -0.14001788682525287 -0.9959746655111306 L -0.8238531344844704 0.5769198867876986 M -0.8816983283062413 0.4899734010278131 L 0.836852161681821 0.5631556936951326 M 0.8541892469158389 0.513814669452612 L 0.07001841962649373 -0.9943551704518628 M 0.07621451489036613 -1.0011513362798223 L -0.9266330380277071 0.3866055654674279 M -0.9617044134692486 0.30004318601222235 L 0.7039451035477892 0.7206681507807106 M 0.5526784298413316 0.8452954733529856 L 0.5022530250654668 -0.8761962011419104 M 0.6099651800566527 -0.7909454676147516 L -0.9816559688396063 -0.18440122684905516 M -1.0007702661167337 -0.024525391958701213 L 0.4324879089953394 0.902827131275376 M 0.5579870558400423 0.8403426902167395 L 0.49542999720809644 -0.8786777050501118 M 0.37597934360694957 -0.9321376313622601 L -1.001231761081131 0.08818158097434212 M -1.0003087724850546 -0.016829840982632478 L 0.43913518139776814 0.8989222304052819 M 0.47008227942526576 0.8937299231303125 L 0.5829063034164917 -0.8245912723073711 M 0.7250074335258269 -0.7108477411050581 L -0.9625164620904484 -0.3232682321335587 M -0.9890935360974087 -0.253031295199574 L 0.22358653389536906 0.9961625978527324 M 0.400941491662175 0.9515030977793877 L 0.6657718397408433 -0.789214851753408 M 0.5117016804097313 -0.8978817766260435 L -1.0323262225304275 -0.04829973920572765 M -1.0388131818259152 0.03221605238905706 L 0.500316028415424 0.9109635406960221 M 0.5902695529817047 0.8429245735129764 L 0.4830745250595526 -0.9086137711083531 M 0.38342243333498366 -0.9415613602528885 L -1.0130074570300998 0.08582802285501077 M -0.9575919505156878 0.3481009980860654 L 0.7448979085323544 0.6951861293388115 M 0.8062575084703067 0.6205657630333471 L 0.18689489436144413 -1.000111661103665 M 0.1723898015226666 -0.9963233339209083 L -0.9659939228679104 0.29872089040869493 M -0.98278953634385 0.21880949471708985 L 0.6411378000908325 0.7763344569320593 M 0.5172766027966401 0.8627940086494508 L 0.5339164273300704 -0.8525971110608547 M 0.48612326099583153 -0.852957297419574 L -0.9806858590494345 -0.045904487395000707 M -0.9830227706149529 0.014215896394478207 L 0.45894945532150605 0.8694258201352716 M 0.46108745824195824 0.8781004442335791 L 0.5730638991139155 -0.8094811930141396 M 0.5701358374422163 -0.8116354782509796 L -0.9820087601441864 -0.139519954457101 M -0.983170087735342 0.0802883720899348 L 0.5178873428085408 0.8395608043906532 M 0.5648941313862372 0.796745174990372 L 0.45344858002404537 -0.865039096699812 M 0.543327736929755 -0.8112363225230335 L -0.9694824868376989 -0.11581497490780453 M -0.9790789210498309 -0.09346812247507794 L 0.36121182172291516 0.9147993459828937 M 0.1460326067759982 0.9676453300193641 L 0.7958808860191694 -0.5694177923277595 M 0.6807492023483794 -0.7234241362703223 L -0.953629295743624 -0.2781242954794428 M -0.9609372272222828 -0.24158461448485907 L 0.22100290435541423 0.9658784586499063 M 0.33036072211521894 0.9373201323521991 L 0.6851777238515253 -0.7198879940427371 M 0.6272875894069436 -0.7627576911071504 L -0.9644046853465956 -0.21263258933808593 M -0.9727481141026026 0.02214460703640377 L 0.461349391787145 0.8566714748423682 M 0.32381517608761784 0.9363176502020919 L 0.6872561214275361 -0.7136007524554621 M 0.6763733690133846 -0.7327012527435499 L -0.9599086802843941 -0.2700136766853791 M -0.9254593662902934 -0.4306656466488505 L 0.03642385928282196 1.0201084453786515 M 0.044435982184271486 1.0262693656109005 L 0.894239186575727 -0.5055092921959629 M 0.8615166062439911 -0.5861889425352751 L -0.9134185268086261 -0.5014927058966533 M -0.9185266139048371 -0.5252847171794406 L -0.05102975359261795 1.0568874768876995 M -0.1916718292931933 1.043002837163227 L 1.0163395222262304 -0.30273252887011975 M 1.0002071092859872 -0.3452546501249611 L -0.7617086711554878 -0.7344487287657872 M -0.738750791361363 -0.7537964209158304 L -0.3362516879927392 1.0004481886857457 M -0.2573595101409013 0.9988333960559749 L 1.0068058450846957 -0.22415187003451098 M 1.007872197961261 -0.2802258047379116 L -0.7072474230934247 -0.7708008507986898 M -0.6533171652146679 -0.8106174592825345 L -0.4256656585175285 0.9501224820077883 M -0.3251454309660818 0.9861026575345149 L 1.0262368380750662 -0.1579745379877474 M 1.025498789898628 -0.17727060596735197 L -0.6235159745720946 -0.8332469413547186 M -0.7000872674268329 -0.7617873748036984 L -0.36092455259404643 0.9696265537609146 M -0.22535601680121037 1.0106888061317079 L 1.0028398108744057 -0.258049434941894 M 1.0081643846085082 -0.22516270097057534 L -0.6583184883566673 -0.7960593170042101 M -0.6050791577559449 -0.8047940269614201 L -0.4423765394388708 0.9044983196985563 M -0.35636821913291916 0.9443882221540433 L 1.0032438532013552 -0.11121687266301124 M 0.9677454138708516 -0.1749268194636958 L -0.5952081614615373 -0.7828523633261426 M -0.7592644242378955 -0.6048031061553532 L -0.1941846780396111 0.951084419987584 M -0.3037449566385614 0.926302627021058 L 0.9632390087062981 -0.14989385449705095 M 0.9655999576888326 -0.20945265484890108 L -0.6249968893185652 -0.7652663466101494 M -0.6126677367148236 -0.7564458618354712 L -0.3958528661252592 0.8893101854132173 M -0.20528309668211978 0.9526108107558818 L 0.9419790230466646 -0.24956767958297468 M 0.8745597753279186 -0.3921826334812535 L -0.7464791145583853 -0.6011912758465809 M -0.8505504262765748 -0.4564718945052614 L -0.020577623033848677 0.9650798824671264 M 0.15080426419157508 0.9447880491334446 L 0.7733486124899251 -0.5632923818441451 M 0.7990243449474762 -0.514942188647671 L -0.8215663113316695 -0.47815704277242593 M -0.6867335433133448 -0.6553548694070185 L -0.272154959783556 0.9094089521400166 M -0.28437768040680295 0.8960228688234532 L 0.9274669871863361 -0.15340350141918352 M 0.9331891019291266 -0.0802396576608814 L -0.49515304521077047 -0.7950495358399539 M -0.5397998758777387 -0.774161101073764 L -0.44471857642051443 0.8324269963185216 M -0.5017992266290819 0.7913428165258002 L 0.9329036940603394 0.08784426401936335 M 0.9481796504779012 -0.021899038857179663 L -0.4499767398585127 -0.8348922990838803 M -0.4767031138412262 -0.8302772867909212 L -0.5233637945359703 0.8016835848860355 M -0.4199717720630437 0.8763245542372208 L 0.9714740898072318 -0.02364543342904599 M 0.9456881619322189 -0.1640159019057896 L -0.575472679902061 -0.7681526608578847 M -0.5693839012047318 -0.7811836656429173 L -0.4375448608256557 0.8619747334948297 M -0.47300224559807336 0.8426770637279926 L 0.9655692874225346 0.03888070550273004 M 0.9585467097160328 0.06480967804313059 L -0.3774252538006818 -0.8834943502190479 M -0.39329667710498456 -0.8679414400582248 L -0.5947885307205484 0.7444670733588282 M -0.6856983612156397 0.6651734101515463 L 0.9039743898405219 0.3089793045802698 M 0.8313805451704325 0.47006943391020456 L 0.04139606325988655 -0.9541725470433161 M 0.04243592598082599 -0.9705957915671949 L -0.8840726898790993 0.40283058154977996 M -0.8348625815388109 0.4569619103779043 L 0.7861757240589329 0.5364116408974398 M 0.7674812406399105 0.5665923164436456 L 0.15640825852747084 -0.9410583214931774 M 0.14874448995542094 -0.9426284433148123 L -0.9074166782073955 0.29541204706182966 M -0.8668751190701197 0.4026639750967524 L 0.7523292973852375 0.5895857674667759 M 0.8276184490645434 0.48564620876537573 L 0.05698302717283827 -0.9578922026691743 M -0.01442364247238862 -0.9760787025398191 L -0.8631442954302028 0.4559820174966189 M -0.8402694281287012 0.47186475352689444 L 0.8019089115189985 0.5344634272755681 M 0.7432169608383206 0.6216920506207262 L 0.21651823367323844 -0.9444534457397962 M 0.21936684248735822 -0.9489057305328005 L -0.9450716591915824 0.23533689896344487 M -0.9741979868077878 -0.01658554582910665 L 0.4274988013351477 0.875546442336332 M 0.46163818204554147 0.8413908575486528 L 0.5401053945026032 -0.7933060879118207 M 0.4699737971691907 -0.8370865197936603 L -0.9592131894876189 -0.03872039202899083 M -0.9793808121210084 -0.10277415665741045 L 0.3530571402304076 0.9192931840059373 M 0.4010210104832242 0.9011718418596864 L 0.6208902615565101 -0.7664357915142365 M 0.6095993993205994 -0.758586365812796 L -0.9526577370380268 -0.19876603862502917 M -0.8796574344830569 -0.397986979883487 L 0.04474712266233573 0.9644628210623437 M 0.057604585436229906 0.9695197586934075 L 0.8376964957958865 -0.49147882120341185 M 0.8904259115009143 -0.3606227602240467 L -0.7255621366737695 -0.6296559893221366 M -0.6688119681350737 -0.6699478424730533 L -0.29329361886400107 0.900065782867379 M -0.37478167247531946 0.8680723429482 L 0.9436054398146234 -0.060163681463372184 M 0.9283140620398198 -0.17441845094004244 L -0.5768537426670951 -0.7479495660672312 M -0.6401196412499776 -0.7028600260210597 L -0.33564463295181485 0.8894425510750912 M -0.3304511956797195 0.8851736943426619 L 0.9387172401654011 -0.10742627657442629 M 0.9166754080953995 0.122125663852389 L -0.3073471633568483 -0.8722076603394129 M -0.36166758008847166 -0.8474802636221233 L -0.590916798584249 0.7069961618474436 M -0.5136395498178659 0.7581802999232928 L 0.9087310696505534 0.11344953671406136 M 0.8952118999004425 0.06845110822441011 L -0.34542731379269764 -0.8287157961728925 M -0.42488802444398355 -0.7857291861236875 L -0.5071947045307668 0.7352915876973241 M -0.4761037785920026 0.7512151011171855 L 0.8854841485351046 0.08316705374814462 M 0.8686112730640558 0.003587844967514878 L -0.39114447266390384 -0.7755671588134371 M -0.2979730120289825 -0.8305456007352954 L -0.6047446322511751 0.6425557100841667 M -0.5937473020658183 0.6485460859791913 L 0.8474144282281525 0.23459895818208598 M 0.8793466927586517 0.1601181774006192 L -0.2565487037846952 -0.8561957716469216 M -0.32390971949763947 -0.8337679979655994 L -0.5958407904216091 0.6671284233836506 M -0.601529722954729 0.6440863697355841 L 0.8469739371076094 0.24355781477421695 M 0.861000053512324 0.20072171337402814 L -0.2120414884072892 -0.8582824159692727 M -0.23183697081636234 -0.8369957913502841 L -0.6405169285723 0.5865563911404446 M -0.6646447852173694 0.5585577624921936 L 0.7994210287067104 0.33862292216923773 M 0.8327926303715457 0.23965249980084088 L -0.1645480015811685 -0.8508236251054585 M -0.16926699841210585 -0.8440814124931039 L -0.6752364362789763 0.534022942193559 M -0.6987972075249779 0.47985325997268263 L 0.744799678749572 0.4047840496927372 M 0.7164424056904477 0.47328528813691617 L 0.09644223373837495 -0.85322188215605 M 0.05080614373847248 -0.8583817794601288 L -0.7878892723290722 0.3444285674845754 M -0.8374288381378433 0.24181640163481424 L 0.5956447282348664 0.6363722093009091 M 0.53673459607852 0.6974512607878105 L 0.37776121616416997 -0.7948702732925957 M 0.3508404758093551 -0.8152346822159472 L -0.8856576635405906 0.05750764788872053 M -0.8778336679714545 0.057963971639659884 L 0.45017442250934836 0.7558404328632041 M 0.4046153165833021 0.7659555473569659 L 0.49877988015541774 -0.708251428585119 M 0.5417178142394818 -0.6898083706454409 L -0.8605584998892288 -0.16950765984261518 M -0.8618684643077548 -0.18894887273130465 L 0.2229254164791828 0.8537114178469334 M 0.3922550884503815 0.8047941524422811 L 0.5389967568237688 -0.7148707424100984 M 0.5841897690493094 -0.6752096750257264 L -0.8668328308364511 -0.21397811779314493 M -0.8857853406875454 0.006924388663465583 L 0.40830780495584834 0.7860969109133114 M 0.44085452093114286 0.7908281425254526 L 0.5044892702319967 -0.7518327180008013 M 0.49883648994178215 -0.745554707113786 L -0.8907611355347197 -0.10599181297561525 M -0.8990867953310215 -0.10158060975349635 L 0.31766787750013986 0.8472088322373973 M 0.29810223130830066 0.8539580258966298 L 0.6255465914918027 -0.6532998639041987 M 0.5484484891715677 -0.7402077054125679 L -0.9085202984574952 -0.15262391594182723 M -0.9195033942971881 -0.18246333791701097 L 0.2548697809799247 0.9021201452972396 M 0.22780260716845538 0.9188770915447143 L 0.7153052640232088 -0.6201350792038025 M 0.6987091204772801 -0.6446593652229705 L -0.8916030030708503 -0.3298851574758389 M -0.9316429428300985 -0.17794175583616542 L 0.2644097798186796 0.9108838069322679 M 0.3932594990043987 0.8600811592861634 L 0.5878018477751533 -0.7408654546328481 M 0.6530630305072272 -0.6811430839008018 L -0.9033873432427916 -0.27265093183392725 M -0.8973047006659584 -0.30157695116545286 L 0.13866077844070504 0.9364174132477957 M 0.24255019660344618 0.9062388045270566 L 0.6973492023383657 -0.6275376153674329 M 0.6989046633894689 -0.6325637502424619 L -0.8809145058335714 -0.3355506817760159 M -0.9214356930802967 -0.18644541496321987 L 0.25219896964212135 0.9056496612678803 M 0.2665587606067134 0.8957871254125016 L 0.677137028088702 -0.6441844395064044 M 0.7633619744501092 -0.556044346897239 L -0.841998225086262 -0.4277216486271542 M -0.8426579611529086 -0.4293239353685503 L 2.828148969031231e-05 0.9457227290146267 M -0.042520501025367766 0.9505648469276248 L 0.866263383786323 -0.39366136606613644 M 0.8501152375529214 -0.3952075702608938 L -0.7380767650439296 -0.5780377406480197 M -0.6226409864395366 -0.678924178172573 L -0.3222527795889506 0.8630023080785463 M -0.16334951376157925 0.9061988431506699 L 0.8815882088440211 -0.26586018318083604 M 0.8694380044950168 -0.24774565014468236 L -0.6154595847714696 -0.6622007628648722 M -0.6460773915062835 -0.6164138683941492 L -0.25591578049898844 0.8555052111213565 M -0.2661446683329859 0.8422539355131973 L 0.871280902545091 -0.14523864922862528 M 0.8439862772286899 -0.2952118674235955 L -0.6461974516646479 -0.6179738961155111 M -0.5943337310635299 -0.6549982227672714 L -0.31378582223979623 0.8269182024054589 M -0.3331122257202748 0.8207208914800197 L 0.8824974546704889 -0.07579432126605633 M 0.8660117047037942 -0.11519426187855066 L -0.4957999254816479 -0.7193249783971832 M -0.48998318077571845 -0.7339392528964269 L -0.43149695358428647 0.7697796590146662 M -0.4566460622147969 0.7411334543224619 L 0.8676677170845695 0.07040707337673195 M 0.8618975774581874 0.1587548217589749 L -0.24984172998096668 -0.8400295455638056 M -0.36528987499022825 -0.792807445843201 L -0.5405584737747754 0.6854027103718529 M -0.5582914791503596 0.6446089316139325 L 0.8278097912379165 0.20479501932173286 M 0.8256929394742182 0.2010545198257452 L -0.1957158613410442 -0.8269746379783777 M -0.22539449932064648 -0.8288687521305195 L -0.6362005044590199 0.5771265084091166 M -0.6097631768294894 0.602865356344921 L 0.8139836550820723 0.2696078243621832 M 0.7993894496832346 0.3291450007185021 L -0.06964487270407076 -0.861689918398075 M 0.029669850925068793 -0.8719135331417935 L -0.7903504770061265 0.3694044298948101 M -0.8286214555887051 0.30051753406770804 L 0.6439493522049746 0.6018750175400821 M 0.6378969972758094 0.6057088039995431 L 0.25009131954629754 -0.8433564289573198 M 0.3733295900395342 -0.7872869387127202 L -0.8709658859509288 0.024781690346840673 M -0.8609026339957329 -0.03504029013474324 L 0.359620489915331 0.7829778224104276 M 0.345532394288663 0.7966228583016366 L 0.5529277397050097 -0.6695308271739505 M 0.5893175466093898 -0.6171187563658556 L -0.8174014056114778 -0.24491972624643965 M -0.8373008267019783 -0.16170300752966857 L 0.2360481860569782 0.8194521284975509 M 0.32673185782268577 0.7896274056818131 L 0.5552300107266577 -0.6496035574937457 M 0.5260502850595552 -0.6602616228394257 L -0.8271192454234518 -0.16896173192747227 M -0.8349419885923125 -0.0992942971366289 L 0.29058386409114606 0.789017426732896 M 0.2764632222596116 0.7938390302176657 L 0.5818040786460406 -0.606725912772747 M 0.5830199755460731 -0.5904315373797941 L -0.7907638819482731 -0.2514242932266262 M -0.7906526731688585 -0.23110768026036685 L 0.15303035131033899 0.8093973814154725 M 0.221874079303034 0.770527166112582 L 0.5858160079286305 -0.5475032654136577 M 0.6949267820420911 -0.4242088619176925 L -0.6934630206488845 -0.42659750341675073 M -0.6771623553663346 -0.4372529125651518 L -0.0821699216983191 0.8018647448541945 M 0.1143318642596036 0.7853771572747964 L 0.6478705908889709 -0.45842420509315635 M 0.6201595010964561 -0.5110402416061318 L -0.7368867112148818 -0.320558746840535 M -0.7811911596510198 -0.23796941271641162 L 0.1426210656745118 0.804082272489181 M 0.01197035194031157 0.8151614246867769 L 0.7208797216031503 -0.3807412042376229 M 0.6785708973941373 -0.47571663020756993 L -0.7319313619965399 -0.38864026602016005 M -0.7841443233489485 -0.2491950516951884 L 0.133959656369274 0.8118098940609026 M 0.05734605031088013 0.8235155257278095 L 0.7077231441551525 -0.42496393003189564 M 0.7142536079086971 -0.39934311100619224 L -0.6800816696914556 -0.4551066460384608 M -0.709202602634486 -0.4013264191353124 L -0.03561321379207461 0.8141025275006221 M 0.0328234734520999 0.8049668972891237 L 0.7023292121245576 -0.39469325296644947 M 0.6589405414220922 -0.4639570696087489 L -0.7125415216635875 -0.37648821956990475 M -0.7240117618829428 -0.3912524924670047 L -0.01991406179848755 0.8227241180062566 M -0.13834991425372864 0.8169460515821249 L 0.7907138085805657 -0.24761506999707086 M 0.7615904495416476 -0.2910451757016073 L -0.6050779791679786 -0.5464503145375832 M -0.6151659576828319 -0.5153252326896751 L -0.17987864385417793 0.7820696416711783 M -0.11104268038041559 0.7870853911589005 L 0.751710540574249 -0.2583895373876366 M 0.7410913903392354 -0.2810305833714717 L -0.5868485339332469 -0.5327320488251571 M -0.6424889681873374 -0.4698007477872401 L -0.126911643602464 0.7857469386399164 M -0.048252671192905716 0.7983937939939424 L 0.7332803336287312 -0.3194697526818916 M 0.7446465209440776 -0.27240094486206756 L -0.5807734652399125 -0.5398174672878694 M -0.5532187772372433 -0.571654919910985 L -0.2581921940818049 0.7524474425908624 M -0.26344681102206663 0.7173243232277711 L 0.7587430013456445 -0.09092560058025144 M 0.7791041792910143 -0.11825998082873271 L -0.4590763101743101 -0.6404979989750769 M -0.4744224156078915 -0.6196334782143319 L -0.33671420214500786 0.7040211799577258 M -0.3660871574121624 0.6996242585024508 L 0.7895698703479109 0.00856327892834734 M 0.7839971795962324 -0.09743213444737785 L -0.4427399388175221 -0.6543133385570524 M -0.35836618101740864 -0.712194247986785 L -0.47187487983578646 0.6426360278901475 M -0.4920751476910133 0.625342093970574 L 0.7805813277870565 0.15454279723374637 M 0.7657423104509441 0.2165464993407005 L -0.15469539049064862 -0.7805914479113947 M -0.1516188318118171 -0.7821690861645862 L -0.6280842495669107 0.49019070264285364 M -0.6321440316644008 0.5052287265478124 L 0.7371494764041858 0.33387541439147894 M 0.7245669015814213 0.34975470745449905 L -0.017312763536158248 -0.804379150943524 M 0.0394397230141523 -0.7939730770798357 L -0.7253404512688211 0.32531518352545225 M -0.7606650204873827 0.2288637850684913 L 0.5492538184319484 0.5738555118205899 M 0.6074479025014125 0.5013822293877561 L 0.17095926067421854 -0.7688628131135792 M 0.22762348573244204 -0.7585632672387161 L -0.7792237201594648 0.14156650593168996 M -0.7672417810549601 0.12385440846419099 L 0.458675565593307 0.6273887077562537 M 0.49990279167616875 0.5998865104706302 L 0.3075516763876433 -0.7177594255190293 M 0.3391544022654561 -0.7058764221755298 L -0.7829133740025009 0.018272404532130204 M -0.7825911437330711 0.08157934014721878 L 0.42797666874529605 0.6602575694363308 M 0.4499310101558023 0.6325596526536548 L 0.3593503733037599 -0.6880675383068013 M 0.39069563614252595 -0.6647236802816078 L -0.7696452430118222 -0.04633412497513225 M -0.7577681707715572 -0.02791060086117254 L 0.31915102307400184 0.687847531612727 M 0.333602771734167 0.6930743284705572 L 0.4660812593606258 -0.6118914068414799 M 0.5210222226806523 -0.5768227243367455 L -0.7504919499343541 -0.20236216277279534 M -0.729502539266022 -0.22161842750487173 L 0.13372375757546673 0.7506041825524316 M -0.034437259607831935 0.7747617191069919 L 0.705951935114735 -0.32105063705072995 M 0.7528336136253695 -0.22740234242264104 L -0.5443962791848194 -0.5675411582900929 M -0.5995623520144536 -0.5070302460710474 L -0.1795716453940519 0.764400882099467 M -0.15010955608218066 0.7642363266320377 L 0.7490878654323218 -0.21320743803457617 M 0.7688568223133085 -0.1657834599435778 L -0.4967678374024476 -0.6097923290195423 M -0.5822459052598242 -0.5373939085830028 L -0.2144873691063055 0.7627566293830585 M -0.11237974069780828 0.7728328375608663 L 0.7396184350137314 -0.2507276839910697 M 0.7261483651837529 -0.30234075578229636 L -0.5990520451249116 -0.5097431000981847 M -0.635263730133502 -0.4410888906094293 L -0.1046093809702685 0.7662742940065295 M 0.015554051612972741 0.7602054118619362 L 0.6702865900275305 -0.3589847963006517 M 0.7023974006206531 -0.3008175519319315 L -0.586912148285269 -0.4892723557939288 M -0.5919985658151802 -0.4788048818105086 L -0.15785654876685046 0.7448474520223751 M -0.0586788223900709 0.7546702918019179 L 0.6990557815076351 -0.2903299293325216 M 0.6766874515901284 -0.33166354755907473 L -0.6027240590254922 -0.4523608345014497 M -0.5602195527081985 -0.5036807047465085 L -0.19444843933904984 0.7278255312979349 M -0.13603969872665606 0.7447879059441143 L 0.7253716141421231 -0.21691437450549225 M 0.6923578801666778 -0.281536017004638 L -0.565174327960639 -0.4890807112471024 M -0.5665114358790614 -0.5067846618893753 L -0.1943576302191021 0.734840807307065 M -0.07625644282424088 0.7508382166551423 L 0.7036214502358193 -0.27292842913504534 M 0.6520964691880571 -0.36197394464075155 L -0.6185667481862024 -0.4166894764265877 M -0.6109409371573236 -0.41605927943552734 L -0.09335015105474169 0.7332393210931448 M -0.09362466839017855 0.7377253447120743 L 0.6998228051879691 -0.25150010755576546 M 0.6408032182757001 -0.3419291438087707 L -0.595579671243466 -0.4157272653312729 M -0.5808190252651171 -0.4369195258800102 L -0.12561182856600708 0.7158708547841836 M -0.1953821819896405 0.6802162853722894 L 0.6947788025675621 -0.13472493246423792 M 0.7103527846418652 -0.07263653971675839 L -0.387213046473058 -0.5999526666259014 M -0.32313693472065314 -0.634295140752056 L -0.4184600101929074 0.5758810849747384 M -0.38803898074368 0.5785134969016017 L 0.6916253108566046 0.08310563191756974 M 0.6790557819125513 0.1638386368669131 L -0.16230357941898169 -0.6794243165997674 M -0.16567293835225363 -0.6773523827346265 L -0.5283114521152149 0.45512721569079845 M -0.5112666927302353 0.48135789775183985 L 0.6610032486992793 0.23701004626889216 M 0.6739476199705795 0.1524684866212038 L -0.17011540047612406 -0.6697109707906963 M -0.1433449618772732 -0.6599599385831466 L -0.5229513601027146 0.4273368385676438 M -0.5698572414319829 0.36467679743805176 L 0.5836391795553407 0.3421867184595449 M 0.5426972167635108 0.40683249441934866 L 0.11611102613371813 -0.6682448482468873 M 0.22046882906119056 -0.6564164562799848 L -0.6849620990125542 0.1015676699501443 M -0.6499689332174141 0.20166854094686565 L 0.4747677065137762 0.48757095833024117 M 0.4527635891919371 0.5056957574549042 L 0.24502785102555902 -0.6329963815280866 M 0.2104884190807607 -0.6564692972978734 L -0.6804781693896166 0.11048426967689984 M -0.6668070747074311 0.12350576951906155 L 0.4127685234926983 0.5380590079145919 M 0.45045956108542684 0.5222310690252835 L 0.26080692838574276 -0.6384503518164588 M 0.25657275493730825 -0.6377114272479569 L -0.6846866354609442 0.06090693096781713 M -0.6766090466730543 0.13925109656400386 L 0.43124771476632784 0.5396443999921772 M 0.4456639720548047 0.5159724493201582 L 0.2574076092566201 -0.6313360968152384 M 0.1645229664374214 -0.6660723905623759 L -0.6681667093243722 0.1557995009795832 M -0.6562709878083056 0.2028650960252782 L 0.4786949178082974 0.49264290544850226 M 0.5280668816361144 0.43999618788656397 L 0.15230212653503378 -0.6702651259677063 M 0.17156582220873268 -0.6491146510901331 L -0.6562546424303287 0.1418256179209702 M -0.6606572807281706 0.20496650412058606 L 0.4825586214458926 0.49559710174575755 M 0.46445515982533087 0.48759678523932337 L 0.22359368670577773 -0.6351968857995252 M 0.17577493816347178 -0.6483489171959903 L -0.6574832671906092 0.13772763223096296 M -0.6729819588690549 0.09746830196423548 L 0.3923723087743753 0.5553816328958745 M 0.320287044173468 0.6086497616657615 L 0.3969036333454552 -0.5616990554365762 M 0.38590745356991896 -0.571577997675837 L -0.6844780427111208 -0.08435507805871222 M -0.6827400686121541 -0.159065765140887 L 0.16822887042592166 0.6805402016660024 M 0.11975247659052125 0.6838911185521763 L 0.5549849617720769 -0.41718030860882765 M 0.53190286912102 -0.4051352377246158 L -0.6024569893563982 -0.2900013775846222 M -0.6145980168954898 -0.266601087087044 L 0.041478352879072325 0.6686452035648663 M 0.14152147238017618 0.6573986105564867 L 0.5214970470284311 -0.4245492789381211 M 0.4917891875702466 -0.4592490073902869 L -0.6324614808433071 -0.2296926882803588 M -0.659109177926271 -0.1523521463819382 L 0.163482548669283 0.6564370047570627 M 0.3124206419706068 0.6031197620444897 L 0.3955476394713724 -0.5521794724603163 M 0.3546952551729184 -0.5952259370537316 L -0.6913784694322104 -0.04580886583674196 M -0.6693990034869388 -0.05527348005734354 L 0.2546517567725216 0.6215325142256235 M 0.3061071870795438 0.5879697831057671 L 0.38491515793673137 -0.5396761964527756 M 0.3377638224515519 -0.5727316231409756 L -0.6636491793763237 -0.040935053632699274 M -0.672863937195748 -0.030199068080690287 L 0.27856626841993304 0.6132362479420957 M 0.294093823726622 0.5988615699736402 L 0.4000737639282213 -0.5339169790910795 M 0.3421557437622156 -0.5698813311056369 L -0.66310344112764 -0.04614228967974957 M -0.6766887913841507 -0.08168489289810629 L 0.23442851006882068 0.6400182933163946 M 0.3119332616307755 0.6020098406326189 L 0.3947799582961024 -0.5512413196213185 M 0.3626340275671242 -0.5579209971707743 L -0.6617436518586054 -0.06981845213424434 M -0.6379736543033014 -0.2174956015254992 L 0.09584397819634921 0.6671796250722475 M 0.1622582165554602 0.6415035155400896 L 0.4979201288151185 -0.4358096311588217 M 0.5438649033428964 -0.37298137846623075 L -0.5792383408736346 -0.3152571747521487 M -0.5966633021847026 -0.2629748502114106 L 0.03656716349927711 0.6510189786567553 M 0.0253746198467869 0.6381758407983757 L 0.5570990013857959 -0.31233472071806506 M 0.5364941121214098 -0.30216746893698193 L -0.5127964162896713 -0.3408385938610707 M -0.4996430960982869 -0.3602147427300069 L -0.09412046699217504 0.6087193294548005 M -0.043417598876817086 0.5946681379040956 L 0.549564368011067 -0.23128832124244653 M 0.5574636842674185 -0.14250129093989633 L -0.3800527965399408 -0.43200954739300773 M -0.33901898423971577 -0.45562518923741296 L -0.2520536181188959 0.5089176341371271 M -0.3198978411059615 0.4798673199428155 L 0.5727954935631352 0.06717585910965099 M 0.5549019066307515 0.16708100371852116 L -0.10304992951659758 -0.5702744074677173 M -0.10568125564597111 -0.5676159767991109 L -0.4577712524977323 0.3518549492321734 M -0.5067844317492045 0.2918408961066187 L 0.490107459886031 0.3190552407777389 M 0.5500679385138295 0.2159731160684595 L -0.05729216283032602 -0.5881638648568933 M -0.09593059509604168 -0.5802404631949997 L -0.47344645949684977 0.34889844395486536 M -0.4744906755389789 0.38302663826501254 L 0.5566934925417685 0.24888383265226627 M 0.5401882540550511 0.3071403748697014 L 0.028423742438658715 -0.6207500709302625 M 0.06345930987882589 -0.608594620983027 L -0.5710717016868317 0.21975351699637802 M -0.5473910434588408 0.24515331169529803 L 0.46694353351973855 0.37643171651473706 M 0.46330671226561837 0.38433708245864917 L 0.13211000212400534 -0.5872946874627748 M 0.06982622867643173 -0.5972826298872376 L -0.5638831644656491 0.20894501431810666 M -0.5944080865016556 0.1716975660266128 L 0.4228392757571042 0.45167241929879925 M 0.41203604524908394 0.4540833734296791 L 0.2175307981579501 -0.5732763421444738 M 0.18066523653157815 -0.5898359640837241 L -0.6075679932180651 0.10680601965507636 M -0.6254468128509961 -0.013449348869386826 L 0.2719634535380399 0.5633830673974342 M 0.2100956264569722 0.608724326330202 L 0.4469959277440699 -0.46355163499088653 M 0.4585565491318789 -0.4538107090016205 L -0.6125286193662232 -0.2025511264189841 M -0.5909312578132923 -0.25133853904267756 L 0.044332898979398024 0.6406289150022733 M 0.012002473404005138 0.6444558641069561 L 0.5687653705719452 -0.3032711219153831 M 0.6021989583955261 -0.23748468041527282 L -0.4849930057094311 -0.42874741204762107 M -0.5001071060627069 -0.4117170592288255 L -0.13979871088780466 0.6325143277654316 M -0.06889468302707816 0.6509429040580222 L 0.6112719059666738 -0.23413628225621716 M 0.6109746820250257 -0.22950107122597155 L -0.48186365299132644 -0.44019112178155545 M -0.4599352223085704 -0.4742671343810702 L -0.21376888951794698 0.6251180571286754 M -0.2717314590607225 0.6117609608280264 L 0.6684465082354486 -0.03561916147715485 M 0.66833607950092 0.018910959483627903 L -0.2865684424480376 -0.6040772031323126 M -0.32292128748315646 -0.6067008309411586 L -0.39397120191804175 0.5631613873781877 M -0.44207023125318157 0.5540703967847894 L 0.6943760236014986 0.14234476386880704 M 0.6701478922423397 0.21796043719606914 L -0.11003660494187997 -0.6960581119650979 M -0.13922867813491177 -0.6954762268650487 L -0.5564653583901084 0.43979326036378485 M -0.6447767503174759 0.3254243100988643 L 0.5826777025246725 0.42676074600864566 M 0.6319468755604691 0.343559803838721 L 0.019216148824610108 -0.7190416760999948 M 0.08497129004450277 -0.7051523163625898 L -0.6668714728564173 0.24442247869961894 M -0.651848092324765 0.2843740325186368 L 0.5493119594726656 0.45169779390500314 M 0.581910125865708 0.4140691375971324 L 0.10475663421879744 -0.7064691733420688 M 0.009707894170743614 -0.7046244762082904 L -0.6322322971303824 0.3112430210402761 M -0.6334247190511577 0.3191580097552196 L 0.5719406736883063 0.4194908529120955 M 0.6289104626278135 0.2985920393995349 L -0.01947192004415765 -0.6959212745169512 M 0.03143843245426387 -0.695040977941365 L -0.6335587955849495 0.28753015248808 M -0.6317105427049505 0.25915966292959397 L 0.517703535450102 0.4452021900629296 M 0.41745084155917006 0.5405891754208264 L 0.29214976602940423 -0.6173737732602452 M 0.22156098199941654 -0.6260560526797427 L -0.6584066083859643 0.08681121975400434 M -0.6389243320283692 0.18807332210736374 L 0.45764013381677277 0.4839022468087581 M 0.3895081062864143 0.5381199229572375 L 0.3026353823250474 -0.5913555966686239 M 0.2777266425424314 -0.5872805739973163 L -0.6493560801995226 0.019163550830153718 M -0.6288755145878727 -0.1244839528761718 L 0.17458749497230677 0.6168467183759133 M 0.22534573754898513 0.6064572834854678 L 0.4380525722230503 -0.47611036755445535 M 0.43500462935490325 -0.45037007942490426 L -0.5987706481366779 -0.18312822538149034 M -0.5972124917922319 -0.200867907702235 L 0.0921541813367175 0.6233123483130426 M -0.0027212415083229147 0.6278725988165725 L 0.5606739996969381 -0.2826235509717142 M 0.5686688114496112 -0.24663258462908116 L -0.47792147987826716 -0.39471877075622014 M -0.4877119562446693 -0.39868683759719836 L -0.13381597866264244 0.6155545715790082 M -0.1002129996346737 0.6187643636933714 L 0.5968188347705963 -0.19162270621121516 M 0.5740716680264356 -0.24050226625311738 L -0.4749121717672654 -0.4023158575184912 M -0.4902770126387561 -0.37319727934108576 L -0.10994010472355532 0.606268036270217 M -0.06403872346409269 0.5980680507223963 L 0.5619555071704139 -0.21445829281853443 M 0.5572124261187573 -0.21444107593672684 L -0.4440375455083499 -0.3991256958014264 M -0.38984865402072205 -0.438125829555742 L -0.21338538728793177 0.5462626584873389 M -0.1301058604854976 0.5549605147062356 L 0.5535402638910409 -0.1360216308794982 M 0.5524378477304088 -0.1474062906290757 L -0.382141501223095 -0.4253046709889149 M -0.39148165025040166 -0.40779427852806943 L -0.1856184126591385 0.5339474327730289 M -0.12213671898416253 0.562018672783535 L 0.5562112142539809 -0.146326524662122 M 0.5730104301449598 -0.0711695486486186 L -0.32355382370695923 -0.4782457327299073 M -0.324796848350554 -0.47896216898889027 L -0.27930373391199836 0.5068403853717762 M -0.34273963755249537 0.47458092347414976 L 0.5784552384038194 0.08992802254232608 M 0.5805857559645343 0.1231979999339058 L -0.15381019578395208 -0.5732364179721372 M -0.22373340124449562 -0.5599995121845286 L -0.39739038025928636 0.45358237857826905 M -0.438047431719175 0.39739889198579736 L 0.5529543779003941 0.20988779799715104 M 0.5408740536733451 0.263732060254025 L -0.010564695599360097 -0.6016541604192247 M -0.002573201001349082 -0.6082213866663669 L -0.540761014862087 0.27841947016521185 M -0.5718341790104555 0.21842677769197538 L 0.45422696867811585 0.41034430229132124 M 0.4240084247857387 0.41716194339506635 L 0.1791982165458286 -0.5671818319491786 M 0.19906302902233758 -0.5793759505694084 L -0.6066004759406963 0.08566471975249935 M -0.605677285599713 0.1180336160697656 L 0.38014045556202797 0.48607627267645453 M 0.4325207847792592 0.4346898982273207 L 0.1909512080896244 -0.5827239252133533 M 0.2725134645483567 -0.5497953079511662 L -0.6135897303087054 0.0067905717694667885 M -0.614308565921926 -0.056179030228438745 L 0.2288343703810838 0.5728576861095206 M 0.2595703967648034 0.5706208964496087 L 0.3905844474299547 -0.4903353829446018 M 0.33507272524648535 -0.5283992083233319 L -0.6229269759758029 -0.058663763623484126 M -0.6076651217571549 -0.21481546132266713 L 0.0844722147658138 0.6389577666450001 M 0.017633196623293455 0.6375495341240845 L 0.5600554906507891 -0.3051527248393775 M 0.6188715368077871 -0.16824380124362096 L -0.43086812283228143 -0.4750374895255333 M -0.40369634587521636 -0.49834182594169696 L -0.2607515123830584 0.5859385325662194 M -0.2889679385023759 0.5657683228752849 L 0.6352919656703901 0.0006188748479032674 M 0.618446520432523 -0.0446343982290047 L -0.3205383848986273 -0.5307762918094024 M -0.30566237804722196 -0.5467230722355487 L -0.3483660085249286 0.5205542538223746 M -0.25005402774898405 0.5705532478726868 L 0.6218888192710778 -0.036225984005768326 M 0.6069592446631938 -0.14937323239920156 L -0.4086462554129906 -0.47299061848671115 M -0.4372924554041448 -0.43646257665150123 L -0.19036438299927272 0.5877802940350755 M -0.20155048259535263 0.5838549497260632 L 0.6117205737018021 -0.08548180545579019 M 0.6272204067177116 -0.01433413197682303 L -0.2975239110025602 -0.5523499147500623 M -0.3642896031688632 -0.5283450489721007 L -0.3053748666641925 0.5644480459352179 M -0.3683327863517609 0.494920109296369 L 0.6081966320813839 0.10349788796126959 M 0.6158443455501617 0.08805946622439584 L -0.2011259232756294 -0.5886994908477142 M -0.30347618578122815 -0.5416965405997625 L -0.34487984656276915 0.5163243446409567 M -0.36533890462573543 0.5119250433020449 L 0.621988945362874 0.09311024132345726 M 0.5897001027117842 0.20002757545998207 L -0.08949236957418008 -0.6162372577755145 M -0.08948975142649594 -0.6151017762774094 L -0.507432198731331 0.3589863151718838 M -0.5545633615119266 0.26015757502261894 L 0.4835685942922331 0.3760105056873958 M 0.48838004261491585 0.40243162982262515 L 0.13684930810213014 -0.6178499409874616 M 0.035926677930687004 -0.6433670550455397 L -0.5895546139611585 0.260071626407448 M -0.5726454778068248 0.2836396072966614 L 0.5127003472626763 0.38146116971028926 M 0.5324660328152391 0.36987467070466706 L 0.08782622439773712 -0.6423502957412907 M 0.0840892616431159 -0.6360430815436242 L -0.604894261236324 0.21383343570769217 M -0.5689701605753809 0.2972727618821181 L 0.523179017836982 0.3719971154153324 M 0.5509477295024396 0.34266281850580965 L 0.05518977183824861 -0.6464636856890578 M -0.03660605232181985 -0.6414550351366819 L -0.5549218212931767 0.3238307234056912 M -0.5189749943663904 0.3738478057259188 L 0.5687105510000348 0.2926867537230137 M 0.543781932162979 0.31073329164537394 L 0.029993559006527372 -0.6255832116527694 M 0.21895349878683784 -0.5878415546629933 L -0.6231734687277164 0.07178548525620243 M -0.6422646068181556 0.04016301356635514 L 0.3273675369331045 0.5540283283302069 M 0.3510984779118706 0.5167605773418442 L 0.30104167240990853 -0.5474354272052128 M 0.27132767149936116 -0.5630522625833594 L -0.6248634245979574 0.013865652570953284 M -0.6394804728175819 0.027878783483448747 L 0.31515823739834165 0.5571245705257358 M 0.3889895852549536 0.5043319067061702 L 0.27276544302816264 -0.5755541526636326 M 0.3377462390828035 -0.5314208450304071 L -0.6268330238781447 -0.05967408753547496 M -0.6230498523885739 0.03875431470303175 L 0.3173890610894076 0.5375473926737154 M 0.33240764154970576 0.548390669371849 L 0.3377097529099307 -0.5451415313514976 M 0.3069601493260625 -0.564893440057038 L -0.6426807321546971 -0.01704724056424991 M -0.6490189338565181 -0.00044016548318673315 L 0.29425623980472554 0.5784799353356067 M 0.2579237184263499 0.5698684482736823 L 0.3906615875178756 -0.48852657747838324 M 0.359643866307938 -0.5104603868241703 L -0.6180984335934602 -0.0887008651531342 M -0.5985189087604824 -0.18496214964480284 L 0.10691941643033535 0.6172553113058337 M 0.14731717555825968 0.609716396950794 L 0.47638068943585593 -0.4080660162985151 M 0.4386843643936503 -0.4495196953076176 L -0.5996835150892593 -0.186792959618676 M -0.6226664386978517 -0.13652738666312722 L 0.16103785542826748 0.6167819957722445 M 0.15901116697773748 0.6312808772809174 L 0.4902858210922482 -0.42827550814876936 M 0.45031818542436847 -0.4618912267139184 L -0.6159882745100911 -0.19154221233259516 M -0.6197398337813551 -0.18803313991704426 L 0.11381724241721132 0.6375574943571334 M 0.0994148835748882 0.6432938686853308 L 0.52804562129328 -0.38062861479050936 M 0.46167532851811766 -0.45691551379272183 L -0.6167109169035617 -0.20392042732092114 M -0.6344970042658689 -0.1513949375622283 L 0.15316173495289195 0.6340728337407724 M 0.18529524687937443 0.6303182617000799 L 0.4774954017596975 -0.45125777649481424 M 0.49576833162981804 -0.46221558297440546 L -0.6369112126433952 -0.2318913344661731 M -0.6711490823561221 -0.16730783783859587 L 0.1556229322365778 0.6739543799930231 M 0.18143270414836304 0.6731894432698069 L 0.5174474619427052 -0.46727933486679335 M 0.5115569197410832 -0.48656067782801243 L -0.665770719996759 -0.23490662770223655 M -0.5937003139839225 -0.3328731632212301 L -0.02705785791622638 0.6801121068930484 M 0.01738967666161726 0.6711912535267307 L 0.5901410378725588 -0.3202087679684599 M 0.6050801381649699 -0.24716630656624378 L -0.49492742601806805 -0.4269191957249838 M -0.5330883940160243 -0.3788742049625714 L -0.09556232206362356 0.6469905266867613 M -0.021520934349587052 0.6557366366545363 L 0.5940359211487509 -0.2785229104602304 M 0.5622546102686611 -0.34695133684433005 L -0.5643941562009189 -0.3434599152050854 M -0.5723637360596386 -0.3475278018037126 L -0.049801840177418656 0.6677541434522223 M -0.004950545409719105 0.6695009151238082 L 0.5987771839099276 -0.29953608677481064 M 0.669291988554976 -0.17917194127540764 L -0.4634955729836488 -0.5150011692305478 M -0.5094809250795517 -0.4458767457586822 L -0.1659795896702103 0.656374634824638 M -0.1766084396837905 0.655932816298872 L 0.6646189725418061 -0.14042799508212983 M 0.6650494337126147 -0.16598244687314845 L -0.44981756782743393 -0.5172089303417711 M -0.41172164742731315 -0.5444382408906695 L -0.2981803081820893 0.6140164630666035 M -0.3045139080531331 0.5959422484114016 L 0.6692348526687283 0.0007717596092150058 M 0.6759701202203919 -0.008888536702047077 L -0.3148037568798886 -0.5982584760534386 M -0.24630225808971787 -0.6458469959745359 L -0.46363500180362344 0.5126653193380457 M -0.4036401649684983 0.5591329477010941 L 0.6814399044993534 0.10580497406371313 M 0.70265021604721 0.08115003136645273 L -0.24669131533979505 -0.662907270014358 M -0.20589505852010923 -0.6863381959782268 L -0.5180574099048108 0.4950448610220743 M -0.46546844007262533 0.5610116264723692 L 0.7111832690539724 0.16004146824658128 M 0.730316649511387 0.10506614120520873 L -0.2379422033946716 -0.698415929389486 M -0.13180559967836392 -0.730905271011652 L -0.5914028749685832 0.44926369848685066 M -0.6317186980474329 0.3928739469392134 L 0.6368475373278563 0.3845044419064417 M 0.6147023946719915 0.4496971748114052 L 0.12161406931778078 -0.7518620892110537 M 0.14235655135792027 -0.7459449378938837 L -0.7292703282409111 0.21181129911178995 M -0.7278553482724959 0.23952412203596032 L 0.5438569687348814 0.539782188113391 M 0.5618625080728128 0.4940714110089256 L 0.18514060979899016 -0.7249268871806869 M 0.2354736200209539 -0.7217466274361596 L -0.7499837402853586 0.11785758036217657 M -0.7380906933369369 0.08616501020403933 L 0.4118597489697211 0.6185255271633182 M 0.3429068237586213 0.6698443149976487 L 0.4411592145710961 -0.6096351724711339 M 0.4534832123671276 -0.6224465452894057 L -0.760481003017422 -0.12147168267189323 M -0.766991309986748 -0.16925678375311515 L 0.19739786952963298 0.760235233034354 M 0.1284726747213196 0.7803091856424518 L 0.6369352014919134 -0.4687229484978221 M 0.5727047495041342 -0.5318111599374605 L -0.7338497285710636 -0.2688464539747487 M -0.683617246586705 -0.3577902004933779 L -0.008437667521767408 0.771540778680344 M -0.2127529221474062 0.7394878369958402 L 0.755476292767983 -0.14615621099560394 M 0.737130520414887 -0.2339161722325671 L -0.543071088908832 -0.5505923829389884 M -0.5950895401822007 -0.4978889655284872 L -0.17345731887016025 0.7562655230536863 M -0.2517806617999511 0.7250195438386152 L 0.7603031721995908 -0.1048137727000347 M 0.7699714834090344 -0.035625783487419314 L -0.3813025440547025 -0.6698758479073663 M -0.3710911568364625 -0.6820304401043775 L -0.43922171208693106 0.6402799821504808 M -0.3512217421316119 0.69039624156019 L 0.7745988897349824 -0.0004924710481701748 M 0.7588533433989507 -0.10536534959862204 L -0.4383934225144966 -0.6283084121510961 M -0.29820497455557265 -0.7024118012919051 L -0.49047127219466846 0.5845908625659247 M -0.5051014481597883 0.5856945868515934 L 0.7511689569358174 0.18414890750783716 M 0.7563488538289767 0.16843794341509294 L -0.19329588762355618 -0.7503809894301255 M -0.12042981724370078 -0.7583472650560131 L -0.6210183678512884 0.4515862067098686 M -0.592862679299516 0.47530443441102943 L 0.6926533760880136 0.31246081749695626 M 0.7104846705130832 0.21430494697053926 L -0.13160618470695312 -0.7303388867347879 M -0.28358307810567834 -0.6811295905299987 L -0.47814688563308605 0.5619007359337015 M -0.5119109793746557 0.5177894256141727 L 0.6937564777264436 0.22104454233202137 M 0.6431483167803391 0.31166464552946327 L -0.014287993216171115 -0.7145421344471186 M -0.03181176953109927 -0.7225914909091278 L -0.6293914915759978 0.35639416626358594 M -0.6075548663545529 0.3968485022990868 L 0.6294187420583777 0.36116989984462483 M 0.639345773118883 0.33480535717389315 L 0.008056850530523352 -0.7216597064800342 M 0.028063619673622406 -0.7271635299536475 L -0.6606480660606621 0.30512046613451244 M -0.6921015946303768 0.2479277110172174 L 0.5351127568602274 0.5041102107928328 M 0.5123245731563445 0.529013038478386 L 0.23876357966883235 -0.6966514308918701 M 0.22769821561638423 -0.7061204141298476 L -0.7325307225497679 0.1176913640268812 M -0.7231050493883874 0.06277163168444859 L 0.38421275610083677 0.6157935922407028 M 0.39950223175292027 0.6054301219247393 L 0.3580719707345085 -0.6308186185296641 M 0.36571476334977876 -0.6359641059504265 L -0.7326791957267499 -0.037132577859785645 M -0.719636224517297 0.04696920289344185 L 0.3685578754132926 0.6198769991932229 M 0.24744060041064664 0.669768201326684 L 0.48443215523968364 -0.5245395897449477 M 0.5092643769741605 -0.47432994115584104 L -0.6538322611897949 -0.23841659539390989 M -0.6597196324831047 -0.22627567897518788 L 0.09789333940697238 0.6905415052544461 M 0.16153827864116002 0.6737395824054706 L 0.5269695196798397 -0.4498030298860225 M 0.5603842696955138 -0.4210822682325002 L -0.6295961828604514 -0.30813869096488145 M -0.6003496597610671 -0.37611231350992597 L -0.062565483111508 0.7056668808099481 M -0.08801237204168326 0.6987151959852653 L 0.6625165789388845 -0.23879046330255402 M 0.7071986900652907 -0.12404683373102965 L -0.4315880248771701 -0.5738025627089688 M -0.38800787112441676 -0.6108153180424419 L -0.3680885461353366 0.6230218960949653 M -0.33349387160457195 0.6594702228834912 L 0.7389953205269836 -0.0022480006737392237 M 0.7406116191806533 -0.05318927508149161 L -0.3836226302192194 -0.6357423590046299 M -0.4919958854902708 -0.5418363400788508 L -0.259418256129052 0.6843600946551175 M -0.3089675802998659 0.6560136013157374 L 0.7247807449122828 -0.022531812887421225 M 0.7299176643664832 -0.06427502931620921 L -0.3886451556776239 -0.6211811483908194 M -0.35976604368142784 -0.6361946884451717 L -0.403523252098363 0.6093802366404716 M -0.36232684395824166 0.6447517145218878 L 0.7389709290782941 0.030124428771628357 M 0.7307271110255266 0.054793304422871086 L -0.2829219745851188 -0.6759582629823732 M -0.2938298513463538 -0.6690234491263277 L -0.4627082969554161 0.5655346045572515 M -0.4859733501023388 0.5707268370042466 L 0.7291486193732432 0.17390086357650897 M 0.7502048021795245 0.1264455145389445 L -0.22792207463995925 -0.7258424355547524 M -0.14184534167328156 -0.7539392392555383 L -0.6073683434663042 0.46866637685951756 M -0.6146987500441365 0.4639733590235611 L 0.6924706826614083 0.337061099570795 M 0.6503456330043274 0.41904381062594653 L 0.07812003025738161 -0.7697041109831096 M 0.03713323616937113 -0.7796929057991091 L -0.7115696023758616 0.32088721625600314 M -0.7247769695092067 0.2922487732303995 L 0.5894374222215486 0.513102841807019 M 0.698017901883134 0.3322087773506674 L -0.020893308091013685 -0.772758133425441 M -0.04454473652741858 -0.7785063124487023 L -0.6734313163167596 0.39312412070318203 M -0.5974679980401034 0.5138568536016128 L 0.729094604066567 0.2990617544862839 M 0.7507734781707112 0.24769074812994318 L -0.12014995398106737 -0.781393313762068 M -0.22168416315582284 -0.7482953346508334 L -0.5660935211781378 0.5372410086119986 M -0.4839302634348178 0.6074370909870879 L 0.7609301532393671 0.15541435347502872 M 0.7583987770805303 0.1806576112496647 L -0.18333872954093877 -0.7577550975282141 M -0.436575618885445 -0.6388633259911415 L -0.37103020813085974 0.6790296053605054 M -0.3560144594927554 0.690588389986003 L 0.7769459433858905 0.0036906378293404636 M 0.753784480613413 0.08130491908041312 L -0.26976777970036586 -0.7085385509030825 M -0.13660187139411328 -0.7360549317942391 L -0.5938137945301055 0.4558751049495394 M -0.6135349486810766 0.39051107418548414 L 0.6264869528264854 0.3693753243690991 M 0.6306580005710665 0.3662761382394694 L 0.040041687981862056 -0.7282062800824209 M 0.08964845173918132 -0.7179461059250462 L -0.6803942098007887 0.24606335603199897 M -0.664730424282213 0.29805700651106504 L 0.5673520348933916 0.45696409552510325 M 0.5819516514432039 0.44518990448586176 L 0.13246658833672087 -0.7206347054146315 M 0.04637228596536893 -0.7438337968019817 L -0.6838133431418437 0.29637546779664614 M -0.656032303208316 0.34047890751120813 L 0.6012013611198577 0.42995487286512307 M 0.5963907681170157 0.4512802853882289 L 0.13133793566098023 -0.7362650276439847 M 0.07655624726007079 -0.7570367784781071 L -0.7092805176263125 0.27547538960641477 M -0.6803647296270535 0.3436947252969412 L 0.6151133661772659 0.45017527282993486 M 0.6155239665621728 0.4196064913996343 L 0.09443008824761132 -0.7389332307256796 M 0.18708313226369142 -0.7273559621554148 L -0.7330128723970097 0.16352040533495524 M -0.6606308749710237 0.31490040962657917 L 0.5804984605183553 0.44566462534487433 M 0.6052300231990706 0.40766454372999367 L 0.08846308745415127 -0.7243397292391263 M -0.0559274579396024 -0.7362372810483518 L -0.6306016861856113 0.3840764610555033 M -0.6628212281578018 0.3136786498320619 L 0.5804042641083209 0.448170911664245 M 0.5586836385012742 0.48388830203489075 L 0.17751056985199384 -0.7174714589208775 M 0.1488855955478203 -0.735396676738522 L -0.7228358827672356 0.20120506778856878 M -0.7487973056668972 0.0762094415041676 L 0.4078499725883267 0.6325849222105148 M 0.48702934204187737 0.5747563287460992 L 0.2910049443498913 -0.6948802341463992 M 0.33051441646499374 -0.68905628138264 L -0.7640040473469747 0.01833450412498284 M -0.7404089645895835 0.16275680068566534 L 0.48115600711263823 0.5858191767375623 M 0.47785601454414417 0.5824414093528103 L 0.3020170048443551 -0.6901956930825822 M 0.33032288501101087 -0.6791360961300024 L -0.7550781441052079 0.014001490039714685 M -0.758774773521357 0.09124203336959501 L 0.42577378563326507 0.6346502572703515 M 0.4034805764247428 0.6370228921375747 L 0.3844152044256314 -0.6487061671248107 M 0.296378122854737 -0.7065929262136061 L -0.7641317593083621 0.05671163459389648 M -0.7681800143370718 0.028050559585033157 L 0.37373966019624055 0.6717187169614496 M 0.4590163598148746 0.6071443018143774 L 0.33258046745939673 -0.684624316298987 M 0.4159803157420871 -0.6430730670224819 L -0.7618334096724221 -0.07869211219353225 M -0.757684798754519 0.008837538721781266 L 0.35185600509051845 0.6710899403478463 M 0.38235519394965717 0.6721007775822669 L 0.4252605521586376 -0.6458083402563787 M 0.2700523084468966 -0.708777322025905 L -0.7541264005894632 0.08115980193230866 M -0.7798774493995683 0.023364897224399946 L 0.37487522885246655 0.6842684541151183 M 0.31194940739021954 0.7221208611775857 L 0.5017923312071905 -0.6057849678397611 M 0.47554557698164474 -0.6156950257245379 L -0.764481458973721 -0.14419451922370602 M -0.766618905728228 -0.14599895704046661 L 0.2179516768736143 0.7493445860382454 M 0.16473488552937832 0.7502598465207633 L 0.5936983450805281 -0.4873907004245964 M 0.6861611910623597 -0.37317050054155987 L -0.6440080126494665 -0.441958235852483 M -0.6650430795960497 -0.4274300661182586 L -0.07891973749147033 0.7866069121071426 M -0.10850770903077644 0.7737793816582512 L 0.7387039463884102 -0.25460741149605626 M 0.7377188810406756 -0.2709177186541071 L -0.5763068183100113 -0.5343182655440895 M -0.46484940484476805 -0.6214463369499797 L -0.3426755270462647 0.6963145855550116 M -0.2926015814608724 0.7300371588775134 L 0.7833062096518054 -0.07072001651779543 M 0.7672069998258446 -0.18419687136381332 L -0.5124253033748765 -0.5999628125668761 M -0.38441974043268595 -0.7034410654610065 L -0.4522476686389699 0.6618760575982986 M -0.38630191298393124 0.7325898349127545 L 0.8281197209872619 0.011608699518949163 M 0.8247203694271441 -0.03493861947780359 L -0.40554575056249414 -0.7189694284736751 M -0.48280946398604124 -0.6643014342280089 L -0.37270600209081634 0.7317729224543352 M -0.4351750919218707 0.7050310857528215 L 0.8257526546171882 0.06766643111379367 M 0.8279840205844167 0.07066668607451122 L -0.312932400946343 -0.769821168390326 M -0.3249446508806549 -0.7532278427108945 L -0.5236091376147151 0.6314860886648519 M -0.5604415953647996 0.6285311136115154 L 0.8144604828377416 0.21400996352620144 M 0.8372180194654522 0.1327284888979848 L -0.26182707749433287 -0.8062241905162443 M -0.39348560863263904 -0.7548463057552779 L -0.4939342550839659 0.6932912960423177 M -0.5330393272325605 0.6656911044025038 L 0.8351299076679385 0.1727240810532989 M 0.8066258387465802 0.2928624006812995 L -0.10525815793891324 -0.8516656325423404 M -0.030394713254971627 -0.884811247442098 L -0.7745736830860789 0.42877778821244966 M -0.8039324888694003 0.411646338145433 L 0.7317572853245259 0.5294255658190046 M 0.8151208922943683 0.41654902070820743 L 0.001090753854392767 -0.9153873311138641 M -0.02141700626616952 -0.8999234554117832 L -0.7921145526643212 0.4276393915615013 M -0.7604226991510641 0.436705403401657 L 0.7343320447800917 0.4792814817552238 M 0.7460085591828965 0.490287261741229 L 0.09816835034443352 -0.8872842523061627 M -0.10233108899302665 -0.878885975329829 L -0.7366357958056824 0.49018355107417955 M -0.7953019409802263 0.3848732916999089 L 0.7039841395199337 0.5338904000777849 M 0.7351201447082368 0.48289044803466 L 0.09652097780239711 -0.8742245208200482 M 0.1703943035864602 -0.8417327901371396 L -0.8273468026734513 0.23031625386148077 M -0.8436576650106766 0.1326693008605729 L 0.5012217775735988 0.6914738815082332 M 0.481264673652694 0.7256677555397696 L 0.42808511488046297 -0.7582562310683254 M 0.4502474218715491 -0.7365834446080025 L -0.8607087068167808 -0.06677150426905061 M -0.854480970238801 -0.12203399671723342 L 0.279193155448836 0.81675039443244 M 0.22195747479401148 0.8387694068597826 L 0.6465824288989938 -0.5785589003203766 M 0.5418661120609146 -0.6716823492827462 L -0.8444754223995626 -0.17786883566572578 M -0.8566944033076399 -0.14900672640891088 L 0.25616515490344477 0.830967940769695 M 0.28511593887095493 0.8258825794067511 L 0.6064268388931775 -0.6289830066351895 M 0.5816059312581356 -0.6471568330102779 L -0.8406645277686127 -0.2244116252294242 M -0.8645454494333034 -0.16172468527335443 L 0.2483976709349349 0.843737106589901 M 0.1596375102769236 0.8701894278912418 L 0.7028705444630244 -0.5372957963983647 M 0.6144555513075163 -0.6368642014293202 L -0.8464071413013857 -0.2583536079656052 M -0.8553405688441182 -0.29928733742685154 L 0.1216495220427887 0.8979876351272299 M 0.0568253829272003 0.9121831969636632 L 0.786962995756601 -0.4647542923712145 M 0.8175849166541076 -0.4117671958608038 L -0.7380630428500574 -0.5415350997915905 M -0.631632277018975 -0.6284589505755077 L -0.27320597205185226 0.8481028727494361 M -0.3919800208914678 0.8059357126786879 L 0.8960491836455476 -0.016630400991184145 M 0.8843589741551753 0.04579625676122389 L -0.3606858090682314 -0.8087606811900102 M -0.38470283660381804 -0.7841195375599678 L -0.5240041906684857 0.6987555580001827 M -0.5362498196119581 0.6859050046472479 L 0.8545981577050308 0.16640773203540168 M 0.8634343427716019 0.15120683012196395 L -0.25726471662668204 -0.8379720969888875 M -0.2283582313686983 -0.8372647300277615 L -0.6423358693488145 0.5835789072012482 M -0.567935466268812 0.6710455208849302 L 0.8557432432870515 0.20138591438891215 M 0.8884927384124243 0.09253409359289168 L -0.32091878122571876 -0.8336624260126313 M -0.32330517769905603 -0.8438178143602078 L -0.6050696986293147 0.6711522938642812 M -0.6244390737134856 0.6467960314646924 L 0.8597888909862795 0.26274003508261723 M 0.8378909397355895 0.32033874527090356 L -0.09497061447113725 -0.8919970409142065 M 0.04198989727744943 -0.8925299992527651 L -0.8143130668170422 0.36778686796912 M -0.7686438142117391 0.4803518810384191 L 0.7769536492471003 0.46679146271620253 M 0.704488877186825 0.5540044463587739 L 0.17379031872000453 -0.8792169412519553 M 0.16367563253930584 -0.8661714939804988 L -0.8460716344143078 0.24739757296920478 M -0.862025055679911 0.14413181275446743 L 0.5197735713234831 0.7026354749238571 M 0.3590246761618572 0.787339637202736 L 0.5385309613501678 -0.677338044163272 M 0.4938972095461918 -0.7353050355621743 L -0.879386224936304 -0.1062441354281808 M -0.8758392391054229 0.1093177100728769 L 0.49502548673726515 0.7307492743567232 M 0.5385803229546869 0.7150649241534816 L 0.3926171626709013 -0.8045112638147772 M 0.35597104249558925 -0.8259559674270012 L -0.8975396271451511 0.05780364112936972 M -0.901778619214782 0.031075413465963504 L 0.43708732213180773 0.7893826906049084 M 0.47106417314635896 0.7966834140804615 L 0.4959914602822167 -0.7814079528774182 M 0.47332730755070584 -0.7956715069277008 L -0.9238346046786927 -0.06051041404553762 M -0.9158185985467195 -0.10670331116241193 L 0.3206995968268144 0.864442635836652 M 0.16806864414935088 0.9155595061345302 L 0.739467925500616 -0.5654055761798972 M 0.7945417676596066 -0.4741594223421718 L -0.7831935529760067 -0.49267802561950474 M -0.7310045961419056 -0.5233394039510629 L -0.13442968137085037 0.8889209819072649 M -0.030889968403792035 0.897024666284143 L 0.8132785822096288 -0.3797175131453137 M 0.8741913657206425 -0.21394365061626164 L -0.5874997634992996 -0.6817818253868331 M -0.5961340972329375 -0.6616355922128193 L -0.31888241258226435 0.8315356430798694 M -0.3689620812676846 0.8048930509970038 L 0.8846702393718693 -0.036666176871421506 M 0.8645561472297217 0.09558615395799837 L -0.30733239053509487 -0.8137203735124041 M -0.271118146295293 -0.8173212018676153 L -0.6051534604964435 0.612624098058588 M -0.5756039524419783 0.6261726550645794 L 0.8192426469520923 0.22859044037837956 M 0.7803072420716688 0.3076987523482328 L -0.08009047895163547 -0.8349511539050956 M -0.07649906610835487 -0.8288196504828781 L -0.7037538667036118 0.4444374143135628 M -0.7029503661227591 0.4436954795261772 L 0.714468355018893 0.42489982991368974 M 0.6977474254111188 0.46030026337976265 L 0.09335983540258941 -0.8306694548789699 M 0.19144163461099578 -0.8020522529750462 L -0.8015464735087408 0.193548357705714 M -0.8060367395056418 0.1628189066952027 L 0.511005730303265 0.6442657568174283 M 0.5466783382024946 0.6201245849270748 L 0.3043482790222666 -0.7686246361827095 M 0.5033541303383993 -0.644073287782765 L -0.8023914946481957 -0.1560886603192591 M -0.8003971050282497 -0.09657771866541227 L 0.2773213042797754 0.7570044092822595 M 0.28952282825709713 0.7572762940201629 L 0.5432975050986877 -0.6017629720416855 M 0.475112438081304 -0.6665712055477262 L -0.8096158261761393 -0.12071128733485284 M -0.8256995400674753 0.010682896654077482 L 0.3843782774459841 0.7308537436287919 M 0.326149355286145 0.7638761728147571 L 0.5325499448538809 -0.6373937288551066 M 0.5204685535076323 -0.6326806733717878 L -0.8000103864078076 -0.1765098617305459 M -0.7790481331790389 -0.20237304057361385 L 0.17336475183221142 0.786012407143113 M 0.2665173676985348 0.7452791104303659 L 0.5430521967840138 -0.5758183492186492 M 0.513160737009526 -0.59392956287338 L -0.762165214870202 -0.18759118557379764 M -0.7406568329970182 -0.2503641858294883 L 0.11317504275066871 0.7735930322266481 M 0.1387159015450801 0.7689222166228052 L 0.6221390101400127 -0.47268015467078545 M 0.6463979940058715 -0.44308307858081875 L -0.6882484621023552 -0.3747893216104396 M -0.6074113720206198 -0.474847567056642 L -0.14733328791129172 0.7567837796047377 M -0.16148595703210977 0.7478662867219372 L 0.7396668310236947 -0.1956391479668635 M 0.7360010149739421 -0.2305806851277511 L -0.5395863633975017 -0.5511002656795906 M -0.54370638528472 -0.5619734684257434 L -0.25388449322108625 0.7395765523025379 M -0.20540697951604234 0.7493806943119254 L 0.7609559050132083 -0.15719275704324442 M 0.7859113246476795 -0.05544749866375661 L -0.40620035808712424 -0.6750794800669249 M -0.3222013892263519 -0.7180709732439094 L -0.4935295522789465 0.6130809398947166 M -0.4335325718358545 0.6704993314332219 L 0.7942389477120728 0.08188002340148212 M 0.7910331714467689 0.07356104781362624 L -0.2935781712876279 -0.7382117334667501 M -0.22164288282414107 -0.7561751089963327 L -0.5731331924075191 0.5407815702600978 M -0.48531887346268515 0.6058872339178373 L 0.7601796362396002 0.15735523445480587 M 0.762071437066371 0.16874065634673463 L -0.19562416685025327 -0.7556172772249685 M -0.16385033210507113 -0.7898385453704084 L -0.6293648028255956 0.5045709108223383 M -0.6876804762782571 0.4107967011019688 L 0.6782229438836226 0.42622999129622896" /></g></svg>