<svg xmlns="http://www.w3.org/2000/svg" xmlns:inkscape="http://www.inkscape.org/namespaces/inkscape" width="11in" height="8.5in" viewBox="-2.624082628233718 -2.073603004876399 5.61059318097148 4.335458367114326"><g inkscape:label="0-layer" inkscape:groupmode="layer"><path style="stroke-width: 0.01683177954291444; stroke: black;" fill="none" d="M 1.0 -0.0 L -0.30901699437494745 0.9510565162951536 M 0.9999714616352176 -0.007554860364474274 L -0.24709076120984474 0.9129633311134171 M 0.9998858481697466 -0.015109289522226624 L -0.15530869257683144 0.851155375750407 M 0.9997431644901238 -0.022662856291146997 L -0.28967476671463466 0.9595604892307372 M 0.9995434187402671 -0.030215129538347665 L -0.36428028344499064 1.0250644110642533 M 0.9992866223210104 -0.037765678204770906 L -0.3093880392089243 0.9907410840107248 M 0.9989727898894536 -0.04531407132979242 L -0.2920869448357186 0.985221871403984 M 0.9986019393581256 -0.05285987807581915 L -0.30702345453751434 1.0055493800844133 M 0.9981740918939618 -0.060402667752880106 L -0.3097397589286487 1.0163376689641785 M 0.9976892719170961 -0.06794200984320874 L -0.26717755621676276 0.9894929690555362 M 0.9971475070994674 -0.07547747402581544 L -0.19883575884240534 0.9398189422644755 M 0.9965488283632395 -0.08300863020104893 L -0.22784563149063675 0.9724262754907822 M 0.9958932698790369 -0.09053504851514488 L -0.22449134436824647 0.977619823986855 M 0.995180869063994 -0.09805629938476057 L -0.2295374565789049 0.990341749668414 M 0.9944116665796191 -0.10557195352149414 L -0.1944885177897938 0.9671796154412741 M 0.9935857063294746 -0.1130815819563869 L -0.14487098473991522 0.929865413963513 M 0.9927030354566704 -0.12058475606440758 L -0.08882550597913497 0.8853433313254888 M 0.991763704341173 -0.12808104758891672 L -0.07341744398686612 0.8777578731078677 M 0.9907677665969307 -0.1355700286661102 L -0.11754985876592638 0.9269558662880374 M 0.9897152790688125 -0.14305127184944041 L -0.2514537828529767 1.0649638040413167 M 0.9886063018293647 -0.15052435013401333 L -0.17611189800207616 1.0003441880184742 M 0.9874408981753812 -0.15798883698096072 L -0.18331056928705058 1.0164538382840747 M 0.986219134624291 -0.16544430634178545 L -0.1571321651946942 0.9989749308255571 M 0.9849410809103621 -0.17289033268267906 L -0.17944836555151455 1.0310149565229079 M 0.9836068099807207 -0.18032649100880976 L -0.2189994935034465 1.0820393370278836 M 0.9822163979911878 -0.18775235688857972 L -0.24598427750151064 1.1211389831095662 M 0.9807699243019324 -0.1951675064778504 L -0.3325051874892714 1.2257498251462213 M 0.9792674714729422 -0.2025715165441339 L -0.3597631134161644 1.268352618827752 M 0.977709125259311 -0.20996396449075014 L -0.30258140710675374 1.2179576295365129 M 0.9760949746063441 -0.21734442838094667 L -0.2735474058404517 1.19776013394488 M 0.9744251116444819 -0.22471248696198212 L -0.31991305912429546 1.2635171907876688 M 0.972699631684041 -0.2320677196891693 L -0.342695139661366 1.303651260087494 M 0.9709186332097747 -0.23940970674987908 L -0.3487007117256552 1.3250102798310441 M 0.969082217875251 -0.24673802908750145 L -0.3688074691895653 1.3638750908543948 M 0.9671904904970513 -0.2540522684253642 L -0.3412986899646052 1.3456019970587594 M 0.9652435590487878 -0.26135200729060665 L -0.35047352346160054 1.3721664108466451 M 0.9632415346549401 -0.26863682903800773 L -0.28148777012792303 1.3008732044818703 M 0.9611845315845132 -0.2759063178737666 L -0.34953826961733847 1.402710305538093 M 0.959072667244515 -0.28316005887923495 L -0.3567828873151614 1.4285330874048519 M 0.9569060621732554 -0.290397638034599 L -0.325581942526621 1.404234087671413 M 0.9546848400334659 -0.2976186422425107 L -0.31822300019217853 1.4110285440038401 M 0.9524091276052421 -0.30482265935166564 L -0.2939067323757659 1.3947818672838561 M 0.9500790547788068 -0.3120092781803275 L -0.3542140634382841 1.4951317915609925 M 0.9476947545470966 -0.31917808853979684 L -0.2772467074291245 1.405324938110171 M 0.945256362998171 -0.3263286812578235 L -0.18818495218292175 1.2951680018683094 M 0.9427640193074448 -0.33346064820196075 L -0.15494738874747893 1.262463429013132 M 0.9402178657297451 -0.34057358230286006 L -0.13490821296437727 1.2480870802759112 M 0.937618047591191 -0.3476670775775053 L -0.13914297976189394 1.2695992561377984 M 0.9349647132808993 -0.35474072915238497 L -0.18287480082189245 1.3520374620750233 M 0.9322580142425149 -0.3617941332866011 L -0.16668437298687666 1.3441119713607304 M 0.9294981049655667 -0.3688268873949135 L -0.16554872644914698 1.3595757207551122 M 0.9266851429766504 -0.37583859007071774 L -0.1261594068287898 1.3140586863887347 M 0.9238192888304364 -0.38282884110895643 L -0.13443254603214783 1.344691467793938 M 0.920900706100507 -0.38979724152896145 L -0.1923738776137598 1.4587530300587075 M 0.9179295613700194 -0.3967433935972266 L -0.1733163107182769 1.4465980485388241 M 0.9149060242221977 -0.4036669008501087 L -0.20422316862064982 1.5197775635911839 M 0.9118302672306541 -0.41056736811645667 L -0.203028534025531 1.539278967718872 M 0.9087024659495385 -0.41744440154016643 L -0.13959728153240436 1.448569279687784 M 0.905522798903519 -0.424297608602661 L -0.12435143939703841 1.441794551873301 M 0.9022914475775916 -0.4311265981452944 L -0.0641321351622205 1.3517028923228684 M 0.899008596406722 -0.4379309803916772 L -0.07383342625058653 1.3895593792977525 M 0.8956744327653188 -0.44471036696992405 L -0.026916148731750855 1.3204035185463852 M 0.8922891469565383 -0.45146437093482056 L -0.01441006417100199 1.315638652118655 M 0.8888529322014231 -0.45819260678990903 L -0.023555659821136388 1.3536086554394675 M 0.8853659846278739 -0.4648946905094911 L 0.03732641187794483 1.2512398848705375 M 0.8818285032594538 -0.4715702395605468 L 0.06758098176689797 1.2080116112876624 M 0.8782406900040306 -0.47821887292456816 L 0.11646979840380556 1.1238392518080804 M 0.874602749642251 -0.48484021111930675 L 0.15803898513889592 1.0519760764015045 M 0.8709148898158534 -0.4914338762204331 L 0.15926806783150982 1.065440218665662 M 0.8671773210158157 -0.49799949188310727 L 0.1200425447309128 1.1697210387493382 M 0.8633902565703414 -0.5045366833634598 L 0.18249205981729677 1.046636927529426 M 0.8595539126326839 -0.5110450775399804 L 0.20101149296925558 1.020535231311697 M 0.8556685081688085 -0.5175243029348147 L 0.2016184219235867 1.0358436545517582 M 0.851734264944895 -0.5239739897349671 L 0.20538752513372793 1.044118474416535 M 0.8477514075146801 -0.5303937698134084 L 0.18653371942062136 1.1088179753779004 M 0.8437201632066401 -0.536783276750087 L 0.2133684646667342 1.0605897790527719 M 0.8396407621110163 -0.5431421458528436 L 0.19985899569413879 1.114701140543653 M 0.8355134370666818 -0.5494700141782259 L 0.19650686326093314 1.1443525810732238 M 0.831338423647852 -0.555766520552205 L 0.19898055673391446 1.1595615073590326 M 0.8271159601506386 -0.5620313055907893 L 0.1999610792758908 1.1796143407859598 M 0.8228462875794489 -0.5682640117205373 L 0.22442438156841882 1.1338208612540006 M 0.8185296496332294 -0.5744642831989668 L 0.26120626965619265 1.0498394940340796 M 0.8141662926915568 -0.5806317661348596 L 0.27916594720942634 1.0178512013577823 M 0.8097564658005755 -0.5867661085084597 L 0.27459399075307234 1.05326519085898 M 0.805300420658782 -0.5928669601915666 L 0.2801678266706136 1.0586316759815904 M 0.8007984116026602 -0.5989339729675187 L 0.2956291017367084 1.032358020464661 M 0.7962506955921632 -0.6049668005510684 L 0.3026415406220363 1.0326777651754975 M 0.7916575321960481 -0.6109650986081472 L 0.3083503649173382 1.0374708037219205 M 0.7870191835770597 -0.6169285247755192 L 0.30940095702541875 1.0588956407360384 M 0.7823359144769678 -0.6228567386803218 L 0.33163912690612235 1.0050668713885251 M 0.7776079922014563 -0.6287494019594928 L 0.3345258946720018 1.020010438954879 M 0.7728356866048665 -0.6346061782790842 L 0.3121424092277091 1.1328567150134825 M 0.768019270074794 -0.6404267333534576 L 0.3098770689551551 1.1732809798447454 M 0.7631590175165428 -0.6462107349643652 L 0.3122775972403894 1.1972971942418136 M 0.7582552063374338 -0.6519578529799113 L 0.3287280322693241 1.1635666134331737 M 0.7533081164309715 -0.6576677593733951 L 0.3459001893135623 1.1243476054535788 M 0.7483180301608685 -0.6633401282420336 L 0.3335876954318245 1.2159399645647548 M 0.7432852323449295 -0.6689746358255627 L 0.3648799506579973 1.109446980588913 M 0.7382100102387943 -0.674570960524717 L 0.3551539951062997 1.1949847794348685 M 0.7330926535195424 -0.6801287829195851 L 0.3877187229437644 1.0727590667982296 M 0.7279334542691596 -0.6856477857878411 L 0.3786510882293102 1.1605054074724879 M 0.7227327069578662 -0.6911276541228509 L 0.3773124187795239 1.2132699216954341 M 0.71749070842731 -0.6965680751516515 L 0.38993853735161244 1.1903902056178803 M 0.7122077578736234 -0.701968738352803 L 0.3895355629556629 1.2440100434276873 M 0.7068841568303468 -0.7073293354741126 L 0.4033706252210367 1.2128916636730915 M 0.7015202091512168 -0.7126495605502279 L 0.40302027805944635 1.273018854706064 M 0.696116220992825 -0.7179291099201011 L 0.40499404733026506 1.3234557602943544 M 0.6906725007971416 -0.7231676822443205 L 0.40764022507288117 1.3747709182525696 M 0.6851893592739122 -0.7283649785223103 L 0.42543527213546084 1.3133263694881032 M 0.6796671093829229 -0.7335207021093965 L 0.43908187450112884 1.2788193175233853 M 0.674106066316137 -0.7386345587337381 L 0.4488250052052569 1.274622357950871 M 0.668506547479706 -0.7437062565131234 L 0.45493792724465054 1.3048035649598722 M 0.6628688724758519 -0.74873550597163 L 0.46712207192287 1.2771168309832972 M 0.6571933630846266 -0.7537220200561465 L 0.479200493797784 1.2460997290832514 M 0.6514803432455446 -0.7586655141527572 L 0.48431055255729943 1.2951547089088027 M 0.6457301390390943 -0.7635657061029862 L 0.49364391727817714 1.2973878701753785 M 0.639943078668126 -0.768422316219903 L 0.5072513153869266 1.2359208379903177 M 0.6341194924391198 -0.7732350673040852 L 0.5138306392096814 1.2788550583968434 M 0.6282597127433316 -0.7780036846594407 L 0.5240505866410172 1.2637093818019567 M 0.6223640740378227 -0.7827278961088864 L 0.5326628400739629 1.2808776781363378 M 0.6164329128263689 -0.7874074320098828 L 0.5414584595639186 1.3009394611155551 M 0.6104665676402548 -0.7920420252698251 L 0.5512355777343019 1.2980765911761893 M 0.604465379018951 -0.7966314113612869 L 0.5624453266250253 1.2255998944970035 M 0.5984296894906775 -0.8011753283371195 L 0.5716903093334206 1.2211797420920818 M 0.5923598435528535 -0.8056735168454023 L 0.5816437416728951 1.085539069590935 M 0.5862561876524338 -0.8101257201442467 L 0.5898982864825731 1.1182010401437112 M 0.5801190701661356 -0.8145316841164487 L 0.5987831622170152 1.1617705918569352 M 0.5739488413805541 -0.8188911572839943 L 0.6096681826802286 1.2822175245689909 M 0.567745853472169 -0.8232038908224125 L 0.6156121549169914 1.1258715531365406 M 0.5615104604872435 -0.8274696385749774 L 0.6219550981192751 1.0543976509603248 M 0.555243018321617 -0.831688157066758 L 0.6270482161706357 0.9777268216823478 M 0.5489438847003909 -0.8358592055185154 L 0.6370099411765051 1.0278365991901701 M 0.5426134191575115 -0.8399825458604451 L 0.6403273485306358 0.94220450399501 M 0.5362519830152483 -0.8440579427457654 L 0.6513632264037554 1.0004066815438066 M 0.5298599393635721 -0.8480851635641504 L 0.6643122014581826 1.072740811327308 M 0.5234376530394294 -0.8520639784550066 L 0.6699281714112812 1.0358654502316165 M 0.51698549060592 -0.8559941603205925 L 0.6804782952817817 1.0629751489112658 M 0.5105038203313744 -0.8598754848389805 L 0.6924444682983515 1.1004160454922574 M 0.503993012168334 -0.8637077304768608 L 0.6968655728201136 1.0565961784863909 M 0.4974534377324352 -0.8674906785021855 L 0.6952078312332298 0.962286885031603 M 0.4908854702811999 -0.8712241129966533 L 0.7081765686092513 1.006422855172707 M 0.48428948469272987 -0.874907820868033 L 0.7215441793169561 1.04792395307953 M 0.47766585744431095 -0.8785415918623268 L 0.7261387072769301 1.0172508871486174 M 0.47101496659092423 -0.8821252185757703 L 0.7348491833364398 1.0192743647665825 M 0.46433719174366833 -0.8856584964666707 L 0.723406191793678 0.8831347781945502 M 0.4576329140480923 -0.8891412238670814 L 0.742705992345662 0.9596749742106937 M 0.4509025161624412 -0.8925732019943123 L 0.7481427191729701 0.9429686641296918 M 0.4441463822358149 -0.8959542349622761 L 0.752279767715651 0.9198139699709241 M 0.43736489788624244 -0.8992841297926684 L 0.7657035731017579 0.9507065719527226 M 0.4305584501786721 -0.9025626964259823 L 0.7809104438483625 0.9883211451311378 M 0.423727427602879 -0.905789747732357 L 0.7976537467790341 1.0305469241881564 M 0.41687222005129143 -0.9089650995222576 L 0.8177255671230789 1.085742551803844 M 0.4099932187967368 -0.9120885705569888 L 0.8229830300262531 1.0655423556075772 M 0.4030908164701094 -0.915159982559039 L 0.8269876229789889 1.0407368240128156 M 0.39616540703796027 -0.918179160222256 L 0.860101402931091 1.1469663671906873 M 0.3892173857800106 -0.9211459312218528 L 0.8914148208548005 1.2379109993152493 M 0.382247149266591 -0.9240601262242433 L 0.9038945433785184 1.244246737957491 M 0.37525509533600554 -0.9269215788967077 L 0.9249988262868162 1.2845693611986904 M 0.3682416230718257 -0.9297301259168853 L 0.9290296291994276 1.2555372400026112 M 0.3612071327801112 -0.9324856069820977 L 0.9398743490784863 1.2537183623838635 M 0.3541520259665621 -0.935187864818497 L 0.9378762810803725 1.2046344186848639 M 0.34707670531360196 -0.9378367451900438 L 0.983779406266166 1.3286137046231903 M 0.3399815746573944 -0.9404320969073092 L 0.9846193937136662 1.2894256306679868 M 0.332867038964793 -0.9429737718361052 L 0.9730647534429502 1.210412644319942 M 0.3257335043102276 -0.9454616249059392 L 0.9816320040627631 1.2012283457281967 M 0.3185813778525264 -0.9478955141182945 L 0.994708359048404 1.2066174028710552 M 0.31141106781167704 -0.9502753005547345 L 0.9939349582386521 1.1684574591703893 M 0.3042229834455267 -0.9526008483848326 L 1.0146476833794023 1.1969624489309356 M 0.29701753502642275 -0.954872024873924 L 0.9917200504816945 1.09501165686712 M 0.28979513381779604 -0.9570887003906825 L 1.0250790179727918 1.159793041833542 M 0.28255619205068716 -0.9592507484145192 L 1.0095016474468275 1.0836962764496239 M 0.27530112290021774 -0.9613580455428036 L 0.9938410730657881 1.0106678593880853 M 0.2680303404620076 -0.9634104714979074 L 0.9903992682722217 0.973504858217563 M 0.2607442597285397 -0.9654079091340695 L 0.979963790924703 0.9194462308923517 M 0.2534432965654739 -0.967350244444082 L 0.9946323946068516 0.9318758583364577 M 0.2461278676879097 -0.9692373665657978 L 1.010401572914909 0.9462838073982558 M 0.2387983906366031 -0.971069167788458 L 1.0158367099644803 0.9344909995101562 M 0.2314552837541336 -0.9728455435588393 L 1.0479131485933317 0.9869067518601052 M 0.22409896616102687 -0.9745663924872224 L 1.0942291515123848 1.0703584856816493 M 0.2167298577318328 -0.9762316163531786 L 1.1129311119779501 1.0865670274919115 M 0.20934837907116027 -0.9778411201111752 L 1.0836104465236625 0.9935725448993906 M 0.20195495148967066 -0.9793948118960019 L 1.0886172955112539 0.9799028461685961 M 0.19454999698003056 -0.9808926030280125 L 1.0640327838351467 0.9024318972081413 M 0.18713393819282598 -0.9823344080181878 L 1.102565942579378 0.961786660303619 M 0.17970719841243873 -0.9837201445730144 L 1.142576925520369 1.021694199355962 M 0.1722702015328868 -0.9850497335991816 L 1.1205450408899154 0.9523177720227215 M 0.1648233720336299 -0.986323099208096 L 1.0784053621001803 0.8449961347445232 M 0.15736713495534144 -0.9875401687202133 L 1.1477953148428088 0.9608310680197539 M 0.14990191587564872 -0.9887008726691859 L 1.153113928506501 0.9484487876955627 M 0.1424281408848423 -0.9898051448058287 L 1.1109433470279835 0.8462444737557062 M 0.13494623656155616 -0.9908529221018993 L 1.0616405134467948 0.7342069345105249 M 0.12745662994841997 -0.9918441447536964 L 1.0824931492556442 0.7542037022913793 M 0.11995974852768496 -0.9927787561854728 L 1.0898133681958113 0.7489730758518007 M 0.11245602019682477 -0.9936567030526646 L 0.9957442435751155 0.5648142789665751 M 0.10494587324411164 -0.9944779352449359 L 0.9902944500548251 0.5404782521945758 M 0.09742973632417239 -0.9952424058890388 L 0.9818086807610905 0.5116136430476503 M 0.08990803843352138 -0.9959500713514892 L 1.0187510289772927 0.5596243534297339 M 0.08238120888607499 -0.9966008912410569 L 1.0314253650359009 0.5658656110030453 M 0.07484967728864776 -0.997194828411071 L 1.0302411418841058 0.5492680981622025 M 0.06731387351643191 -0.9977318489615403 L 1.0126505458120765 0.506913044033465 M 0.05977422768846139 -0.998211922241088 L 1.0118015465453503 0.49197000833384996 M 0.05223117014306214 -0.9986350208487015 L 0.97902773621094 0.42817875050346255 M 0.04468513141328977 -0.9990011206352959 L 0.9962159690470106 0.44194265634773233 M 0.037136542202356154 -0.9993102007050927 L 1.0207420733749972 0.46600975205914086 M 0.029585833359046278 -0.9995622434168123 L 1.0357295630011216 0.4751344556090644 M 0.02203343585312681 -0.9997572343846811 L 1.0987376579602093 0.5530301665717395 M 0.014479780750747764 -0.9998951624792523 L 1.0735014426983278 0.5030148137935895 M 0.00692529918983865 -0.9999760198280413 L 1.0757685300621431 0.492791906659262 M -0.0006295776444994796 -0.9999998018159751 L 1.1148140592625253 0.533245777016159 M -0.008184418544604654 -0.9999665070856557 L 1.143218519390429 0.5578308042296477 M -0.015738792304865912 -0.9998761375374373 L 1.2107014134712708 0.6334817650207624 M -0.02329226774633488 -0.9997286983293183 L 1.163877221770143 0.5566993932717252 M -0.030844413741336965 -0.9995241978766464 L 1.1550846312505139 0.5311564202174494 M -0.03839479923807734 -0.9992626478516385 L 1.1148442303080017 0.46622165437672913 M -0.045942993285244905 -0.9989440631827149 L 1.0750907783472543 0.4036796496085404 M -0.05348856505660932 -0.9985684620536465 L 1.0484899357123918 0.3590546334908039 M -0.06103108387561118 -0.9981358659025173 L 1.0733076494989733 0.3779760849710926 M -0.06857011923994362 -0.997646299420501 L 1.0323917373447422 0.31760223405028987 M -0.07610524084612397 -0.9970997905504511 L 1.022009817099104 0.29479146418600655 M -0.08363601861405405 -0.9964963704853067 L 1.0359162974843124 0.300627533353077 M -0.09116202271156781 -0.9958360736663115 L 0.9685856568598871 0.2134061783814153 M -0.09868282357896467 -0.9951189377810489 L 1.0121122595583136 0.25321792496011 M -0.10619799195352742 -0.9943450037612893 L 1.027496028267284 0.26050666070945705 M -0.11370709889402307 -0.9935143157806559 L 1.0346732844958457 0.258447625969229 M -0.12120971580518555 -0.9926269212521017 L 1.044031985091517 0.25860787386369477 M -0.12870541446217837 -0.9916828708252043 L 1.054141562311983 0.25937061130636696 M -0.13619376703503636 -0.9906822183832746 L 1.0448148907895618 0.23967290308486455 M -0.14367434611308488 -0.9896250210402815 L 0.998366854635306 0.1822824523034623 M -0.15114672472933488 -0.9885113391375916 L 0.9573132848597826 0.1318762624452744 M -0.15861047638485265 -0.9873412362405259 L 0.9095936496395123 0.07616561036581004 M -0.16606517507310384 -0.986114779134731 L 0.8947826038803605 0.054227977465596156 M -0.17351039530426723 -0.9848320378223674 L 0.8113139093476351 -0.03353195252180885 M -0.18094571212952112 -0.9834930855181141 L 0.8223269882847916 -0.02891878735357767 M -0.18837070116529786 -0.9820979986449896 L 0.7450870977215461 -0.10729059000644503 M -0.19578493861750623 -0.9806468568299902 L 0.7689693331995789 -0.09010355143038551 M -0.20318800130572023 -0.9791397428995448 L 0.8143376211591292 -0.05402354507711615 M -0.21057946668733285 -0.9775767428747876 L 0.8971510716554709 0.014369551395983504 M -0.21795891288167343 -0.9759579459666482 L 0.9671954586869107 0.06929407618063166 M -0.2253259186940872 -0.9742834445707602 L 0.915420017653293 0.016581580448850275 M -0.23268006363997568 -0.9725533342621868 L 1.0024644865996548 0.08404197202494057 M -0.24002092796879662 -0.9707677137899662 L 0.9707482309234334 0.04923617267434688 M -0.24734809268802194 -0.9689266850714752 L 0.9664342117220882 0.03803634901992725 M -0.2546611395870525 -0.9670303531866121 L 1.1203726359024508 0.15627902279560535 M -0.26195965126108817 -0.9650788263717991 L 1.144436450787765 0.1662435104791269 M -0.26924321113495187 -0.9630722160138043 L 1.1741837776996138 0.18018499451529424 M -0.27651140348686637 -0.9610106366433846 L 1.099929973840749 0.11236887564191389 M -0.28376381347218244 -0.9588942059287482 L 1.0439631576399182 0.06046001047329552 M -0.2910000271470565 -0.9567230446688385 L 0.9901940963453513 0.011609663889731614 M -0.2982196314920778 -0.9544972767864397 L 0.991503073150295 0.005058203465728828 M -0.3054222144358415 -0.9522170293211033 L 1.0145086350233838 0.014407789168353724 M -0.3126073648784687 -0.9498824324218971 L 0.9197996908835806 -0.06157964216175349 M -0.3197746727150707 -0.9474936193399771 L 0.841651518928541 -0.12361408298583565 M -0.32692372885915644 -0.9450507264209814 L 0.8564596142725274 -0.11896330188235482 M -0.3340541252659817 -0.9425538930972487 L 0.8320264627298415 -0.1415792077272715 M -0.3411654549558391 -0.9400032618798593 L 0.7584706525257328 -0.1968334896165278 M -0.3482573120372871 -0.9373989783505013 L 0.7794222197572178 -0.18762457654149334 M -0.3553292917303169 -0.9347411911531616 L 0.6750433910968722 -0.2608341509801244 M -0.3623809903894561 -0.9320300519856412 L 0.6949441731700761 -0.2518441564478946 M -0.36941200552680736 -0.9292657155908971 L 0.6188965996842994 -0.3039844991623296 M -0.3764219358350211 -0.9264483397482103 L 0.6334980208960999 -0.2981274469861115 M -0.3834103812102009 -0.9235780852641797 L 0.7068862171937716 -0.25662314748410053 M -0.39037694277473994 -0.9206551159635444 L 0.595367216322622 -0.32784396933196036 M -0.3973212229000878 -0.9176795986798326 L 0.6329175704443566 -0.3086606863817215 M -0.4042428252294458 -0.9146517032458398 L 0.7261404339221162 -0.25790629035462254 M -0.4111413547003896 -0.9115716024839345 L 0.6727467241681703 -0.2927447573473404 M -0.4180164175674182 -0.9084394721961953 L 0.7460051407541346 -0.2554726288039977 M -0.4248676214244275 -0.9052554911543753 L 0.7273955378283725 -0.27028111873361194 M -0.43169457522710797 -0.9020198410896996 L 0.7859470711152179 -0.24296080361296213 M -0.4384968893152635 -0.8987327066824916 L 0.75703016693987 -0.2632742280453382 M -0.44527417543505243 -0.8953942755516332 L 0.8212274955424674 -0.2344334304710256 M -0.4520260467611479 -0.8920047382438552 L 0.8355577214580345 -0.2323702101686711 M -0.458752117918816 -0.8885642882228617 L 0.7700487870672824 -0.2707195163147573 M -0.4654520050059123 -0.8850731218582881 L 0.820201832813122 -0.2507652921689556 M -0.47212532561479337 -0.8815314384144931 L 0.8195458529218657 -0.25634385649333036 M -0.4787716988541436 -0.8779394400391847 L 0.8871844329883701 -0.22948800119875246 M -0.4853907453707146 -0.874297331751883 L 0.8814121818423705 -0.23805213836407135 M -0.49198208737097904 -0.8706053214322172 L 0.9180770857186433 -0.22714048751710247 M -0.4985453486426919 -0.8668636198080624 L 0.8865019613388572 -0.2474124755253162 M -0.5050801545763643 -0.8630724404435098 L 0.9365498848456562 -0.2313413405518221 M -0.5115861321866454 -0.8592319997266793 L 1.0075249548422844 -0.20718395334606787 M -0.5180629101336105 -0.8553425168573667 L 1.061090901052084 -0.19160536934213224 M -0.5245101187439563 -0.851404213834534 L 1.1346352938084028 -0.16874837923535657 M -0.5309273900321003 -0.8474173154436379 L 1.1919131444017796 -0.15372666043914296 M -0.5373143577211849 -0.8433820492437994 L 1.2071058573614888 -0.1562718929112915 M -0.5436706572639824 -0.8392986455548164 L 1.3234884493583674 -0.1200896357160498 M -0.5499959258637029 -0.8351673374440167 L 1.3264188736109617 -0.12862572266722916 M -0.5562898024947011 -0.8309883607129563 L 1.3575035616474613 -0.126834306423246 M -0.5625519279230825 -0.8267619538839599 L 1.3466066874772902 -0.1406442910625395 M -0.5687819447272076 -0.822488358186507 L 1.362427131768023 -0.1448764078346787 M -0.5749794973180921 -0.8181678175434635 L 1.3237377364868559 -0.16802483119076628 M -0.5811442319597027 -0.8138005785571594 L 1.2349505707708144 -0.2072383570215114 M -0.5872757967891475 -0.8093868904953131 L 1.2236299566720115 -0.21972721507886472 M -0.5933738418367589 -0.8049270052768046 L 1.1647467981087163 -0.24710999545697465 M -0.599438019046069 -0.8004211774572964 L 1.1360814974772229 -0.26417246946123396 M -0.6054679822936748 -0.7958696642147043 L 1.1749051977083704 -0.260462577278202 M -0.6114633874089952 -0.791272725334519 L 1.1869307855060012 -0.2652284182763208 M -0.6174238921939135 -0.7866306231949776 L 1.2103532058546629 -0.266949030458943 M -0.62334915644231 -0.7819436227520885 L 1.148780132763311 -0.29252394889137756 M -0.6292388419594799 -0.7772119915245085 L 1.0684896572360525 -0.3221160738121014 M -0.6350926125814353 -0.7724359995782737 L 1.1635339883400646 -0.3048289400320769 M -0.6409101341940938 -0.7676159195113847 L 1.0213456038546718 -0.348843573784266 M -0.6466910747523474 -0.762752026438248 L 0.8745707145408764 -0.39169979926757287 M -0.6524351042990153 -0.7578445979739732 L 0.8786525696274627 -0.3966288505025444 M -0.6581418949836765 -0.7528939142185275 L 0.8622303191998671 -0.40631044716516224 M -0.6638111210813823 -0.7479002577407488 L 0.7903087394620553 -0.42795666141438987 M -0.6694424590112479 -0.7428639135622175 L 0.7230529612621385 -0.4474906823547534 M -0.6750355873549212 -0.7377851691409882 L 0.6877653800372898 -0.4594527746493208 M -0.6805901868749282 -0.7326643143551829 L 0.754143894819981 -0.45091488985008993 M -0.6861059405328945 -0.7275016414864451 L 0.7288725772422885 -0.4607178473698882 M -0.6915825335076401 -0.7222974452032582 L 0.703498500387184 -0.4701642706652146 M -0.6970196532131488 -0.717052022544126 L 0.7078845378290185 -0.4740894138507177 M -0.7024169893164093 -0.7117656729006193 L 0.7568231517037857 -0.4707458424897967 M -0.707774233755129 -0.7064386980002865 L 0.7331363353053101 -0.4796155586987303 M -0.7130910807553157 -0.7010714018894337 L 0.7727320620309013 -0.4786682905330316 M -0.7183672268487308 -0.6956640909157695 L 0.6845641711259746 -0.4964929904951131 M -0.7236023708902108 -0.6902170737109201 L 0.6421729915557344 -0.5068361612288422 M -0.728796214074855 -0.6847306611728134 L 0.5381473516701429 -0.524354310060483 M -0.7339484599550803 -0.679205166447934 L 0.3698018627939925 -0.5479511144341869 M -0.7390588144575423 -0.6736409049134503 L 0.3833764591385844 -0.5487571873156704 M -0.7441269858999188 -0.6680381941592128 L 0.25512129965239494 -0.5644968654000605 M -0.749152685007559 -0.6623973539696282 L 0.2618439273562244 -0.5653528003902635 M -0.7541356249299943 -0.6567187063054066 L 0.281243399699766 -0.565222430036438 M -0.7590755212573101 -0.6510025752851849 L 0.2743199144043402 -0.5675446893716055 M -0.7639720920363798 -0.6452492871670276 L 0.3144140462425179 -0.5663533421141543 M -0.7688250577869571 -0.6394591703298046 L 0.15545423028464656 -0.57885435491222 M -0.7736341415176283 -0.633632555254449 L 0.1245256932940414 -0.5815518531522482 M -0.7783990687416219 -0.6277697745050934 L 0.148441976408606 -0.581048785999478 M -0.7831195674924752 -0.6218711627100894 L 0.17251507023329737 -0.5809342052312179 M -0.7877953683395579 -0.6159370565429071 L 0.0974461730462195 -0.5847137325098102 M -0.7924262044034492 -0.6099677947029195 L 0.0040323776190730465 -0.5878991172276257 M -0.7970118113711716 -0.6039637178960703 L 0.07070211975325258 -0.5864799658654911 M -0.8015519275112764 -0.5979251688154276 L 0.20448650617386432 -0.585256912318768 M -0.8060462936887822 -0.5918524921216244 L 0.24763066780352894 -0.5865454752197766 M -0.8104946533799663 -0.5857460344231861 L 0.2687979305478926 -0.5884640342793539 M -0.8148967526870056 -0.5796061442567472 L 0.22473325815180212 -0.5900789441907491 M -0.8192523403524684 -0.5734331720671584 L 0.2787221050075229 -0.5927904631174405 M -0.8235611677736555 -0.5672274701874839 L 0.3258627687669161 -0.5961796573236607 M -0.8278229890167893 -0.5609893928188916 L 0.31464630380825 -0.5984049658901761 M -0.8320375608310514 -0.5547192960104367 L 0.2361011799596059 -0.5977810867558414 M -0.836204642662466 -0.5484175376387389 L 0.3163839391802067 -0.6036086105997105 M -0.8403239966676304 -0.5420844773875566 L 0.41830976867847913 -0.6118877923919325 M -0.84439538772729 -0.5357204767272571 L 0.3792812597347893 -0.6128623768447107 M -0.8484185834597584 -0.529325898894185 L 0.418317673948313 -0.6187952245506478 M -0.8523933542341808 -0.52290110886993 L 0.47090901668712326 -0.6264185759485744 M -0.8563194731836405 -0.5164464733604948 L 0.5354151213903413 -0.6359024217772807 M -0.8601967162181082 -0.5099623607753648 L 0.4831854650650059 -0.6354988656969274 M -0.8640248620372316 -0.5034491412064805 L 0.38942354831737236 -0.630140849870829 M -0.8678036921429672 -0.4969071864071139 L 0.35621559761046206 -0.6299735321612099 M -0.8715329908520505 -0.4903368697706502 L 0.37569852902520184 -0.6354688083241741 M -0.8752125453083083 -0.48373856630927453 L 0.4848072955961119 -0.6524182679313646 M -0.8788421454948057 -0.47711265263256947 L 0.4497305083661356 -0.6520934726618728 M -0.8824215842458343 -0.470459506926018 L 0.3730918853035088 -0.6454776544541225 M -0.8859506572587366 -0.46377950892941855 L 0.2932028106190758 -0.6372443812869115 M -0.8894291631055667 -0.4570730399152101 L 0.3415243970136229 -0.6476699883440956 M -0.892856903244587 -0.45034048266671095 L 0.3680606853714443 -0.6553431073876865 M -0.8962336820316006 -0.4435822214562705 L 0.27337819377040184 -0.6428214080680432 M -0.8995593067311178 -0.4367986420233362 L 0.3535918298995637 -0.6600233798244041 M -0.9028335875273572 -0.42999013155243676 L 0.34699273261363306 -0.6623778955616526 M -0.9060563375350791 -0.4231570786510831 L 0.2422782058243752 -0.6456621841985051 M -0.9092273728102528 -0.4162998733275877 L 0.2895791767094157 -0.6579954939471617 M -0.9123465123605555 -0.40941890696880456 L 0.24055679200491398 -0.6509379675056051 M -0.9154135781557028 -0.40251457231778953 L 0.16385121667498337 -0.6371325272240147 M -0.9184283951376095 -0.39558726345138434 L 0.1779109389863076 -0.6426056218668875 M -0.9213907912303823 -0.3886373757577238 L 0.0419684511264341 -0.6133545065203607 M -0.9243005973501401 -0.3816653059136683 L 0.013049585641247918 -0.60779572456232 M -0.9271576474146664 -0.37467145186216283 L 0.008806682730894466 -0.6079640265289252 M -0.9299617783528872 -0.3676562127895237 L 0.07796590953598448 -0.6269892490656108 M -0.932712830114179 -0.36061998910265436 L -0.005150642381667514 -0.6067617915737151 M -0.9354106456775048 -0.3535631824061912 L -0.005709879185420874 -0.6078061652659539 M -0.9380550710603749 -0.34648619547958176 L -0.054738485688741734 -0.5952320601636107 M -0.9406459553276372 -0.33938943225409496 L -0.1797983482851181 -0.5598648222640467 M -0.9431831506000907 -0.33227329778976616 L -0.2054201559919433 -0.5521144700471761 M -0.9456665120629273 -0.32513819825227774 L -0.2698629864483305 -0.5320881241554292 M -0.9480958979739962 -0.31798454088977646 L -0.2255429072738041 -0.5452351636780183 M -0.9504711696718947 -0.31081273400962894 L -0.2515043845912043 -0.5364621680592901 M -0.9527921915838826 -0.30362318695511703 L -0.26569418463278816 -0.5311871017213052 M -0.9550588312336199 -0.2964163100820736 L -0.2166698052813184 -0.5471736228294626 M -0.9572709592487282 -0.289192514735461 L -0.26237018523866384 -0.531051761912738 M -0.9594284493681751 -0.2819522132258926 L -0.34448615134814264 -0.5012044911570027 M -0.9615311784494803 -0.2746958188060997 L -0.35839226450461037 -0.49488959919056213 M -0.963579026475745 -0.26742374564734417 L -0.4881217415761107 -0.4450856977885356 M -0.9655718765625011 -0.26013640881577904 L -0.398635859846443 -0.4768759165130834 M -0.967509614964383 -0.25283422424875795 L -0.38270411122203774 -0.48148389240610845 M -0.9693921310816201 -0.24551760873109466 L -0.3647605963708199 -0.4872008892509401 M -0.9712193174663492 -0.23818697987127438 L -0.39250367499998073 -0.47459734123633596 M -0.9729910698287467 -0.2308427560776185 L -0.5096016350862379 -0.4242391854313182 M -0.9747072870429827 -0.22348535653440155 L -0.4671972593591863 -0.43981197781560993 M -0.9763678711529911 -0.21611520117792793 L -0.4810568471381028 -0.431678288564937 M -0.9779727273780617 -0.2087327106725618 L -0.4852215632911411 -0.4276242211916519 M -0.9795217641182499 -0.20133830638671726 L -0.3106018786683682 -0.5045594474154743 M -0.9810148929596045 -0.193932410368808 L -0.406805421987397 -0.45946893755326446 M -0.9824520286792144 -0.18651544532315825 L -0.350205071478897 -0.48470922716784215 M -0.9838330892500728 -0.1790878345858761 L -0.3387298938275545 -0.4893244147295993 M -0.9851579958457591 -0.17165000210069092 L -0.31157548921793277 -0.5018713319090561 M -0.9864266728449378 -0.164202372394756 L -0.2129386266112886 -0.5506772281602317 M -0.9876390478356747 -0.15674537055441798 L -0.17781078787206006 -0.5690524226792367 M -0.9887950516195706 -0.14927942220095428 L -0.22345855687147098 -0.5462435274750502 M -0.9898946182157099 -0.14180495346628 L -0.15855287735577384 -0.5810065376077058 M -0.9909376848644276 -0.13432239096862572 L -0.16782105125494085 -0.5771648755480313 M -0.9919241920308906 -0.12683216178818765 L -0.17664056095419522 -0.5734352664751355 M -0.9928540834084959 -0.11933469344275102 L -0.1345839450214108 -0.5979504059302663 M -0.9937273059220851 -0.11183041386328905 L -0.05197935182680147 -0.6463646872951581 M -0.994543809730973 -0.10431975136953787 L -0.057465307040604596 -0.6456045150225597 M -0.9953035482317922 -0.09680313464554949 L -0.0703121011437744 -0.6404670021760428 M -0.996006478061154 -0.0892809927152239 L -0.15808777222650627 -0.5903232591771084 M -0.9966525590981226 -0.0817537549178218 L -0.255059882061916 -0.5328374850271982 M -0.9972417544665052 -0.07422185088345935 L -0.2569442776118456 -0.5322154606780051 M -0.9977740305369573 -0.06668571050858621 L -0.20746172277720898 -0.5639165186867 M -0.9982493569289015 -0.05914576393144852 L -0.14716544157745426 -0.6036295924134715 M -0.9986677065122618 -0.051602441507538004 L -0.04069171954692963 -0.6747201858903171 M -0.9990290554090123 -0.04405617378502867 L 0.039247559793630926 -0.7306238528355237 M -0.9993333829945397 -0.03650739148020254 L 0.11612589296397569 -0.7862858028872775 M -0.9995806718988205 -0.02895652545286577 L 0.03418847003671455 -0.7352220988456134 M -0.9997709080074131 -0.02140400668175659 L 0.06554946684180818 -0.7610917539346708 M -0.9999040804622624 -0.013850266239946424 L 0.09807264134529292 -0.7885717001929535 M -0.9999801816623203 -0.0062957352702356795 L 0.02445431797415154 -0.7407815776403535 M -0.9999992072639791 0.0012591550394544962 L 0.08095481902036361 -0.7861813802116377 M -0.9999611561813196 0.008813973480693005 L 0.2040280757223213 -0.8822541262702377 M -0.9998660305861735 0.016368288849150762 L 0.20227559863049227 -0.8874684673998369 M -0.9997138359079982 0.02392166996921244 L 0.1932457279390034 -0.8871998669750569 M -0.9995045808335686 0.03147368571858654 L 0.2033955450296595 -0.9017125998604736 M -0.9992382773064797 0.03902390505291202 L 0.19123011225053899 -0.8990100544842287 M -0.9989149405264661 0.04657189703036267 L 0.2357679672433841 -0.9415112870103395 M -0.9985345889485336 0.0541172308362412 L 0.24272480198316437 -0.9547062126360901 M -0.9980972442819065 0.061659475807570474 L 0.2010768189785952 -0.9280967382695883 M -0.9976029314887879 0.06919820145767397 L 0.1859114841767121 -0.9227601796954558 M -0.9970516787829354 0.07673297750074647 L 0.20808335884814 -0.9489464059936593 M -0.9964435176280508 0.08426337387641346 L 0.18487843900002865 -0.9366383469344358 M -0.9957784827359839 0.09178896077427746 L 0.26751681243010816 -1.0167363312189168 M -0.9950566120647512 0.09930930865845031 L 0.2359890435583697 -0.9974891903228252 M -0.9942779468163697 0.10682398829206957 L 0.24498115234008144 -1.0142007890979947 M -0.9934425314345054 0.11433257076179804 L 0.22939114521281545 -1.0087479218585775 M -0.9925504136019362 0.12183462750230467 L 0.2741475315530649 -1.0592974872437368 M -0.9916016442378301 0.1293297303207257 L 0.21613721939445263 -1.0140050484873953 M -0.9905962774948398 0.1368174514211045 L 0.22662123612434337 -1.0330538329830217 M -0.9895343707560108 0.14429736342880878 L 0.23629246143061866 -1.0517946466932417 M -0.9884159846315069 0.15176903941492367 L 0.22466312132031374 -1.0499079078337088 M -0.9872411829551505 0.15923205292061957 L 0.17904329553968357 -1.0136796189536483 M -0.9860100327807793 0.16668597798149282 L 0.15732967600278447 -1.0006580504424973 M -0.9847226043784185 0.17413038915187856 L 0.15256103684302436 -1.0047159495072715 M -0.9833789712302712 0.18156486152913365 L 0.1409688088854566 -1.001633238366865 M -0.9819792100265231 0.1889889707778887 L 0.20705343920452435 -1.0813629091856067 M -0.9805234006609659 0.19640229315426794 L 0.26552342779868854 -1.1551867295326672 M -0.979011626226437 0.20380440553007487 L 0.28407825768320527 -1.1872133824042352 M -0.977443973010077 0.21119488541694317 L 0.25658666585278245 -1.1686241453926713 M -0.9758205304884047 0.21857331099045108 L 0.23564408126015013 -1.1567849708485614 M -0.9741413913222097 0.22593926111419743 L 0.25049119027618505 -1.1857287334553868 M -0.9724066513512641 0.23329231536383907 L 0.20383826039226438 -1.143474677035093 M -0.9706164095888523 0.2406320540510871 L 0.15154591169548204 -1.093104847338707 M -0.968770768216119 0.24795805824766137 L 0.13882400475570356 -1.0888364431743658 M -0.9668698325762378 0.2552699098092016 L 0.16529595705668176 -1.1323871283817861 M -0.9649137111683981 0.2625671913991336 L 0.09658431111733412 -1.058729678043983 M -0.9629025156416124 0.26984948651248947 L 0.09874585141694103 -1.072276931086737 M -0.9608363607883442 0.2771163794996804 L 0.09210773085273971 -1.0748741859423183 M -0.958715364537955 0.2843674555902206 L 0.13265433716124442 -1.1390152916716119 M -0.9565396479499743 0.29160230091640105 L 0.1115880243489572 -1.1234810492630884 M -0.9543093352071893 0.2988205025369115 L 0.07101687536010093 -1.0811167891878666 M -0.9520245536085574 0.30602164846041024 L 0.11240541107765067 -1.1493839408463673 M -0.9496854335619402 0.3132053276690383 L 0.06868628806400134 -1.1015326746833087 M -0.9472921085766596 0.3203711301418812 L 0.007773127685277936 -1.0277858554149346 M -0.9448447152558788 0.32751864687836846 L -0.08041608145991319 -0.9124516164827225 M -0.9423433932888043 0.3346474699216204 L -0.04212270641219451 -0.9776877165830222 M -0.9397882854427139 0.3417571923817321 L -0.08198098085971228 -0.929227157214351 M -0.9371795375548068 0.34884740845899725 L -0.04506710572824546 -0.9947459992677177 M -0.934517298523881 0.35591771346707035 L -0.055846377082652054 -0.9893776360497053 M -0.9318017203018334 0.3629677038560645 L -0.012471034868998698 -1.0680789573550862 M -0.9290329578849881 0.3699969772355849 L 0.0017645472103969828 -1.103257399480089 M -0.9262111693052486 0.37700513239769573 L -0.12037517010034071 -0.92006033394547 M -0.9233365156210787 0.3839917693398201 L -0.09230392020150169 -0.9764521765943801 M -0.920409160908309 0.3909564892875707 L -0.07745498902862114 -1.012733197536399 M -0.9174292722507733 0.39789889471751055 L -0.10021394646896309 -0.9865215414616946 M -0.9143970197307701 0.40481858937984244 L -0.11050488476227938 -0.9808396948846603 M -0.9113125764193569 0.4117151783210254 L -0.13597690725990164 -0.9482891943208138 M -0.9081761183664703 0.4185882679063175 L -0.10961333747997604 -1.0070849945621687 M -0.9049878245908781 0.4254374658422433 L -0.1347216915398045 -0.9744185962578413 M -0.9017478770699624 0.43226238119898436 L -0.08971000057107159 -1.0702736023362516 M -0.8984564607293312 0.43906262443269267 L -0.09362168889393829 -1.0774253832809928 M -0.8951137634322651 0.4458378074077241 L -0.06804543083004477 -1.1413865935769176 M -0.8917199759689938 0.4525875434187923 L -0.03183488186694772 -1.22848565777782 M -0.8882752920458062 0.45931144721304035 L -0.07052452982929347 -1.1696270839051506 M -0.8847799082739954 0.4660091350120297 L -0.08401628891797752 -1.1596059967573942 M -0.8812340241586356 0.47268022453364517 L -0.1376069650944871 -1.0661630941678624 M -0.8776378420871954 0.4793243350139142 L -0.08897167526214245 -1.1846959944499853 M -0.8739915673179864 0.48594108722873974 L -0.02400507276347752 -1.3430367469385949 M -0.8702954079684475 0.49253010351554505 L -0.030410750567195888 -1.3510266103573452 M -0.8665495750032663 0.49909100779482934 L -0.047262849698123555 -1.3358728640281807 M -0.8627542822223382 0.5056234255916334 L -0.08433779369155514 -1.273793828960091 M -0.8589097462485625 0.5121269840569134 L -0.1332935703842918 -1.1813204095335978 M -0.8550161865154795 0.5186013119888213 L -0.11406449676924058 -1.247371926883198 M -0.8510738252547451 0.5250460398538929 L -0.09698679562027523 -1.3109918599395192 M -0.8470828874834467 0.5314607998081385 L -0.12386533966652236 -1.267981266479726 M -0.8430436009912604 0.537845225718039 L -0.180960423613847 -1.1461454966763833 M -0.8389561963274489 0.5441989531814436 L -0.20257753984229887 -1.1110279611733018 M -0.8348209067877027 0.5505216195483678 L -0.21010915175625877 -1.111744211967951 M -0.8306379684008248 0.556812863941693 L -0.1933794473668694 -1.1785382620633498 M -0.8264076199152579 0.5630723272777651 L -0.1958771915174271 -1.1948884964014954 M -0.8221301027854586 0.5692996522868876 L -0.19915855283649098 -1.2097674801037133 M -0.8178056611581155 0.5754944835337151 L -0.20934464288716204 -1.2051492554047294 M -0.8134345418582137 0.58165646743754 L -0.21551075768884342 -1.2123322947653863 M -0.8090169943749476 0.587785252292473 L -0.238169531184797 -1.1691025874061092" /></g></svg>