<svg xmlns="http://www.w3.org/2000/svg" xmlns:inkscape="http://www.inkscape.org/namespaces/inkscape" width="11in" height="8.5in" viewBox="-5.367283271371463 -11.399436464797152 20.51796787206435 15.85479335568609"><g inkscape:label="0-layer" inkscape:groupmode="layer"><path style="stroke-width: 0.061553903616193055; stroke: black;" fill="none" d="M 6.152701741004877 -1.3130170869792086 L 6.152701741004877 -1.3130170869792086 M 6.243371697325233 -1.3863499452480812 L 6.174197493501435 -1.3105014353474949 M 6.195719209473489 -1.3082185380340974 L 5.8581273807612675 -0.9299117542797442 M 5.8418672972665915 -0.8762208227478064 L 6.217264368750279 -1.3061686623639392 M 6.238830448415851 -1.3043520483753497 L 6.177151434379939 -1.2321477674452779 M 6.144958948523527 -1.1646111879721586 L 6.2604149231044985 -1.3027689087919545 M 6.282015265296473 -1.301419428997768 L 6.441054304276534 -1.495970232236573 M 6.411042888809913 -1.4346429210156948 L 6.303628945613964 -1.3003037670154836 M 6.325253433117273 -1.2994220534879695 L 6.41566506054535 -1.415040184162476 M 6.467288153499684 -1.4562259603334953 L 6.346886195601194 -1.298774391662972 M 6.368524699891533 -1.2983608573810228 L 6.175938387957355 -1.040783378108559 M 6.1837798161778155 -1.0158264583357877 L 6.39016641214173 -1.2981814990665606 M 6.411808798129584 -1.298236337722259 L 6.102553624824669 -0.8653930927001556 M 5.894450944106083 -0.5266015782371057 L 6.43344932355399 -1.2985253669265682 M 6.455085454331723 -1.2990485528344657 L 5.865549029575016 -0.43497555482810635 M 5.7786117109495 -0.2524417374936698 L 6.47671465689416 -1.2998058341814214 M 6.498334398483966 -1.3007971222905694 L 5.836599221809905 -0.2843313615660683 M 5.68260910449096 0.015128641301076273 L 6.51994214745168 -1.3020223010830938 M 6.541535373552158 -1.30348122709182 L 5.5163086919912185 0.3484475342604987 M 5.341277232347656 0.7119396204642412 L 6.563111548240876 -1.305173729478016 M 6.584668144970007 -1.3070996100513959 L 5.64541910821745 0.28205184721735277 M 5.889074431266239 -0.06538651533442064 L 6.606202639484288 -1.3092586432933293 M 6.6277125101165995 -1.311650576383248 L 5.7995621850699415 0.16140333701096488 M 5.713619123317745 0.39284465179828354 L 6.64919523808325 -1.3142751292282515 M 6.670648307778933 -1.3171319944959066 L 5.772667689116239 0.3643078206835584 M 6.050782612180331 -0.08751380891077853 L 6.692069207071289 -1.3202208376502331 M 6.713455427595086 -1.3235412969908813 L 6.316300989617253 -0.539507685957072 M 6.274468273360895 -0.3934020601141993 L 6.734804465045934 -1.3270929836954828 M 6.756113819473545 -1.3308754818651847 L 6.205352995929588 -0.1826141669401553 M 6.184440113589744 -0.06358792927098134 L 6.7773809955744735 -1.3348883485733485 M 6.798603502984308 -1.3391311139174171 L 6.272188940592301 -0.17782531737923057 M 6.264512552995263 -0.08253366160669273 L 6.819778856569301 -1.343603281073941 M 6.840904576717364 -1.3483043263567531 L 6.130018978929011 0.31476002955359017 M 6.42771627442374 -0.30610074643699137 L 6.861978189628437 -1.3532336992782958 M 6.882997227604159 -1.358390822614078 L 6.522959098699972 -0.46297164194704077 M 6.342127330680272 0.07840194064796302 L 6.903959229336843 -1.3637750924702716 M 6.924861740197684 -1.3693858783544242 L 6.285078921539098 0.32692938497927626 M 6.223323670505362 0.6047135140284499 L 6.945702312524197 -1.375222523249289 M 6.966478505906835 -1.381284343689764 L 6.071997616204344 1.1552752416134406 M 6.102644573160939 1.210097784148712 L 6.987187887474761 -1.3875706298429202 M 7.007828032180734 -1.3940806455911277 L 6.055140897569888 1.5061896716266336 M 6.146053248679754 1.3866900704892713 L 7.028396523085071 -1.4008136286182487 M 7.048890951638684 -1.4077687904989094 L 6.21465920954196 1.3303802954153703 M 6.386897550221271 0.915037318704021 L 7.069308917965107 -1.4149453167908195 M 7.089648031141516 -1.4223423671301438 L 6.384893963616074 1.0841652332774683 M 6.180574619071496 2.018037222428803 L 7.109905909478721 -1.4299590753299107 M 7.130080180800038 -1.4377945494814368 L 6.20410972639695 2.1518805245012134 M 6.280643395641816 2.082436193180315 L 7.150168482719083 -1.4458478720587735 M 7.1701684629164015 -1.4541181000261445 L 6.347748400346241 2.0456048841974828 M 6.404048814378667 2.0526458474837836 L 7.190077779414915 -1.4626042649483753 M 7.209894100854181 -1.4713053731042987 L 6.563584166463617 1.5734477199189008 M 6.664275059949107 1.3326031852874762 L 7.229615106763373 -1.4802204056031139 M 7.249238487833022 -1.489348318503702 L 6.756898527935976 1.1052978765267933 M 6.783794553338948 1.21724418193583 L 7.268761946185421 -1.4986880429368665 M 7.288183195643716 -1.5082384852305009 L 6.847543733557028 1.1237229520474397 M 6.87710754884609 1.2353894158107268 L 7.307499961999607 -1.5179985270376521 M 7.3267099832796525 -1.5279670254674806 L 6.876397270774586 1.5723703546621566 M 6.972120617783783 1.2461512133014596 L 7.345811010010159 -1.5381428132190929 M 7.364800805480574 -1.5485246987182264 L 7.007055481088755 1.3549450650870538 M 7.036690221999577 1.5323154111328003 L 7.383677146005417 -1.559111466256788 M 7.40243782118466 -1.5699018761352055 L 7.066916506131546 1.742353641339085 M 7.098869121931414 1.984332336471745 L 7.421080634162572 -1.580894664807602 M 7.439603401884962 -1.59208854502975 L 7.165240788347484 1.8600242608312245 M 7.218395261529154 1.8895584252881048 L 7.458003955354812 -1.603482206009808 M 7.476280139886274 -1.6150743135618166 L 7.281231448151873 1.763476620732302 M 7.356169403099889 1.3223476479947445 L 7.494429815356967 -1.6268635102619242 M 7.512450856458598 -1.6388484156073462 L 7.407385954043423 1.276342708700735 M 7.462558399376383 1.0378091943016843 L 7.530341152945818 -1.6510276261780135 M 7.548098609883346 -1.6633997158009193 L 7.497719508442196 1.8392053384968772 M 7.55291645929893 1.919782467861223 L 7.56572114789127 -1.6759632357171157 M 7.583206703388545 -1.6887167147513642 L 7.608362158261149 1.7760516351460263 M 7.670440385471652 2.1630374077357324 L 7.6005532288346425 -1.7016586594844132 M 7.617758692969302 -1.7147875544278672 L 7.730660557724607 2.1903864115052123 M 7.784896038483706 2.047845718960132 L 7.634821081050404 -1.728101862201658 M 7.651738395089884 -1.7416000237140616 L 7.808288772084461 1.3529878999134175 M 7.861435731847219 1.3846154689930683 L 7.6685086540877005 -1.7552804583442756 M 7.685129894263802 -1.7691415641274992 L 7.895466920956028 1.1395384385733438 M 7.8942235469122055 0.5319925618008114 L 7.70160016928809 -1.7831817179425262 M 7.717917550508332 -1.7973992757018138 L 7.9043883938915815 0.18408152899733343 M 7.918777356391307 -0.05336558257540469 L 7.734080127175997 -1.8117925725439952 M 7.750086006670014 -1.8263599230288432 L 7.960257396453299 -0.014366190903247311 M 7.987991796004228 -0.09219592855517167 L 7.765933314718383 -1.841099621334623 M 7.781620195617663 -1.856009941457853 L 8.021987121636919 -0.11398578352629363 M 7.995171620183697 -0.5422786750085502 L 7.797144812450262 -1.8710891374154088 M 7.8125053472995445 -1.8863354434489794 L 7.95972588281334 -0.9668135811639937 M 8.057125076981146 -0.5618343770285503 L 7.827700001462708 -1.9017470742318403 M 7.842726995661406 -1.9173222250779036 L 8.123241799609213 -0.3792733711960401 M 8.16883594713744 -0.32525047733091106 L 7.857584570250101 -1.9330590721530563 M 7.872270985422116 -1.948955772688718 L 8.152162950536782 -0.5825503861538193 M 8.134963087105282 -0.8167744164555089 L 7.88678452141337 -1.965010465197638 M 7.9011234787037505 -1.9812212696918643 L 8.00968890076607 -1.5039954870577055 M 8.133149083464623 -1.0856544961032621 L 7.915286178216132 -1.9975862879028925 M 7.929270961512998 -2.014103603503955 L 8.156219359779277 -1.1076574572725821 M 8.22925609146344 -0.9380768060824238 L 7.94307619099063 -2.0307712823344106 M 7.956700250070884 -2.0475873726262455 L 8.350258094549229 -0.6086180209621319 M 8.357242640039612 -0.7070888524133208 L 7.970141543390476 -2.06454990523261 M 7.983398496987812 -2.081656893858417 L 8.260907451874377 -1.1469795136991907 M 8.25159545417752 -1.2724995263215284 L 7.9964695584872825 -2.0989063352929227 M 8.009353197281053 -2.1162962096443074 L 8.171463932626867 -1.6106638482994011 M 8.131618039618326 -1.8043749682549848 L 8.022047904708298 -2.133824480576205 M 8.034552194231857 -2.151489095546148 L 8.203134673342666 -1.6623446649018785 M 8.305207639738983 -1.4452325936518269 L 8.046864601612311 -2.1692879860459264 M 8.058983685079443 -2.1872190678438 L 8.181924675051759 -1.8540878706959112 M 8.274940760237223 -1.6703111546628957 L 8.070908025501065 -2.2052802412285684 M 8.0826362265492 -2.223469391255436 L 8.386289788788858 -1.4524596847456348 M 8.52757097792 -1.1753179185617748 L 8.094166914863589 -2.2417843879936754 M 8.105498740212512 -2.2602230867760427 L 8.577410174062873 -1.134096658463941 M 8.611923322694603 -1.1318398835589978 L 8.116630375650898 -2.2787833284499057 M 8.127560517675706 -2.2974629396300914 L 8.632650503212638 -1.1617589293370036 M 8.81709708115468 -0.8333735618069562 L 8.138287886378563 -2.316259732953375 M 8.148811225595654 -2.3351715073346284 L 9.010115761781119 -0.5061759307079938 M 8.94356860349473 -0.7341430885848346 L 8.159129303054796 -2.3541960482245563 M 8.169240910519749 -2.3733311278690215 L 8.715546534763396 -1.275527795344063 M 8.809187983715251 -1.1601197565623382 L 8.179144863931699 -2.3925745055699164 M 8.188840003547906 -2.411923927947537 L 8.714377607374118 -1.4107772533069884 M 8.882898374146876 -1.1608685805882535 L 8.19832519407751 -2.4313771292044635 M 8.207599324814474 -2.450931831390869 L 8.75903215093741 -1.4535198593528689 M 8.63878531206744 -1.7262015570593099 L 8.216661309767645 -2.4705857446712796 M 8.225510087787919 -2.490336567592699 L 8.525740770693124 -1.9740044655228748 M 8.783102949453397 -1.5891734677597178 L 8.234144622692511 -2.510181987354113 M 8.242563903386278 -2.5301196800773176 L 8.76387658123142 -1.6766307553448137 M 8.650953724231405 -1.9106259652891637 L 8.250766943980128 -2.5501473110790354 M 8.258752783906457 -2.570262535144315 L 8.706392423416297 -1.8718314883323701 M 8.68975815300105 -1.9455740416875396 L 8.266520488031642 -2.590462996801142 M 8.274069146765529 -2.610746330596273 L 8.798645852339666 -1.8299973071094966 M 8.299961589365534 -2.604116684042009 L 8.28139787616796 -2.631110161372218 M 8.288505818052272 -2.651552104545374 L 8.434022644451272 -2.444784625908518 M 8.630664831680354 -2.2064625113888026 L 8.295392140085797 -2.6720697663852615 M 8.302056035887318 -2.692660744294816 L 8.79345556226324 -2.025576690423187 M 8.719360286432263 -2.16802468547336 L 8.308496725121504 -2.713322627091745 M 8.314713453590281 -2.734052995290858 L 8.764105295490046 -2.15085967010922 M 9.07462372868644 -1.798055958673269 L 8.320705493321153 -2.7548494213874024 M 8.32647214265244 -2.775709470141309 L 8.71156882647225 -2.297717430084746 M 8.775203735340794 -2.258554091488863 L 8.332012726315446 -2.7966306988623604 M 8.337326595513534 -2.817610657696233 L 8.88595302620571 -2.166023296536825 M 8.911054203538553 -2.1779342782197655 L 8.342413127998096 -2.8386468899113613 M 8.34727172814142 -2.8597369321866313 L 8.781475523202824 -2.3661343507538253 M 8.99908849150002 -2.161016429167338 L 8.351901827006435 -2.88087831489982 M 8.356302882413333 -2.902068562416798 L 8.955162395343278 -2.2502868025532328 M 9.07904458124582 -2.158023374029324 L 8.360474379003062 -2.9233051933814136 M 8.364415828297668 -2.94458572100606 L 9.316669432947858 -1.9521723477089723 M 9.320858986972427 -1.9942639527761328 L 8.368126768757502 -2.9659076533628834 M 8.37160676583526 -2.9872684936755705 L 9.404775040140573 -1.9561526638034694 M 9.686429809894163 -1.7277247498119246 L 8.374855412026868 -3.0086657406117334 M 8.377872326919205 -3.0300968885757995 L 9.635041624186892 -1.8285936406248031 M 9.713475146946376 -1.8050723177867576 L 8.380657157234644 -3.0515594280024283 M 8.383209576872428 -3.073050845650365 L 9.784448829930616 -1.790716313805092 M 9.665771537305934 -1.9481713147363933 L 8.385529286946845 -3.0945686248967452 M 8.387616015822235 -3.1161102460317944 L 10.155507714941884 -1.567186746105821 M 10.457268797520546 -1.3651709871053859 L 8.389469519144798 -3.1376731865538696 M 8.391089579871204 -3.1592549214648575 L 10.231214479352714 -1.6161411561335681 M 9.84577836992847 -1.9886716325607152 L 8.392476008294011 -3.180852923565833 M 8.39362864206388 -3.2024646637530076 L 9.515387347664252 -2.302386777567343 M 9.223158084386478 -2.573839257671808 L 8.394547346208586 -3.224087611313872 M 8.395232013148817 -3.245719234223544 L 9.60464266601505 -2.317609600304742 M 9.923262015758757 -2.1211325490408464 L 8.39568256271078 -3.267356999441274 M 8.395898942135588 -3.2889983732070456 L 10.330200949331225 -1.8700427732033804 M 10.367706550648926 -1.8967219279709813 L 8.395881126085431 -3.310640821338293 M 8.395629116646552 -3.332281809526637 L 9.799638271883895 -2.3483506540617 M 10.219555458677888 -2.1045865254220084 L 8.395142943328993 -3.353918803634661 M 8.394422663063153 -3.3755492699926486 L 10.321857376081612 -2.0860826107262707 M 10.234785879943246 -2.1939542195427615 L 8.393468360193108 -3.397170675695274 M 8.392280146466737 -3.4187804888982116 L 10.70844549794149 -1.9407892249999568 M 10.706059504824504 -1.998014779436844 L 8.390858161022647 -3.4403761791145975 M 8.389202570373868 -3.4619552175113624 L 10.519950220108274 -2.1663012094682674 M 10.645565844104137 -2.1435841395313595 L 8.387313568388358 -3.483515077205341 M 8.385191376266304 -3.5050532335591815 L 10.73865715708202 -2.142842810262006 M 11.013471587432267 -2.0416968774584556 L 8.382836242514216 -3.526567164476965 M 8.38024844291583 -3.5480543506995463 L 10.699490686779395 -2.2718445451567337 M 10.324020664324436 -2.525642114894181 L 8.377428280499812 -3.569512276099563 M 8.374376085504277 -3.590938427976056 L 9.891543758469798 -2.798367254945888 M 10.032798442135432 -2.7670132220095978 L 8.37109221533811 -3.6123302973487204 M 8.36757705453913 -3.633685379251692 L 9.612270510418316 -3.0173670506919765 M 9.807059089787877 -2.9597208961092294 L 8.36383101472904 -3.655001173026886 M 8.359854534565244 -3.676275182616813 L 9.216718180918889 -3.27484360713697 M 9.542160222580279 -3.157215768509503 L 8.355648079689471 -3.697504916856869 M 8.351212142673253 -3.7186878897670517 L 9.264410467996864 -3.3147276667630785 M 8.93893526677265 -3.485402839943178 L 8.346547242960243 -3.739821620843056 M 8.341653926805392 -3.7609036353467524 L 9.297994090907894 -3.3623761732085486 M 9.254225705590837 -3.411112389824314 L 8.336532767210981 -3.781931464595961 M 8.331184363859519 -3.8029026462535467 L 9.190025950660846 -3.4666286685587075 M 9.461536223279762 -3.3931671470786933 L 8.32560934304353 -3.8238147246157435 M 8.319808357592205 -3.844665250899721 L 9.535264859397994 -3.398849103281128 M 9.544880331193873 -3.4289535799152673 L 8.313782086794966 -3.865451783530338 M 8.307531236321912 -3.8861718884260386 L 9.155002048934804 -3.595977168177121 M 9.604347602636231 -3.4762438137720397 L 8.301056538141193 -3.9068231392838917 M 8.294358750433295 -3.927403117863697 L 9.803859113977428 -3.4467504983933486 M 9.79322113444651 -3.4863263051718185 L 8.287438657502257 -3.9479094142711713 M 8.280297069683831 -3.968339627240132 L 10.325903928769561 -3.3654155782964805 M 10.319143627081525 -3.4095804928299036 L 8.272934823250594 -3.98869136441369 M 8.265352780314014 -4.008962242624394 L 9.873420561114424 -3.5725910285989118 M 9.45176201733684 -3.7189190166189254 L 8.257551828723509 -4.029149888173294 M 8.249532881962471 -4.0492519371078926 L 9.72549738498585 -3.682829732509708 M 9.93989779722461 -3.667034612220576 L 8.241296879041306 -4.069266035498973 M 8.232844784387467 -4.089189839716238 L 9.810632704424597 -3.733552834639135 M 9.629676191422137 -3.8081621717783 L 8.22417758773253 -4.109021016702742 M 8.215296303996293 -4.12875724424809 L 10.35630151477471 -3.6946319626273167 M 10.245564521455629 -3.7578071503531993 L 8.206201973167932 -4.148396211260375 M 8.196895660184213 -4.167935618036799 L 10.366965396736855 -3.7766077802262155 M 10.794607757178296 -3.746287950136727 L 8.1873784548048 -4.187373176532953 M 8.177651471484639 -4.206706610630768 L 10.708704389986668 -3.8066314915574644 M 10.236482068992117 -3.9218384025055317 L 8.167715849243448 -4.225933656405035 M 8.15757275153236 -4.245052062388503 L 10.30797122591263 -3.9526934293610148 M 10.42185015124925 -3.979844919096818 L 8.147223366097663 -4.264059589835527 M 8.136668904841729 -4.282954012984231 L 10.470085834325385 -4.017004666437743 M 10.881207300444704 -4.01786748124411 L 8.125910603681092 -4.301733119317135 M 8.11494972240174 -4.320394709820231 L 10.566023704782832 -4.094648230616987 M 10.93624405302489 -4.108945622880482 L 8.103787544511572 -4.338936599240503 M 8.09242537709012 -4.3573566163418045 L 11.072622671978005 -4.14780426699225 M 10.614526557452521 -4.225031499404141 L 8.080864550635479 -4.375652604159113 M 8.069106418908518 -4.393822420251103 L 10.675745097755328 -4.26715275893914 M 10.6869360779143 -4.312580491395824 L 8.057152358774347 -4.411863936951034 M 8.045003770041088 -4.429775041615895 L 10.794965821684592 -4.35574396600574 M 10.803612746776414 -4.402956928936257 L 8.032662075295967 -4.447553636873776 M 8.02012871973872 -4.465197640869495 L 11.013441127069232 -4.449417646736496 M 11.144749053036751 -4.500116105700415 L 8.007405171012369 -4.482704987508366 M 7.9944929190313605 -4.500073626698133 L 10.936250459912516 -4.548237030548592 M 11.268005058461503 -4.606693562499119 L 7.981393475807099 -4.517301524589044 M 7.9681083752708854 -4.5343866638120085 L 11.41567802946367 -4.665503742691081 M 11.645351037465893 -4.731705269732807 L 7.954639173094305 -4.551327043714826 M 7.940987446507056 -4.568120680596464 L 11.067882159343005 -4.754880257439548 M 10.899315217416119 -4.794582844596113 L 7.927154794112255 -4.584765607939349 M 7.913142835699242 -4.60125987663964 L 10.801037720559378 -4.836560154508105 M 10.093760589610229 -4.820360691058418 L 7.898953212053913 -4.617601555235465 M 7.884587584766575 -4.6337887301331 L 9.80849156394096 -4.832540074289629 M 9.933744654912408 -4.885608664042418 L 7.870047636037381 -4.649819505831044 M 7.855335068479346 -4.665692005141979 L 10.28291125677902 -4.969702834387321 M 10.779473081484387 -5.081812504058215 L 7.840451604918973 -4.68140436941259 M 7.825398988194508 -4.69695475874121 L 10.364595773387348 -5.070921126653282 M 10.646037314796562 -5.161403798393176 L 7.810178980951859 -4.712341352193274 M 7.794793365438194 -4.7275623480145414 L 11.038350379670296 -5.2772272297891645 M 11.28711173688696 -5.376194918590465 L 7.779243943293236 -4.742615963842082 M 7.763532535338294 -4.757500436912998 L 11.4090887472595 -5.456766093868571 M 10.921891961991076 -5.416761800815543 L 7.747660981363055 -4.772214024270825 M 7.731631139910134 -4.786755002969646 L 10.70158857296275 -5.423362625874146 M 10.108810637866037 -5.341290681417793 L 7.7154448880574495 -4.801121670275837 M 7.699104121198413 -4.81531234386746 L 10.151003665279951 -5.3966456739304265 M 10.035765792996967 -5.414212688260218 L 7.68261075281999 -4.829325362031261 M 7.665966714278621 -4.8431590838572465 L 9.833527178171304 -5.406889045720592 M 9.676896443807008 -5.407667154074745 L 7.649173954574071 -4.856811889430849 M 7.632234440121197 -4.870282180022603 L 9.425501940018048 -5.378344753687231 M 9.072271480068212 -5.3134817729203165 L 7.61515015451969 -4.883568378275355 M 7.5979230983217905 -4.896668928388984 L 8.773491982482032 -5.2573856340646365 M 8.431719056886683 -5.180868985457818 L 7.580555288798026 -4.90958229630257 M 7.563048759700999 -4.922306969874034 L 8.017488207797811 -5.072584060792367 M 7.8061261284772065 -5.024199505218067 L 7.54540556102723 -4.934841459057212 M 7.5276277587771006 -4.947184296076338 L 7.73472657494775 -5.02067804330226 M 7.7305844516682285 -5.0404152793462815 L 7.509717434712939 -4.959334035597912 M 7.491676686115239 -4.971289254899954 L 7.620927195438849 -5.020331219075658 M 7.700890493534157 -5.072151753644795 L 7.473507625537074 -4.983048554038605 M 7.4552123805567145 -4.994610556012052 L 7.340126737626325 -4.948069830684339 M 6.985918076011276 -4.817937552052343 L 7.436793093528497 -5.005973906921775 M 7.418251921331955 -5.017137276131092 L 6.756804307290123 -4.732841054668455 M 7.30433876104119 -4.985932136868514 L 7.399591035119248 -5.028099356420972 M 7.380812620060923 -5.038858864143106 L 7.075407780649278 -4.899687503833692 M 7.110642891159282 -4.931609232235756 L 7.361918875090038 -5.049414539370226 M 7.342912012644659 -5.059765146043642 L 7.350038855024944 -5.0632009681472505 M 7.332242067818193 -5.074095385132651 L 7.323794258408792 -5.069909472117974 M 7.304567851051763 -5.079846329703094 L 7.461528985724701 -5.159748042124726 M 7.766280240621945 -5.341043625124411 L 7.285235041966063 -5.089574555203216 M 7.265798095003714 -5.099093009453157 L 7.56164061003868 -5.257845941912331 M 7.956841897006177 -5.49967027036268 L 7.24625928621118 -5.108400577851733 M 7.226620903562839 -5.117496170492274 L 8.503296082142375 -5.83858730178034 M 8.549809242698593 -5.904175340792609 L 7.206885246693064 -5.126378722290253 M 7.187054626626937 -5.13504719310801 L 8.947250939309011 -6.180118728887171 M 9.02727835265474 -6.27531726404648 L 7.167131365509636 -5.14350056787654 M 7.147117796334512 -5.1517378567143695 L 9.461092462358295 -6.594227764824943 M 9.355883193342528 -6.582914205282726 L 7.1270162626698905 -5.159758095043464 M 7.106829118384653 -5.167560343702177 L 9.389182014638392 -6.659878361932224 M 9.610652709754302 -6.864794875358253 L 7.086558727372597 -5.17514368905523 M 7.066207463275623 -5.182507243100696 L 8.999533319241932 -6.507211164185323 M 8.74213647370481 -6.379163250466907 L 7.045777709205784 -5.189650143573985 M 7.025271857466235 -5.196571554048811 L 8.678217179926419 -6.382529624867375 M 8.471958264887007 -6.280247549165307 L 7.004692309271087 -5.203270664035136 M 6.984041474464226 -5.2097466890740876 L 8.302879153431086 -6.199913971335817 M 8.078617341631194 -6.072376511485327 L 6.963321771237132 -5.215998870829803 M 6.942535625845704 -5.222026477178241 L 8.140482806017328 -6.162647854434675 M 8.319756121322397 -6.350252900040248 L 6.921685472326149 -5.227828802292911 M 6.90077375220996 -5.23340516672752 L 8.620397964541645 -6.644856707311145 M 9.01727614065963 -7.032234456567796 L 6.8798029142380175 -5.238754917495537 M 6.858775414073841 -5.243877428146659 L 8.7604036920239 -6.874855992370906 M 8.579539411301683 -6.775731389104731 L 6.837693714016031 -5.24877209884017 M 6.816560282709943 -5.253438356415171 L 8.94050716105046 -7.156397574456057 M 8.582677193728816 -6.894423499174222 L 6.795377594858611 -5.2578756544577105 M 6.774148130932954 -5.2620834733647595 L 8.427826846810678 -6.809509801633781 M 8.365056532305312 -6.807715269267164 L 6.75287437688132 -5.2660613204050595 M 6.731558823838394 -5.26980872977682 L 8.651605861755531 -7.146053476839125 M 8.66856365680283 -7.228881078376644 L 6.710203967833473 -5.273325262662265 M 6.68881230949819 -5.276610507279018 L 8.886610631054202 -7.519280825089917 M 9.088619352532397 -7.8044126665416895 L 6.667386353773696 -5.2796640789283185 M 6.645928609617332 -5.282485620040072 L 8.954294590037835 -7.742279421383759 M 8.655120583196055 -7.496441472294951 L 6.624441589708827 -5.285074800214723 M 6.60292781015607 -5.28743131626194 L 8.89709891434012 -7.840650876052304 M 9.196883259147718 -8.264512659545666 L 6.581389790200483 -5.289554892236122 M 6.559830051922012 -5.291445279468711 L 9.24373733815063 -8.411670722942246 M 9.505555892132916 -8.819270526794474 L 6.538251119943792 -5.293102256597309 M 6.5166555211365225 -5.294525629591602 L 9.351947678485505 -8.738793487469326 M 9.338025384934621 -8.826503411387396 L 6.495045784322577 -5.29571523177608 M 6.473424439979867 -5.29667092384955 L 9.2923788749131 -8.876236081695279 M 9.155329186597355 -8.807892841210993 L 6.451794019945537 -5.297392593901458" /></g><g inkscape:label="1-layer" inkscape:groupmode="layer"><path style="stroke-width: 0.061553903616193055; stroke: red;" fill="none" d="M 3.526728081640657 -6.7257736873327145 L 3.526728081640657 -6.7257736873327145 M 3.510334092940861 -7.2051667758555435 L 3.502873704888994 -6.709242321142058 M 3.4792617259175307 -6.692366545385339 L 3.479480137648982 -7.1038568707300795 M 3.4516375413578424 -6.979805536093554 L 3.4558971169212036 -6.675149913752273 M 3.4327847980039476 -6.657596051709779 L 3.4168137567226124 -7.21798564293593 M 3.389079451026936 -7.124256541992922 L 3.409929636142615 -6.639708655738533 M 3.387336444162097 -6.621491492554565 L 3.384404970081945 -6.672404020343653 M 3.35541189911954 -6.735975295592587 L 3.3650099797218394 -6.602948398316068 M 3.3429549443139788 -6.58408327781558 L 3.369587481709796 -6.27709683353577 M 3.293277678689957 -6.840045076080188 L 3.321175982273308 -6.564900103657717 M 3.299677679799269 -6.545402915422626 L 3.2973405729587637 -6.565536809858341 M 3.249718637997032 -6.745347261515363 L 3.278464563990199 -6.525595818815327 M 3.2575411018900158 -6.505482984801144 L 3.1205122996302337 -7.4466148965621946 M 3.148137207346519 -7.038347833009936 L 3.2369116995475498 -6.48506864872738 M 3.216580701088723 -6.464357109431445 L 3.156405343989206 -6.807486128059735 M 3.1578166825598672 -6.64682926140602 L 3.196552387801764 -6.443352728335604 M 3.1768309772356575 -6.422059928528559 L 3.239171168061397 -6.118626768552961 M 3.1924368381796744 -6.241765722566183 L 3.1574206223120163 -6.400483193834028 M 3.1383254104505607 -6.378627067866556 L 3.158215266408657 -6.294307838395253 M 3.1886683620575877 -6.081406810197605 L 3.119549362708394 -6.356496153074714 M 3.101096432933251 -6.334095109771923 L 3.330567188962208 -5.4738335972890715 M 3.2193692903524767 -5.82834607952549 L 3.082970506930896 -6.311428655155089 M 3.0651754016468558 -6.288501562311254 L 3.183575279660221 -5.891299566017426 M 3.093799587161224 -6.118531202996599 L 3.0477148643626486 -6.265318659212489 M 3.030592571906686 -6.241884827699218 L 3.1275280976982143 -5.94811534643779 M 3.117417022139475 -5.918891274431929 L 3.0138121298800047 -6.218205002452206 M 2.9973770718970045 -6.194284169953413 L 3.268467154546005 -5.446397490285312 M 3.1978399353754448 -5.598728984874211 L 2.9812908588413416 -6.17012736743595 M 2.9655568781371375 -6.145739681823337 L 3.164011190392489 -5.644173913194947 M 3.0741558740359545 -5.820612055242393 L 2.950178443035658 -6.121126248658306 M 2.935158791917612 -6.096292251021356 L 3.121676390375244 -5.6621626865463055 M 3.003899736899976 -5.884641610927056 L 2.9205010876112105 -6.071242918439309 M 2.9062084167261473 -6.045983525784078 L 2.874423794015386 -6.1144170213945745 M 2.7708412516856056 -6.272358385950434 L 2.892283789003618 -6.020519392161885 M 2.878730136682533 -5.994855879793174 L 2.814983378419417 -6.122289194207537 M 3.0739325167440756 -5.567114110335511 L 2.8655503138820464 -5.968998392883428 M 2.85274709600054 -5.942952376485167 L 2.966021653253513 -5.732039038394159 M 3.014679242125363 -5.603083749193343 L 2.840323179131179 -5.9167233153513195 M 2.828281179494173 -5.890316732780258 L 2.8790523647504465 -5.80202886672095 M 2.987700760771104 -5.575990381340748 L 2.816623632885853 -5.863738189452703 M 2.8053529941446858 -5.836993282260754 L 3.044227418724974 -5.448169702376997 M 2.978954005601144 -5.519345114398766 L 2.7944716366343325 -5.810087643129305 M 2.783981851743873 -5.783026937830075 L 2.896430138669319 -5.6113674902398545 M 2.7227276758010075 -5.831494058194455 L 2.773885848405281 -5.755816864788515 M 2.764185752628272 -5.728463153883836 L 2.6481632214397735 -5.8948373073286655 M 2.6670728771787156 -5.823075112364476 L 2.7548836070526095 -5.700971565242416 M 2.745981370517965 -5.673347888024835 L 2.3041017444552754 -6.269354984235834 M 2.2274400858612724 -6.313073413809902 L 2.7374809176514283 -5.645597939206798 M 2.729384038472751 -5.617727562354201 L 1.8961886966517638 -6.675916901510993 M 1.6686351572179974 -6.887954499337642 L 2.721692438017403 -5.589742626392595 M 2.7144077359775274 -5.561649024371314 L 1.5684181812251006 -6.93325737593867 M 1.824992243018263 -6.559120068928523 L 2.707531466360871 -5.533452672222518 M 2.7010650771677467 -5.505159507515421 L 1.8581606577837875 -6.456486394566766 M 1.9725147584190799 -6.268747821940188 L 2.695009930086121 -5.476775488205961 M 2.689367300204868 -5.44830659138218 L 2.1907838036568488 -5.97915481747936 M 2.251031061503554 -5.867687013824904 L 2.6841383757452606 -5.41975881200557 M 2.6793242578107583 -5.391138161648658 L 2.0006135748091918 -6.0729904674255035 M 1.791021980254913 -6.225042113973488 L 2.6749259601551376 -5.362450667229097 M 2.6709444089690124 -5.333702369740512 L 2.1256546157062983 -5.850609973948552 M 2.0898999299385883 -5.836626406673043 L 2.667380442684803 -5.304899322980405 M 2.664234811800176 -5.27604759227534 L 1.9067754146955722 -5.95344941002322 M 1.5137541077888925 -6.24400408042782 L 2.6615081787200054 -5.247153253203715 M 2.6592011176168846 -5.218222390316371 L 1.8900283486963363 -5.866927461703439 M 1.5460617333385542 -6.099204978605072 L 2.657314114310217 -5.189261095855306 M 2.6558475661639123 -5.160275468470783 L 1.9362533637769175 -5.732271440399606 M 2.0081919037905465 -5.6301148267994705 L 2.6548017820027114 -5.131271611937072 M 2.6541769820471517 -5.102255633867128 L 2.090252274877791 -5.524399039476842 M 1.7116171927514885 -5.757553418550404 L 2.6539732978671955 -5.073233644426453 M 2.6541907723545224 -5.044211755046413 L 1.7144942630070563 -5.705988586893056 M 1.8388175396078101 -5.572332051011934 L 2.6548293597134993 -5.015196077137309 M 2.655888925470822 -4.986192720801434 L 1.9263111176154886 -5.468944131249423 M 1.7579032168292439 -5.533781684632561 L 2.6573692465038317 -4.957207793546408 M 2.659270011087504 -4.928247398999074 L 1.9100120454698715 -5.393335012425769 M 1.6051345049136514 -5.534043119665851 L 2.661590818960088 -4.899317635620185 M 2.6643311814073947 -4.870424595420212 L 1.5119337790952176 -5.540227766354462 M 1.3697230343856996 -5.570884775897982 L 2.667490521365709 -4.841574362676477 M 2.6710681735433104 -4.812773012651937 L 1.6530625359031725 -5.365582476806142 M 1.3027626043713239 -5.503642985898944 L 2.6750633845605645 -4.7840266103158635 M 2.6794753131085747 -4.755341209066671 L 1.4307522409637974 -5.387224245754684 M 1.8146803895179944 -5.151035806131441 L 2.6843030301263404 -4.7267228494572135 M 2.6895455189964013 -4.698177557922756 L 1.523159580094595 -5.246479812775851 M 1.262026972649701 -5.3182043420408585 L 2.6952016757589123 -4.669711345511938 M 2.7012703093441184 -4.641330206620971 L 1.4728589507351124 -5.175833193361188 M 2.225515832520051 -4.814597404046291 L 2.707750141823167 -4.613040117731337 M 2.7146398086772137 -4.584847036151274 L 2.298142845196285 -4.7518708506924385 M 2.6468972444914867 -4.5855928758052 L 2.7219378590847625 -4.55675689876128 M 2.729642756227179 -4.528775620763935 L 2.5163849466284667 -4.607192327281027 M 2.3206863402188027 -4.647433414752821 L 2.7377528776123103 -4.500909094438283 M 2.746266515416152 -4.47316318789903 L 2.3553560765994863 -4.604157348946366 M 2.641676703399132 -4.481755999760255 L 2.755181876842477 -4.445543743860855 M 2.7644970845003654 -4.418056578408043 L 2.783534933282422 -4.412285821450533 M 3.210568530260849 -4.2653226601871825 L 2.7742101767995395 -4.390707479769739 M 2.7843191083634373 -4.363502207101078 L 3.4349026591485465 -4.186739833639773 M 3.8650684980624157 -4.062275400518634 L 2.7948217504599278 -4.336446489270405 M 2.805715891449572 -4.309546023652918 L 4.057593214688354 -4.008134056547993 M 4.106854346008886 -3.9919858625192988 L 2.816999237251357 -4.282806474930899 M 2.828669411825775 -4.256233473900859 L 4.2432836681255015 -3.958786570957019 M 3.944927837247699 -4.014337158939274 L 2.84072395767517 -4.229832616287807 M 2.85316033636124 -4.2036094615669 L 4.024423955942551 -3.9926222133326346 M 4.489338653741613 -3.9094028620459875 L 2.865975929039573 -4.177569531792745 M 2.8791680370111274 -4.151718310436555 L 4.913445957604593 -3.845927246262563 M 4.332947255113622 -3.9308963422666325 L 2.8927338822905186 -4.126061241231451 M 2.9066706081910056 -4.1006037270261215 L 3.8733556198059254 -3.983865769188195 M 4.686313611895038 -3.8881145169227653 L 2.920975279926054 -4.075351128647095 M 2.935644885227336 -4.050308763769862 L 5.009792030094447 -3.8607119354345536 M 4.91814116623615 -3.8743901233938907 L 2.9506763349790552 -4.025481905799079 M 2.966066463868451 -4.000875782758102 L 5.378098927770019 -3.8508152141172425 M 5.3580782695586215 -3.8632479508068274 L 2.981812031052343 -3.9764955761880714 M 2.9979097208395955 -3.9523464200567835 L 5.546813160245662 -3.867920633298879 M 5.91628881836828 -3.8744546785844864 L 3.014356143389322 -3.9284333996775906 M 3.0311478354247248 -3.90476155063853 L 5.515141446730807 -3.894608588944493 M 5.16719767277975 -3.903424556083473 L 3.048281260962384 -3.881335857741939 M 3.0657528120568647 -3.8581612539547576 L 5.5547538357902635 -3.9202389229819543 M 5.440925971012458 -3.9282821974757853 L 3.0835588095604765 -3.8352426193697466 M 3.1016955038980236 -3.8125847801778416 L 5.184957456054751 -3.9251038719885942 M 4.778355514476311 -3.9039070859391947 L 3.120159075856391 -3.7901925076518546 M 3.1389456373887894 -3.768070517141746 L 4.784796893675515 -3.9049601461724133 M 4.341314648105055 -3.861950285713481 L 3.1580512324334977 -3.74622346708167 M 3.1774718377469293 -3.7246559580089977 L 3.5612169237199565 -3.7678177755947537 M 3.6023134950427678 -3.7549006568174024 L 3.197203363750843 -3.703372531595547 M 3.217241655393523 -3.6823776696911965 L 3.450952484780049 -3.715557576100868 M 3.272167465441254 -3.667098906743476 L 3.2375824930247505 -3.661675793380099 M 3.258221593284369 -3.641271262049699 L 3.2785204094532863 -3.6447567459940275 M 3.604818572440905 -3.681965417037732 L 3.2791546100042765 -3.621168372472727 M 3.3003771351236373 -3.6013713579023934 L 3.2192551613883387 -3.585005363061499 M 2.9029313844868265 -3.491016326850612 L 3.3218846996171267 -3.5818843871809536 M 3.343672774436018 -3.5627115638618303 L 2.9633968753727626 -3.4744357505709296 M 2.945670403691667 -3.439897865066114 L 3.365736771461906 -3.543856925345499 M 3.388072044472865 -3.5253244420292846 L 2.5796970269165502 -3.312770853787673 M 2.6323190373832785 -3.290334812554265 L 3.410673890121857 -3.5071180164712863 M 3.4335375489271542 -3.4892414825685716 L 2.670603635308184 -3.2647738733622202 M 2.284134336170711 -3.108154429026614 L 3.4566582062745823 -3.4716986047498457 M 3.4800309934313853 -3.454493077182735 L 2.2572284578748976 -3.0558200619989493 M 1.8340285936908547 -2.8663443941727174 L 3.503650988571482 -3.43762852299587 M 3.5275132178118938 -3.4211084935159337 L 1.9289551380997423 -2.8480955389728226 M 2.116964118887215 -2.867059473481503 L 3.551612656260145 -3.4049364675198257 M 3.575944229072405 -3.389115850502098 L 2.384348548151472 -2.922532273596012 M 2.325550600865658 -2.852965595158426 L 3.6005028125221386 -3.3736499739578347 M 3.6252832350790607 -3.3585420946811064 L 2.157483171720927 -2.734097148917014 M 2.743846139097417 -2.942539889706103 L 3.6502802784981556 -3.3437953940791516 M 3.675488678918531 -3.329412977502444 L 2.1386473192586655 -2.622245641557447 M 1.6342060190884204 -2.327833210283063 L 3.700903127971872 -3.3153978735907685 M 3.72651827390028 -3.3017530336354524 L 1.6461062896401835 -2.270289844941104 M 1.4553040553557226 -2.107791161874944 L 3.7523287226832442 -3.2884813309578798 M 3.778329039173505 -3.275585560304437 L 1.411823905413133 -2.0154378090078735 M 1.756805299276353 -2.1342369786820012 L 3.8045137482415847 -3.263068437257992 M 3.8308773359287445 -3.250932597666049 L 1.6345853899876626 -1.9982970808323985 M 1.279996498702435 -1.7191875117881805 L 3.8574142506080973 -3.2391805970856935 M 3.8841189041536746 -3.2278149102454488 L 0.9873474854360826 -1.462338571495751 M 1.2057383202194094 -1.5137652137257303 L 3.91098567311717 -3.216837930524142 M 3.9380088999121203 -3.206251969446914 L 1.2563073555567459 -1.4631588409136087 M 1.6522933105266127 -1.6444902917559026 L 3.965182894005272 -3.196059256198457 M 3.9925019331148937 -3.1862619371535956 L 1.3831692090472791 -1.3803792114948799 M 1.0624822588884149 -1.0659102872830948 L 4.019960264415774 -3.176862075425304 M 4.047552105750641 -3.167861650430257 L 1.4286132058264212 -1.2405768636876209 M 1.196644625967573 -0.9757772910666849 L 4.075271646847765 -3.1592625574720063 M 4.103113050544494 -3.151066607341868 L 1.4917687850921895 -1.109954019422514 M 2.4658077820055926 -1.8022727221000445 L 4.131070454016421 -3.1432755259376073 M 4.159137970011985 -3.1358909539000024 L 2.472647873888077 -1.7369702830485234 M 2.4606848451673313 -1.6538886642192772 L 4.187309688092205 -3.1289144462673546 M 4.215579675875296 -3.122347472148034 L 2.8331924133391135 -1.9062592267172946 M 2.616098630849681 -1.6417269935175587 L 4.243941980285898 -3.1161914144111136 M 4.272390628808677 -3.110447569395167 L 2.911220488369945 -1.8410900198601017 M 2.889161847507343 -1.749753048149756 L 4.3009196307460185 -3.105117146635284 M 4.329522978479534 -3.1002012686083686 L 2.7184268271481855 -1.5078952281360716 M 2.5305073464802903 -1.2361333346940861 L 4.358194648735147 -3.0957009704967695 M 4.386928603851471 -3.091617199970291 L 2.505691353348204 -1.1211691672400523 M 2.452888234114175 -0.9713812987423838 L 4.415718793051216 -3.087950816986633 M 4.444559153715349 -3.084702593610304 L 2.6491468960370756 -1.091415183583022 M 2.6791745781040888 -1.0307684138586715 L 4.473443612659771 -3.081873213850037 M 4.502366087414197 -3.0794632735147527 L 3.0174792439910445 -1.3314781080716038 M 3.1934575518758708 -1.4554358910244942 L 4.531320487502986 -3.077473280088096 M 4.560300715727694 -3.0759036526215686 L 3.0743164117845803 -1.2200635349950617 M 3.4204942592360204 -1.5708162744045564 L 4.589300669451001 -3.074754721646285 M 4.618314241881803 -3.074026729103372 L 3.264592850689601 -1.278986739115934 M 3.181360985331262 -1.069998151139361 L 4.647335323361176 -3.073719828293018 M 4.676357802648953 -3.073834083842193 L 3.125069692730797 -0.8876253026950112 M 3.2196147300992677 -0.914776705896597 L 4.705375568210608 -3.074369471691039 M 4.7343825095042344 -3.075325879097937 L 3.4329171259297784 -1.1235526364116033 M 3.549545480777507 -1.197851771951414 L 4.763372518267291 -3.0767031046632454 M 4.792339489802881 -3.078500858371716 L 3.5974999788917597 -1.1688011431124623 M 3.6667518583523586 -1.174482023777313 L 4.821277324265263 -3.080718761653559 M 4.850179927944369 -3.083356347464166 L 3.788070492856119 -1.2708636428594 M 3.710673689338168 -1.0245719272210971 L 4.879041214549008 -3.0864130603824593 M 4.907855106488503 -3.089888256727851 L 3.940952295993666 -1.324326794354032 M 4.003321536425942 -1.3292861744637192 L 4.936615536152518 -3.09378120469579 M 4.965316447188771 -3.0980910845118643 L 4.030007000999284 -1.2659424210869035 M 4.138151645986265 -1.3645821380074328 L 4.993951795778369 -3.1028169886044283 M 5.022515551908516 -3.1079579217957196 L 4.075546280489922 -1.1119694635807313 M 4.179650432620407 -1.2059123619899377 L 5.051001700642312 -3.113512801511421 M 5.079404243385371 -3.1194804580086313 L 4.004543857970918 -0.6730226324243969 M 3.8409827768921123 -0.1251827701265391 L 5.107717199148994 -3.125859634622186 M 5.135934605809658 -3.1326489880292874 L 3.78441570210457 0.20315884711904086 M 3.781755357507288 0.4194766691468659 L 5.164050521364507 -3.139847088532378 M 5.192059025182607 -3.1474524203602083 L 3.839023843685935 0.4921729788211713 M 4.136678819841198 -0.106746525532873 L 5.219954219251719 -3.155463381987024 M 5.247730229420306 -3.163878286469817 L 4.368901086936502 -0.5719271545010463 M 4.424142566031413 -0.536948579746281 L 5.275381206634485 -3.1726953618035583 M 5.302901328169735 -3.1819127512943464 L 4.3700678236694515 -0.14344395217889483 M 4.4391293724931 -0.13121938615985895 L 5.330284798857039 -3.1915285139503906 M 5.357525852303228 -3.2015406248907414 L 4.468233091138423 0.02613632392311116 M 4.449348474779944 0.38567520330917393 L 5.384618752105251 -3.2119469757716876 M 5.411557793058163 -3.2227453752307347 L 4.548365074243694 0.30720526432386963 M 4.720321366730757 -0.10133842946191818 L 5.438337302356514 -3.2339335493480554 M 5.464951640788918 -3.245509142125334 L 4.878113038523191 -0.5030642297902177 M 4.960254028891965 -0.5864550238554891 L 5.491395203925564 -3.2574697159818857 M 5.517662423298393 -3.2698127522679687 L 5.023291180352797 -0.5802463111910443 M 5.11852691835398 -0.7641686474033627 L 5.543747767573697 -3.2825356517951536 M 5.569645743716901 -3.2956357353836587 L 5.231651851177853 -1.1002727521644133 M 5.241180110209256 -0.763586130643993 L 5.595350898149297 -3.309110244426534 M 5.620857817896441 -3.3229563414705665 L 5.353090294993988 -1.1699840193166584 M 5.481304592970259 -1.833837730837929 L 5.646161131728013 -3.337171110813781 M 5.6712555112889005 -3.3517515591194385 L 5.536777548146396 -1.9361491150808068 M 5.538070076690469 -1.4000608063291156 L 5.696135672221229 -3.366694616046365 M 5.720796375277139 -3.3819971348955002 L 5.6270051250890205 -1.9562612388030118 M 5.650774385472451 -1.5536023839250912 L 5.745232427422065 -3.397655893272531 M 5.769438682928291 -3.4136675937664602 L 5.723014230319092 -2.148119592898728 M 5.776977430221646 -2.6884509650030117 L 5.793410044458513 -3.4300288646439716 M 5.817141464139251 -3.4467362605594483 L 5.814786274320036 -3.1386278490447155 M 5.841184602449332 -3.3827318658283922 L 5.840627944623822 -3.463786263280493 M 5.863864540144682 -3.481175282428796 L 5.86269985074807 -3.5356449812003707 M 5.860651243542521 -4.228447126496706 L 5.886846357554883 -3.498899656236183 M 5.909568557358497 -3.516955652315726 L 5.8947595259442025 -3.81052492186168 M 5.914614426970324 -3.803195305996918 L 5.932026354729696 -3.535339468447696 M 5.95421502052034 -3.554047233380232 L 5.935543415429714 -3.788637442240092 M 5.9108818296046435 -4.26562837305541 L 5.976129882255838 -3.573075007644549 M 5.997766325119084 -3.5924187843845097 L 5.988335030981961 -3.6790436677983296 M 6.024617513936082 -3.567588384955902 L 6.0191197929222255 -3.612074490200382 M 6.040185789066114 -3.6320379860066154 L 6.095954622907687 -3.228919407190984 M 6.0473495532615775 -3.7411664740010524 L 6.060959877487196 -3.6523050679034497 M 6.08143768359165 -3.672871468062162 L 6.012829813446564 -4.0811312619432085 M 6.006297831869454 -4.214567328025377 L 6.10161489517659 -3.693732855623789 M 6.1214872633381265 -3.714884837611115 L 6.028175967586769 -4.186042515599629 M 6.087410673758669 -3.987950374413561 L 6.141050603366097 -3.736322959853745 M 6.160300795625277 -3.7580427079260526 L 6.000158884434001 -4.459216740880149 M 5.916716868588976 -4.857202617155046 L 6.179233786422894 -3.780039508097832 M 6.19784558886225 -3.802308728297433 L 6.039773506692276 -4.412294910166901 M 5.983148273102521 -4.673028853063692 L 6.216132283682278 -3.824845679087171 M 6.234090020082858 -3.847645614650832 L 5.9718096355448225 -4.750952070090004 M 5.984618875728536 -4.743115012270227 L 6.251715016535723 -3.870703733793044 M 6.269003561580756 -3.894015180950305 L 6.203916560842226 -4.096084618384439 M 6.183421126118472 -4.220745473616052 L 6.28595201460756 -3.917575047213467 M 6.302556806622088 -3.941378371361452 L 6.254979492250187 -4.075607806932027 M 6.345574438032299 -3.8932650791255674 L 6.318814440998207 -3.9654201409059833 M 6.334721494214006 -3.989695293147106 L 6.3479459501896285 -3.955564655645429 M 6.460341186291129 -3.7419261942124327 L 6.3502746165727215 -4.014198716239291 M 6.365470532908121 -4.03892525026789 L 6.477622798915465 -3.772679086485913 M 6.4740290196214385 -3.850099142351789 L 6.380306043274179 -4.063869688335695 M 6.394778023618917 -4.0890267776594085 L 6.517943255804162 -3.8188332485893564 M 6.717411819379134 -3.462780262737251 L 6.408883426442275 -4.114391220675779 M 6.422619281437839 -4.139957676157147 L 6.685601548008011 -3.6047604980608714 M 6.6638565986913925 -3.718488669336795 L 6.435982696118337 -4.165720760336198 M 6.44897085642473 -4.1916750480396825 L 6.823286652631964 -3.482658675561909 M 6.839095488293293 -3.5272028737527448 L 6.4615810273188 -4.217815073830838 M 6.473810553359087 -4.244135333160296 L 6.654086990275301 -3.9254214039278312 M 6.827908712035916 -3.685535770058124 L 6.485656859260073 -4.270630283525225 M 6.497117450434487 -4.29729434563648 L 6.568887547196063 -4.178586891478711 M 6.619440182922936 -4.14600438566381 L 6.508189913518607 -4.324121904593469 M 6.518871916880468 -4.351107311066543 L 6.616425382946486 -4.19984935704067 M 6.683475382466894 -4.14643433947806 L 6.529161211110859 -4.378244882486631 M 6.539055629496995 -4.405528904241864 L 6.764179540703204 -4.077760735429045 M 7.214363406282111 -3.4930913306241713 L 6.548553088478786 -4.432953630880958 M 6.557651588087593 -4.4605132873230895 L 7.204899066281216 -3.574400447509523 M 6.889845712573644 -4.058551027046234 L 6.566349212367376 -4.48820207007401 M 6.57464412977816 -4.5160141484481295 L 6.927026515357694 -4.061865927433968 M 6.799896713266321 -4.272048609827334 L 6.582534593581713 -4.543943665796352 M 6.59001894220938 -4.571984740739361 L 6.8207831583422 -4.291761195517446 M 7.027569226038175 -4.092586787754274 L 6.597095599611968 -4.600131468406113 M 6.603763075591634 -4.628377921677283 L 7.00734988929804 -4.166297422228296 M 7.272559840674092 -3.9200094960570775 L 6.610019966115692 -4.656718152433399 M 6.615864953612267 -4.685146192807382 L 7.199096169207459 -4.055253290601162 M 6.920281965916388 -4.400005497940857 L 6.6212968072477505 -4.7136560564412635 M 6.626314383185992 -4.742241739746789 L 7.499546826293394 -3.8523968161441284 M 7.433287889431502 -3.976651728784732 L 6.630916624829165 -4.770897223169648 M 6.635102563040264 -4.799616472457065 L 7.338505793745055 -4.12326108323081 M 7.156504502512755 -4.344923421794227 L 6.638871316347183 -4.828393439928489 M 6.642222091128341 -4.857222065749119 L 7.283379896339575 -4.275568836008641 M 7.441565674729709 -4.184394408438331 L 6.645154181779796 -4.886096279205966 M 6.6476669708638365 -4.915009999986228 L 7.34033216533759 -4.322347351196047 M 7.301446699056936 -4.402537277362889 L 6.649759929238996 -4.943957139457681 M 6.651432616171483 -4.97293160195081 L 7.441935134280762 -4.335343471490732 M 7.078857555780029 -4.668283270493314 L 6.652684679427987 -5.001927286042441 M 6.653515855349855 -5.030938085840564 L 6.998888114614005 -4.768545018373244 M 6.8755576544783 -4.896593113587713 L 6.6539259689086085 -5.059957892270118 M 6.653914933742808 -5.088980594359431 L 6.927888252171052 -4.893106122275081 M 7.202774505494108 -4.737211946347636 L 6.653482752176229 -5.118000080527062 M 6.652629515217381 -5.1470102398687825 L 7.257466813597327 -4.740582596494335 M 7.108254576834336 -4.878517905182172 L 6.65135540254034 -5.176004963444393 M 6.649660682446912 -5.204978145564153 L 7.620123096479791 -4.592976744195256 M 7.503868481394505 -4.711114147479043 L 6.647545711810134 -5.233923685074508 M 6.645010935999128 -5.262835486642859 L 7.1338453656561525 -4.974041101218253 M 7.113957777558524 -5.0220772944300185 L 6.642056888785308 -5.291707462041132 M 6.638684192229986 -5.320533531427811 L 7.326843615305386 -4.940477990242091 M 7.386384302053798 -4.948394865145964 L 6.634893556553377 -5.349307624628241 M 6.630685779985035 -5.378023682412882 L 7.081545747100034 -5.145835192404624 M 7.482825842526858 -4.981065210076989 L 6.626061748595775 -5.406675657773247 M 6.621022436111069 -5.43525751719529 L 7.280568904940476 -5.119466192357574 M 7.620174925230242 -5.000555142750714 L 6.615568903706015 -5.463763241929928 M 6.609702299781864 -5.49218682926047 L 7.9870001715453345 -4.881212713480095 M 7.989586983244227 -4.929536854113922 L 6.603423859724196 -5.520522293766671" /></g><g inkscape:label="2-layer" inkscape:groupmode="layer"><path style="stroke-width: 0.061553903616193055; stroke: green;" fill="none" d="M 2.0109171752496877 -5.554034692865518 L 2.0109171752496877 -5.554034692865518 M 2.0846254271642715 -5.188818161118865 L 1.9983429411599103 -5.539284470149695 M 1.985912243808404 -5.524413081631261 L 1.8749814702722638 -5.956896848398059 M 1.9083522671744728 -5.754029450179168 L 1.9736262506876106 -5.5094219240326385 M 1.961486115699334 -5.494312405324971 L 1.9363323850901948 -5.585034766438415 M 1.6969141000709056 -6.35693336458934 L 1.9494929790463666 -5.479085944595892 M 1.937647967125402 -5.463743971916241 L 1.648878762612935 -6.431960720901843 M 1.7992964126162674 -5.858399130599526 L 1.9259521924212424 -5.448287928205755 M 1.9144067534023137 -5.432719265097731 L 1.9192120657507392 -5.4176782497652365 M 1.8871728739179254 -5.465010742974786 L 1.9030127344174992 -5.417039444802695 M 1.8917712055942957 -5.401249939971067 L 1.726351740545243 -5.886383335301126 M 1.6676545645642604 -5.9908370845567465 L 1.8806832227383072 -5.385352233554849 M 1.8697498272340842 -5.369347818668351 L 1.7110331077631855 -5.806873179205305 M 1.660627190676102 -5.883904511566218 L 1.8589720459473165 -5.353238198447951 M 1.8483508911283895 -5.337024885910924 L 1.5075375198883179 -6.222596372545315 M 1.7249789046460868 -5.605817367151015 L 1.8378873603173136 -5.320709403813339 M 1.8275824362500355 -5.304293284507043 L 1.7520813856152768 -5.489674419234423 M 1.6620895315984534 -5.658873708649505 L 1.8174370867661398 -5.287778069795737 M 1.8074522647179483 -5.271165310790174 L 1.3824874963448104 -6.259329087239902 M 1.3118302958983896 -6.354576211313507 L 1.7976289078810288 -5.254456567762482 M 1.7879679388661192 -5.237653409999611 L 1.093712976648166 -6.7694869518129215 M 1.0661107313486022 -6.752871174275 L 1.7784702650324755 -5.220757415655962 M 1.7691367784026526 -5.203770171605149 L 1.0377334769971807 -6.73777876843188 M 0.9278389403049129 -6.889287118203926 L 1.759968355578725 -5.186693273290976 M 1.7509658576599574 -5.1695283245775805 L 0.9546959475992518 -6.759505380720148 M 1.0681040495728853 -6.466200389280056 L 1.7421301301619292 -5.152276937598803 M 1.7334620029371233 -5.134940732606778 L 0.9637142153711786 -6.600316230363554 M 0.8158548091746838 -6.8081935877979705 L 1.7249622900969876 -5.117521337819755 M 1.7166317899354722 -5.1000203892691784 L 0.8319183302743641 -6.707775322855437 M 0.8519818955228443 -6.603808690431171 L 1.7084712848540544 -5.082439530646031 M 1.7004815412882548 -5.064780413146459 L 0.8395407747336098 -6.559972861810334 M 0.8208394217455901 -6.527765960178018 L 1.6926633096356545 -5.047044695316689 M 1.6850173241854167 -5.0292340428972615 L 0.5585786066400631 -6.900676115053695 M 0.46304323039313244 -6.985539551804037 L 1.677544303049323 -5.011350128666578 M 1.670244948094327 -4.993394632283801 L 0.6984155403468321 -6.539344523612659 M 0.5565824093391774 -6.698320936177097 L 1.6631199448766374 -4.975369240131095 M 1.656169962577327 -4.957275645155242 L 0.6534129090167817 -6.485849179139076 M 0.6246628567709036 -6.46866016062859 L 1.6493956539394865 -4.939115546708642 M 1.6427976552069163 -4.9208906503897065 L 0.38408349157367017 -6.76086647117795 M 0.7016816719603195 -6.240911808642273 L 1.636376586064372 -4.902602667882673 M 1.6301330495793627 -4.884253316796836 L 0.728496771521649 -6.148940877837369 M 0.6775783213252694 -6.166590075974057 L 1.624067632145511 -4.865844320505238 M 1.618180903427479 -4.847377407982804 L 0.6687009307912557 -6.126001244888288 M 0.1653329217714119 -6.738705179775975 L 1.6124734163074654 -4.828854313643958 M 1.6069457068332786 -4.810276777179724 L 0.05535380545336843 -6.817268900299844 M -0.2600912279956358 -7.152117701270247 L 1.6015982941679907 -4.79164654339434 M 1.5964316805411785 -4.772965362041381 L -0.5669725850882545 -7.461976574573933 M -0.36136982240786986 -7.133903167221483 L 1.5914463512017532 -4.75423498765942 M 1.5866427743723859 -4.735457179407249 L -0.011199319322076962 -6.644528323731943 M -0.010695878110685841 -6.582539953031422 L 1.5820214012055327 -4.716633700898652 M 1.5775826657410619 -4.697766320036768 L 0.010561789895323415 -6.49794266192525 M 0.31520556303675695 -6.096199572100459 L 1.573326984865489 -4.678856808848051 M 1.5692547582728225 -4.65990694331584 L -0.03416181807421803 -6.431363061617363 M -0.024794762705792506 -6.363870710722812 L 1.5653663684270247 -4.640918503213555 M 1.5616621805260915 -4.62189327193755 L -0.19291278574276882 -6.486405507180647 M -0.3049806267021613 -6.544639886360894 L 1.5581425424677509 -4.602833036339603 M 1.5548077848167912 -4.583739586559108 L -0.42066790220111283 -6.603101040846816 M -0.5348768777155823 -6.6565563591113985 L 1.5516582207740115 -4.564614715854934 M 1.548694146146808 -4.54546022043701 L -0.32312609866026865 -6.38610477666335 M -0.4027757360283639 -6.405716216555622 L 1.5459158393213905 -4.526277899297617 M 1.543323561236637 -4.507069554042436 L -0.3449102670031323 -6.293203447918396 M 0.07948653192383115 -5.843652940088536 L 1.5409175553595857 -4.487836988721332 M 1.5386980476625693 -4.468582009658924 L -0.3202367332035565 -6.15995138221912 M -0.3291939582165315 -6.114211831092103 L 1.536665246601991 -4.449306425284926 M 1.5348193430987465 -4.4300120459643155 L -0.359497589434004 -6.087616724291889 M -1.0175648901210772 -6.5994076281318605 L 1.5331605105202926 -4.410700683827283 M 1.5316889046643647 -4.391374152599054 L -0.5338067872928542 -6.129248684247676 M -0.5446194541980858 -6.083856819717819 L 1.5304046637443443 -4.372034267429532 M 1.5293079083762775 -4.352682844722828 L -0.7520096425486105 -6.197828378650504 M -0.5084903897993263 -5.948371395770646 L 1.528398741567547 -4.333321701966657 M 1.5276772487071986 -4.313952657561644 L -0.6895909599328798 -6.037293182839938 M -0.8422586485270787 -6.099602159670616 L 1.5271434975579192 -4.294577530650534 M 1.5267975382496748 -4.2751981409473485 L -0.9739326646603095 -6.142248610291929 M -1.1440816434976169 -6.209760535114081 L 1.5266394032750012 -4.255816308566462 M 1.526669107485952 -4.2364338538516755 L -1.3656053198714095 -6.309738719057786 M -1.0653144060838182 -6.037482492458448 L 1.5268866480927048 -4.217052597205231 M 1.5272920046638223 -4.197674358916853 L -1.1615966309834866 -6.047356477707442 M -0.4986902474514645 -5.543635709417388 L 1.5278851391281711 -4.178300958992777 M 1.5286659957784985 -4.158934216984826 L -0.3575060211579777 -5.403272350218018 M -0.44604995870494535 -5.415660493478143 L 1.529634501276663 -4.139575951819502 M 1.5307905646605235 -4.12022798162717 L -0.2674490680282542 -5.257157145122516 M -0.23077511324206057 -5.191714424403861 L 1.5321340773524819 -4.100892123571281 M 1.5336649131696807 -4.081570193677719 L -0.2778769971271793 -5.1783507400409645 M -0.6704017857054816 -5.36869181828952 L 1.5353829283358538 -4.062264006664232 M 1.5372879614948312 -4.042975375769995 L -0.6510019329109105 -5.3105574778808995 M -0.856425997544052 -5.380656313572956 L 1.5393798337256923 -4.023706112585309 M 1.5416583485595705 -4.004458026881459 L -1.4202523274556174 -5.644334764822125 M -1.8455361612845391 -5.81924285368987 L 1.544123291998106 -3.98523292644074 M 1.5467744325335442 -3.9660326168866655 L -1.772247987555748 -5.720457355954169 M -1.8619497081444696 -5.708113145958112 L 1.5496115211704786 -3.946858901514388 M 1.5526342914492377 -3.9277135811213313 L -1.2797337512242424 -5.3553600924686515 M -0.9805112256988924 -5.1563632071104575 L 1.5558424594709095 -3.9085984538380605 M 1.5592357239240058 -3.889515314959399 L -1.3659542934213729 -5.293525210557493 M -1.6335544351596585 -5.366695987389984 L 1.5628137661127621 -3.8704659567758166 M 1.5665762499870681 -3.8514521684050966 L -1.3650804368479672 -5.189288212962236 M -1.4356443134580554 -5.16926728063587 L 1.5705228221740315 -3.832475735624302 M 1.5746531120111649 -3.813538440702054 L -1.6378070005097451 -5.204934685291867 M -1.4110776464466763 -5.055433894319996 L 1.5789667315811995 -3.7946420622311416 M 1.5834632757485183 -3.775788374961478 L -1.6518156286636168 -5.103207023346252 M -1.0187240251008538 -4.797162443612281 L 1.5881423221972064 -3.756979149633412 M 1.5930034314707144 -3.7382161528114235 L -1.5318570270240233 -4.950116386950049 M -1.145434344944516 -4.753019261317016 L 1.5980461470131333 -3.7195011467182058 M 1.603269995212073 -3.7008358890691575 L -0.682841746669608 -4.536846721114312 M -0.7482723785101271 -4.5183309287920945 L 1.6086744854431452 -3.6822221329072975 M 1.6142591101160422 -3.6636616264386204 L -0.8370069270039489 -4.506574836357471 M -0.23191188405324836 -4.261974522609549 L 1.62002334472221 -3.6451561128679035 M 1.6259666478841106 -3.626707330234985 L 0.23630926252523166 -4.074642385198222 M 0.46257873699080476 -3.9728177215685343 L 1.632088461406067 -3.6083170112515273 M 1.6383882103266905 -3.5899868831382804 L 0.5922939349390217 -3.9049331170566104 M 0.6166365199649735 -3.8704493536359266 L 1.6448653029728804 -3.571718667462862 M 1.651519131015394 -3.553514079978066 L 0.4625415288441894 -3.88648640519502 M 0.6492706121295111 -3.807448523793659 L 1.6583490695259813 -3.53537483046072 M 1.6653544770360778 -3.517302622551103 L 0.5150322564292609 -3.815531551263419 M 0.13282014779210827 -3.8825953747410558 L 1.6725346955970513 -3.499299153592939 M 1.6798890508419975 -3.4813661144739814 L 0.1727423477480161 -3.8410804162325114 M 0.1046879525654445 -3.8250833596034344 L 1.687416852049075 -3.463505189467206 M 1.6951173922063798 -3.4457180560726233 L -0.12938470175690076 -3.8439658314027967 M -0.004028046674468433 -3.7833146835224936 L 1.7029899480783464 -3.4280063848597284 M 1.7110337802736748 -3.4103718393105984 L -0.007801492780973529 -3.750794901092901 M -0.21460851640595924 -3.7563851056645094 L 1.7192481333147744 -3.392816075663662 M 1.727632235708718 -3.3753407427581403 L -0.456920532812483 -3.7641609461326926 M -0.4375855817744805 -3.7231514189846697 L 1.736185300019701 -3.357947481879193 M 1.744906522942997 -3.3406379266037645 L -0.3294939575599598 -3.6685090908708604 M 0.2777156175758535 -3.542076229091116 L 1.7537950853804052 -3.3234137026471613 M 1.7628501525171787 -3.306276427710362 L -0.21638099027013658 -3.57989980455574 M 0.16044532781969134 -3.4961341855828856 L 1.7720708739004314 -3.2892277113280834 M 1.7814563835190131 -3.2722691547176157 L 0.03765649083538314 -3.4789872790941754 M 0.25946686454101164 -3.421923730852513 L 1.7910057998848437 -3.255402350628431 M 1.8007182261157044 -3.238628883192596 L 0.0025569972324894774 -3.4165251282887055 M 0.9087226359171374 -3.3023567809944665 L 1.8105927500194718 -3.221950327775988 M 1.820628444179792 -3.205368250830338 L 0.8343875651930108 -3.2836709101945423 M 0.6368335909120959 -3.272045538930014 L 1.8308243660431824 -3.1888842097461083 M 1.8411795580075578 -3.1724997527062224 L 0.9967242591217043 -3.223097712868451 M 1.0810119673330596 -3.1949024025804156 L 1.8516930475121676 -3.1562164185406596 M 1.8623638471289392 -3.140035736581927 L 1.218840421386251 -3.1660893367576586 M 1.0725807582012097 -3.148603772252524 L 1.8731909546552172 -3.1239592265214275 M 1.8841733532078904 -3.107988398266726 L 0.9339071458424065 -3.1280241274640033 M 0.9621392055679787 -3.1027539642856965 L 1.8953100113188974 -3.0921247517997417 M 1.9065998830321027 -3.0763697770358673 L 1.0164862905976066 -3.077881775471836 M 1.4857275314985667 -3.0572695553766565 L 1.9180419080015327 -3.0607249536840406 M 1.9296350115909633 -3.0451917511077635 L 1.3969399601277082 -3.035770644545801 M 1.3964929271196667 -3.014851574536726 L 1.9413781049748497 -3.0297716281871034 M 1.9532700852405904 -3.014466033181676 L 1.085064746389289 -2.9822699967184776 M 1.25806435757359 -2.9661830918868786 L 1.9653098354921108 -2.999276403594621 M 1.9774962249547638 -2.984204166037593 L 1.4069250481027178 -2.951961737520967 M 1.4838234791885583 -2.935734561136535 L 1.9898281090815315 -2.9692507360967766 M 2.0023043296605216 -2.9544175181999304 L 2.131376238589821 -2.9642240464770206 M 1.8270367571913808 -2.9235979893373285 L 2.014923714923746 -2.939705905484485 M 2.0276850796571746 -2.9251172796667007 L 1.6888625456767823 -2.8927587498208855 M 2.2864417180787253 -2.936539502878578 L 2.0405872253120503 -2.9106530109118927 M 2.0536289401174552 -2.896314457705749 L 2.0375374640794357 -2.894462313432883 M 2.185545098118272 -2.896936893011789 L 2.066808999194124 -2.8821029667267397 M 2.0801261646694797 -2.868019872719636 L 2.357835364546129 -2.905451372893779 M 2.4708692592324395 -2.9086480101300163 L 2.0935791857938995 -2.854066498370152 M 2.107166799058183 -2.8402441541807173 L 3.365347943014795 -3.034728181986216 M 2.9555283836772714 -2.963863854924954 L 2.120887728312221 -2.8265541383473947 M 2.1347406848848527 -2.8129977366379544 L 2.6340630412170043 -2.9001211735740005 M 2.2348573346665086 -2.8154666263286523 L 2.1487243677048955 -2.799576222271112 M 2.1628374634233465 -2.78629085579695 L 2.357132173617998 -2.824086284374648 M 1.935516221191578 -2.723718343221487 L 2.1770786465367262 -2.7731428849785265 M 2.1914465795115756 -2.7601335446746846 L 2.9360458668258254 -2.920014616068801 M 3.235636559423909 -2.9788227636457822 L 2.205939912910073 -2.7472640567240747 M 2.2205572855167786 -2.7345356298303964 L 3.455815527283253 -3.0249256270239604 M 3.6378562491166964 -3.066046226154234 L 2.2352973244664716 -2.7219494594488847 M 2.2501586453730997 -2.7095067276740217 L 3.551893008450379 -3.0422747824841476 M 3.2202569564659984 -2.9512553653752076 L 2.265139852459792 -2.6972086031285265 M 2.2802395386899605 -2.685056240853584 L 3.043293838788485 -2.8959560528092014 M 3.3138820785264658 -2.9651851442926738 L 2.2954562858994354 -2.673050782200378 M 2.310788664929675 -2.661193354722884 L 3.5014430908488263 -3.015254939046014 M 3.5535945011696697 -3.0274457896632536 L 2.326235235761977 -2.649485072071975 M 2.3417945476527393 -2.637927033890824 L 3.4177002491298465 -2.980698412824758 M 2.8956927350931334 -2.803757062761016 L 2.357465139269702 -2.6265203257116303 M 2.373245538829206 -2.615266018853659 L 3.1262451172764285 -2.871341524446389 M 3.157824828894543 -2.8739156550715945 L 2.3891342642344133 -2.6041651703226316 M 2.4051298232145166 -2.5932188227114414 L 2.975575982508401 -2.799631502164655 M 2.7595975509884014 -2.70858583358223 L 2.421230713464881 -2.582428004102243 M 2.4374354227881545 -2.5717937279698875 L 3.4260204821826132 -2.9513335016513977 M 3.2788514518272986 -2.8873042310115915 L 2.453742429236279 -2.5613169930867423 M 2.470150201253447 -2.55099878342888 L 3.4669738198161246 -2.9560393735921253 M 3.7526373092951912 -3.069598949131292 L 2.486657197819931 -2.5408400680836705 M 2.5032618685968284 -2.5308418011587577 L 4.084787195857882 -3.209468159927811 M 4.188524255100421 -3.2562066289371305 L 2.51996265407166 -2.5210049216924553 M 2.536757985704848 -2.5113303535655467 L 4.516683660783924 -3.4067375865958804 M 4.684303568880563 -3.4903757588671227 L 2.553646286077024 -2.501819005414518 M 2.5706259690371907 -2.4924717705462176 L 4.865782028932081 -3.584504794842212 M 4.733515795296224 -3.5298912943425775 L 2.587695439851684 -2.483289526853957 M 2.6048530953539597 -2.4742731367350568 L 5.1053934086545345 -3.724027645233412 M 5.333008054728267 -3.853315450617952 L 2.6220973240951517 -2.465423447009855 M 2.6394265064954325 -2.4567412888421662 L 5.105683016739927 -3.749696084527768 M 4.992834718879758 -3.7019012652289214 L 2.6568390149961125 -2.448227477661229 M 2.67433321421251 -2.4398828130851076 L 6.101011787938315 -4.321899120243671 M 6.129624460308892 -4.36338591106683 L 2.6919074610875375 -2.431708078845606 M 2.7095601050460285 -2.423704042714647 L 6.251617812585239 -4.459425872529961 M 6.417968792887647 -4.584860209595686 L 2.727289488149749 -2.4158714564321713 M 2.74509394525312 -2.4082110556355296 L 6.190788845407855 -4.478409447997638 M 6.405387892975283 -4.6374381082469345 L 2.7629718041596 -2.4007235597903964 M 2.7809213857787483 -2.3934096721231906 L 6.533068919532537 -4.747884036669742 M 6.510818660033024 -4.765920813220746 L 2.7989410042839116 -2.3862700795550342 M 2.8170289672705726 -2.379305452637234 L 6.330628830888307 -4.680190264781103 M 6.222405674145774 -4.63784718730561 L 2.835183575915286 -2.372516445488305 M 2.8534031251352445 -2.365903695732533 L 6.192065935508836 -4.645893518456672 M 6.116455482703058 -4.621757228443284 L 2.87168590374841 -2.3594678244400913 M 2.890030194634239 -2.353209436068708 L 6.145572050253595 -4.670216934462394 M 6.073726092457401 -4.646441041339153 L 2.9084342748949417 -2.3471291184068983 M 2.92689641601731 -2.341227442518753 L 6.233848991092195 -4.792752278106836 M 6.011500710372683 -4.654848167556855 L 2.9454148840350483 -2.3355049626903126 M 2.9639879396916378 -2.329962216377501 L 5.895246387974371 -4.5923093920410905 M 5.93433101241456 -4.648728166765326 L 2.9826138386036773 -2.324599724155652 M 3.001290831424726 -2.3194179896706166 L 5.383326661333232 -4.232675407023891 M 5.735263481406765 -4.538941850798979 L 3.0200171640095967 -2.3144174995914577 M 3.0387910775791047 -2.3095987235647457 L 6.203545677766643 -4.954061071914707 M 6.206235103973395 -4.98819065106739 L 3.0576108088852525 -2.304962114170447 M 3.07647459037684 -2.300508106879417 L 6.586340877112978 -5.350792408903113 M 6.518267763384314 -5.329653633908614 L 3.095380650365468 -2.2962371200125036 M 3.1143272131919346 -2.292149554701255 L 6.266027004940741 -5.140242328327918 M 6.396104319685628 -5.294680870903845 L 3.1333124993930057 -2.2882457948502486 M 3.152334725868547 -2.284526207101032 L 6.739889559731839 -5.655076221605126 M 7.077066375116933 -6.02233653873078 L 3.1713921060489896 -2.2809911407976893 M 3.1904828500631224 -2.27764092795403 L 7.475552814056962 -6.4628025328504375 M 7.478695276573133 -6.525644372495032 L 3.2096051649061987 -2.274475883222409 M 3.228757254608339 -2.2714963038641676 L 7.73249090337273 -6.8441013232706815 M 7.236289791490813 -6.397323246251996 L 3.247937320403208 -2.268702469721723 M 3.2671435608969457 -2.2660946431922806 L 7.250507712731004 -6.470335500059977 M 7.477082126735361 -6.773500396955738 L 3.286374172237365 -2.2636730692031906 M 3.305627348283368 -2.2614379751889437 L 7.78519174660548 -7.176797178528431 M 7.523648019713592 -6.957263428491091 L 3.324901280774577 -2.2593895710698115 M 3.344194159501164 -2.257528049232131 L 7.4689578228905305 -6.9636309743093525 M 7.593299299480982 -7.177202191578924 L 3.3635041724738692 -2.255853584510235 M 3.3828295060941835 -2.2543663341700313 L 7.250446186370619 -6.843553366026147 M 7.23995450416418 -6.897460958020687 L 3.402168345324684 -2.2530664378942324 M 3.4215188738594935 -2.251954017769238 L 7.148680652479882 -6.8525539092002274 M 6.927921236432725 -6.641556306209122 L 3.440879274294875 -2.251029178273667 M 3.4602477282999256 -2.250292006268544 L 6.875952190188075 -6.637639063807581 M 6.967364955556498 -6.820318347966048 L 3.4796224167873495 -2.2497425709891434 M 3.4990015200843043 -2.249380924038487 L 7.130870628511975 -7.105706339945316 M 7.056368641691878 -7.076846831147896 L 3.518383218103309 -2.2492070993824953 M 3.5377656905131873 -2.249221113346799 L 7.257430624306355 -7.42931824805169 M 7.593866468226553 -7.987627102188821 L 3.5571471169100346 -2.2494229646152046 M 3.576525676988183 -2.2498126342298193 L 7.511612484186067 -7.960354982014603 M 7.475342868648813 -7.998626148467486 L 3.59589955071117 -2.25039008559283 M 3.6152669184826802 -2.2511552644699435 L 7.364849880022665 -7.924788826790266 M 7.568773198557588 -8.332305047558368 L 3.634625961317436 -2.2521080989954765 M 3.6539748610120375 -2.2532484996791062 L 7.537589185885351 -8.384825962668927 M 7.369999267273357 -8.218104555695703 L 3.673311800315728 -2.254576359414278 M 3.692634963101076 -2.256091553488261 L 7.40712928134251 -8.380091157152782 M 7.403185089705511 -8.47863116283656 L 3.711942534534543 -2.2577939395938644 M 3.7312327012469266 -2.2596833578428006 L 7.294470113186698 -8.399611975354656 M 7.426421523065707 -8.739657073369184 L 3.750503651503679 -2.261759630780703 M 3.7697535753750677 -2.2640225634037923 L 7.327998122019929 -8.678589334870455 M 7.133886160974646 -8.436664177530185 L 3.78898066490616 -2.2664719431771916 M 3.808183114286623 -2.269107540054888 L 6.944269386353081 -8.190351947019675 M 6.985180517422899 -8.376521822335132 L 3.82735912002033 -2.271929106501336 M 3.8465068810947485 -2.2749363775147105 L 6.9209319352278875 -8.362152792386834 M 6.716654694181943 -8.061644126539173 L 3.865624599150087 -2.278129070651792 M 3.8847104786481927 -2.281506886054496 L 6.540344357603132 -7.802935843361526 M 6.4940605863025835 -7.807028140897952 L 3.903762727041196 -2.285069506478033 M 3.9227795549398663 -2.2888165973207073 L 6.253554103422886 -7.385413734593957 M 6.139144712168058 -7.223457734147704 L 3.94175917628167 -2.292747806655342 M 3.960699808498514 -2.2968627652623304 L 5.9549565610264334 -6.891008358388232 M 5.956862085524875 -6.979776350816756 L 3.9795996726841674 -2.301161086664314 M 3.9984569937613417 -2.3056423671624815 L 5.856299597200857 -6.823290957377906 M 5.939421266816553 -7.116219860226309 L 4.0172700006484 -2.3103061858744844 M 4.0360369264257 -2.315152104773963 L 5.92077073266929 -7.163255294383808 M 6.0581840206089215 -7.625270634112824 L 4.054756008501535 -2.32017966873169 M 4.073425488777693 -2.3253884055583143 L 6.034154615818695 -7.673669923325411 M 6.0071986143900515 -7.715660958166505 L 4.0920436138145675 -2.330777826048709 M 4.110608634995836 -2.3363474240279185 L 6.064276283546814 -8.00286427484523 M 6.115998056472689 -8.291433707676244 L 4.129118808692699 -2.342096676398696 M 4.147572396427638 -2.3480250431906375 L 5.99152291500588 -8.052810299725357 M 5.963626034617155 -8.10557062217805 L 4.165967665037698 -2.3541319676108925 M 4.184302886837258 -2.3604168760964575 L 6.055035251066557 -8.555883938963323 M 6.0661569991637885 -8.761982463391018 L 4.202576339780298 -2.3668791783680465 M 4.2207863076221415 -2.3735182674855313 L 6.1002252453933 -9.063758799921157 M 6.021672598395343 -8.971010334544626 L 4.23893108008064 -2.3803335199049434 M 4.257008952996796 -2.387324295537037 L 5.992914723833575 -9.060780236718049 M 5.958661818652608 -9.134465985413424 L 4.275018228494827 -2.394489937807408 M 4.292957215141629 -2.4018297737181573 L 5.823759713033955 -8.792737683108165 M 5.7678927452358675 -8.76364442132591 L 4.310824228105638 -2.4093431139111035 M 4.328617589315057 -2.417029252732521 L 5.6524464443276505 -8.458441240909938 M 5.527241406308355 -8.075415802302285 L 4.346335627615474 -2.424887468299419 M 4.363976678926816 -2.4329170225673415 L 5.511883946809524 -8.204314463209434 M 5.324611739086811 -7.435139243698915 L 4.381539086399634 -2.4411171613996823 M 4.399021200570716 -2.449487114638514 L 5.305057354634186 -7.516195498748067 M 5.347429529050516 -7.972259802384764 L 4.416421379518003 -2.4580260961769214 M 4.4337379890148085 -2.4667333040328345 L 5.274515669606616 -7.75844720705566 M 5.327160157873639 -8.357474757501171 L 4.450969402683292 -2.4756079204243497 M 4.4681140021472165 -2.4846491118465335 L 5.27066746374158 -8.25541011266125 M 5.214784332975613 -8.140733757351033 L 4.485170177183942 -2.4938560291497076 M 4.5021363258756635 -2.5032278076192034 L 5.223000252678547 -8.54235411508008 M 5.164656225848072 -8.406522990846497 L 4.51901085475986 -2.512763567056573 M 4.535792178978951 -2.5224624118622563 L 5.11891863548216 -8.368353007807404 M 5.09078159605038 -8.515377834493965 L 4.552478722429146 -2.532323431119698 M 4.56906891790848 -2.5423456986809034 L 5.04838657079886 -8.518150167562506 M 4.996145904205751 -8.37945196530852 L 4.585561207263998 -2.552528273253418 M 4.6019540415380975 -2.5628701984887345 L 4.920369503247046 -7.80597548333966 M 4.882568508696124 -7.755281363808589 L 4.618245881114007 -2.5733705030721152 M 4.634435195860389 -2.5840282008138162 L 4.851282474818733 -7.834984382004037 M 4.81425532138776 -7.777555499642601 L 4.6505204652750525 -2.5948422907417132 M 4.666500178627751 -2.6058117571953083 L 4.775587605392507 -7.588289123356316 M 4.74698374313423 -7.912891925196954 L 4.682372835102075 -2.616935569921124" /></g><g inkscape:label="3-layer" inkscape:groupmode="layer"><path style="stroke-width: 0.061553903616193055; stroke: blue;" fill="none" d="M 8.269402690933996 -7.084056796456375 L 8.269402690933996 -7.084056796456375 M 8.59372135916182 -7.33297837500779 L 8.257556071249097 -7.0879260817253105 M 8.24568557120113 -7.091721473017685 L 8.658630328383461 -7.396701759203233 M 8.235329412809106 -7.096593413694453 L 8.233791651703113 -7.095442822964371 M 8.221874774577403 -7.099089987071146 L 8.560283284149138 -7.355600269659429 M 8.776762745162385 -7.53790015444175 L 8.209935402537768 -7.102662823724313 M 8.197973999171419 -7.1061611941961935 L 8.371150899527281 -7.240858370316678 M 8.598558265007545 -7.4346264326635545 L 8.18599102892101 -7.109584962650512 M 8.173986957066596 -7.112933996147677 L 8.654694323276924 -7.496538433621885 M 8.83103550588868 -7.656986867946781 L 8.161962249707587 -7.116208164649937 M 8.149917373744627 -7.119407341026428 L 8.39153181675968 -7.317194032890688 M 8.426708809645534 -7.362011808157303 L 8.137852796861477 -7.122531401058121 M 8.125768987506861 -7.125580223442632 L 8.027051390503665 -7.042693569535248 M 8.519597633558046 -7.473722789573863 L 8.113666414876262 -7.128553689798938 M 8.101545548893714 -7.131451684671975 L 8.356984432733139 -7.351412215481161 M 8.399316194627545 -7.40452083587647 L 8.089406860193556 -7.134274095537119 M 8.077250820102154 -7.137020812804553 L 8.268788247506649 -7.306157632003053 M 8.530060022607637 -7.555478809106703 L 8.065077900619599 -7.139691729823528 M 8.052888574401385 -7.142286742886496 L 8.474172707646177 -7.523749774391613 M 8.067944403405502 -7.169800940244852 L 8.040683314740054 -7.144805751233146 M 8.028462595546817 -7.147248657054308 L 8.055184450079446 -7.172057689040294 M 8.08780994596219 -7.216909686487853 L 8.016226891333156 -7.149615365495757 M 8.003976677192398 -7.151905784661891 L 8.09120874092437 -7.234941536507145 M 8.023637525225434 -7.184890615793024 L 7.991712428781267 -7.154119825619305 M 7.979434622301418 -7.156257402400238 L 8.144903244746214 -7.317744210849566 M 8.305023637277134 -7.492203568528436 L 7.967143734480941 -7.158318432005915 M 7.954840242555858 -7.160302834409768 L 8.211627305991591 -7.417236131168283 M 8.3311877850178 -7.555971975943985 L 7.942524624251584 -7.162210532560544 M 7.9301973577643885 -7.164041452385297 L 7.974605513792144 -7.209596446097462 M 7.933310788807776 -7.181845313569522 L 7.917858921742817 -7.165795522792264 M 7.905509795269112 -7.167472675673624 L 7.45800871728963 -6.696820334965938 M 7.358089564558854 -6.599262302878463 L 7.893150457840609 -7.169072845908143 M 7.880781389351122 -7.170595971363707 L 7.532981897150044 -6.795552505924098 M 7.344234278097033 -6.599701708073722 L 7.868403070072303 -7.172041992899727 M 7.856015980635 -7.173410854369441 L 7.244442132834271 -6.497221206267573 M 6.744888181396291 -5.944561684255133 L 7.843620602010591 -7.17470250262209 M 7.831217415492312 -7.175916887504986 L 6.754955856450211 -5.955715028742366 M 6.5729143385397695 -5.7466656017752795 L 7.818806902676567 -7.177053961865456 M 7.806389545444227 -7.1781136815526745 L 6.689758480692467 -5.8798825071621605 M 6.671137509542946 -5.857085342571757 L 7.793965825941924 -7.179096005419378 M 7.781536226563323 -7.180000895323462 L 6.972322831784284 -6.215116792915669 M 6.694747638019521 -5.883464056110663 L 7.7691012299304 -7.180828316129461 M 7.756661318874694 -7.181578235709915 L 6.609951228846853 -5.779139326089214 M 6.931407127630668 -6.175437531820715 L 7.744216976418566 -7.182250624946615 M 7.731768685756441 -7.182845457731735 L 6.806915149529343 -6.022526676709344 M 6.880250828490588 -6.117108327330264 L 7.719316930236044 -7.183362710968844 M 7.7068621933396395 -7.183802364573806 L 6.77494901342611 -5.984255580657842 M 6.6266628114524 -5.791960107678882 L 7.694404958665251 -7.184164401475557 M 7.681945709907888 -7.184448807616767 L 6.954446222369225 -6.223538456338725 M 7.070426284321232 -6.38306449625228 L 7.669484930840762 -7.18465557195439 M 7.657023105296508 -7.184784686460088 L 7.123171111894554 -6.461084757984254 M 7.264281678193342 -6.662540997563602 L 7.64456071714839 -7.1848361461205466 M 7.632098250291518 -7.184809948937667 L 7.056049258874295 -6.383183865185229 M 7.351388965594866 -6.806463514103828 L 7.619636188624059 -7.184706095928645 M 7.607175016028449 -7.184524591125932 L 7.142148254108182 -6.520076673089604 M 7.307845311347435 -6.768888895803738 L 7.594715216352597 -7.184265441577074 M 7.58225727339111 -7.183928657344448 L 7.588913512826629 -7.193696242663048 M 7.244097897396183 -6.699106763590879 L 7.5698016708664975 -7.183514251504858 M 7.5573488924103955 -7.183022240149038 L 7.554599650579327 -7.178877851648867 M 7.616794018488642 -7.292311260347886 L 7.544899421544785 -7.182452642381022 M 7.532453741663217 -7.181805480317403 L 7.4297659116683 -7.022738744043404 M 7.440583697601712 -7.056344304492853 L 7.52001233601205 -7.181080779086477 M 7.507575687671674 -7.180278566827263 L 7.6033904177703695 -7.332838094452857 M 7.646826049195575 -7.424286732121904 L 7.495144279537763 -7.179398874688411 M 7.482718594302523 -7.178441736826999 L 7.755389994675684 -7.624855680492339 M 7.628510494419736 -7.440094498906138 L 7.470299114435947 -7.177407190407195 M 7.4578863221670835 -7.176295275598827 L 7.734099942782883 -7.641442085159358 M 7.713571754192407 -7.633050424435585 L 7.445480699465313 -7.175106035575814 M 7.433082728021632 -7.173839516514491 L 7.5668500529403 -7.405637338990471 M 7.528531657138395 -7.362082587400574 L 7.420692889229952 -7.172495767591821 M 7.408311664168402 -7.17107484098348 L 7.444771925248501 -7.236113799961095 M 7.390717271767746 -7.160123536384909 L 7.39593953358066 -7.169576791861834 M 7.383576977857274 -7.168001678393796 L 7.429040538181272 -7.251524519481962 M 7.0996477892506356 -6.6599360468490865 L 7.371224477017018 -7.166349561738567 M 7.3588825106882485 -7.164620506045262 L 7.026545606116676 -6.535525632265997 M 7.234854462049711 -6.9481502127503 L 7.346551558090287 -7.162814578450419 M 7.334232098014803 -7.160931849075394 L 7.021775297883193 -6.551189612908637 M 7.160306725468089 -6.838682131856423 L 7.321924608807235 -7.158972391023632 M 7.309629568348208 -7.1569362803778365 L 7.3105787987634425 -7.158846951417411 M 7.114324576646456 -6.780589131209086 L 7.297347454034984 -7.15482359619701 M 7.285078742762921 -7.152634420513389 L 6.879057386078118 -6.30914840782649 M 7.162166162905023 -6.916770194537527 L 7.272823910906957 -7.1503688383292525 M 7.260583434303117 -7.148026937613626 L 7.225093104552028 -7.071884043891497 M 7.103341736805395 -6.829351742949412 L 7.248357788230031 -7.1456088092988645 M 7.236147447390484 -7.143114547277123 L 6.834373880238591 -6.252300600219565 M 7.124048909671785 -6.915302243845553 L 7.223952885892981 -7.140544248396707 M 7.211774577233344 -7.137898012458319 L 7.128060783326665 -6.945939662498183 M 7.375206675120255 -7.544764399958874 L 7.199612994276318 -7.135175942211174 M 7.187468609237217 -7.132378143349019 L 7.396229935182946 -7.627835613943819 M 7.084985906512291 -6.911270540207542 L 7.175341893663585 -7.129504724506024 M 7.163233318416894 -7.126555797252565 L 7.148276986058748 -7.0897856002919415 M 7.168696406231166 -7.1674681983994235 L 7.151143353654246 -7.123531476090891 M 7.1390724688101335 -7.120431878450679 L 7.148701968675137 -7.144978168624169 M 7.030345487008171 -6.86623422749499 L 7.1270211325782045 -7.1172571246844765 M 7.114989812893064 -7.114007338063024 L 6.947825892543454 -6.6717611104246375 M 6.896188802367143 -6.553121555777266 L 7.102978976912107 -7.1106826447704705 M 7.0909890909973745 -7.107283173899477 L 6.7277642789966405 -6.108895233497684 M 6.530885400066433 -5.567431401076468 L 7.079020620697454 -7.1038090574462 M 7.067074030729395 -7.100260430305166 L 6.385542609937434 -5.1517040748582845 M 6.297432934112111 -4.886157101148168 L 7.055149784960667 -7.096637430264037 M 7.043248346391154 -7.09294019799826 L 6.2883835280722025 -4.845215720428445 M 6.422837685108982 -5.239050633503982 L 7.031370177135166 -7.0891688770656 M 7.019515738403505 -7.085323613900573 L 6.367738926734949 -5.06132354966394 M 6.617851059965704 -5.844464616470063 L 7.007685490485553 -7.081404557808755 M 6.995879892731401 -7.077411860960987 L 6.499726740707461 -5.468215230555739 M 6.536698572851037 -5.5894925691326485 L 6.984099403534012 -7.073345678387464 M 6.972344480311423 -7.06920616797172 L 6.532911646358213 -5.57822761364851 M 6.477079956472916 -5.385861445688796 L 6.960615579488984 -7.064993490444494 M 6.948913156481635 -7.060707809377488 L 6.51913679214676 -5.53251415848276 M 6.509161049596332 -5.496980670176158 L 6.937237665676225 -7.05634929117702 M 6.925589560413868 -7.051918105077559 L 6.4570848698909415 -5.302654710239979 M 6.5145386899300854 -5.517981194639445 L 6.913969292972338 -7.047414423135155 M 6.90237731454851 -7.042838420220762 L 6.531159617087729 -5.584319918800929 M 6.661821898988365 -6.114434197765982 L 6.8908140752408436 -7.038190274013439 M 6.8792800240319 -7.03347016499346 L 6.815164563826925 -6.767748910282039 M 6.732247041981036 -6.451234096525664 L 6.867775608770913 -7.028678276435305 M 6.856301276156398 -7.023814794400536 L 6.729208793670479 -6.466731716762924 M 6.648218203825724 -6.131489893127782 L 6.844857471718811 -7.018879907730583 M 6.833444639803243 -7.013873808039405 L 6.649019249142342 -6.15633867496411 M 6.6003272768837355 -5.945588771251952 L 6.822063223552173 -7.008796689706051 M 6.810713664888255 -7.003648749867114 L 6.60853987271939 -6.003084464816127 M 6.677241172802049 -6.373857777751027 L 6.799396404497168 -6.998430188409075 M 6.788111881810494 -6.9931412079605435 L 6.667050024549721 -6.353009900936126 M 6.653053860498586 -6.310034480391201 L 6.776860534988663 -6.987782013884387 M 6.76564280090394 -6.9823528142697615 L 6.639717224050384 -6.2678481428757795 M 6.68952523375476 -6.594493822122992 L 6.754459115123456 -6.976853819924025 M 6.743309911892304 -6.9712852443645605 L 6.63358028048698 -6.299826088114305 M 6.616148358822705 -6.226626538443137 L 6.732195624116668 -6.965647303810478 M 6.721116683347023 -6.959940217174223 L 6.520136415079451 -5.625849926925894 M 6.495425999765953 -5.4664790205967355 L 6.710073519761374 -6.954164206053077 M 6.699066562148553 -6.948319494720549 L 6.5150862151219355 -5.614428244247384 M 6.5234443708482255 -5.691091764993866 L 6.688096237891571 -6.942406310117671 M 6.677162972951024 -6.9364248818441885 L 6.5355864284103005 -5.806064940077585 M 6.559497812859588 -6.03258738169028 L 6.666267191848551 -6.930375442149639 M 6.655409317650351 -6.924258225924339 L 6.535023962257142 -5.855212772707297 M 6.567813009334457 -6.195837102668076 L 6.644589771950759 -6.918073470690259 M 6.633808974855874 -6.91182141659181 L 6.612595428462995 -6.699699996197454 M 6.613489713620319 -6.803304801636193 L 6.623067344967247 -6.905502306386507 M 6.612365299365626 -6.899116385435552 L 6.615539706799252 -6.935422512519076 M 6.625693652572787 -7.188261687728405 L 6.6017032535947635 -6.892663901694305 M 6.591081621645282 -6.886145105702653 L 6.614864493003628 -7.203717037559723 M 6.619606908607728 -7.449401017386192 L 6.580500815938597 -6.879560250575287 M 6.569961247310905 -6.872909591991869 L 6.593275263280857 -7.246721288816248 M 6.55069130917363 -6.709871813535334 L 6.559463324997234 -6.8661933881871065 M 6.549007456615541 -6.859411899940728 L 6.542767303659426 -6.734274527041515 M 6.551933258609669 -7.158359590646627 L 6.538594048150907 -6.852565390567353 M 6.528223503939753 -6.845654125906273 L 6.5288496440777495 -6.862404784934232 M 6.5074862346445075 -6.504397347680393 L 6.517896226654148 -6.8386783743111215 M 6.507612617286177 -6.831638406639464 L 6.484683237613042 -5.910974550577859 M 6.477944846961526 -5.783979900818683 L 6.497373075132364 -6.824534496242274 M 6.487177997778176 -6.81736691895332 L 6.476771628472897 -5.98072415570832 M 6.473677380237289 -6.270308398285664 L 6.477027781082575 -6.810135953078461 M 6.466922819162661 -6.802841879384831 L 6.466929027457944 -6.5536025986854485 M 6.460132436622846 -6.272978151195949 L 6.456863504378356 -6.795484981089945 M 6.446850227317178 -6.7880655438507 L 6.452316323379219 -6.350360205668003 M 6.450675281904244 -6.043870922510623 L 6.43688337677907 -6.780583855752281 M 6.426963339761306 -6.773040207296976 L 6.459644776851547 -5.463431529811979 M 6.4534858538615945 -5.598591994571095 L 6.4170905014434645 -6.765434891392901 M 6.407265245172472 -6.75776820334262 L 6.451752013653893 -5.5692331704635 M 6.449202487845583 -5.565867589691649 L 6.397487952447718 -6.75004044083168 M 6.3877590029062405 -6.742251903917059 L 6.4507930916173954 -5.479457809728468 M 6.444229637757694 -5.556611353734747 L 6.3780787743079905 -6.734402895015506 M 6.368447642521158 -6.726493718891808 L 6.451042463795128 -5.403247985032687 M 6.438658986390354 -5.556655392167805 L 6.3588659815075825 -6.718524682646946 M 6.349334163308228 -6.710496095706178 L 6.435273551929712 -5.563717286077048 M 6.45536264818398 -5.280029140978046 L 6.339852558028741 -6.702408269807024 M 6.3304215338250795 -6.69426151898716 L 6.42741221008473 -5.585602556517113 M 6.404314482180192 -5.797972886700556 L 6.321041456889214 -6.686056159572224 M 6.311712691434916 -6.677792510163535 L 6.405124822146382 -5.74420276072016 M 6.388293436248989 -5.862191770103778 L 6.30243559968361 -6.669470891625721 M 6.293210541850312 -6.661091627074264 L 6.430047566847026 -5.446496282259201 M 6.451421122863295 -5.245782885890611 L 6.2840378761296405 -6.652655041862947 M 6.27491795868191 -6.644161463571225 L 6.461795890868128 -5.152713678655517 M 6.464875431144722 -5.12365690489966 L 6.2658511436193045 -6.635611221991509 M 6.256837782992122 -6.627004649116352 L 6.4485922788113 -5.237260907802545 M 6.4205853055622555 -5.42176066518821 L 6.247878226775109 -6.6183420791255685 M 6.238972822853873 -6.609623848373252 L 6.434747199941051 -5.310529177761409 M 6.434806279636117 -5.297787819816774 L 6.230121917011369 -6.600850295374715 M 6.221325852914476 -6.592021760793348 L 6.3649428082778 -5.713473776158881 M 6.3669427307248005 -5.674484687784821 L 6.212584972100658 -6.583138587427392 M 6.203899613964694 -6.574201120196623 L 6.422247047660107 -5.335653644827193 M 6.450764552418549 -5.166965719282787 L 6.1952701157455055 -6.565209706128967 M 6.18669681251306 -6.55616469434702 L 6.35790773345547 -5.651110218218716 M 6.313890367894107 -5.853371069089139 L 6.178180037155362 -6.547066436054494 M 6.169720120365525 -6.53791528452258 L 6.364447055021947 -5.5744529682951605 M 6.340684550803072 -5.668873289260732 L 6.161317390628937 -6.52871159507623 M 6.152972174210495 -6.519455725080363 L 6.393052822571215 -5.4034070839557335 M 6.398735540465498 -5.363942919799558 L 6.14468479514195 -6.510148033925986 M 6.136455575209316 -6.5007888830162415 L 6.4289693437012225 -5.218910997340143 M 6.340968779551976 -5.585402787366707 L 6.128284833940378 -6.491378635752376 M 6.120172888592287 -6.481917657519624 L 6.17827527912072 -6.241169676738389 M 6.095762099543789 -6.538380348011382 L 6.112120054139239 -6.4724063156730285 M 6.104126643260246 -6.462844979523168 L 6.138981217604136 -6.325929501147719 M 6.154394357458147 -6.2304243353998 L 6.0961929663269965 -6.453234020321828 M 6.088319331391801 -6.443573811247575 L 6.127902926951527 -6.295809369654512 M 5.9950633936337185 -6.74504872300288 L 6.0805060441756345 -6.4338647273912715 M 6.072753408056263 -6.424107145741516 L 6.004891976983995 -6.665361892806804 M 6.1392634361153124 -6.1566758876671 L 6.065061724056466 -6.414301445169997 M 6.057431290832348 -6.4044480064167875 L 6.071698860320018 -6.356047588690609 M 5.912513778241076 -6.849996650503598 L 6.049862404661736 -6.394547212075556 M 6.042355359432689 -6.38459944657872 L 5.8740281237243765 -6.930446429414472 M 5.73341375180044 -7.331084256442992 L 6.034910446632071 -6.37460509618251 M 6.027527955334246 -6.364564548951978 L 5.741474171316843 -7.252712186840678 M 5.791711610549031 -7.049058544863837 L 6.020208172189845 -6.354478194745925 M 6.012951381414641 -6.344346425201765 L 5.552296739289603 -7.715789094556828 M 5.637105754278684 -7.409460369370281 L 6.005757864778512 -6.334169633720324 M 5.998627901594498 -6.323948215450553 L 5.619525437729579 -7.407661191780445 M 5.584368808643971 -7.454831102051104 L 5.991561768707957 -6.313682567274195 M 5.984559740485818 -6.30337308779037 L 5.642291199921076 -7.24401313599938 M 5.746739677624217 -6.9154452105541955 L 5.977622088805926 -6.293020177300102 M 5.970749083046483 -6.28262423779077 L 5.832152292964823 -6.6492384932734545 M 5.576128085022974 -7.279010709828457 L 5.963940990075592 -6.272185672920505 M 5.957198074240893 -6.261704888002514 L 5.7462256223681205 -6.799410101786078 M 5.620820652302948 -7.076328824897435 L 5.9505205973593025 -6.251182289989342 M 5.943908818706838 -6.240618287457071 L 5.377689540576765 -7.632471742932941 M 5.2664157330305565 -7.85030428735238 L 5.937362995008563 -6.230013290589456 M 5.93088338042861 -6.219367711162 L 5.289720172952971 -7.740841467825481 M 5.475038685578158 -7.256878293121324 L 5.924470226560315 -6.2086819625259615 M 5.918123782416449 -6.197956459592307 L 5.499803126874422 -7.157048416729825 M 5.458151666722938 -7.209942727990883 L 5.9118442944195495 -6.187191618815602 M 5.905632006392348 -6.176387858177839 L 5.415061182137631 -7.2639388695930025 M 5.461884541711046 -7.1197622057324805 L 5.899487159548306 -6.165545597172205 M 5.893409992482253 -6.154665256786799 L 5.254723534902155 -7.524759843470536 M 5.194595337897443 -7.606072027621893 L 5.887400741161114 -6.143747259488283 M 5.881459638914754 -6.132792029205476 L 5.271466903304786 -7.399855326484385 M 5.172389149559005 -7.559476137232226 L 5.875586916426915 -6.1217999913128995 M 5.869782801726258 -6.1107715726142535 L 5.195233858343892 -7.468376625137141 M 5.118065200320432 -7.577893112020833 L 5.864047520177511 -6.0997072013258515 M 5.858381294472721 -6.088607307059986 L 4.945699812417477 -7.869436356458417 M 5.380619140769025 -6.98478967490561 L 5.852784344622601 -6.077472320808255 M 5.847256887947992 -6.0663026749248194 L 5.510476382536077 -6.7037321436257855 M 5.422815069419034 -6.8362918437316225 L 5.841799139071421 -6.055098803109624 M 5.836411309908773 -6.043861140391552 L 5.415042870315891 -6.817881343861614 M 5.379027399583065 -6.850816895646537 L 5.831093609661059 -6.032590123111534 M 5.825846244806291 -6.021286188905606 L 5.4942828490337225 -6.6126703168695355 M 5.452669179655412 -6.656840590210143 L 5.820669419091469 -6.009949776687916 M 5.815563333524668 -5.998581326633687 L 5.642060821772321 -6.2991994093700585 M 5.63938093199683 -6.279496032187584 L 5.810528186367233 -5.9871812801621145 M 5.805564173126084 -5.97575007991924 L 5.6144336139084325 -6.297579546379902 M 5.4003320847527085 -6.628919417185382 L 5.800671486546116 -5.964288169760753 M 5.795850316602725 -5.952795994734763 L 5.4561621248597 -6.508866650075129 M 5.590446990755912 -6.265190487218152 L 5.791100850494429 -5.941274001064519 M 5.7864232726355915 -5.9297226361310775 L 5.710824438063179 -6.0500804024224415 M 5.887591240762942 -5.7520516268938024 L 5.781817764649275 -5.918142348455939 M 5.777284505360175 -5.906533587683625 L 5.8271429645491235 -5.829309681336283 M 5.90777083611194 -5.688713058506508 L 5.7728236707876865 -5.894896804564227 M 5.768435434139064 -5.883232450935898 L 5.677627658818503 -6.020107278926564 M 5.934601608692276 -5.618017051558829 L 5.764119965802697 -5.871540979707312 M 5.759877433341497 -5.859822844840079 L 6.112194105417103 -5.342877081044327 M 6.211412261625397 -5.188306622936114 L 5.755708001486387 -5.848078501331112 M 5.75161183212991 -5.836308405194969 L 6.154713893592718 -5.260401929357336 M 6.124864024682701 -5.292591821382173 L 5.747589084319936 -5.824513013446138 M 5.743639914253497 -5.812692784081301 L 6.07987514301977 -5.3448391802620066 M 6.118624191138247 -5.28055687385848 L 5.739764475270709 -5.800848176061543 M 5.73596291784883 -5.788979649294536 L 5.978734266840934 -5.459908503387618 M 6.253848348443487 -5.079197968852514 L 5.7322353895964095 -5.777087664616676 M 5.728582035247562 -5.7651726837752 L 6.388914557185657 -4.893069422858908 M 6.528521167022115 -4.705654485520988 L 5.725002996656342 -5.753235169410242 M 5.721498412791242 -5.741275585036883 L 7.037720999719402 -4.047224826427843 M 7.23196010561754 -3.805693641089473 L 5.71806841972979 -5.729294395027146 M 5.714713150653273 -5.717292064591969 L 7.683720844010906 -3.2472327358705075 M 8.014804688374621 -2.852414013074195 L 5.7114327358415595 -5.705269059763136 M 5.708227302668045 -5.693225847375191 L 7.94412171500559 -2.9589806470895246 M 8.201502537397845 -2.666867651937414 L 5.705096975594705 -5.6811628950473025 M 5.70204187616726 -5.669080671165109 L 8.24222321154375 -2.6405437945598824 M 8.397311437977582 -2.4803994213486735 L 5.69906212301046 -5.656979644862537 M 5.696157831823478 -5.644860286003578 L 8.610365877069695 -2.257049725592616 M 8.765172935608106 -2.1063454126334036 L 5.693329115375413 -5.63272306516405 M 5.6905760835009165 -5.620568453613324 L 8.69485722396743 -2.2148337672745013 M 8.815087687962212 -2.107547346038341 L 5.687898843095927 -5.608396923296025 M 5.685297498113517 -5.596208946813709 L 8.50715773470843 -2.4765176429810096 M 8.365695285522593 -2.654812270660665 L 5.682772149559858 -5.584004997406507 M 5.680322895490299 -5.571785548934757 L 8.416872695170708 -2.621170039221599 M 8.290252520135157 -2.7778695197581422 L 5.677949831005558 -5.5595510758605995 M 5.675653048248032 -5.547302053229559 L 8.518896037353413 -2.557263502402446 M 8.660278541978634 -2.4329237170873332 L 5.673432636398214 -5.5350389566520946 M 5.671288681671239 -5.522762262285136 L 8.496523127020719 -2.6248551682254844 M 8.645038649306812 -2.495920227183619 L 5.669221267313525 -5.510472446813596 M 5.6672304735995525 -5.498169987431853 L 8.773775503975727 -2.390165547556965 M 8.753595597112726 -2.434393051145214 L 5.665316377828736 -5.4858553618252355 M 5.663479054322433 -5.473529048151464 L 8.922636482060613 -2.2931165264839657 M 8.852370907795812 -2.386209266709714 L 5.661718574421053 -5.461191525022089 M 5.660035006481285 -5.4488432714839075 L 8.971473071885274 -2.297016878455533 M 9.06723099307487 -2.2322326200306892 L 5.65842841587345 -5.436484767000361 M 5.656898864978956 -5.424116491432921 L 9.003269931230257 -2.317598099163311 M 8.968221626775886 -2.374620241581313 L 5.6554464131878825 -5.4117389250224495 M 5.6540711168966675 -5.3993525483705636 L 8.891554457626878 -2.46817982600783 M 8.289569516766022 -3.0293704341355316 L 5.652773029505924 -5.386957842420965 M 5.651552201418362 -5.374555288440771 L 7.904329154572117 -3.385443932879233 M 8.206406551515522 -3.1334915344823386 L 5.650408680036832 -5.362145368001823 M 5.64934250976249 -5.349728562961993 L 8.573903548926602 -2.831618637206653 M 8.32190874973217 -3.064172908644157 L 5.648353731993064 -5.337305355446473 M 5.647442385121256 -5.324876227829046 L 8.465760563478776 -2.9587597497195395 M 8.301887450097121 -3.111266046789489 L 5.646608504533242 -5.312441662713373 M 5.645852122607308 -5.300002142914234 L 8.318618309591846 -3.112285845887339 M 8.409699613594487 -3.053356409077476 L 5.645173268712584 -5.287558151438802 M 5.644571969207911 -5.275110171467871 L 8.300574319514775 -3.1558370888486196 M 8.19398515792372 -3.2538944605036026 L 5.64404824744081 -5.2626586863371045 M 5.6436021237465805 -5.250204179518267 L 8.05361540882607 -3.375885988199804 M 8.251597857477599 -3.235126005856974 L 5.643233615447512 -5.23774713460045" /></g></svg>