<svg xmlns="http://www.w3.org/2000/svg" xmlns:inkscape="http://www.inkscape.org/namespaces/inkscape" width="11in" height="8.5in" viewBox="0.2611072037417834 -7.1584702938208356 7.915678029822315 6.116660295771789"><g inkscape:label="0-layer" inkscape:groupmode="layer"><path style="stroke-width: 0.023747034089466944; stroke: black;" fill="none" d="M 4.039276016224812 -4.091964093805726 L 4.039276016224812 -4.091964093805726 M 4.033318807653187 -4.094300632929083 L 4.035259092344508 -4.095607499801356 M 4.030973429007278 -4.099075104742159 L 4.02782496253243 -4.096698708327541 M 4.0255667577081535 -4.101624254171413 L 4.026426771741646 -4.102349020288697 M 4.021627988865954 -4.105411703869385 L 4.021476566905843 -4.105269537626537 M 4.014271118013869 -4.1058257950605 L 4.01658705572341 -4.1082460265111 M 4.0113150349283515 -4.110835339929343 L 4.009053618050064 -4.108203979650755 M 4.001457180562704 -4.107496782117367 L 4.005824052659799 -4.11316354264805 M 4.0001272710514595 -4.115215144921003 L 3.9961173954201703 -4.109394870170295 M 3.9897184283814378 -4.109603217196754 L 3.9942388567402363 -4.116975332229342 M 3.9881739456481426 -4.118430027132972 L 3.981898890162986 -4.10685873417222 M 3.975898771138624 -4.106842069132383 L 3.981948604085155 -4.119565949257676 M 3.9755797862729243 -4.120370673204442 L 3.9698699354323805 -4.1065123924181295 M 3.9641795770253614 -4.106870264121314 L 3.9690852884014545 -4.120832684172939 M 3.962483699342699 -4.120941431097164 L 3.958326141983754 -4.106750374611911 M 3.952204468705663 -4.105504061399775 L 3.9557943481565654 -4.1206873770980454 M 3.949037248535972 -4.120062047065186 L 3.946452148266554 -4.105807856661555 M 3.9402021450330795 -4.103114553109532 L 3.942233040348364 -4.1190580721879915 M 3.935402928441388 -4.117669231265029 L 3.934138993679973 -4.100630264424222 M 3.9281992974627937 -4.0986680819721535 L 3.9285686188902895 -4.115890488629723 M 3.9217522528739033 -4.113718028540251 L 3.922316914266376 -4.095573955303096 M 3.916580033669872 -4.092014226710836 L 3.914976338374918 -4.111149285891802 M 3.908263679908314 -4.108182973120181 L 3.910531206170267 -4.091621462299296 M 3.9045624248026853 -4.089483717514532 L 3.9016373064895054 -4.104819103176986 M 3.895120398060738 -4.101059008468315 L 3.8989781661132876 -4.085352227683872 M 3.893194047267988 -4.082137672023936 L 3.8887362106006456 -4.096905355661036 M 3.882508000147579 -4.092362156273131 L 3.8872606616326113 -4.079155805441759 M 3.8815346236195993 -4.0753518083682385 L 3.8764589459723324 -4.087434772977421 M 3.8706120731401907 -4.082129921561063 L 3.876500539346008 -4.0699363587808515 M 3.870606499578882 -4.0662249543113065 L 3.8649901747058064 -4.076455668496532 M 3.8596157337872743 -4.07042142409337 L 3.867051399362315 -4.058406419790785 M 3.8645029474692056 -4.04962709530754 L 3.8545108457678454 -4.064037931213683 M 3.849697140875086 -4.057317249548226 L 3.8606322351674938 -4.0431785689931665 M 3.8551858860209194 -4.038657903537286 L 3.845195707387846 -4.050272735463847 M 3.841027015721203 -4.042919017447046 L 3.8528808656265454 -4.0305052538887365 M 3.8516565021175455 -4.0216377091182585 L 3.837210843638592 -4.035271967182389 M 3.8337662028385555 -4.027348666318471 L 3.8501372324658134 -4.013430736341519 M 3.8529507560649443 -4.0021662429540426 L 3.8307112671610546 -4.019167368987978 M 3.828063302654974 -4.010747460162146 L 3.850607250881484 -3.9952970491799893 M 3.8483946447688493 -3.988311632580572 L 3.8258385997444093 -4.002109409933493 M 3.824052407726505 -3.993274723834067 L 3.849092297942509 -3.9796870372774045 M 3.846778610547049 -3.9727801003265264 L 3.8227188718280756 -3.9842658893095524 M 3.821850973041943 -3.975106318482446 L 3.8481256076383628 -3.9641941231102513 M 3.8460378447640085 -3.9570736157789046 L 3.821460470956935 -3.9658202873499513 M 3.8215578497877907 -3.9564328715744215 L 3.8453261947466104 -3.9493349087092553 M 3.847335794584874 -3.940846575650321 L 3.8221522678028417 -3.9469698790358483 M 3.8232515103383182 -3.9374577793272003 L 3.8506128389717773 -3.932284675180473 M 3.8577196614217812 -3.923453143962426 L 3.824861946578455 -3.927923630384169 M 3.826988490270313 -3.9183950024511733 L 3.8598970082403876 -3.9156369903645962 M 3.865960868302955 -3.907736245934806 L 3.8296345645313834 -3.908899899595165 M 3.8328020708966504 -3.8994666789879324 L 3.8702408368544425 -3.9001985836390585 M 3.873293633141466 -3.892744856702578 L 3.83649136273987 -3.8901239681860966 M 3.840701223191433 -3.880900580645879 L 3.881516959721084 -3.885930788941179 M 3.887844042505977 -3.879286836716839 L 3.8454288476623395 -3.8718254297169263 M 3.8506698310705385 -3.862927441365973 L 3.893851049987357 -3.8728387810171614 M 3.896540442916539 -3.865646545633766 L 3.856418159852278 -3.854235465886929 M 3.8626662088271178 -3.845778188859017 L 3.9028332185802115 -3.8594710252806 M 3.910441190705952 -3.85397340801658 L 3.8694047429710094 -3.8375840416188796 M 3.876622924137314 -3.829681111516097 L 3.9157708351430376 -3.847701202398476 M 3.925415159941668 -3.8436437983363074 L 3.8843083227509068 -3.822097052224274 M 3.8924469344855974 -3.814858994381778 L 3.928675531743789 -3.836289580936109 M 3.937178646451924 -3.8319686879953867 L 3.901023201920082 -3.8079934568373286 M 3.9100200411525123 -3.8015262587759158 L 3.9453653722804973 -3.8276719338353025 M 3.9540887521097208 -3.823993376803694 L 3.9194188733386284 -3.795482432999994 M 3.929199661103246 -3.7898861406395348 L 3.962815630177807 -3.820552374163043 M 3.971340005281904 -3.8171102746470704 L 3.9393409497598046 -3.7847605875623205 M 3.949819913257688 -3.7801279427528396 L 3.980032619994771 -3.813979445200239 M 3.9882335047970203 -3.810349115223849 L 3.960612404762163 -3.776009258924307 M 3.9716930117571367 -3.7724243956236556 L 3.9969660652164922 -3.8073708026159263 M 4.008218830528039 -3.8082634984152293 L 3.9830351155464774 -3.769391945083894 M 3.994610955015503 -3.7669291610719475 L 4.018201900559798 -3.807785756081783 M 4.0290024137965 -3.8092984812969375 L 4.006391694500395 -3.765051890973062 M 4.018347495599815 -3.763774511345044 L 4.039450114137205 -3.8108755312222 M 4.049983492272515 -3.813475184825035 L 4.030447592749943 -3.7631098671670378 M 4.042660372371513 -3.7630692149982945 L 4.058616871476133 -3.811408051152192 M 4.070855860977195 -3.8216483773084535 L 4.054953455385286 -3.7636621702523643 M 4.067293782880788 -3.764896658781522 L 4.080089937053826 -3.8230736971283648 M 4.089207100689999 -3.8240617521172466 L 4.079647704712068 -3.766778872954913 M 4.091981070783785 -3.7693132324019842 L 4.098366662522831 -3.824975828172157 M 4.1077074425776186 -3.8270794705791147 L 4.104259324781086 -3.7725023495802543 M 4.116447600087586 -3.7763470003134234 L 4.1171219014589875 -3.832627618506619 M 4.126251149064871 -3.838574202500203 L 4.128510817627259 -3.780846099432217 M 4.140413785358341 -3.785996681636314 L 4.134915976496531 -3.846771297451532 M 4.143517940308215 -3.852275386469536 L 4.152121299140297 -3.7917938876811936 M 4.163598244688714 -3.7982309559788225 L 4.151122659127175 -3.862280036739355 M 4.159060639246646 -3.868711008356587 L 4.174809700327522 -3.8052992196858373 M 4.185721040243366 -3.8129881093372755 L 4.167271841685413 -3.8738145334959135 M 4.175011365609281 -3.880418834041819 L 4.19629803794314 -3.8212851610680585 M 4.206506969612804 -3.8301760304483112 L 4.181408642147259 -3.890111703595528 M 4.188300498599351 -3.89799633085522 L 4.216314717073517 -3.8396445119423395 M 4.2256888700299555 -3.849672563984659 L 4.1936817929541785 -3.9084550124913693 M 4.201949412487638 -3.913536791073427 L 4.234597827305393 -3.860240339649951 M 4.243010896758685 -3.8713262228772782 L 4.205278923742599 -3.926405751248736 M 4.210942073427019 -3.9352916176469668 L 4.250898393579828 -3.8829068701923326 M 4.2582317366631095 -3.8949572578549967 L 4.214387446281938 -3.946738023485171 M 4.221643101841568 -3.9536420682522837 L 4.264983542760182 -3.907450734343091 M 4.271127718119516 -3.920359078066947 L 4.221010359601967 -3.968594231089425 M 4.222923808509561 -3.98032049506951 L 4.2766395473237875 -3.9336525601933823 M 4.281495779042641 -3.9473000124418496 L 4.2255684194036185 -3.991096980842147 M 4.228630359499384 -4.001428525979319 L 4.285674708425063 -3.961268899700025 M 4.289156255863246 -3.9755253972909164 L 4.2270363779265425 -4.014685878979785 M 4.229225969157843 -4.025231409060447 L 4.2919220418682755 -3.990034472708783 M 4.29395545780722 -4.004759971626808 L 4.238279893431917 -4.032387664477884 M 4.235157896984498 -4.045758299054154 L 4.295241732261318 -4.019664707965564 M 4.295767992775711 -4.03471055779795 L 4.236789969660692 -4.056829457367486 M 4.237829571733748 -4.068206072466802 L 4.295523322782788 -4.049858556853465 M 4.2944988134934325 -4.065069001372479 L 4.232088243838141 -4.0814717663363735 M 4.2268420173031656 -4.094069218244433 L 4.2926876105634335 -4.080301552049566 M 4.290084955355891 -4.09551534079409 L 4.227860370825631 -4.1052534244930206 M 4.224179779188197 -4.117216580326127 L 4.286688220634648 -4.110669080026027 M 4.282496940538553 -4.12572117421557 L 4.22033100466018 -4.1290500442481335 M 4.227010052177683 -4.1407629064808935 L 4.277512834701632 -4.1406298333663765 M 4.271739826400066 -4.1553531881344785 L 4.224406961643061 -4.153068975908731 M 4.216652142039083 -4.165025501074074 L 4.265184054623084 -4.169849406267814 M 4.257853879981532 -4.184076810045183 L 4.203312434923353 -4.175838397615169 M 4.192010091026832 -4.186242201491916 L 4.2497598843848685 -4.197993994388109 M 4.240914864434681 -4.211559945314728 L 4.181243716706032 -4.196222508909905 M 4.165453534398888 -4.204180624011076 L 4.231333818500339 -4.224734158401306 M 4.22103392746025 -4.237476756914473 L 4.1538571793085195 -4.212708717182922 M 4.140415818469044 -4.219981200436042 L 4.210034529110126 -4.249748609275655 M 4.198357086257707 -4.261511445518536 L 4.135223440483959 -4.230634864345863 M 4.124896321366653 -4.238881792151676 L 4.1860251485416144 -4.272727972400718 M 4.173064308030062 -4.283361986832031 L 4.112117073770876 -4.245450240692741 M 4.107690145197182 -4.257376621607677 L 4.159502148673356 -4.293378487284217 M 4.145368189702102 -4.302743782849934 L 4.09649758993417 -4.264967096268112 M 4.08444967718817 -4.271770502137185 L 4.130693823080915 -4.311425599623248 M 4.115512245145164 -4.3193931840789155 L 4.0684991093680765 -4.274743271830407 M 4.0526322952868625 -4.276968929876845 L 4.09985838256569 -4.326617403133906 M 4.083768812803609 -4.333070840581645 L 4.040400948565707 -4.282577306048864 M 4.020302256849007 -4.278052870433205 L 4.0672816792341315 -4.3387278895974335 M 4.050436601134693 -4.343564841022435 L 4.010826639561577 -4.286661398820982 M 3.9964433794233725 -4.288464558814282 L 4.033274578748728 -4.347559967143326 M 4.015837893651824 -4.350693600695424 L 3.982280287336189 -4.290216972350317 M 3.965991215187955 -4.287314038179697 L 3.998170004661972 -4.352948208828536 M 3.9803154395499463 -4.35430846178711 L 3.952767591106281 -4.290065783176964 M 3.9389622859943576 -4.291627796632612 L 3.962319682819594 -4.35476129606932 M 3.9442290598408416 -4.354295971843587 L 3.923591501721415 -4.288424923066795 M 3.909562490462279 -4.28894465645489 L 3.9260906176305554 -4.352904124415559 M 3.9079520025880115 -4.350579809553823 L 3.8949759920255085 -4.287268238584925 M 3.8797695225373037 -4.281186735400417 L 3.8898613355024607 -4.347319542498469 M 3.871867084160316 -4.343122330493152 L 3.8645064201511463 -4.270282344522181 M 3.85064954275924 -4.270670170933093 L 3.854017933888546 -4.3379896986982525 M 3.836362656379106 -4.3319257093603385 L 3.8364120904301315 -4.263121902596535 M 3.8226456120958976 -4.253139099126588 L 3.8189499771465507 -4.324936974131112 M 3.801828441977321 -4.317032659447447 L 3.808888873477199 -4.248143126086687 M 3.7947205262805914 -4.245419125403006 L 3.785046282734617 -4.308224484902936 M 3.7686512828871694 -4.298526714560442 L 3.780248190966617 -4.242337389141317 M 3.767036158690427 -4.232748981145696 L 3.7526906431336324 -4.287956141174579 M 3.737210847496718 -4.27653206331258 L 3.753831065452732 -4.223724601408981 M 3.739837053982207 -4.216942257483551 L 3.722257530262538 -4.264276255381798 M 3.7078753441409376 -4.251212930591934 L 3.724867462292837 -4.211717138732615 M 3.7151581357717034 -4.194555676793961 L 3.694107830021864 -4.237368696899977 M 3.680997288701027 -4.222772506005749 L 3.701825636357905 -4.185329857500036 M 3.6935573493253084 -4.167474524620098 L 3.668584654945266 -4.207455595485802 M 3.6569093742641128 -4.191451424173088 L 3.6865168094592224 -4.148998572216177 M 3.6792931185989763 -4.131879695062921 L 3.6460092827491417 -4.174795600909425 M 3.635920490336652 -4.157525806817064 L 3.670365637285552 -4.1174776060845275 M 3.6717314990932546 -4.0923721849509285 L 3.626677267842254 -4.139681711254704 M 3.6183119381078686 -4.121304881642001 L 3.660743669653798 -4.081043975675069 M 3.6541936274540943 -4.065300808555761 L 3.6108547715926265 -4.102438687354915 M 3.6043338867291337 -4.083128197912101 L 3.6505760005234156 -4.047398899810866 M 3.649795024763959 -4.027973912997453 L 3.5987751553555944 -4.063420075689891 M 3.5942021135223734 -4.043362463420225 L 3.6515957933209644 -4.007654874504227 M 3.6551631658857784 -3.987257094700435 L 3.5906358779587713 -4.023004866742119 M 3.5880950684720943 -4.002398032092764 L 3.6496836449205134 -3.972246477844375 M 3.6449842886792427 -3.9565885238501983 L 3.58659573653656 -3.981593820239262 M 3.5861513003142664 -3.9606450757660827 L 3.6396162384064343 -3.9408867073220026 M 3.639596468506538 -3.923070559739805 L 3.5867724863343144 -3.939605492846697 M 3.5884672780393663 -3.9185294776403143 L 3.637982895580207 -3.905742073882718 M 3.6278656828834595 -3.8899676535648906 L 3.591240871391384 -3.897472007666316 M 3.5950956377101413 -3.8764884885197097 L 3.621832876414445 -3.8724071719335287 M 3.6271893173206666 -3.85288626705438 L 3.6000310938993403 -3.8556346083007247 M 3.606043880195861 -3.834966190140505 L 3.6381247783261057 -3.8333532650492717 M 3.6448033112512985 -3.814551159385473 L 3.6131277455578883 -3.8145390432126765 M 3.6212735407874 -3.7944088126273754 L 3.6514362568170435 -3.7959483566119103 M 3.664690279859705 -3.7781200161875637 L 3.630469219461888 -3.774630828610059 M 3.6406998467292087 -3.755259955372101 L 3.67508729348208 -3.7605351758292143 M 3.6888737895368546 -3.7439444497561714 L 3.6519476159982163 -3.736350440083756 M 3.6641918735363794 -3.717955762362515 L 3.6961308834366764 -3.726227956390005 M 3.7088223748025984 -3.709984734041766 L 3.677409150963926 -3.7001284846912696 M 3.6915732056123582 -3.682920104180865 L 3.7193137507366103 -3.693192108268565 M 3.7374437321767093 -3.679588432460556 L 3.7066550686933786 -3.6663809060907138 M 3.722623101202511 -3.650559819519069 L 3.7519615175567207 -3.6649433430137868 M 3.7644807925032215 -3.6493919286555685 L 3.7394430574600146 -3.635504275671331 M 3.757078156170127 -3.621260069110402 L 3.78677880858423 -3.6397574802317973 M 3.8064751989280414 -3.629417489520783 L 3.7754891588583113 -3.607871222387595 M 3.7946344555250917 -3.595379854445992 L 3.835627278349643 -3.627075729986853 M 3.8554632752090696 -3.6189734293838156 L 3.814470157334253 -3.5838260531803936 M 3.834950196132777 -3.5732477525291415 L 3.87287444306358 -3.609246411394045 M 3.8964862910364424 -3.6061764428137417 L 3.856026430579898 -3.5636806144631965 M 3.877648758643157 -3.5551579162268387 L 3.9245124105249105 -3.609649357599706 M 3.942980832662946 -3.6034270262307695 L 3.8997652362004227 -3.5477104431723294 M 3.9223222014684302 -3.541366387517853 L 3.96374626396239 -3.6007450336226454 M 3.984979041172469 -3.599700503578007 L 3.9452644049607613 -3.53615125334401 M 3.96853514466117 -3.5320877681291885 L 4.004341254344147 -3.596404019221269 M 4.022538271003039 -3.5910802131302555 L 3.99207640608193 -3.529195801108238 M 4.015829006861462 -3.5274922887221463 L 4.043778024381291 -3.592355188757441 M 4.06485844167257 -3.5945025144152503 L 4.03973274554093 -3.526991167408802 M 4.063726554145815 -3.527703313966581 L 4.084846518466545 -3.5946192253446334 M 4.107137809443855 -3.603967442739602 L 4.087748654185749 -3.5296364937033595 M 4.111736715674134 -3.5327953165637607 L 4.12837578141484 -3.6129806510964926 M 4.147337530126028 -3.612591869569046 L 4.1356280187583465 -3.5371812014069732 M 4.159359617541628 -3.5427923485864543 L 4.167701233928665 -3.623106951494378 M 4.187305172500542 -3.633356077406033 L 4.182868505669171 -3.549623720961223 M 4.206091783243458 -3.557667033446414 L 4.206281892402387 -3.637389942410355 M 4.22506611073763 -3.6478332267967835 L 4.228966824627506 -3.5669107511882503 M 4.251431446689543 -3.5773400964257616 L 4.243059828051122 -3.6618707924132194 M 4.259030428706327 -3.6846522430959077 L 4.273424077038658 -3.5889370640784053 M 4.294883921798107 -3.6016804460753638 L 4.276533876775871 -3.692293915201099 M 4.295168155064169 -3.696037597723276 L 4.3157511324614894 -3.615545864418707 M 4.335966971376564 -3.6305058129489183 L 4.309745588286183 -3.7150051672844477 M 4.325450976929277 -3.728413577686351 L 4.355473975402427 -3.6465297077575367 M 4.374216117287893 -3.663583946167936 L 4.33917816680198 -3.7460029954804828 M 4.356307306661626 -3.7553363896421765 L 4.392138964322262 -3.6816319741816046 M 4.409189833814317 -3.7006343622637776 L 4.371157367953296 -3.769751296421985 M 4.381263057239164 -3.7918304654713744 L 4.425317944961165 -3.720548889318959 M 4.440474566675682 -3.7413306346838353 L 4.390724923715346 -3.813411744752781 M 4.403758714749521 -3.8291871126516908 L 4.454613160949529 -3.7629320779424043 M 4.467689521338192 -3.785303206345783 L 4.4178792463060965 -3.8438230745019917 M 4.428791273975783 -3.862377196144987 L 4.479661906165179 -3.8083916295973888 M 4.490491166054243 -3.8321427017428085 L 4.439901433701757 -3.8806677149455613 M 4.448798885707242 -3.9009918742178296 L 4.50014086541147 -3.8564996498829816 M 4.508577397493064 -3.8814037094091978 L 4.4603460940706166 -3.9191091026700766 M 4.460359820870761 -3.945769379830779 L 4.51577009270976 -3.9067942654390486 M 4.521691319834895 -3.932609000113823 L 4.470766087165963 -3.9647125969190293 M 4.47708196059424 -3.986450577114509 L 4.526316579800303 -3.958784045400031 M 4.529624591782209 -3.985254141020777 L 4.475735058708783 -4.01205037546596 M 4.477559658185891 -4.035498629087454 L 4.531597371298312 -4.011952797126675 M 4.532220300057035 -4.038812461300917 L 4.485349033469012 -4.056476786269365 M 4.48771433989488 -4.079779630021516 L 4.53148218732057 -4.065764689479046 M 4.529375322564732 -4.092740320350995 L 4.488868489691283 -4.103489191487824 M 4.476348831328731 -4.130171650271346 L 4.525895519240741 -4.119669652800977 M 4.521042149466794 -4.146482625930117 L 4.467153693056037 -4.1550884731432625 M 4.469027721353006 -4.178066806827497 L 4.514818169500634 -4.1731090011970196 M 4.507230135868183 -4.199478546203093 L 4.469779655608083 -4.201628464647576 M 4.451443552961558 -4.225841540824688 L 4.498288212047663 -4.225521219642255 M 4.488006165633335 -4.251167356928716 L 4.442832617755353 -4.249193504415595 M 4.441544733153047 -4.273055642473584 L 4.476401355928146 -4.276347856011838 M 4.463494711939838 -4.300994362883793 L 4.424896812013807 -4.295370990930339 M 4.419130606836844 -4.319073119373582 L 4.449310700780726 -4.325039456283592 M 4.433877286497027 -4.348416831100412 L 4.4067338930338025 -4.341610909776311 M 4.3988204262605155 -4.3654450848105455 L 4.417225879379381 -4.371061479979724 M 4.399391275832042 -4.392909872637667 L 4.382462905210214 -4.386794319751529 M 4.3673794415117255 -4.408433687709789 L 4.38041158890388 -4.41390013239242 M 4.360328169609947 -4.433972209425919 L 4.350640392664788 -4.429320372486886 M 4.335810602697143 -4.451232392693764 L 4.339185519197722 -4.453068050295274 M 4.317031192537236 -4.471131763220456 L 4.315282293889736 -4.47006274976097 M 4.2906572253476805 -4.485884642548252 L 4.293915692839049 -4.488109778683483 M 4.269892357928373 -4.5039510048841525 L 4.263756187291714 -4.499289814209094 M 4.234121725927462 -4.50942752992688 L 4.24501723832749 -4.518606977608602 M 4.219348967421944 -4.532032004079314 L 4.20806493272672 -4.521506946737505 M 4.175484625007709 -4.526162116570772 L 4.192948624008645 -4.544183300368863 M 4.165879587546073 -4.55502112197453 L 4.145694370769383 -4.531970034954484 M 4.112841681808916 -4.532407801156811 L 4.138207386448028 -4.564508887166853 M 4.109999539782873 -4.572613292742345 L 4.083484821636788 -4.535334638130803 M 4.056258444677299 -4.540002834989009 L 4.081325392759766 -4.579304421828759 M 4.052255946402186 -4.584555843410528 L 4.033042634593971 -4.55078608308329 M 4.003771804587344 -4.550459477951981 L 4.022863681826673 -4.58834470326221 M 3.99322237956148 -4.590651805998963 L 3.973756164493104 -4.546626444955686 M 3.943457097172181 -4.539384142804467 L 3.9634069343554095 -4.591461687975088 M 3.9334931659416665 -4.590762680784596 L 3.9121572500223216 -4.525364096390071 M 3.883954848133984 -4.516279562205072 L 3.903557626234842 -4.588546965141397 M 3.8736774034513113 -4.5848106149411425 L 3.8570504911335908 -4.508452910095771 M 3.83245816999862 -4.51020123448937 L 3.8439299236541986 -4.579553631331714 M 3.8143927502336665 -4.572779966645088 L 3.806041879302992 -4.499490164113284 M 3.780413769407464 -4.489500375144577 L 3.785143381841566 -4.564497538069379 M 3.756259049306448 -4.554718230966551 L 3.755400059624662 -4.486046918329549 M 3.7298506960245312 -4.489900906120154 L 3.727816512060494 -4.543457891768274 M 3.6998918546141093 -4.530736310409736 L 3.704302007209221 -4.480996947846053 M 3.67856639309543 -4.47361623933285 L 3.672560283616729 -4.516577192288816 M 3.645895926043708 -4.501008119765791 L 3.65322686287477 -4.462760229518797 M 3.629148645432431 -4.4465339556151795 L 3.6199716290491057 -4.484060503246585 M 3.5948587620226733 -4.465769521920498 L 3.6082195104101866 -4.4210469428709045 M 3.5876607225539487 -4.39813862122171 L 3.570627021386361 -4.446174054251153 M 3.5473442386612932 -4.425316598347201 L 3.5667003324851048 -4.378393098206058 M 3.548026710772343 -4.354707857361235 L 3.5250761923303013 -4.403243182366746 M 3.5038864240138525 -4.380003265136841 L 3.5313482886040397 -4.32878503580447 M 3.513003481301798 -4.3072797816032535 L 3.4838360594685116 -4.355649627196198 M 3.464983634907011 -4.3302382524958745 L 3.4860440214890054 -4.298993273623604 M 3.4756823924672755 -4.266102187475185 L 3.447384929127529 -4.303828201018604 M 3.4310928019269693 -4.27648147260298 L 3.462445020797329 -4.23880314447507 M 3.445661079249541 -4.216239229651026 L 3.416157039258862 -4.2482628622834335 M 3.4026242055811204 -4.21923980748113 L 3.4305130561760606 -4.191877554881815 M 3.4183576382830423 -4.164814530652021 L 3.390537503822112 -4.18948222740423 M 3.3799366433756424 -4.159062355038434 L 3.4088089625814533 -4.135954452551072 M 3.3914541791859736 -4.113210278379115 L 3.3708577165162845 -4.128054562130411 M 3.363333083606294 -4.096535177587297 L 3.376092283796225 -4.088283982640489 M 3.379333181081264 -4.051914459180614 L 3.3573912674439743 -4.064582299735097 M 3.353056857081019 -4.032275602897406 L 3.375108016786729 -4.020987289293454 M 3.365861938551319 -3.9927191803600235 L 3.3503504214129993 -3.999696138773216 M 3.3492884328228816 -3.9669261331088648 L 3.3677317039086776 -3.9597253327699065 M 3.367213340965034 -3.9282715432231545 L 3.3498832011323483 -3.934048778174156 M 3.352142818089739 -3.9011480215663905 L 3.360285771265884 -3.8988827547108893 M 3.3712637050174976 -3.864896996171127 L 3.3560711125967635 -3.8683083518784787 M 3.361667616848808 -3.8356145817782803 L 3.35839463638555 -3.8361778540056335 M 3.376576442257504 -3.8022294864630948 L 3.3689275435357007 -3.80315162905604 M 3.377841774221361 -3.7710042962049144 L 3.3804286402726507 -3.770824135255775 M 3.401869274238677 -3.7389998925908694 L 3.388396858991821 -3.7392570491063966 M 3.4005750274318265 -3.70799379539768 L 3.432378965755524 -3.7089915214338656 M 3.453800452271428 -3.680531833145319 L 3.414354210960613 -3.6772976631017937 M 3.4297080765276426 -3.6472507801035703 L 3.45128932273983 -3.650121680658377 M 3.485466875956719 -3.6251137944949194 L 3.446606071639109 -3.617934055055229 M 3.465013480655976 -3.5894269602945235 L 3.4903201439842864 -3.595436189190286 M 3.498974182057645 -3.5659115152988137 L 3.484891492274304 -3.5618073173560365 M 3.506197278068666 -3.5351510856522537 L 3.51555414383999 -3.538398164184905 M 3.5406880153536786 -3.514308011500611 L 3.528884081949681 -3.509532154895621 M 3.5529013203572317 -3.485022141825723 L 3.5595511333225565 -3.488111454311247 M 3.582601848299777 -3.4640146301003627 L 3.5781946929816697 -3.4616901917972536 M 3.6047063037766023 -3.4396027857743476 L 3.6056704238424873 -3.4401751971452117 M 3.6420279008643153 -3.4252341765864163 L 3.6323747919985387 -3.4188235532653435 M 3.6611354729809595 -3.399413091719025 L 3.655537372182866 -3.3952740411447646 M 3.688039362805387 -3.3790649163849285 L 3.690920488323286 -3.381428792888958 M 3.7216589651488663 -3.3649246766566936 L 3.7110888789124785 -3.3553209082662807 M 3.7447997802480937 -3.341430088901312 L 3.753277184060517 -3.349951232787367 M 3.7856987553974397 -3.3365552710726982 L 3.7899988160601397 -3.3413372072934813 M 3.8190668126212794 -3.325053224560164 L 3.8188448033735494 -3.3247797802965287 M 3.8526341576544527 -3.3146637964369656 L 3.856134983522344 -3.319449967021013 M 3.8796949301112833 -3.295143808399506 L 3.886983551908603 -3.306242280496907 M 3.9218078288475153 -3.2995460063313224 L 3.915936670302717 -3.289540550974027 M 3.9470803870618774 -3.27551927700637 L 3.9570201512505787 -3.294601458815149 M 3.9925322184517156 -3.29143074267015 L 3.983122466636512 -3.2709018634332496 M 4.021891861347794 -3.2740918359346085 L 4.028254487748353 -3.290051502242603 M 4.064096400177568 -3.290476852496305 L 4.058686495379072 -3.274627250964514 M 4.099333229599699 -3.2905001527838063 L 4.09996661009013 -3.292715321457182 M 4.135773217940473 -3.2967708043168553 L 4.132892348713378 -3.2843589852682777 M 4.1680321219183805 -3.2837496207590853 L 4.171424005699352 -3.30264252937285 M 4.206826674286228 -3.3103250359529293 L 4.204671309323399 -3.2934733596751498 M 4.240902282881357 -3.3069817565439052 L 4.241889082410271 -3.3198081644402375 M 4.27651948620218 -3.331077058484743 L 4.275923881819261 -3.308484369437314 M 4.310895703780297 -3.3329417118849234 L 4.310626779014123 -3.3441121794548687 M 4.344120730761563 -3.3588893331513368 L 4.345139089633177 -3.3452446469424055 M 4.376445087112718 -3.3790996991818023 L 4.3769122261790985 -3.375379708773168 M 4.408913501362252 -3.3935499300935845 L 4.410567046608522 -3.3842166104865266 M 4.438659275208818 -3.4193663989547187 L 4.4400383779686985 -3.4133621187713374 M 4.470202494455621 -3.4347739696907764 L 4.469496549730013 -3.437264613125574 M 4.500938738659294 -3.4529707092059363 L 4.499323533734721 -3.45773883819196 M 4.527321446632899 -3.4822058390202413 L 4.53228602895073 -3.469668547771624 M 4.555117275184365 -3.5059278891947594 L 4.554118670554777 -3.508119956793271 M 4.579640342752961 -3.5354221677521984 L 4.581939855699688 -3.530982310357762 M 4.60802624455476 -3.5568332869614707 L 4.60381450762335 -3.5640495725331993 M 4.6265723174557065 -3.593935539665353 L 4.633102476365161 -3.583940647963759 M 4.655184754429786 -3.6149295570115787 L 4.647848226084232 -3.6250098594714086 M 4.667580174898937 -3.65719890801926 L 4.683101415862074 -3.6379881222888657 M 4.697977919364919 -3.6767167234787252 L 4.685709770696068 -3.6904258207439398 M 4.702182454864866 -3.7246106753329187 L 4.708080009781526 -3.7186539168316437 M 4.726916511199334 -3.7505687035670183 L 4.716947663428297 -3.7596706834413287 M 4.729958977477112 -3.795520390778632 L 4.72171769699464 -3.8023160761604564 M 4.744061666743181 -3.829925946531272 L 4.741174263559646 -3.8320718850842406 M 4.750555803614059 -3.8692350114867287 L 4.754178487992517 -3.8668161181464527 M 4.787242718232144 -3.8894979333023363 L 4.758070414055196 -3.906917594719659 M 4.763689553654857 -3.945025667646693 L 4.80159794011501 -3.924908366580355 M 4.806052933452243 -3.9653807642184207 L 4.767389419881967 -3.983463705529668 M 4.769151033397787 -4.022134865455723 L 4.8039856503428044 -4.007935460101142 M 4.813254290706432 -4.045439736167411 L 4.768960310430921 -4.060941230323414 M 4.766808122787346 -4.099784056773163 L 4.805142487594381 -4.0885016864198205 M 4.799244059393805 -4.129780520470045 L 4.762690345281883 -4.138564026434225 M 4.75660789040951 -4.17718149984895 L 4.784030668114003 -4.172038062789262 M 4.775445151677044 -4.211886138159611 L 4.748566730107392 -4.215536772425169 M 4.738577904491649 -4.253530331759388 L 4.772986506894475 -4.250613014496271 M 4.753074978249556 -4.29016006030959 L 4.726657517486357 -4.291063115666897 M 4.712826719296187 -4.328036770250134 L 4.730700793083056 -4.328327076917567 M 4.714932272295439 -4.36554342941677 L 4.697111675708217 -4.364353907333542 M 4.679543524242857 -4.399918360591833 L 4.716641594760226 -4.404281049839988 M 4.708953019312552 -4.442884395623956 L 4.66015831720818 -4.434635439698995 M 4.638996951746486 -4.46841218182758 L 4.6945267934905965 -4.48070619428628 M 4.6609312289414 -4.513481071223075 L 4.61610508699622 -4.5011575998317745 M 4.591533048526604 -4.532782926453416 L 4.639770342523952 -4.548698558826287 M 4.615560389620157 -4.582630491095521 L 4.565335720236201 -4.563201853897721 M 4.537572423940271 -4.592330768134538 L 4.573003360111961 -4.60813256788477 M 4.538177974817318 -4.63525952959928 L 4.508306786904848 -4.6200889772920375 M 4.477606597618033 -4.646398933522308 L 4.509406239070995 -4.66462000984254 M 4.470622255409108 -4.6872870090859315 L 4.445543650121033 -4.671186447732671 M 4.412193577252656 -4.69438089659253 L 4.439121111279115 -4.713651062366937 M 4.40142249912571 -4.7348205222681345 L 4.37763567319148 -4.715915421243115 M 4.341952705709476 -4.735727117156658 L 4.356583659826722 -4.748610022798586 M 4.318564520887978 -4.766747640429157 L 4.305230718579499 -4.753757214612239 M 4.2675588246066525 -4.769951249277663 L 4.2818842519038425 -4.7853891810897835 M 4.246817093526184 -4.805479728357289 L 4.229028989779999 -4.784259222410382 M 4.189735809066391 -4.796635750215399 L 4.2137165561517005 -4.828362927864742 M 4.171146648991197 -4.838490890668778 L 4.149776274392233 -4.807040201924383 M 4.109249535381625 -4.815436826187773 L 4.124353166942914 -4.840270334711772 M 4.073595248062365 -4.831660180850518 L 4.068256653440789 -4.821794865400342 M 4.026900349798364 -4.826088657610508 L 4.027730706685178 -4.827827028182755 M 3.9831793869022776 -4.823250928277503 L 3.9852847481296614 -4.828297725694565 M 3.943515112409645 -4.8284068535088185 L 3.944584247884267 -4.831383572709667 M 3.9009603220155555 -4.823974784670817 L 3.90169758065463 -4.826406148765297 M 3.8599388952261853 -4.822291092410248 L 3.85796026370633 -4.814344044639127 M 3.816416657703114 -4.806221923117043 L 3.818346130382509 -4.816062574318808 M 3.7770264177726474 -4.807726915154117 L 3.7785717765379734 -4.818443465556852 M 3.737128987006133 -4.808493480191223 L 3.7360866705771736 -4.797295874274517 M 3.695633307005458 -4.784786643608304 L 3.695878613016621 -4.790566316257002 M 3.655573677473761 -4.795066793749136 L 3.6557719738642995 -4.770221827451704 M 3.616607270915523 -4.753629408182212 L 3.614701739123293 -4.786232781965791 M 3.5745698601448375 -4.768672129405791 L 3.578242476741035 -4.735042697916017 M 3.5407792768330038 -4.714500276174995 L 3.5375978982101244 -4.734317881088569 M 3.49946519250512 -4.7148593314509055 L 3.5043174946239395 -4.692045913665367 M 3.4689548261668204 -4.667728482306735 L 3.4599341856747503 -4.70164216541946 M 3.4232701646252472 -4.677508687893847 L 3.4347865791688537 -4.6416018516865085 M 3.4019054170740484 -4.613724772150807 L 3.384472622568487 -4.659932206616705 M 3.348039935773948 -4.635446918631792 L 3.3704011088795207 -4.5841607447785275 M 3.340360285358369 -4.552977878520426 L 3.3101769429254757 -4.613662041847607 M 3.2857461381909214 -4.566732430665746 L 3.3118662023480643 -4.520248734819567 M 3.2849985117476455 -4.4860501600633755 L 3.256923775973288 -4.530597831927787 M 3.2311920974732065 -4.491204089054272 L 3.259833040849597 -4.45046310625059 M 3.236441580613197 -4.413572440288602 L 3.196897960887758 -4.464195765634097 M 3.1704561606967623 -4.4267971452568435 L 3.214891683465357 -4.375466742367986 M 3.195246471192578 -4.336238093891109 L 3.1653372801112414 -4.367460580514656 M 3.149009555601335 -4.322931483616759 L 3.177564453463783 -4.295981855460978 M 3.1618993574982746 -4.254796435464193 L 3.146600847546537 -4.267842334830974 M 3.136790016090958 -4.221636931777674 L 3.1482999693662594 -4.212783049808606 M 3.136809987381093 -4.170045473401467 L 3.1320210676757627 -4.1733591987733885 M 3.128722580269806 -4.125912014008968 L 3.12746788801287 -4.126689783977703 M 3.120306804722176 -4.082824098910276 L 3.1294403739355108 -4.07778062118809 M 3.120527097257797 -4.036033198517692 L 3.1153544200808705 -4.038558305655374 M 3.1126328715137532 -3.9940037865043023 L 3.1083080211225274 -3.9958514105984633 M 3.0876998159794136 -3.9582943254022256 L 3.112158670960903 -3.949273138331462 M 3.1139426387255735 -3.904479888043538 L 3.0995235084290407 -3.9089870735214753 M 3.0981401501279793 -3.864861066173921 L 3.117989851736731 -3.8597382044489867 M 3.124299606418816 -3.815162607279127 L 3.092184167492233 -3.821745701443612 M 3.0860511415087686 -3.778028796722749 L 3.1328653963241835 -3.770867674102349 M 3.143674904645942 -3.7269677458815047 L 3.0996461701063445 -3.731447764208112 M 3.095623043033826 -3.686695653547281 L 3.1567100116907896 -3.683576631930913 M 3.171946817352926 -3.6408073150340576 L 3.108853987262856 -3.6408468086350974 M 3.1344606888551576 -3.596037705551674 L 3.1893556785913515 -3.598771657485602 M 3.208901261873966 -3.5575801088219787 L 3.1431917185786933 -3.5509772045531083 M 3.1635793587533985 -3.507184085090791 L 3.230542610512879 -3.517341416003439 M 3.2542332267764427 -3.478162336807089 L 3.18090103315929 -3.4632265415780368 M 3.198251249269154 -3.419179439631914 L 3.2799211686247274 -3.4401473571850896 M 3.3075491608766274 -3.403398413334873 L 3.226619626580655 -3.3782132781846377 M 3.2500221514525776 -3.3360394557290425 L 3.3370547205786254 -3.36801461921892 M 3.368370296307486 -3.33409200026042 L 3.2727818429343305 -3.2933991274907037 M 3.2985735826819518 -3.251678196942482 L 3.401423421102036 -3.3017232339278864 M 3.436136878682576 -3.270997397906812 L 3.33301276030476 -3.2142254888161244 M 3.382149662813078 -3.186197434482695 L 3.4724288825807896 -3.2419997265393965 M 3.5102132677680227 -3.2148113761946426 L 3.43616105835996 -3.163712092752077 M 3.4761300273869833 -3.1332991575667517 L 3.5493996943358397 -3.1895092002105088 M 3.5898938627498014 -3.1661655340274852 L 3.5181011262471493 -3.1051060945539986 M 3.552740568242017 -3.0706202909143077 L 3.631597740165568 -3.1448479911089353 M 3.674409797265794 -3.125619270217876 L 3.588285008024712 -3.035951442751318 M 3.6291228962278983 -3.0058867644047336 L 3.7182252550469506 -3.1085369745926448 M 3.762936340957229 -3.093653443535144 L 3.68937976108758 -2.999748296937452 M 3.7531355337567573 -3.002583823854726 L 3.808432553760177 -3.0810155968951647 M 3.8546009364737106 -3.070664792902737 L 3.8029465908882183 -2.9889506159963757 M 3.8446157832927623 -2.9620396048749846 L 3.90132635671074 -3.062636699767596 M 3.9484917937259745 -3.056961181430792 L 3.8912019557691537 -2.9421809219402872 M 3.9454787256284263 -2.938282810448219 L 3.995978631453337 -3.0536621978182996 M 4.043666956800324 -3.052757719910228 L 4.00176235675175 -2.9421619843268103 M 4.0579258730224534 -2.950293585222229 L 4.091435862449169 -3.05425965990208 M 4.139163753400187 -3.0581738166964696 L 4.1080502908495 -2.9418810891641605 M 4.158232999245442 -2.931485859309537 L 4.186728656480121 -3.064499836924915 M 4.234008532027681 -3.0732311916598722 L 4.214061850756719 -2.9501464682353196 M 4.268143666693195 -2.969317754538611 L 4.280881586959865 -3.0843551689371713 M 4.327226588416133 -3.097852882168528 L 4.319879096658106 -2.97533487699496 M 4.371652683641767 -2.980233101057877 L 4.3729231771729395 -3.1136992944829904 M 4.417852180018734 -3.1318632589951028 L 4.423514391455788 -2.9933674236917014 M 4.473969135260143 -3.0203518653181964 L 4.461895920279225 -3.152307574956333 M 4.5049385256844 -3.174989059705054 L 4.522273012791094 -3.0534068127291327 M 4.56989517553781 -3.0813929466743275 L 4.546866232772773 -3.1998586362892034 M 4.587567687034163 -3.2268614365946804 L 4.618505996080617 -3.101725787976737 M 4.664996557811062 -3.1296589314701593 L 4.626934238000495 -3.255936919771849 M 4.664860228504182 -3.287019005712165 L 4.702765370143106 -3.180921658055745 M 4.746282702695779 -3.2115511532538177 L 4.701243277335863 -3.3200362232870875 M 4.73598455454753 -3.3549118730222056 L 4.78474432699255 -3.2523767338444753 M 4.830452930415876 -3.277506303496232 L 4.768989048663294 -3.391564203840972 M 4.800165825078271 -3.429906603474702 L 4.873866549347452 -3.3082404840708888 M 4.91035171596196 -3.35028973705315 L 4.8294282749462 -3.469847802098686 M 4.8566943538784475 -3.511292088718441 L 4.939954577522633 -3.400716450511591 M 4.974741559320387 -3.4429487531813536 L 4.881886809800914 -3.554139539795441 M 4.904933399340994 -3.5982862595681397 L 5.008518337606183 -3.4862342446591703 M 5.037890334492131 -3.53397009919536 L 4.925767092144098 -3.6436246314918765 M 4.944326262548295 -3.6900435801904807 L 5.056869080000914 -3.5905584441947727 M 5.081713279727989 -3.6407454078443755 L 4.960554868076169 -3.737428843282901 M 4.974402614235159 -3.785663252420464 L 5.078759087672336 -3.7106664708367156 M 5.11251273743136 -3.7529292671802543 L 4.98582510515115 -3.834627022844108 M 4.994783979594983 -3.8841980507464164 L 5.117189049918566 -3.8137247235822396 M 5.112353007136069 -3.877532338978976 L 5.001247031997718 -3.9342522177005557 M 5.005188318087791 -3.9846637013972903 L 5.10037504020367 -3.941968599928964 M 5.093768584913554 -4.001364307496694 L 5.0065882448216525 -4.035305291912216 M 5.005433644318821 -4.086048712708287 L 5.095931250995452 -4.055969272267135 M 5.09505228768087 -4.110881947450832 L 5.001717831552622 -4.136764945563621 M 4.995440645588908 -4.187324558601537 L 5.084106021427295 -4.167483958635471 M 5.093945522731632 -4.219198401237162 L 4.986608474206852 -4.237598036588804 M 4.975234261778173 -4.28745611265931 L 5.089913978428419 -4.273698402938165 M 5.054713856413786 -4.330314771531079 L 4.961337500324016 -4.336770100613571 M 4.944944203711803 -4.385412226940116 L 5.02845085427369 -4.38385468588896 M 4.989216517026692 -4.435259312759737 L 4.926086864997817 -4.433255961702374 M 4.904804396964784 -4.480176347434645 L 4.9548576121293495 -4.484294766267278 M 4.90678164853663 -4.529466764762357 L 4.881142055947313 -4.526050325192813 M 4.855151349081493 -4.570757056909812 L 4.863190443573915 -4.572243530277367 M 4.827579701654202 -4.614342088923078 L 4.826889925158245 -4.61417824321239 M 4.796421449302961 -4.656198435864443 L 4.792850927933456 -4.655157846832952 M 4.7476570925188755 -4.6910991844310725 L 4.763815461746513 -4.69670534401318 M 4.7291472209946726 -4.735590133427435 L 4.680879239190764 -4.716068680024228 M 4.655752147937821 -4.755686101849136 L 4.692497531744354 -4.7727477179327 M 4.653952557935665 -4.808077042264832 L 4.609830762722036 -4.784821708521733 M 4.566650455738061 -4.813626471524222 L 4.613603621368432 -4.841481355583814 M 4.571546986350665 -4.87286847491036 L 4.51878379881958 -4.837859818084127 M 4.483653491319033 -4.869481555376594 L 4.527883630884057 -4.902151037771645 M 4.482719004928088 -4.929246743367791 L 4.4626224189769905 -4.91277648873388 M 4.4240822439934755 -4.943115980630772 L 4.436162776319559 -4.954078581597935 M 4.3883285649581865 -4.976575049313786 L 4.376437037112997 -4.964638412046101 M 4.312625169918294 -4.967013356447451 L 4.339333665901281 -4.996670353199286 M 4.289298762041359 -5.014304598707459 L 4.2628105785561115 -4.9817336768321 M 4.220181642454392 -5.004633866424763 L 4.238347627069724 -5.029423964519506 M 4.186606819456513 -5.041980862026697 L 4.164406629230795 -5.008245574034976 M 4.109188149260545 -5.009398447991209 L 4.134205368203407 -5.051934079372562 M 4.081274451148978 -5.059248909631052 L 4.059280695669936 -5.017135577889672 M 4.005355780227787 -5.014757656496931 L 4.0279470666285615 -5.063897262735841 M 3.9743576993103313 -5.0658577608165185 L 3.9559147219247066 -5.0197565728523585 M 3.9001122557106567 -5.005215517159395 L 3.9206419810472175 -5.065115816638992 M 3.8669363475998573 -5.061663694889993 L 3.8508065657432944 -5.005532038901774 M 3.8008426489021034 -5.001831649823423 L 3.8133776920994347 -5.0555005560889 M 3.760103016130564 -5.046632482954126 L 3.7501982024841056 -4.991916075805009 M 3.7007179975719784 -4.984612053577785 L 3.707249079323508 -5.035072489095999 M 3.654952048351866 -5.02084050995314 L 3.651692155252242 -4.979317247971836 M 3.601755262619452 -4.94708430475473 L 3.6033471462364375 -5.0039633759348545 M 3.5525683028582002 -4.98447476777778 L 3.5540099360192983 -4.920089673807928 M 3.506831730870316 -4.906380743681231 L 3.502747807583277 -4.962415154170888 M 3.4540159649003614 -4.93783171174882 L 3.4596267806747565 -4.892490409885175 M 3.4149526130107675 -4.86255035890755 L 3.406500753966318 -4.910778227599309 M 3.3603274929486378 -4.881314984475973 L 3.3721558056593164 -4.829360888090632 M 3.3335951224154874 -4.785604413474703 L 3.315618509043974 -4.849508628952954 M 3.272492815040405 -4.81543202280266 L 3.2921283016086087 -4.757077398047149 M 3.2591724366145267 -4.707749380524457 L 3.2310657932770037 -4.7791640779219655 M 3.1914488878381384 -4.740789575175741 L 3.2311048364478747 -4.653241895705784 M 3.1953694398358774 -4.619604206639902 L 3.153749305801486 -4.700398967569191 M 3.118069728338138 -4.658088168202252 L 3.155940911414147 -4.592862602440656 M 3.132080334922841 -4.540776001590705 L 3.084508032440455 -4.613958323499983 M 3.053157024028506 -4.568115572252411 L 3.088935577497774 -4.518710590326674 M 3.0650261022981815 -4.46976933872339 L 3.0241041831591335 -4.520670791035671 M 2.997431422032876 -4.471739326623139 L 3.0393085067606447 -4.424709445849436 M 3.0272260282878394 -4.366610164598092 L 2.9732148564633363 -4.421440716030875 M 2.951524591441096 -4.369898394875544 L 3.002170214517955 -4.323415915126692 M 2.971972763741232 -4.284452400890286 L 2.9324245213900726 -4.317239394755407 M 2.915972145678306 -4.263594030395442 L 2.966679644389485 -4.225695323608944 M 2.9645191527847787 -4.167248958194036 L 2.9022183999078073 -4.209095577326591 M 2.8912075034691123 -4.153879940895851 L 2.9616877947800555 -4.111525864096122 M 2.944174685406763 -4.065384647576199 L 2.8829768238059463 -4.098085317428975 M 2.8775567577938386 -4.041851848390327 L 2.934731045084994 -4.014908755442487 M 2.913234765654746 -3.9695918480507495 L 2.8749706305937615 -3.9853212684052957 M 2.875234612298107 -3.9286365480291945 L 2.9222936185165165 -3.9120083576477227 M 2.939355384945532 -3.853786100886492 L 2.8783576526415073 -3.87194153216304 M 2.8843414340034235 -3.815380575030661 L 2.924412360280869 -3.8056200404795666 M 2.935523871936025 -3.7510176151878665 L 2.893180342883074 -3.7590981726434287 M 2.9048614599803364 -3.7032385936883454 L 2.9381495308214585 -3.6986085394264077 M 2.9674591169308537 -3.643709906317333 L 2.9193645689687866 -3.647945509782293 M 2.9366621839992386 -3.5933616260399406 L 2.9859704059325507 -3.5915127073149855 M 2.997821414318089 -3.5401578266805807 L 2.956719595924086 -3.5396283129049735 M 2.979494937184516 -3.486885240194213 L 2.9976543720638125 -3.4880352489576074 M 3.0268689194766396 -3.437772118531836 L 3.0049392652545044 -3.4352700143014445 M 3.0329966644874036 -3.38491781950272 L 3.05068534667374 -3.3878444542998367 M 3.0552764055476054 -3.3341483041866056 L 3.0636043661631005 -3.3359610642973587 M 3.096692886486278 -3.2885290337088726 L 3.086376217992167 -3.28573270991053 M 3.1298496131514115 -3.2419860484840313 L 3.1321861822393147 -3.2427475484576807 M 3.170001823747042 -3.1987386319026805 L 3.152464325229521 -3.1920289005993374 M 3.1935439623723383 -3.149332068595721 L 3.210051184764937 -3.156620185631628 M 3.252239648857584 -3.1165056745608077 L 3.245350272041498 -3.1130395605119596 M 3.3112565207220412 -3.0869030982197008 L 3.2964668317904655 -3.0785038223827517 M 3.3426268194154254 -3.04271831817682 L 3.354979113491149 -3.050581019897698 M 3.4034916962375728 -3.01839092875661 L 3.3906084204887468 -3.009247534971265 M 3.4402954338204887 -2.978184261017247 L 3.429399384520376 -2.969594776605756 M 3.470713170256182 -2.9314014034704603 L 3.491566929115124 -2.9496154445048917 M 3.5442975408262196 -2.923621952419245 L 3.5350597740957674 -2.914694931301897 M 3.5880048258705495 -2.8892128809782744 L 3.598357774312351 -2.900278344199835 M 3.6536143235475804 -2.879652660831531 L 3.655308120318008 -2.881656339398736 M 3.7144266034234077 -2.867703232802723 L 3.709930399607786 -2.861806229956716 M 3.7671660691240034 -2.8467934875594323 L 3.7800636147249937 -2.8656027166630103 M 3.8373768362666034 -2.854526107537805 L 3.8251786018657965 -2.8346618167312725 M 3.8838228265915924 -2.8254514039864804 L 3.892611588244225 -2.841525817884602 M 3.9585017199497563 -2.851387392531119 L 3.9429514942790003 -2.819195113550072 M 4.002415647826409 -2.815918379997889 L 4.016513339231002 -2.8492969013882545 M 4.074568343946402 -2.8499697172510547 L 4.062064997297671 -2.8156391195815393 M 4.121748299764676 -2.818367660524155 L 4.128877969656408 -2.84150491170797 M 4.192802617091331 -2.8693733779712924 L 4.181313742787705 -2.8241066925250635 M 4.240609330561318 -2.8328512356628055 L 4.246517739345563 -2.8622705352773132 M 4.306550026428386 -2.8920399399755996 L 4.299483271743567 -2.8445886288367084 M 4.357784367979051 -2.8592985378374185 L 4.361358728321973 -2.8958491819699383 M 4.417497998474734 -2.9222377489263507 L 4.415362402121454 -2.876952983086658 M 4.472068525158962 -2.897516387036055 L 4.471999602727095 -2.9188334245933767 M 4.526213120586653 -2.9497014820216894 L 4.527755640846221 -2.920945641164356 M 4.582278787049368 -2.947190192461795 L 4.582304899654515 -2.9469398893361274 M 4.63829727871474 -2.9581791721200346 L 4.635495512816019 -2.9761921492399965 M 4.687266250190138 -3.007886406055645 L 4.6873514325229 -3.007476023961469 M 4.7354637395363985 -3.0498378330985068 L 4.737454679802188 -3.0422007874864256 M 4.785928089277973 -3.0790562104484827 L 4.783718442970168 -3.0860657017587374 M 4.833145408754276 -3.1167851032856473 L 4.832557723525227 -3.11836686469616 M 4.877219125974874 -3.1600404110968765 L 4.869843388890842 -3.1771937163275914 M 4.922029087235268 -3.199423241080807 L 4.91979246987444 -3.203978197227215 M 4.960162878753838 -3.250075489790394 L 4.95630117110787 -3.2570314260751783 M 4.98712737803147 -3.3160281532162785 L 4.9982207352089585 -3.298221723310583 M 5.033861977175865 -3.348300764516107 L 5.020180640632785 -3.3679797775768003 M 5.037495304167729 -3.4383601858424933 L 5.066988380898066 -3.4001911917815084 M 5.097507829821102 -3.453766588957876 L 5.072431546973474 -3.4830459862690724 M 5.094209872210094 -3.5417363070134 L 5.125334568682493 -3.5088958528819068 M 5.150389442100958 -3.5654435138169025 L 5.119142453620709 -3.5952530478517843 M 5.140402956815742 -3.65102876303854 L 5.172600117006489 -3.6232700680434817 M 5.191901288292405 -3.6822323217842454 L 5.166130287606399 -3.70228080086797 M 5.177564720437931 -3.7636559374260186 L 5.208234867111721 -3.7421837456150877 M 5.221550151283042 -3.80297483848648 L 5.183030815668628 -3.827148053526713 M 5.212599376801792 -3.87519786719068 L 5.23180397731545 -3.864453500450634 M 5.23896085360766 -3.9264654131655536 L 5.226042500877187 -3.9328614304134475 M 5.200609431782994 -4.007244143310857 L 5.24299307442367 -3.988854427224201 M 5.24388081429532 -4.05146295533666 L 5.180788583038499 -4.075140440141675 M 5.204849111591649 -4.125854502423897 L 5.241612202551358 -4.114132370375321 M 5.236183377722753 -4.176703407277649 L 5.212532594976095 -4.182952258068823 M 5.2018070501850975 -4.244458742303447 L 5.227598521624884 -4.239016567788293 M 5.21586987296881 -4.300912527011963 L 5.190040205779941 -4.305017378623511 M 5.174530791143873 -4.3650841536945535 L 5.201017720405932 -4.3622325407408375 M 5.183070374962837 -4.422818852515251 L 5.165763189826099 -4.423804593462224 M 5.129761934717351 -4.482726368882518 L 5.162064121875896 -4.482515099374007 M 5.1380431518880485 -4.541166715251037 L 5.111132775747891 -4.53998692570995 M 5.100180544031308 -4.597593856542078 L 5.111059472123112 -4.598621330977987 M 5.081172796705677 -4.654729169858134 L 5.065868004434229 -4.652501785809169 M 5.031073250334053 -4.705913555434774 L 5.0484504173471105 -4.709343437785258 M 5.012967054170205 -4.762320706892189 L 4.980772804806735 -4.754263647645311 M 4.948400486457522 -4.805481210157107 L 4.97480468709659 -4.813521291727271 M 4.934052368171649 -4.862809616973484 L 4.8931264931075376 -4.848058841232105 M 4.86613491177517 -4.899731634865978 L 4.89080601525194 -4.91005457574343 M 4.845168187528822 -4.955129877505215 L 4.835169747941048 -4.950341460228775 M 4.786717321853611 -4.992202601078831 L 4.797247843410345 -4.997914384717651 M 4.74716008132978 -5.038292437279977 L 4.7537369645212895 -5.042300765625241 M 4.702365799504276 -5.0811509047283225 L 4.695025864095058 -5.076154163929495 M 4.640971727436959 -5.111395779751927 L 4.638252576806309 -5.109337027378776 M 4.574104701411794 -5.134663918285509 L 4.585129473456552 -5.143919869002239 M 4.527635849713176 -5.173635652469078 L 4.540742838514025 -5.185815597693594 M 4.470340787103919 -5.202215305574086 L 4.468632214732853 -5.200459238653588 M 4.408264190754631 -5.224313858072527 L 4.408191551965634 -5.224231261353604 M 4.367237926932953 -5.2710245442968615 L 4.3466813045668005 -5.245130080037149 M 4.284036617318526 -5.2628460113022015 L 4.313720011762505 -5.30436890320382 M 4.2546522093675385 -5.330677735123054 L 4.220486344222615 -5.277407476024327 M 4.156189465094299 -5.288768176515313 L 4.196154832448399 -5.358580170433608 M 4.112012932512713 -5.337694029506957 L 4.091307326696442 -5.296889834323578 M 4.026003237886008 -5.301742311226253 L 4.0544838568747785 -5.365650612839025 M 3.9967655738025574 -5.39726666251088 L 3.9604420585772697 -5.303303709764626 M 3.894789783556555 -5.301560453007109 L 3.9278659322772307 -5.401865649877715 M 3.859181922730135 -5.405566087928037 L 3.8292131221989547 -5.296507343276203 M 3.7638790751511935 -5.2881475996291645 L 3.7876037921283636 -5.395336078761176 M 3.7109425726659504 -5.347404093946304 L 3.6989545090556604 -5.276492873935961 M 3.6346057303983095 -5.261563245452451 L 3.6384208506831746 -5.293987754606614 M 3.5742581797241573 -5.292138931604259 L 3.570998059568966 -5.243387193841659 M 3.5082954062244944 -5.2220015506510356 L 3.5091412538187505 -5.273504163114164 M 3.444433135435793 -5.263055713944737 L 3.4466598470455883 -5.197451429308925 M 3.3862512069743556 -5.169790133758609 L 3.3798939000276174 -5.245043242446788 M 3.3203345068826313 -5.189962887812869 L 3.327226645014315 -5.139079045903415 M 3.26974024566573 -5.105387492091248 L 3.259127548006389 -5.162103972871229 M 3.198098033501812 -5.134874474654862 L 3.213942617057483 -5.068792588921057 M 3.1599804968229335 -5.0293790687078035 L 3.146347952817773 -5.0757935159283285 M 3.093280929527989 -5.029370410418559 L 3.1079963667497883 -4.9872390849952595 M 3.058128077214874 -4.942471998558503 L 3.0567016678868875 -4.945978168806561 M 3.002817830730472 -4.911659749168349 L 3.010508482391953 -4.895184144388837 M 2.9652650871963404 -4.845488580204361 L 2.951370767620457 -4.871722049859047 M 2.9110958018991084 -4.812674422779018 L 2.922519706902209 -4.793504817077818 M 2.8823881403390192 -4.739358532821281 L 2.865652346832788 -4.764474492320255 M 2.8337781091601473 -4.698285381066398 L 2.8449798575408245 -4.6831812688126755 M 2.810397702687953 -4.6251101109939725 L 2.7901409594972835 -4.6497300917454405 M 2.7458003993659768 -4.601444876909738 L 2.778737613143371 -4.565287355812973 M 2.7500883553472337 -4.503860161921595 L 2.7075709995268955 -4.546057666975971 M 2.7145443747395714 -4.449940576200366 L 2.7245312782919786 -4.440980188482315 M 2.702140085257153 -4.37680322097074 L 2.7063450276962064 -4.373396409987586 M 2.7084556319959345 -4.292892096970648 L 2.6829806244384553 -4.311488785397235 M 2.6671106990585844 -4.2451997519021845 L 2.7206989961774175 -4.210072972678485 M 2.7084624700971256 -4.1465399839963455 L 2.6545798974993993 -4.178101928709854 M 2.6454294439448907 -4.1103636474526235 L 2.684375794698034 -4.090110999004735 M 2.695393624568464 -4.016664567925338 L 2.639692069973438 -4.042155340902814 M 2.6373919074852132 -3.973649114170999 L 2.686077838771359 -3.954269147768347 M 2.671523546447234 -3.893777914594252 L 2.6385444032971046 -3.9050183104499223 M 2.6431562556828805 -3.8364370723994083 L 2.67871081248355 -3.8262848711925175 M 2.6881586966852944 -3.7595182894814525 L 2.651225373080882 -3.768079900282414 M 2.6627408551353775 -3.700121207973136 L 2.692765272285968 -3.6947370090613547 M 2.729689544659762 -3.6260893665004654 L 2.6776829961809447 -3.632734877966925 M 2.6960233112220604 -3.5660938165273466 L 2.7180978219561798 -3.564396359308585 M 2.723219212885116 -3.5002244292575426 L 2.7177245844026787 -3.5003695101081207 M 2.7427409399028493 -3.4357315841879865 L 2.7564445457443068 -3.4360598429843576 M 2.774143802416099 -3.37258003688768 L 2.7710179351420012 -3.3723473656528515 M 2.8024926761108753 -3.310381449854111 L 2.7906951732596026 -3.3089032923840334 M 2.8507649455904644 -3.252412308299713 L 2.83709395459718 -3.2499952734625333 M 2.874742407013101 -3.1913466942258015 L 2.8803083808665506 -3.192622595358227 M 2.9240393698798597 -3.1370475157919926 L 2.9153506944769916 -3.1345895787225593 M 2.9588237037459177 -3.0798733991887888 L 2.9723064509586306 -3.084431901381293 M 3.055587565528393 -3.047312920849138 L 3.0050587685416015 -3.027342840471465 M 3.053945910758535 -2.977137418141824 L 3.128716105719655 -3.0111328805416107 M 3.176940652944552 -2.966386795722253 L 3.105368100991094 -2.929391108774321 M 3.1592015377653375 -2.8842319933691583 L 3.246490122042626 -2.9350739107294315 M 3.305652079946481 -2.9006794941718783 L 3.21531594481162 -2.841781914865201 M 3.2735748856664943 -2.8021561506563097 L 3.3717129840400313 -2.8734270233460855 M 3.411220137408014 -2.827843824650065 L 3.3338360948456973 -2.7654631009884847 M 3.39595182478608 -2.731803994076521 L 3.488800982140199 -2.814697091376294 M 3.5303818800004847 -2.771008839917187 L 3.459769207711362 -2.7012726087386376 M 3.5251306315366717 -2.673955015304495 L 3.5909285331886074 -2.7458283819585003 M 3.6617576151030877 -2.734438370842353 L 3.5918741288880454 -2.6499293355075184 M 3.6598337782776067 -2.6292655220254866 L 3.721999548005482 -2.7126553930478217 M 3.7862996566462197 -2.697794665484649 L 3.7288401164409444 -2.6120251582850047 M 3.7987205608126313 -2.5982612790950617 L 3.862672403913374 -2.7049703305978006 M 3.9383207035479435 -2.717554256590644 L 3.869299841086584 -2.5880182126232096 M 3.9404004387825173 -2.581331444174477 L 3.9897028705176787 -2.6862684675038895 M 4.058816828244152 -2.692870339913853 L 4.011843033716073 -2.5782275021786627 M 4.083446956249689 -2.5787238667358094 L 4.118493796881553 -2.6782652870897454 M 4.184787696034732 -2.6832116734971616 L 4.15503064418385 -2.5828289010128676 M 4.226412103133036 -2.590541805726849 L 4.25566410510293 -2.7112050891362434 M 4.318623453487874 -2.713669745046886 L 4.297409369219292 -2.6018525968913266 M 4.367840972906839 -2.6167421069440193 L 4.383273087249827 -2.7285577267071104 M 4.446915259160476 -2.743073911862648 L 4.437526402795741 -2.635182009313767 M 4.506286568189076 -2.657134866425272 L 4.511013399048486 -2.7867319518296965 M 4.572095104126664 -2.815693604619646 L 4.573944259248766 -2.682554201080146 M 4.640324603557694 -2.7113845910926715 L 4.632137624103743 -2.8386668062820886 M 4.691190744989978 -2.865777046609701 L 4.70525551791244 -2.7435617869990594 M 4.768568154179761 -2.7790128525993536 L 4.749557018561528 -2.893238773006925 M 4.799026868817874 -2.9597540993502376 L 4.830097338062188 -2.8176563280321076 M 4.8896819996335505 -2.859402415023691 L 4.854197483018272 -2.9898409888655593 M 4.909770248955882 -3.0185441120666936 L 4.947165594522861 -2.9041531838961836 M 5.002396514646652 -2.9518028018613918 L 4.970434297049008 -3.0351214214023803 M 5.024352991185846 -3.072004139028867 L 5.055228487413129 -3.002237782072532 M 5.105520962348866 -3.0553372528510385 L 5.060464077572945 -3.1447029397011512 M 5.095267459244859 -3.212676504180555 L 5.153139484127665 -3.110973246452449 M 5.197956051013935 -3.169011006684182 L 5.127601620393028 -3.279336478304147 M 5.14879199254333 -3.3573916867454363 L 5.239849457767193 -3.229309314637547 M 5.278705622092131 -3.2917208317486493 L 5.174708534665539 -3.4234293688888893 M 5.205778347730442 -3.4802816560481733 L 5.314417893757965 -3.3560924593559927 M 5.3468873455532595 -3.4222657138787684 L 5.230173605133348 -3.54285803879582 M 5.253081220377133 -3.604930516292766 L 5.376023045286555 -3.490077116697341 M 5.401742308089588 -3.5593585977774986 L 5.256418431815755 -3.682025079268141 M 5.289165061332121 -3.7325689082060656 L 5.4239709283285755 -3.6299379120428057 M 5.442643390479159 -3.70163906746373 L 5.316172366795224 -3.7882304686006245 M 5.311624484142435 -3.863848740110035 L 5.457703058373033 -3.7742827638002683 M 5.469102342277869 -3.8476868409042426 L 5.315026400015426 -3.9317946117350306 M 5.30412865160052 -4.004936312482816 L 5.476802843327671 -3.921666735460871 M 5.48077547487723 -3.9960359450241683 L 5.298939784471839 -4.072698801624514 M 5.237701392254104 -4.159045120283104 L 5.481000560412417 -4.070606498179878 M 5.477467907706962 -4.1451894296503555 L 5.235462752485478 -4.2196011848010935 M 5.2446096483567874 -4.27670255232087 L 5.470176858976424 -4.219595259140892 M 5.45913631684072 -4.2936344727137525 L 5.241137678479461 -4.3372847844337565 M 5.228114710492442 -4.3991986376963945 L 5.444364745968018 -4.367118005467263 M 5.42589015033462 -4.43985772429054 L 5.1759927874082345 -4.464157075483765 M 5.162500999583706 -4.522914757621412 L 5.40375002609769 -4.511666909461212 M 5.377991290139909 -4.582360733853685 L 5.12690048125102 -4.581418332217498 M 5.109090539277724 -4.63878377799559 L 5.348670184407681 -4.651756738528028 M 5.315852156226427 -4.719675303476355 L 5.057929149770798 -4.692639780614037 M 5.0305707699162365 -4.747082398396459 L 5.279611714838666 -4.785940112312279 M 5.240032264471693 -4.850378609702142 L 5.013359766687277 -4.803219353283925 M 4.964900665790005 -4.852150574013882 L 5.1972059143027 -4.912822450351669 M 5.151233265748832 -4.973107938380939 L 4.927429616933508 -4.902450296522121 M 4.8540640959632135 -4.938757473661702 L 5.102223177569067 -5.031076455941698 M 5.050292509322298 -5.0865748799562445 L 4.851583737572659 -5.001036928470555 M 4.829867029110643 -5.058012653623047 L 4.9955658437830985 -5.139455985884187 M 4.938175188971532 -5.189578837454322 L 4.785870778603198 -5.1049493882355055 M 4.71386814800252 -5.134310958135205 L 4.878259660507302 -5.236809161331822 M 4.815965145050635 -5.281019705726922 L 4.6721563267026545 -5.180965891977058 M 4.589956006531505 -5.197222970219558 L 4.751443945642146 -5.322090581990173 M 4.684854409802723 -5.359909588280029 L 4.527169924530104 -5.224773309470279 M 4.479249924593033 -5.264345353301306 L 4.61636054130003 -5.39437251443259 M 4.5461315965328 -5.425383427208794 L 4.417493013722963 -5.290462527622859 M 4.362020258328661 -5.322500268539835 L 4.474341666525115 -5.452854935142886 M 4.401169245562669 -5.476708432265877 L 4.28123431995938 -5.322455347351701 M 4.210010312587469 -5.329970858580315 L 4.326796787539035 -5.496874320030216 M 4.251410251114616 -5.513292206815729 L 4.138432095797903 -5.333169158400223 M 4.080276331449632 -5.35615611223232 L 4.175198634821555 -5.525911084452847 M 4.0983535032769725 -5.534689481256356 L 4.003620254978533 -5.343249987812068 M 3.932476410871667 -5.335302087377223 L 4.021068505691878 -5.5395955911218095 M 3.9435388878859916 -5.54060737829675 L 3.86221679205949 -5.323790209910194 M 3.803229233658889 -5.340855472182668 L 3.8659609990382666 -5.537712657500139 M 3.7885317944189376 -5.530909149125576 L 3.727201034603584 -5.2986337074392 M 3.6615157610378164 -5.283393875351044 L 3.7114483353627814 -5.52020450932694 M 3.634907287752705 -5.505616334848715 L 3.6001800615934556 -5.286908921714863 M 3.53226099449993 -5.237558825353553 L 3.5591044202903106 -5.487172142527555 M 3.4842341038330167 -5.464909323456055 L 3.469682952957716 -5.2089456687540645 M 3.408564278465441 -5.1403395400224925 L 3.4104888130783424 -5.43887507186454 M 3.33805863187237 -5.409126288841257 L 3.3499581598981494 -5.138205548900162 M 3.2919808686217085 -5.112807219719503 L 3.2671307634138564 -5.375729461076119 M 3.197889046615348 -5.338760514877151 L 3.2375731533070815 -5.066189139308585 M 3.1789747805857345 -5.052835270331047 L 3.130513479870578 -5.298304645772829 M 3.0651797534609257 -5.25445612407637 L 3.121241756963622 -5.030473123755458 M 3.0715325806878435 -4.979175433452013 L 3.002058791814937 -5.207318076850467 M 2.941316306812615 -5.157002246772352 L 3.030555498115569 -4.909412770157914 M 2.9796744102618375 -4.872847232549626 L 2.8831123633005022 -5.103628728459001 M 2.8276009579556467 -5.047325682871598 L 2.9197124317255385 -4.854982658126446 M 2.883646099577121 -4.787778460452263 L 2.7749296126046037 -4.9882290304753845 M 2.725238983069871 -4.926482123887354 L 2.8529615820311043 -4.716893116942076 M 2.8220147540312293 -4.651632941548791 L 2.678662484578501 -4.862235400797904 M 2.635325934728291 -4.7956460180052956 L 2.7910076951316056 -4.589995588928523 M 2.778422194562697 -4.508780483602743 L 2.595347214963976 -4.726877467451453 M 2.5588359514712646 -4.65609917519629 L 2.7472348153210144 -4.453322660886855 M 2.708110640929875 -4.406159297625766 L 2.5258932163487122 -4.583486084312918 M 2.496611249868002 -4.509218222730083 L 2.6644405087636116 -4.361587448393664 M 2.647913163228586 -4.2930562783012185 L 2.4710732045809722 -4.43348025708848 M 2.449352911977895 -4.356461033716177 L 2.62488702348722 -4.230939587981152 M 2.6325905430030474 -4.149345665979232 L 2.4315146723455445 -4.278353107863858 M 2.417613068415754 -4.199352262372897 L 2.6163344117209735 -4.085546203907869 M 2.606231848243977 -4.018866347016803 L 2.407692803335971 -4.119657016979581 M 2.401788563432273 -4.039468129484875 L 2.625344057651446 -3.9397902345807965 M 2.6039023153902514 -3.8800887880183477 L 2.399924906173239 -3.95898809004343 M 2.402116173679573 -3.8784206098453597 L 2.641571208536739 -3.7994025432379877 M 2.6473459636353276 -3.732241976178233 L 2.4083664320600024 -3.797970105482272 M 2.418669436788671 -3.717841180302387 L 2.647274421187492 -3.667185908129393 M 2.649322571837376 -3.6016134985736428 L 2.4330086242732216 -3.6382381040709877 M 2.451357129696299 -3.5593642922591213 L 2.6353976636627263 -3.537661394191196 M 2.665150953767153 -3.468565533575661 L 2.4736778311462224 -3.4814217862882058 M 2.4999234199855844 -3.4046107360581797 L 2.6566905029628756 -3.4019918305539414 M 2.698256912264683 -3.3347890985214406 L 2.5300364973393723 -3.3291288860844963 M 2.5639496965171977 -3.2551710665630846 L 2.7300483326942273 -3.269151897164042 M 2.741012189215202 -3.2017688733481102 L 2.6015858311177453 -3.1829286906725014 M 2.642858068497146 -3.1125892594101794 L 2.793746973133901 -3.1407722045082016 M 2.848077422803531 -3.082739592849675 L 2.687670128217807 -3.044335875242792 M 2.7359165050292074 -2.9783467658318203 L 2.906351904007665 -3.028341148535194 M 2.9676791580827757 -2.97766002744645 L 2.787482715868924 -2.9147948190719832 M 2.8422455703092053 -2.8538471306547377 L 3.0418709703389557 -2.934973831067751 M 3.0868188274592585 -2.882748353117233 L 2.90007346381371 -2.7956645653392997 M 2.9608266931088587 -2.7404013330818895 L 3.153112853948266 -2.84214692631171 M 3.235518835535091 -2.813927669391284 L 3.0243577929167027 -2.6882045811380975 M 3.090511893239447 -2.639214003215521 L 3.317336500473212 -2.790220313065617 M 3.369146459723862 -2.749180391825999 L 3.159127096331932 -2.593561466712347 M 3.2300348724458496 -2.551370659034006 L 3.4432473055080126 -2.726640399192322 M 3.4970417595242296 -2.689302294826846 L 3.30306047337945 -2.5127567539335676 M 3.3780233628191962 -2.477826098772387 L 3.561107768019563 -2.6621288848169207 M 3.6380704986951673 -2.6508185553525654 L 3.4547376624140984 -2.446675923546469 M 3.533012612481543 -2.4193940724700362 L 3.705025221469022 -2.631496468534087 M 3.7837067627967294 -2.6301381971043742 L 3.612653046202916 -2.396058758852341 M 3.6934598761309894 -2.3767383439456733 L 3.853731054599557 -2.62097552590496 M 3.900984596052543 -2.5759264332694065 L 3.7752305917962548 -2.361491140383128 M 3.857759767169022 -2.350365240763125 L 3.962030907801632 -2.5506253518404947 M 4.030444087292893 -2.538923356825699 L 3.9408395767054234 -2.3433983718749163 M 4.024260318681426 -2.3406177749948642 L 4.111903654962158 -2.5604454760068944 M 4.1932853100892284 -2.592366129128795 L 4.107810944496687 -2.342040112617803 M 4.191279592612552 -2.347671401921078 L 4.266324752191903 -2.609930087860536 M 4.339728934135879 -2.6383573080968645 L 4.274454125773269 -2.357506975191363 M 4.357122670148039 -2.37153146737601 L 4.406739804778368 -2.647287339512677 M 4.47123648597395 -2.6402289200840006 L 4.439074155024019 -2.389718830851881 M 4.520098851675243 -2.412032377435307 L 4.537606363655607 -2.637918528660791 M 4.607160761376848 -2.7038492402383456 L 4.599988910032176 -2.4384248475874304 M 4.678538891778433 -2.468838506699573 L 4.673196151020109 -2.6978658134166005 M 4.7376088342348766 -2.746277858780159 L 4.755546298507972 -2.503205268274087 M 4.830812093584887 -2.5414468437468662 L 4.799275685998975 -2.7944708677761567 M 4.859973240312147 -2.8342529074140486 L 4.9041412163617 -2.583474918629433 M 4.975343087427857 -2.6291913545803274 L 4.922608969826154 -2.8599434899295044 M 4.98021092980271 -2.90538524423116 L 5.044232103580727 -2.678488416948836 M 5.11062812123411 -2.7312490272677197 L 5.04764871037262 -2.9179460420330754 M 5.111340372206221 -2.947118185702329 L 5.174356927006425 -2.787347040107136 M 5.235250694260368 -2.8466475436382663 L 5.157534308931799 -3.0178988462124385 M 5.208118019155274 -3.073797477320736 L 5.293148424398947 -2.9090071831931956 M 5.347896371759342 -2.9742745070476344 L 5.243866664958763 -3.1531773532339438 M 5.286633769371865 -3.2154482265762603 L 5.399348450984887 -3.0422903335941998 M 5.4473666257981685 -3.112888139018106 L 5.334862780494056 -3.2680457591688374 M 5.395957960151751 -3.30499778611275 L 5.491821278142875 -3.1858944645322644 M 5.532591556710237 -3.261129342177438 L 5.4468399333632025 -3.357328143343678 M 5.464968449232867 -3.4444825148232736 L 5.569565703915964 -3.33840673814289 M 5.602641360446855 -3.41753501251665 L 5.467089536777342 -3.541823819008983 M 5.519219334209498 -3.5915031837366294 L 5.631725846551219 -3.498317394329537 M 5.65673641930503 -3.5805524707161793 L 5.521237504507983 -3.6817338039628975 M 5.563728253067996 -3.7404550116400745 L 5.677600505145197 -3.664034688977294 M 5.694255907022853 -3.748554870291927 L 5.568915483630667 -3.8238125708285926 M 5.5794493962171865 -3.9018133492520986 L 5.706650985593058 -3.8339007337962867 M 5.714744813922042 -3.9198574297159174 L 5.582292996642989 -3.9822228802205073 M 5.590705310227262 -4.058700434233309 L 5.718507305259758 -4.0062080802127396 M 5.717919313493034 -4.09273432658513 L 5.6159579685219745 -4.128731537198949 M 5.621923283342474 -4.206293114895401 L 5.712972705963638 -4.179216881440807 M 5.703670408405244 -4.265436084445838 L 5.625851772505935 -4.284373626042073 M 5.609456487264574 -4.366532219037292 L 5.6900264218239265 -4.351172460241695 M 5.6720658112180145 -4.436207277112933 L 5.595212840827511 -4.4468841403595425 M 5.574747929876565 -4.52692473135056 L 5.649824666104654 -4.520323104983855 M 5.623350032892386 -4.603304371320388 L 5.55152750149079 -4.605989632311077 M 5.541965831237174 -4.684280059229693 L 5.592699819210818 -4.6849379135163565 M 5.557942670380309 -4.765013526348776 L 5.537256034346023 -4.763702268622708 M 5.5080335956841235 -4.842054899147495 L 5.519157818276057 -4.843324503096372 M 5.47643490291179 -4.919668168929014 L 5.452223405913467 -4.915662146919643 M 5.42714236688347 -4.993251909961893 L 5.429873767138798 -4.99384640519185 M 5.379584224925108 -5.065666163228903 L 5.394751515574082 -5.069776530860975 M 5.332583586835801 -5.137187463281188 L 5.3256858037483905 -5.134939966413931 M 5.268307461702911 -5.201486399084287 L 5.261364293329929 -5.198830737441476 M 5.2146548190418045 -5.268249970431461 L 5.207587279987081 -5.265130581103405 M 5.143672131501859 -5.325704626812151 L 5.168913885181787 -5.338399451069434 M 5.1167160081621885 -5.405754984716546 L 5.0767173263533 -5.383048087165791 M 5.006886235112551 -5.437008373894223 L 5.061960816371595 -5.472050456838317 M 4.96828261205168 -5.511512444295709 L 4.934349890745733 -5.487441164565935 M 4.859286570181947 -5.534210787482947 L 4.877683826077127 -5.548706328880014 M 4.813449352357612 -5.604747780317804 L 4.781881356541966 -5.577190585382804 M 4.702325683101687 -5.616263256975625 L 4.725465529286253 -5.638611683824651 M 4.655603908054349 -5.6884788542632245 L 4.620816860112885 -5.651321175398844 M 4.537557585650527 -5.682266682728885 L 4.571159808565668 -5.721989105583954 M 4.468673788178997 -5.729874359119368 L 4.452755441698414 -5.709012359748536 M 4.36662237672586 -5.731481270229936 L 4.384530044307721 -5.757575367631816 M 4.30712038059858 -5.794749021262441 L 4.279374176044451 -5.7496071790567065 M 4.191229921268597 -5.7633347435738544 L 4.194684903321179 -5.769647290919394 M 4.104594730275781 -5.777134266328935 L 4.102411440233387 -5.772619677621193 M 4.013142748751206 -5.7774288877744056 L 4.010860183132995 -5.772031811810918 M 3.9358818514147957 -5.811274417179526 L 3.923649485611557 -5.777740581387837 M 3.8341583422494363 -5.773544346104046 L 3.842089267831357 -5.799233556292162 M 3.7476595913229866 -5.77570279906684 L 3.7448964885235574 -5.764841200567263 M 3.656090996059067 -5.751643616150723 L 3.662761122965307 -5.78475700136147 M 3.57556285289023 -5.784762529675461 L 3.56796826061869 -5.733975509581375 M 3.4807534249713266 -5.711872206419368 L 3.4887349229375317 -5.792969134064877 M 3.400210537159811 -5.801283499214994 L 3.394669803729651 -5.685380375424019 M 3.309938311625534 -5.654557933912125 L 3.3097230143988643 -5.738453127996563 M 3.2232817822576227 -5.685481275573403 L 3.2267768966872046 -5.619473924288831 M 3.1453999797718546 -5.580208362004909 L 3.1361303342030324 -5.669680270947904 M 3.0526824708647253 -5.623004340992629 L 3.066017901894992 -5.53685205526794 M 2.9888363807802105 -5.489506396907274 L 2.9763361262438495 -5.5499587474309315 M 2.9069316466311697 -5.465698879389966 L 2.9140559780332635 -5.4382831288648195 M 2.8418715783194264 -5.383304079854078 L 2.826209395702229 -5.433127305193387 M 2.764496114129287 -5.346222046852269 L 2.7724718818961067 -5.32470087679977 M 2.706038911820813 -5.2626146307381685 L 2.689194335089191 -5.301880557614517 M 2.6129697595924575 -5.257972467796938 L 2.642747537120307 -5.197195597924929 M 2.582765013168714 -5.128602816962063 L 2.551965167883273 -5.184197857503791 M 2.501492406332612 -5.096824938358454 L 2.5262505404807722 -5.057003722818143 M 2.473354843082455 -4.982573738677038 L 2.4316458933313374 -5.042686877488524 M 2.3759116591163676 -4.968138237681986 L 2.4242197675731623 -4.905495846608374 M 2.378977903943748 -4.825960138109526 L 2.3150054464473206 -4.900803070563437 M 2.279936699404593 -4.8052880756859055 L 2.3377522291609223 -4.744163345621802 M 2.3006557744730376 -4.660308356174886 L 2.231332982433519 -4.726577250543151 M 2.2197125228042167 -4.616142046429817 L 2.26779131733341 -4.5746037083608755 M 2.239251098776742 -4.487263073884893 L 2.201308537809528 -4.516845138138792 M 2.164266080883576 -4.434187348263487 L 2.215116567020769 -4.398504724980395 M 2.1954581480002524 -4.30855098901672 L 2.1201002216298654 -4.3559587483427675 M 2.0929208530060794 -4.266662434489308 L 2.1803350434730384 -4.2176276916611135 M 2.1697950572690723 -4.125963589989817 L 2.09459202566878 -4.163304845570343 M 2.140960217698798 -4.043763787036273 L 2.1638744501826697 -4.033789796971343 M 2.1625978239363186 -3.9413391987694393 L 2.1461327219247104 -3.9475406098938053 M 2.1574177178732046 -3.851586778567892 L 2.1659780345711432 -3.848845866335283 M 2.174016135544844 -3.7565444627751186 L 2.1077095222717754 -3.774150785317574 M 2.1183380460973242 -3.679184042658572 L 2.186701350742794 -3.664669647994244 M 2.204011077532196 -3.5734554821273505 L 2.111277665612418 -3.58831348382734 M 2.1194649555108453 -3.4947339284249703 L 2.2259109199128373 -3.4831348292722666 M 2.2523547517414864 -3.393938763045598 L 2.1575183455687994 -3.3994649728081354 M 2.1743828343628215 -3.306953222413563 L 2.2832848099301604 -3.306095975478046 M 2.318631817442088 -3.219832190760917 L 2.2567020913460474 -3.2172009501167445 M 2.3118303322426 -3.1310435805310366 L 2.358315135832668 -3.135369585346837 M 2.402242947007168 -3.052926215893837 L 2.2851468156471983 -3.0360509734680874 M 2.3247248767851536 -2.9481112490698163 L 2.4503124637916436 -2.972715456525426 M 2.5024101688392775 -2.8949454468585003 L 2.3551527742471507 -2.858316110274492 M 2.420258172336163 -2.7779696230656787 L 2.558412081321422 -2.8198185522260193 M 2.6181840507803376 -2.7475308374938185 L 2.4447917471917617 -2.6853236103318547 M 2.489871396340871 -2.5983910415462055 L 2.6815820774505923 -2.6782715558384105 M 2.7484526582867828 -2.6122226538179403 L 2.563682066632385 -2.5240756899243695 M 2.6290776249660635 -2.4471177220635187 L 2.818633157868713 -2.549558294028951 M 2.891952203289549 -2.490444396600053 L 2.7079000544173044 -2.3786630564333318 M 2.772039469798052 -2.3019290228493356 L 2.9682301020701987 -2.4350382007274796 M 3.0472792820818904 -2.383487847409447 L 2.8667426947191053 -2.247248358332304 M 2.964768456824523 -2.1985787586349095 L 3.1289047524015396 -2.3359319844839903 M 3.2129045839682764 -2.2924993950208328 L 3.056335833458786 -2.1474781824377214 M 3.164447086455563 -2.1153976265220575 L 3.2990704088574443 -2.253308650060019 M 3.3871879369381954 -2.218467786630256 L 3.269004399231909 -2.084532644348906 M 3.3546734798771207 -2.034467754045895 L 3.4770374886340267 -2.1880740119173225 M 3.5683945424624706 -2.1622134343878425 L 3.4674600531359463 -2.0215268452091006 M 3.559278695607261 -1.9829120857316187 L 3.6610302959891734 -2.1409608226069228 M 3.7547122387954897 -2.1243793924187946 L 3.6631218031283446 -1.9650313627465708 M 3.765328984755286 -1.9479454643970975 L 3.849204736024523 -2.112520623088888 M 3.9442696210415735 -2.1054241029330028 L 3.862487499655498 -1.922784473209412 M 3.966797856344956 -1.9156186117307314 L 4.039666795717996 -2.1031174048852956 M 4.135154836825933 -2.1056159923813134 L 4.081269625511592 -1.9431968391240217 M 4.180257182186286 -1.9314178477092803 L 4.230491607012001 -2.1129231558559027 M 4.325434868804141 -2.1250299800783807 L 4.283118994182917 -1.9355084786210592 M 4.388778698175247 -1.9608160628176434 L 4.41974290009425 -2.1419153424692317 M 4.513175109533112 -2.1635459424639967 L 4.496234595905094 -2.021872193096525 M 4.597381969153171 -2.0719623130828015 L 4.605492650270823 -2.189876361911021 M 4.696459030477057 -2.2208491564106185 L 4.6937953628495235 -2.075658910698006 M 4.792285959016529 -2.0549775219812476 L 4.785840719081068 -2.2563949774243386 M 4.873407745179744 -2.2964327249040855 L 4.892263312647247 -2.0679009261289267 M 4.9905588380290835 -2.1038698623928407 L 4.958934289575892 -2.340869730112878 M 5.042199266925183 -2.3896019682311813 L 5.083573467260033 -2.1660251357743006 M 5.181314783197055 -2.1970742163274872 L 5.122986896991891 -2.4425143002664105 M 5.201087263537619 -2.4994807437072533 L 5.268203011597313 -2.2692465648829474 M 5.360307802984154 -2.3182450362224682 L 5.276296859396565 -2.560364771290556 M 5.348419116322512 -2.625019637175229 L 5.442810441775603 -2.391623138967887 M 5.527121398282307 -2.456660536379569 L 5.417264918229392 -2.6932887297468717 M 5.482653096486485 -2.7650059502071995 L 5.61413718121723 -2.515489882435438 M 5.703880938420385 -2.571109063699304 L 5.544410905972454 -2.839996116034998 M 5.6023744806392095 -2.918075388340566 L 5.786743843831386 -2.640102885973967 M 5.836122577843874 -2.7556120947984044 L 5.656389267385857 -2.9990517220722754 M 5.7063104370964375 -3.0827253379743174 L 5.904637830100798 -2.8406110602589996 M 5.954906092991635 -2.9451684906458873 L 5.752003271750594 -3.1688892151364567 M 5.793343526575622 -3.257329602922671 L 6.0382354277711885 -3.0132073086046005 M 6.104393346098175 -3.1007322119031353 L 5.830217766269435 -3.3478265510130734 M 5.862523674388609 -3.4401544562457227 L 6.1724526302733445 -3.1879026719499937 M 6.249348132380892 -3.270641549736805 L 5.890170335061857 -3.534082624898803 M 5.913078486258473 -3.629375849012515 L 6.251524102846911 -3.4064272930453936 M 6.2805212073189685 -3.5200933106486367 L 5.9311807439119795 -3.725794995310755 M 5.944421796272298 -3.8230976052485226 L 6.29569653603799 -3.6394009911456933 M 6.307329492545336 -3.7577801474711854 L 5.952758567934232 -3.921038504679362 M 5.9561603530662826 -4.019370421609752 L 6.336110022569351 -3.867098243050757 M 6.317062138671448 -3.9933560234341727 L 5.954608917441328 -4.117844610484281 M 5.94809856894938 -4.216211481425074 L 6.333181919718344 -4.105268104731874 M 6.29594120100317 -4.230026277385765 L 5.936636196352277 -4.3142212328341545 M 5.920241276120608 -4.41162448575492 L 6.322902847667444 -4.338417787760753 M 6.3449715842998025 -4.450082493366198 L 5.898945847274091 -4.508172918382266 M 5.872794454228046 -4.603619899106543 L 6.323027378690399 -4.567895993033592 M 6.305729983502832 -4.684335242859379 L 5.841844057729947 -4.697721116478025 M 5.806163914051642 -4.790235204482527 L 6.253089492057655 -4.799838235984265 M 6.191577447755715 -4.911551717769023 L 5.765835422683741 -4.880924361528469 M 5.720951942859632 -4.969554961557865 L 6.167577226328382 -5.024381620008367 M 6.162068037547973 -5.1413388002423455 L 5.6716185793163065 -5.055898155711452 M 5.617951937778452 -5.139730462998795 L 6.115595861980925 -5.25248219665213 M 6.038047203791736 -5.354733250408998 L 5.560079850730331 -5.220834348449289 M 5.498141074116423 -5.298998787249327 L 6.004631126884994 -5.468798161429612 M 5.913891627810442 -5.562927706810723 L 5.432284955687484 -5.374019813403172 M 5.362671075781702 -5.4457010514923425 L 5.845129656275665 -5.663550856225777 M 5.774734023661556 -5.763084929085138 L 5.289468861402902 -5.513854230148021 M 5.212857174526737 -5.578299675895581 L 5.697759126027144 -5.859033254948827 M 5.6431170428174475 -5.969523309267117 L 5.1330238756338495 -5.638866786077115 M 5.050165363533273 -5.695394479609334 L 5.545542890841794 -6.053147868401806 M 5.470789804579556 -6.1536469071117335 L 4.964486092602397 -5.747731624387659 M 4.876198068628741 -5.795737440205137 L 5.349505155021287 -6.216013942880977 M 5.238940436974494 -6.284661680139152 L 4.78552032449623 -5.8392818761145175" /></g></svg>